<svg width="56" height="56" viewBox="0 0 56 56" fill="none" xmlns="http://www.w3.org/2000/svg">
<circle cx="28" cy="28" r="28" fill="#F2F5FC"/>
<g clip-path="url(#clip0_929_18351)">
<path d="M28.6814 18.3779V16.9836C28.6814 16.9798 28.6822 16.9759 28.6837 16.9723C28.6851 16.9688 28.6873 16.9655 28.6901 16.9628C28.6928 16.96 28.6961 16.9578 28.6996 16.9564C28.7032 16.9549 28.7071 16.9541 28.711 16.9541H34.469C34.4729 16.9541 34.4768 16.9549 34.4803 16.9564C34.4839 16.9578 34.4872 16.96 34.4899 16.9628C34.4927 16.9655 34.4949 16.9688 34.4963 16.9723C34.4978 16.9759 34.4986 16.9798 34.4986 16.9836V22.7417C34.4986 22.7496 34.4955 22.7571 34.4899 22.7626C34.4844 22.7682 34.4769 22.7713 34.469 22.7713H33.0729C33.0651 22.7713 33.0576 22.7682 33.052 22.7626C33.0465 22.7571 33.0434 22.7496 33.0434 22.7417L33.0452 19.5081C33.0452 19.5022 33.0434 19.4965 33.0401 19.4917C33.0368 19.4868 33.0321 19.4831 33.0266 19.4809C33.0212 19.4787 33.0152 19.4782 33.0095 19.4794C33.0037 19.4807 32.9985 19.4836 32.9944 19.4878L26.807 25.6762C26.8042 25.679 26.8009 25.6813 26.7973 25.6828C26.7936 25.6844 26.7897 25.6852 26.7857 25.6852C26.7818 25.6852 26.7779 25.6844 26.7742 25.6828C26.7706 25.6813 26.7673 25.679 26.7645 25.6762L24.2363 23.1471C24.2336 23.1442 24.2303 23.142 24.2266 23.1404C24.223 23.1389 24.2191 23.1381 24.2151 23.1381C24.2111 23.1381 24.2072 23.1389 24.2036 23.1404C24.1999 23.142 24.1966 23.1442 24.1939 23.1471L18.77 28.57C18.7673 28.5728 18.764 28.5751 18.7603 28.5766C18.7567 28.5782 18.7528 28.579 18.7488 28.579C18.7448 28.579 18.7409 28.5782 18.7373 28.5766C18.7336 28.5751 18.7303 28.5728 18.7276 28.57L17.7414 27.5866C17.7386 27.5838 17.7363 27.5805 17.7348 27.5769C17.7332 27.5732 17.7324 27.5693 17.7324 27.5654C17.7324 27.5614 17.7332 27.5575 17.7348 27.5538C17.7363 27.5502 17.7386 27.5469 17.7414 27.5441L24.1948 21.088C24.1976 21.0851 24.2009 21.0829 24.2045 21.0813C24.2081 21.0798 24.2121 21.079 24.216 21.079C24.22 21.079 24.2239 21.0798 24.2276 21.0813C24.2312 21.0829 24.2345 21.0851 24.2373 21.088L26.7636 23.6189C26.7663 23.6218 26.7696 23.624 26.7733 23.6256C26.7769 23.6271 26.7809 23.6279 26.7848 23.6279C26.7888 23.6279 26.7927 23.6271 26.7964 23.6256C26.8 23.624 26.8033 23.6218 26.8061 23.6189L31.9695 18.4573C31.9737 18.4533 31.9766 18.448 31.9778 18.4423C31.9791 18.4365 31.9786 18.4306 31.9764 18.4251C31.9742 18.4197 31.9705 18.415 31.9656 18.4117C31.9608 18.4084 31.955 18.4066 31.9492 18.4065L28.711 18.4075C28.7031 18.4075 28.6956 18.4044 28.6901 18.3988C28.6845 18.3933 28.6814 18.3858 28.6814 18.3779Z" fill="#1B1B96"/>
<path d="M41.8098 37.3153H43.9658C43.9749 37.3153 43.9836 37.3189 43.99 37.3253C43.9964 37.3317 44 37.3404 44 37.3494V38.7345C44 38.7435 43.9964 38.7522 43.99 38.7586C43.9836 38.765 43.9749 38.7686 43.9658 38.7686H12.0342C12.0297 38.7686 12.0252 38.7678 12.0211 38.766C12.0169 38.7643 12.0132 38.7618 12.01 38.7586C12.0068 38.7555 12.0043 38.7517 12.0026 38.7476C12.0009 38.7434 12 38.739 12 38.7345V37.3494C12 37.345 12.0009 37.3405 12.0026 37.3364C12.0043 37.3322 12.0068 37.3285 12.01 37.3253C12.0132 37.3221 12.0169 37.3196 12.0211 37.3179C12.0252 37.3162 12.0297 37.3153 12.0342 37.3153H14.0997C14.1088 37.3153 14.1175 37.3117 14.1239 37.3053C14.1303 37.2989 14.1339 37.2902 14.1339 37.2811V31.5323C14.1339 31.5232 14.1375 31.5145 14.1439 31.5081C14.1503 31.5017 14.159 31.4981 14.1681 31.4981H19.9187C19.9278 31.4981 19.9365 31.5017 19.9429 31.5081C19.9493 31.5145 19.9529 31.5232 19.9529 31.5323V37.2811C19.9529 37.2902 19.9565 37.2989 19.9629 37.3053C19.9693 37.3117 19.978 37.3153 19.9871 37.3153H21.374C21.383 37.3153 21.3917 37.3117 21.3981 37.3053C21.4045 37.2989 21.4081 37.2902 21.4081 37.2811V28.6218C21.4081 28.6128 21.4117 28.6041 21.4181 28.5977C21.4245 28.5913 21.4332 28.5877 21.4423 28.5877H27.193C27.202 28.5877 27.2107 28.5913 27.2171 28.5977C27.2235 28.6041 27.2271 28.6128 27.2271 28.6218L27.2281 37.2811C27.2281 37.2902 27.2317 37.2989 27.2381 37.3053C27.2445 37.3117 27.2532 37.3153 27.2622 37.3153H28.6482C28.6573 37.3153 28.6659 37.3117 28.6724 37.3053C28.6788 37.2989 28.6824 37.2902 28.6824 37.2811V25.7114C28.6824 25.7023 28.686 25.6937 28.6924 25.6873C28.6988 25.6808 28.7075 25.6772 28.7165 25.6772H34.4672C34.4763 25.6772 34.485 25.6808 34.4914 25.6873C34.4978 25.6937 34.5014 25.7023 34.5014 25.7114V37.2811C34.5014 37.2902 34.505 37.2989 34.5114 37.3053C34.5178 37.3117 34.5265 37.3153 34.5355 37.3153H35.9224C35.9315 37.3153 35.9402 37.3117 35.9466 37.3053C35.953 37.2989 35.9566 37.2902 35.9566 37.2811V22.8047C35.9566 22.8002 35.9575 22.7957 35.9592 22.7916C35.9609 22.7875 35.9634 22.7837 35.9666 22.7805C35.9698 22.7773 35.9735 22.7748 35.9777 22.7731C35.9818 22.7714 35.9863 22.7705 35.9908 22.7705H41.7415C41.7505 22.7705 41.7592 22.7741 41.7656 22.7805C41.772 22.7869 41.7756 22.7956 41.7756 22.8047V37.2811C41.7756 37.2902 41.7792 37.2989 41.7856 37.3053C41.792 37.3117 41.8007 37.3153 41.8098 37.3153ZM40.229 24.3402C40.229 24.3339 40.2265 24.3277 40.222 24.3232C40.2175 24.3187 40.2114 24.3162 40.205 24.3162H37.5235C37.5172 24.3162 37.5111 24.3187 37.5066 24.3232C37.5021 24.3277 37.4995 24.3339 37.4995 24.3402V37.2913C37.4995 37.2976 37.5021 37.3037 37.5066 37.3082C37.5111 37.3127 37.5172 37.3153 37.5235 37.3153H40.205C40.2114 37.3153 40.2175 37.3127 40.222 37.3082C40.2265 37.3037 40.229 37.2976 40.229 37.2913V24.3402ZM32.9557 27.2728C32.9557 27.2606 32.9508 27.2488 32.9422 27.2402C32.9335 27.2315 32.9218 27.2266 32.9095 27.2266H30.2724C30.2601 27.2266 30.2484 27.2315 30.2397 27.2402C30.2311 27.2488 30.2262 27.2606 30.2262 27.2728V37.2691C30.2262 37.2814 30.2311 37.2931 30.2397 37.3018C30.2484 37.3104 30.2601 37.3153 30.2724 37.3153H32.9095C32.9218 37.3153 32.9335 37.3104 32.9422 37.3018C32.9508 37.2931 32.9557 37.2814 32.9557 37.2691V27.2728ZM25.6814 30.1694C25.6814 30.1598 25.6776 30.1507 25.6709 30.1439C25.6641 30.1372 25.655 30.1334 25.6454 30.1334H22.988C22.9784 30.1334 22.9693 30.1372 22.9625 30.1439C22.9558 30.1507 22.952 30.1598 22.952 30.1694V37.2793C22.952 37.2888 22.9558 37.298 22.9625 37.3047C22.9693 37.3115 22.9784 37.3153 22.988 37.3153H25.6454C25.655 37.3153 25.6641 37.3115 25.6709 37.3047C25.6776 37.298 25.6814 37.2888 25.6814 37.2793V30.1694ZM18.3961 33.0891C18.3961 33.0851 18.3953 33.0811 18.3938 33.0774C18.3923 33.0737 18.39 33.0703 18.3872 33.0675C18.3844 33.0647 18.381 33.0624 18.3773 33.0609C18.3736 33.0594 18.3697 33.0586 18.3657 33.0586H15.7248C15.7168 33.0586 15.709 33.0618 15.7033 33.0675C15.6976 33.0732 15.6944 33.081 15.6944 33.0891V37.2848C15.6944 37.2929 15.6976 37.3006 15.7033 37.3064C15.709 37.3121 15.7168 37.3153 15.7248 37.3153H18.3657C18.3697 37.3153 18.3736 37.3145 18.3773 37.313C18.381 37.3114 18.3844 37.3092 18.3872 37.3064C18.39 37.3035 18.3923 37.3002 18.3938 37.2965C18.3953 37.2928 18.3961 37.2888 18.3961 37.2848V33.0891Z" fill="#1B1B96"/>
</g>
<defs>
<clipPath id="clip0_929_18351">
<rect width="32" height="23.2727" fill="white" transform="translate(12 15.5)"/>
</clipPath>
</defs>
</svg>
