<svg width="56" height="56" viewBox="0 0 56 56" fill="none" xmlns="http://www.w3.org/2000/svg">
<circle cx="28" cy="28" r="28" fill="#F2F5FC"/>
<path d="M37.5413 34.7474L38.8076 36.0137C38.8287 36.0348 38.8493 36.0342 38.8695 36.0118C39.0489 35.8099 39.2579 35.6783 39.5217 35.7731C39.6082 35.8037 39.7305 35.8985 39.8888 36.0576C40.9781 37.1513 42.0701 38.2445 43.1646 39.3373C44.0981 40.2688 44.2974 41.7429 43.5078 42.8408C42.6582 44.022 41.1229 44.3432 39.8662 43.5898C39.668 43.4706 39.3686 43.2083 38.9682 42.8027C37.9387 41.7607 36.9233 40.7447 35.9221 39.7547C35.6221 39.4579 35.7253 39.1096 36.0189 38.867C36.0226 38.864 36.0257 38.8602 36.0279 38.8559C36.0301 38.8516 36.0313 38.8469 36.0316 38.8421C36.0318 38.8373 36.031 38.8325 36.0293 38.828C36.0275 38.8235 36.0249 38.8194 36.0214 38.816L34.73 37.5252C34.7123 37.5071 34.6925 37.5046 34.6706 37.5175C34.3708 37.6938 34.1083 37.8372 33.8829 37.9477C32.035 38.8552 30.0668 39.0661 27.9784 38.5806C27.9663 38.578 27.9558 38.581 27.9468 38.5896C27.2857 39.2506 26.5736 39.9626 25.8102 40.7255C25.6919 40.8438 25.5537 40.9029 25.3954 40.9029C24.7645 40.9021 24.0908 40.9019 23.3743 40.9023C23.3705 40.9023 23.3668 40.9038 23.364 40.9066C23.3613 40.9094 23.3596 40.9131 23.3595 40.9171C23.3504 41.3188 23.35 41.7149 23.3582 42.1054C23.3711 42.7382 23.2814 43.2195 22.8169 43.6227C22.4854 43.9104 22.1054 44.0039 21.6551 44.0033C19.5048 43.9973 17.511 43.9964 15.6738 44.0007C15.1672 44.0016 14.7556 43.8205 14.4391 43.4575C14.1578 43.1343 14.0597 42.7589 14.0617 42.3325C14.0673 40.8315 14.0673 39.53 14.0617 38.4277C14.0572 37.4691 14.7119 36.7724 15.6667 36.7724C17.6162 36.7724 19.6241 36.7726 21.6906 36.773C21.9379 36.7735 22.1404 36.8012 22.2983 36.8562C23.0382 37.1149 23.3704 37.7407 23.3582 38.4999C23.3513 38.9378 23.3509 39.3747 23.3569 39.8108C23.3571 39.8266 23.3635 39.8417 23.3749 39.8528C23.3862 39.8639 23.4016 39.8701 23.4175 39.8701H25.1722C25.1937 39.8701 25.2122 39.8624 25.2277 39.8469L26.8314 38.24C26.8334 38.238 26.835 38.2356 26.8358 38.233C26.8367 38.2303 26.8369 38.2275 26.8364 38.2247C26.8359 38.2219 26.8347 38.2193 26.8329 38.2172C26.8311 38.215 26.8288 38.2133 26.8262 38.2122C25.0698 37.4936 23.6779 36.3363 22.6505 34.7403C22.6367 34.7192 22.6174 34.7087 22.5924 34.7087C19.511 34.71 16.5141 34.71 13.6017 34.7087C12.7263 34.7087 12.0032 34.0617 12.0032 33.1753C11.9997 26.5037 11.9991 19.9678 12.0012 13.5676C12.0012 12.7238 12.6715 12 13.5372 12C22.5325 12.0039 32.1706 12.0043 42.4518 12.0013C43.2665 12.0006 43.9981 12.6812 43.9974 13.5147C43.9961 19.9983 43.997 26.4844 44 32.9728C44 33.2385 43.9772 33.4499 43.9316 33.6069C43.7368 34.2765 43.1149 34.7087 42.4124 34.7094C40.8311 34.7098 39.2127 34.7096 37.5574 34.7087C37.5209 34.7087 37.5155 34.7216 37.5413 34.7474ZM37.2439 20.7753H36.2885C36.28 20.7753 36.2717 20.7719 36.2657 20.7658C36.2597 20.7598 36.2563 20.7516 36.2563 20.743L36.2556 19.4909C36.2556 19.4869 36.2545 19.483 36.2523 19.4797C36.2501 19.4764 36.2469 19.4738 36.2433 19.4723C36.2396 19.4708 36.2356 19.4704 36.2317 19.4712C36.2278 19.4719 36.2242 19.4739 36.2214 19.4767L33.6694 22.028C33.6509 22.0465 33.6535 22.0616 33.6772 22.0732C34.0702 22.2702 34.321 22.4 34.4293 22.4628C38.3206 24.7162 39.9204 29.486 38.0645 33.6398C38.0537 33.6634 38.0612 33.6753 38.087 33.6753C39.4736 33.6761 40.8857 33.6776 42.3234 33.6798C42.6769 33.6804 42.9653 33.5308 42.9653 33.1411C42.9644 26.7052 42.9646 20.2007 42.9659 13.6276C42.9659 13.305 42.7917 13.0341 42.4382 13.0341C33.1368 13.0341 23.5186 13.0341 13.5837 13.0341C13.2611 13.0341 13.0366 13.2392 13.036 13.5876C13.03 20.0463 13.0302 26.5727 13.0366 33.1669C13.0373 33.4663 13.2772 33.6778 13.5811 33.6778C16.3933 33.677 19.2119 33.6768 22.037 33.6772C22.0671 33.6772 22.0759 33.6637 22.0635 33.6366C21.919 33.3226 21.7955 33.0035 21.6932 32.6792C21.6898 32.6687 21.6831 32.6596 21.6742 32.6531C21.6653 32.6466 21.6545 32.6431 21.6435 32.6431C19.4136 32.6496 17.0788 32.6498 14.639 32.6438C14.3165 32.6425 14.0656 32.4586 14.0656 32.1109C14.0643 27.3342 14.064 22.5456 14.0649 17.7452C14.0649 17.7366 14.0666 17.728 14.07 17.7201C14.0733 17.7121 14.0782 17.7048 14.0844 17.6987C14.0905 17.6926 14.0979 17.6878 14.1059 17.6844C14.114 17.6811 14.1226 17.6794 14.1314 17.6794L15.0487 17.6788C15.0615 17.6788 15.0738 17.6839 15.0829 17.693C15.092 17.702 15.0971 17.7143 15.0971 17.7272V31.5484C15.0971 31.5655 15.1039 31.5819 15.116 31.594C15.1281 31.6061 15.1445 31.6129 15.1616 31.6129H21.3893C21.4169 31.6129 21.4285 31.5991 21.4242 31.5716C21.0444 29.2755 21.4895 27.1527 22.7595 25.2032C22.775 25.1791 22.7733 25.1565 22.7544 25.1355L22.3454 24.6736C22.3265 24.6521 22.3073 24.6519 22.288 24.6729L17.0575 30.3788C17.0364 30.402 17.0143 30.4029 16.9911 30.3814L16.2982 29.7453C16.2763 29.7251 16.2754 29.704 16.2957 29.6821C18.1436 27.6673 20.0144 25.6262 21.908 23.5589C22.2196 23.2195 22.5589 23.3389 22.824 23.6537C23.0232 23.8894 23.2173 24.1083 23.4066 24.3104C23.4216 24.3267 23.4367 24.3267 23.4517 24.3104C24.9673 22.6073 26.86 21.616 29.1299 21.3365C29.133 21.3362 29.1359 21.3351 29.1385 21.3334C29.141 21.3316 29.1431 21.3292 29.1444 21.3264C29.1458 21.3236 29.1464 21.3206 29.1462 21.3175C29.1461 21.3144 29.1451 21.3114 29.1434 21.3088L27.2101 18.2155C27.2061 18.2092 27.2006 18.204 27.1941 18.2004C27.1875 18.1968 27.1802 18.1949 27.1726 18.1949H25.4373C25.4332 18.1949 25.4292 18.1965 25.4261 18.1994C25.4231 18.2022 25.4214 18.2062 25.4212 18.2104C25.4156 18.6598 25.4158 19.1212 25.4218 19.5947C25.4277 20.0231 25.3354 20.4005 25.0664 20.7243C24.6974 21.1668 24.2549 21.2958 23.6788 21.2939C21.8403 21.2883 19.8555 21.2881 17.7245 21.2933C17.3433 21.2946 16.9801 21.1765 16.6872 20.9301C16.2563 20.5675 16.1202 20.1198 16.1241 19.5431C16.1327 18.1888 16.1333 16.9111 16.126 15.71C16.1215 14.9681 16.535 14.3372 17.2285 14.132C17.3906 14.0839 17.6299 14.0604 17.9465 14.0617C19.905 14.0695 21.8633 14.0699 23.8214 14.063C24.6987 14.0604 25.407 14.7178 25.416 15.6042C25.4203 16.0261 25.4208 16.5193 25.4173 17.084C25.4169 17.1356 25.4427 17.1616 25.4947 17.1621C26.148 17.1651 26.7894 17.1642 27.4191 17.1595C27.6236 17.1582 27.8119 17.2324 27.921 17.4072C28.6873 18.6307 29.4937 19.9207 30.3401 21.2771C30.3462 21.2871 30.3548 21.2954 30.3649 21.3012C30.375 21.3071 30.3864 21.3103 30.3981 21.3107C31.1185 21.3348 31.8333 21.4498 32.5424 21.6558C32.5515 21.6584 32.561 21.6585 32.57 21.6563C32.5791 21.654 32.5874 21.6494 32.594 21.6429L35.486 18.7516C35.5131 18.7245 35.5075 18.7109 35.4692 18.7109H34.2242C34.2027 18.7109 34.1919 18.7002 34.1919 18.6787V17.7401C34.1919 17.7236 34.1985 17.7079 34.2101 17.6963C34.2217 17.6847 34.2374 17.6781 34.2539 17.6781C35.086 17.6794 35.9156 17.6792 36.7427 17.6775C37.0549 17.6775 37.2858 17.8936 37.2865 18.2168C37.2886 19.1148 37.2893 19.9528 37.2884 20.7307C37.288 20.7604 37.2731 20.7753 37.2439 20.7753ZM24.3829 15.614C24.3827 15.5454 24.3691 15.4776 24.3428 15.4143C24.3165 15.3511 24.2779 15.2936 24.2294 15.2452C24.1808 15.1968 24.1232 15.1585 24.0599 15.1324C23.9965 15.1063 23.9286 15.0929 23.8601 15.093L17.6788 15.1038C17.6102 15.1039 17.5424 15.1175 17.4791 15.1439C17.4158 15.1702 17.3584 15.2088 17.31 15.2573C17.2616 15.3058 17.2233 15.3634 17.1972 15.4268C17.171 15.4902 17.1577 15.5581 17.1578 15.6266L17.165 19.7436C17.1651 19.8121 17.1787 19.88 17.205 19.9432C17.2314 20.0065 17.2699 20.064 17.3185 20.1124C17.367 20.1607 17.4246 20.1991 17.488 20.2252C17.5513 20.2513 17.6192 20.2647 17.6878 20.2646L23.8691 20.2538C23.9376 20.2537 24.0055 20.24 24.0687 20.2137C24.132 20.1874 24.1895 20.1488 24.2378 20.1003C24.2862 20.0517 24.3246 19.9941 24.3507 19.9308C24.3768 19.8674 24.3902 19.7995 24.39 19.731L24.3829 15.614ZM37.8038 30.0634C37.8038 28.0106 36.9884 26.042 35.5369 24.5904C34.0854 23.1389 32.1167 22.3235 30.064 22.3235C28.0112 22.3235 26.0426 23.1389 24.591 24.5904C23.1395 26.042 22.3241 28.0106 22.3241 30.0634C22.3241 32.1161 23.1395 34.0848 24.591 35.5363C26.0426 36.9878 28.0112 37.8032 30.064 37.8032C32.1167 37.8032 34.0854 36.9878 35.5369 35.5363C36.9884 34.0848 37.8038 32.1161 37.8038 30.0634ZM36.7897 38.0903L38.089 36.7911C38.0937 36.7864 38.0963 36.78 38.0963 36.7733C38.0963 36.7667 38.0937 36.7603 38.089 36.7556L36.9684 35.6351C36.9533 35.6199 36.9375 35.6064 36.9246 35.5977C36.9116 35.589 36.9026 35.5858 36.8994 35.5886L35.5873 36.9008C35.5844 36.9039 35.5877 36.913 35.5964 36.9259C35.6051 36.9388 35.6185 36.9546 35.6337 36.9698L36.7543 38.0903C36.759 38.095 36.7654 38.0976 36.772 38.0976C36.7787 38.0976 36.785 38.095 36.7897 38.0903ZM39.334 37.0065L37.0052 39.3353C36.9999 39.3408 36.9969 39.3481 36.9969 39.3557C36.9969 39.3633 36.9999 39.3706 37.0052 39.376L40.1043 42.475C40.4219 42.7926 40.851 42.9728 41.297 42.9759C41.743 42.9791 42.1695 42.8049 42.4827 42.4918L42.4905 42.4841C42.8036 42.1709 42.9777 41.7444 42.9746 41.2983C42.9714 40.8523 42.7913 40.4233 42.4737 40.1056L39.3747 37.0065C39.3692 37.0012 39.3619 36.9982 39.3543 36.9982C39.3467 36.9982 39.3394 37.0012 39.334 37.0065ZM22.3186 38.3214C22.3184 38.2529 22.3048 38.185 22.2785 38.1218C22.2521 38.0585 22.2136 38.001 22.1651 37.9526C22.1165 37.9043 22.0589 37.8659 21.9955 37.8398C21.9322 37.8137 21.8643 37.8003 21.7958 37.8004L15.6144 37.8112C15.5459 37.8113 15.4781 37.825 15.4148 37.8513C15.3515 37.8776 15.2941 37.9162 15.2457 37.9647C15.1973 38.0133 15.159 38.0709 15.1329 38.1342C15.1067 38.1976 15.0934 38.2655 15.0935 38.334L15.1007 42.451C15.1008 42.5196 15.1144 42.5874 15.1407 42.6507C15.1671 42.7139 15.2056 42.7714 15.2542 42.8198C15.3027 42.8682 15.3603 42.9065 15.4237 42.9326C15.487 42.9587 15.5549 42.9721 15.6235 42.972L21.8048 42.9612C21.8733 42.9611 21.9411 42.9475 22.0044 42.9211C22.0677 42.8948 22.1251 42.8562 22.1735 42.8077C22.2219 42.7592 22.2602 42.7016 22.2864 42.6382C22.3125 42.5748 22.3259 42.5069 22.3257 42.4384L22.3186 38.3214Z" fill="#1B1B96"/>
<path d="M23.3238 16.1306H18.2237C18.2069 16.1306 18.1934 16.1442 18.1934 16.1609V17.1325C18.1934 17.1492 18.2069 17.1628 18.2237 17.1628H23.3238C23.3406 17.1628 23.3541 17.1492 23.3541 17.1325V16.1609C23.3541 16.1442 23.3406 16.1306 23.3238 16.1306Z" fill="#1B1B96"/>
<path d="M23.3251 18.1948H18.2224C18.2064 18.1948 18.1934 18.2078 18.1934 18.2239V19.198C18.1934 19.214 18.2064 19.227 18.2224 19.227H23.3251C23.3411 19.227 23.3541 19.214 23.3541 19.198V18.2239C23.3541 18.2078 23.3411 18.1948 23.3251 18.1948Z" fill="#1B1B96"/>
<path d="M36.7703 30.0646C36.7703 31.8432 36.0637 33.549 34.806 34.8067C33.5483 36.0644 31.8425 36.771 30.0639 36.771C28.2852 36.771 26.5794 36.0644 25.3217 34.8067C24.064 33.549 23.3574 31.8432 23.3574 30.0646C23.3574 28.2859 24.064 26.5801 25.3217 25.3224C26.5794 24.0647 28.2852 23.3582 30.0639 23.3582C31.8425 23.3582 33.5483 24.0647 34.806 25.3224C36.0637 26.5801 36.7703 28.2859 36.7703 30.0646ZM29.7807 24.4045C28.0931 24.4838 26.5397 25.3238 25.5256 26.6714C25.5225 26.6756 25.5209 26.6807 25.521 26.6858C25.5211 26.691 25.523 26.6959 25.5262 26.6998L26.452 27.7403C26.4666 27.7566 26.4814 27.7571 26.4965 27.7416L29.7968 24.4413C29.8226 24.415 29.8172 24.4028 29.7807 24.4045ZM31.0476 32.6456H25.0353C25.033 32.6457 25.0307 32.6463 25.0287 32.6475C25.0267 32.6487 25.0251 32.6504 25.0239 32.6524C25.0227 32.6544 25.0221 32.6566 25.0221 32.659C25.022 32.6613 25.0226 32.6636 25.0237 32.6656C26.1242 34.737 28.2847 35.935 30.6167 35.7118C34.4924 35.3408 36.82 31.2645 35.2304 27.7177C34.4866 26.0579 33.0074 24.909 31.2366 24.5084C31.2254 24.5058 31.2136 24.5062 31.2025 24.5095C31.1913 24.5127 31.1811 24.5188 31.1728 24.5271C29.7153 25.9833 28.2744 27.4242 26.85 28.8499C26.6874 29.0131 26.4597 29.0898 26.2429 28.9853C26.1518 28.9415 26.049 28.8531 25.9346 28.7202C25.6043 28.3366 25.2839 27.974 24.9734 27.6326C24.971 27.63 24.968 27.6281 24.9647 27.627C24.9614 27.6259 24.9579 27.6256 24.9544 27.6262C24.951 27.6268 24.9477 27.6282 24.945 27.6303C24.9422 27.6324 24.94 27.6352 24.9386 27.6384C24.3459 28.9019 24.2307 30.214 24.5928 31.5748C24.5997 31.6006 24.6167 31.6135 24.6437 31.6135H31.0638C31.0723 31.6135 31.0805 31.6169 31.0866 31.6229C31.0926 31.629 31.096 31.6372 31.096 31.6457V32.5972C31.096 32.6295 31.0799 32.6456 31.0476 32.6456Z" fill="#1B1B96"/>
<path d="M21.2589 38.8384H16.1587C16.142 38.8384 16.1284 38.852 16.1284 38.8687V39.8402C16.1284 39.857 16.142 39.8705 16.1587 39.8705H21.2589C21.2756 39.8705 21.2892 39.857 21.2892 39.8402V38.8687C21.2892 38.852 21.2756 38.8384 21.2589 38.8384Z" fill="#1B1B96"/>
<path d="M21.2602 40.9026H16.1574C16.1414 40.9026 16.1284 40.9156 16.1284 40.9316V41.9057C16.1284 41.9217 16.1414 41.9347 16.1574 41.9347H21.2602C21.2762 41.9347 21.2892 41.9217 21.2892 41.9057V40.9316C21.2892 40.9156 21.2762 40.9026 21.2602 40.9026Z" fill="#1B1B96"/>
</svg>
