<svg width="36" height="36" viewBox="0 0 36 36" fill="none" xmlns="http://www.w3.org/2000/svg">
<rect width="36" height="36" rx="18" fill="#1D1B9D"/>
<g clip-path="url(#clip0_1339_6479)">
<path d="M27.0554 16.2582H24.6901L21.1712 12.7394C21.0672 12.6349 20.9435 12.5522 20.8073 12.4957C20.6711 12.4393 20.5251 12.4104 20.3777 12.4107H11.3675C11.1827 12.4107 11.0009 12.4562 10.838 12.5433C10.6751 12.6304 10.5362 12.7564 10.4337 12.9101L8.05867 16.4722C8.0062 16.5513 7.97831 16.6442 7.97852 16.7391V20.5865C7.97852 20.8842 8.09675 21.1696 8.30719 21.38C8.51764 21.5905 8.80307 21.7087 9.10069 21.7087H10.5916C10.702 22.2523 10.9969 22.741 11.4263 23.092C11.8558 23.4431 12.3934 23.6348 12.9481 23.6348C13.5028 23.6348 14.0404 23.4431 14.4699 23.092C14.8994 22.741 15.1943 22.2523 15.3047 21.7087H20.8514C20.9618 22.2523 21.2567 22.741 21.6862 23.092C22.1157 23.4431 22.6533 23.6348 23.208 23.6348C23.7627 23.6348 24.3003 23.4431 24.7298 23.092C25.1592 22.741 25.4542 22.2523 25.5645 21.7087H27.0554C27.353 21.7087 27.6385 21.5905 27.8489 21.38C28.0594 21.1696 28.1776 20.8842 28.1776 20.5865V17.3803C28.1776 17.0827 28.0594 16.7973 27.8489 16.5868C27.6385 16.3764 27.353 16.2582 27.0554 16.2582ZM11.2344 13.4439C11.249 13.422 11.2688 13.4041 11.292 13.3916C11.3152 13.3792 11.3411 13.3726 11.3675 13.3726H20.3777C20.4202 13.3728 20.4608 13.3898 20.4907 13.4199L23.3298 16.2582H9.35799L11.2344 13.4439ZM12.9481 22.6706C12.6628 22.6706 12.3838 22.586 12.1466 22.4274C11.9093 22.2689 11.7244 22.0435 11.6152 21.7799C11.506 21.5163 11.4774 21.2262 11.5331 20.9463C11.5887 20.6664 11.7261 20.4094 11.9279 20.2076C12.1297 20.0058 12.3868 19.8684 12.6667 19.8127C12.9465 19.757 13.2366 19.7856 13.5003 19.8948C13.7639 20.004 13.9892 20.1889 14.1478 20.4262C14.3063 20.6635 14.3909 20.9424 14.3909 21.2278C14.3909 21.6104 14.2389 21.9774 13.9683 22.248C13.6978 22.5186 13.3308 22.6706 12.9481 22.6706ZM23.208 22.6706C22.9226 22.6706 22.6437 22.586 22.4064 22.4274C22.1691 22.2689 21.9842 22.0435 21.875 21.7799C21.7658 21.5163 21.7372 21.2262 21.7929 20.9463C21.8486 20.6664 21.986 20.4094 22.1878 20.2076C22.3896 20.0058 22.6466 19.8684 22.9265 19.8127C23.2064 19.757 23.4965 19.7856 23.7601 19.8948C24.0238 20.004 24.2491 20.1889 24.4076 20.4262C24.5662 20.6635 24.6508 20.9424 24.6508 21.2278C24.6508 21.6104 24.4988 21.9774 24.2282 22.248C23.9576 22.5186 23.5906 22.6706 23.208 22.6706ZM27.2157 20.5865C27.2157 20.6291 27.1988 20.6698 27.1688 20.6999C27.1387 20.73 27.0979 20.7469 27.0554 20.7469H25.5645C25.4542 20.2033 25.1592 19.7145 24.7298 19.3635C24.3003 19.0125 23.7627 18.8207 23.208 18.8207C22.6533 18.8207 22.1157 19.0125 21.6862 19.3635C21.2567 19.7145 20.9618 20.2033 20.8514 20.7469H15.3047C15.1943 20.2033 14.8994 19.7145 14.4699 19.3635C14.0404 19.0125 13.5028 18.8207 12.9481 18.8207C12.3934 18.8207 11.8558 19.0125 11.4263 19.3635C10.9969 19.7145 10.702 20.2033 10.5916 20.7469H9.10069C9.05817 20.7469 9.0174 20.73 8.98733 20.6999C8.95727 20.6698 8.94038 20.6291 8.94038 20.5865V17.22H27.0554C27.0979 17.22 27.1387 17.2369 27.1688 17.267C27.1988 17.297 27.2157 17.3378 27.2157 17.3803V20.5865Z" fill="white"/>
</g>
<defs>
<clipPath id="clip0_1339_6479">
<rect width="20.5197" height="20.5197" fill="white" transform="translate(7.81836 7.12049)"/>
</clipPath>
</defs>
</svg>
