<svg width="24" height="24" viewBox="0 0 24 24" fill="none" xmlns="http://www.w3.org/2000/svg">
<path d="M15.3636 23H2.63636C2.46759 23 2.30573 22.933 2.18639 22.8136C2.06705 22.6943 2 22.5324 2 22.3636V9.63636C2 9.46759 2.06705 9.30573 2.18639 9.18639C2.30573 9.06705 2.46759 9 2.63636 9H6.45455C6.62332 9 6.78518 9.06705 6.90452 9.18639C7.02386 9.30573 7.09091 9.46759 7.09091 9.63636C7.09091 9.80514 7.02386 9.967 6.90452 10.0863C6.78518 10.2057 6.62332 10.2727 6.45455 10.2727H3.27273V21.7273H14.7273V18.5455C14.7273 18.3767 14.7943 18.2148 14.9137 18.0955C15.033 17.9761 15.1949 17.9091 15.3636 17.9091C15.5324 17.9091 15.6943 17.9761 15.8136 18.0955C15.933 18.2148 16 18.3767 16 18.5455V22.3636C16 22.5324 15.933 22.6943 15.8136 22.8136C15.6943 22.933 15.5324 23 15.3636 23Z" fill="url(#paint0_linear_1332_3487)"/>
<path d="M16 16C14.6155 16 13.2622 15.5895 12.111 14.8203C10.9599 14.0511 10.0627 12.9579 9.53285 11.6788C9.00303 10.3997 8.86441 8.99224 9.13451 7.63437C9.4046 6.2765 10.0713 5.02922 11.0503 4.05026C12.0292 3.07129 13.2765 2.4046 14.6344 2.13451C15.9922 1.86441 17.3997 2.00303 18.6788 2.53285C19.9579 3.06266 21.0511 3.95987 21.8203 5.11101C22.5895 6.26215 23 7.61553 23 9C22.9979 10.8559 22.2597 12.6351 20.9474 13.9474C19.6351 15.2597 17.8559 15.9979 16 16ZM16 3.27273C14.8673 3.27273 13.7599 3.60863 12.8181 4.23795C11.8763 4.86727 11.1422 5.76175 10.7087 6.80827C10.2752 7.85479 10.1618 9.00635 10.3828 10.1173C10.6038 11.2283 11.1492 12.2488 11.9502 13.0498C12.7512 13.8508 13.7717 14.3962 14.8827 14.6172C15.9936 14.8382 17.1452 14.7248 18.1917 14.2913C19.2383 13.8578 20.1327 13.1237 20.7621 12.1819C21.3914 11.2401 21.7273 10.1327 21.7273 9C21.7256 7.48155 21.1216 6.02578 20.0479 4.95207C18.9742 3.87836 17.5185 3.27441 16 3.27273Z" fill="url(#paint1_linear_1332_3487)"/>
<defs>
<linearGradient id="paint0_linear_1332_3487" x1="9" y1="9" x2="9" y2="23" gradientUnits="userSpaceOnUse">
<stop stop-color="#6897B5"/>
<stop offset="0.0001" stop-color="#4991EF"/>
<stop offset="0.494792" stop-color="#4060FF"/>
<stop offset="1" stop-color="#004EB6"/>
</linearGradient>
<linearGradient id="paint1_linear_1332_3487" x1="16" y1="2" x2="16" y2="16" gradientUnits="userSpaceOnUse">
<stop stop-color="#C21931"/>
<stop offset="1" stop-color="#F0680A"/>
</linearGradient>
</defs>
</svg>
