<svg width="18" height="24" viewBox="0 0 18 24" fill="none" xmlns="http://www.w3.org/2000/svg">
<g clip-path="url(#clip0_1332_3505)">
<path d="M10.7937 17.7437H0.719727C0.529102 17.7437 0.346285 17.6679 0.211493 17.5331C0.0767012 17.3984 0.000976562 17.2155 0.000976562 17.0249V6.94995C0.000976562 6.75933 0.0767012 6.57651 0.211493 6.44172C0.346285 6.30693 0.529102 6.2312 0.719727 6.2312H7.91537C8.106 6.2312 8.28881 6.30693 8.42361 6.44172C8.5584 6.57651 8.63412 6.75933 8.63412 6.94995C8.63412 7.14058 8.5584 7.32339 8.42361 7.45818C8.28881 7.59298 8.106 7.6687 7.91537 7.6687H1.43943V16.3047H10.074V11.2682C10.074 11.0776 10.1497 10.8948 10.2845 10.76C10.4193 10.6252 10.6021 10.5495 10.7928 10.5495C10.9834 10.5495 11.1662 10.6252 11.301 10.76C11.4358 10.8948 11.5115 11.0776 11.5115 11.2682V17.024C11.5115 17.2146 11.4358 17.3974 11.301 17.5322C11.1662 17.667 10.9834 17.7427 10.7928 17.7427" fill="url(#paint0_linear_1332_3505)"/>
<path d="M10.7938 23.5C9.07687 23.4981 7.43079 22.8152 6.21673 21.6011C5.00267 20.3871 4.31977 18.741 4.31787 17.0241C4.31787 16.8334 4.3936 16.6506 4.52839 16.5158C4.66318 16.381 4.846 16.3053 5.03662 16.3053C5.22725 16.3053 5.41006 16.381 5.54485 16.5158C5.67964 16.6506 5.75537 16.8334 5.75537 17.0241C5.75537 18.0202 6.05075 18.994 6.60416 19.8223C7.15757 20.6506 7.94415 21.2962 8.86446 21.6775C9.78477 22.0588 10.7975 22.1586 11.7745 21.9644C12.7516 21.7701 13.6491 21.2906 14.3536 20.5863C15.0581 19.882 15.5379 18.9846 15.7324 18.0076C15.9269 17.0306 15.8274 16.0179 15.4464 15.0975C15.0653 14.1771 14.42 13.3903 13.5918 12.8366C12.7637 12.283 11.79 11.9873 10.7938 11.9871C10.6032 11.9871 10.4204 11.9113 10.2856 11.7765C10.1508 11.6418 10.0751 11.4589 10.0751 11.2683C10.0751 11.0777 10.1508 10.8949 10.2856 10.7601C10.4204 10.6253 10.6032 10.5496 10.7938 10.5496C12.5017 10.5643 14.1347 11.253 15.3373 12.466C16.5398 13.6789 17.2145 15.3177 17.2145 17.0257C17.2145 18.7337 16.5398 20.3726 15.3373 21.5855C14.1347 22.7984 12.5017 23.4872 10.7938 23.5019" fill="url(#paint1_linear_1332_3505)"/>
<path d="M17.2835 11.987H5.75668C5.63076 11.9869 5.50707 11.9537 5.39801 11.8908C5.28895 11.8278 5.19834 11.7373 5.13526 11.6283C5.07218 11.5193 5.03884 11.3957 5.03858 11.2698C5.03831 11.1438 5.07114 11.02 5.13376 10.9108L10.8886 0.836322C10.9566 0.732416 11.0494 0.647085 11.1587 0.588028C11.2679 0.528971 11.3902 0.498047 11.5143 0.498047C11.6385 0.498047 11.7608 0.528971 11.87 0.588028C11.9793 0.647085 12.0721 0.732416 12.1401 0.836322L17.8341 10.803C17.923 10.9077 17.9801 11.0358 17.9985 11.1719C18.0169 11.3081 17.9959 11.4467 17.938 11.5713C17.88 11.6959 17.7876 11.8013 17.6716 11.875C17.5556 11.9487 17.4209 11.9875 17.2835 11.987ZM6.99676 10.5495H16.0295L11.5129 2.64326L6.99676 10.5495Z" fill="url(#paint2_linear_1332_3505)"/>
</g>
<defs>
<linearGradient id="paint0_linear_1332_3505" x1="5.75625" y1="6.2312" x2="5.75625" y2="17.7437" gradientUnits="userSpaceOnUse">
<stop stop-color="#6897B5"/>
<stop offset="0.0001" stop-color="#4991EF"/>
<stop offset="0.494792" stop-color="#4060FF"/>
<stop offset="1" stop-color="#004EB6"/>
</linearGradient>
<linearGradient id="paint1_linear_1332_3505" x1="10.7662" y1="10.5496" x2="10.7662" y2="23.5019" gradientUnits="userSpaceOnUse">
<stop stop-color="#6897B5"/>
<stop offset="0.0001" stop-color="#4991EF"/>
<stop offset="0.494792" stop-color="#4060FF"/>
<stop offset="1" stop-color="#004EB6"/>
</linearGradient>
<linearGradient id="paint2_linear_1332_3505" x1="11.5218" y1="0.498047" x2="11.5218" y2="11.987" gradientUnits="userSpaceOnUse">
<stop stop-color="#C21931"/>
<stop offset="1" stop-color="#F0680A"/>
</linearGradient>
<clipPath id="clip0_1332_3505">
<rect width="18.0033" height="23" fill="white" transform="translate(0 0.5)"/>
</clipPath>
</defs>
</svg>
