<svg width="36" height="36" viewBox="0 0 36 36" fill="none" xmlns="http://www.w3.org/2000/svg">
<rect width="36" height="36" rx="18" fill="#1D1B9D"/>
<path fill-rule="evenodd" clip-rule="evenodd" d="M21.712 9.68545V11.1304L23.422 12.4984V9.68545H21.712ZM24.7045 13.5243V9.4717C24.7045 8.88176 24.2257 8.40297 23.6357 8.40297H21.4983C20.9083 8.40297 20.4295 8.88176 20.4295 9.4717V10.1044L20.0816 9.82567C19.513 9.3707 18.8065 9.12282 18.0783 9.12282C17.3501 9.12282 16.6436 9.3707 16.0751 9.82567L9.12831 15.3831C8.99543 15.4893 8.9102 15.644 8.89136 15.8131C8.87252 15.9822 8.92162 16.1518 9.02785 16.2847C9.13409 16.4176 9.28876 16.5028 9.45784 16.5216C9.62692 16.5405 9.79656 16.4914 9.92944 16.3851L10.5972 15.8499V24.6477H9.52845C9.35838 24.6477 9.19528 24.7153 9.07502 24.8355C8.95477 24.9558 8.88721 25.1189 8.88721 25.289C8.88721 25.459 8.95477 25.6221 9.07502 25.7424C9.19528 25.8627 9.35838 25.9302 9.52845 25.9302H26.6282C26.7983 25.9302 26.9614 25.8627 27.0816 25.7424C27.2019 25.6221 27.2694 25.459 27.2694 25.289C27.2694 25.1189 27.2019 24.9558 27.0816 24.8355C26.9614 24.7153 26.7983 24.6477 26.6282 24.6477H25.5595V15.8499L26.2281 16.3851C26.3612 16.4889 26.5298 16.5359 26.6974 16.5162C26.8649 16.4964 27.018 16.4114 27.1233 16.2795C27.2286 16.1476 27.2777 15.9796 27.2599 15.8118C27.2421 15.644 27.1589 15.49 27.0283 15.3831L24.7045 13.5243ZM24.277 14.8239L19.2804 10.8269C18.9393 10.5538 18.5153 10.405 18.0783 10.405C17.6413 10.405 17.2174 10.5538 16.8762 10.8269L11.8797 14.8239V24.6477H14.8721V20.9713C14.8721 20.4036 14.8721 19.9137 14.9251 19.5212C14.9816 19.1006 15.109 18.6979 15.4356 18.3713C15.7622 18.0447 16.1657 17.9173 16.5855 17.8608C16.978 17.8078 17.4679 17.8078 18.0364 17.8078H18.1202C18.6888 17.8078 19.1787 17.8078 19.5711 17.8608C19.9918 17.9173 20.3945 18.0447 20.7211 18.3713C21.0477 18.6979 21.1751 19.1006 21.2315 19.5212C21.2845 19.9137 21.2845 20.4036 21.2845 20.9721V24.6477H24.277V14.8239ZM20.002 24.6477V21.014C20.002 20.3916 20.0003 19.9881 19.961 19.6922C19.9234 19.4144 19.8635 19.3271 19.8139 19.2784C19.7652 19.2297 19.678 19.169 19.4001 19.1314C19.1035 19.092 18.7008 19.0903 18.0783 19.0903C17.4559 19.0903 17.0523 19.092 16.7565 19.1314C16.4786 19.169 16.3914 19.2297 16.3427 19.2784C16.294 19.3271 16.2333 19.4144 16.1956 19.6922C16.1563 19.9889 16.1546 20.3916 16.1546 21.014V24.6477H20.002ZM18.0783 13.5329C17.938 13.5329 17.799 13.5605 17.6693 13.6142C17.5397 13.668 17.4219 13.7467 17.3226 13.8459C17.2234 13.9452 17.1446 14.063 17.0909 14.1926C17.0372 14.3223 17.0096 14.4613 17.0096 14.6016C17.0096 14.742 17.0372 14.881 17.0909 15.0106C17.1446 15.1403 17.2234 15.2581 17.3226 15.3573C17.4219 15.4566 17.5397 15.5353 17.6693 15.589C17.799 15.6427 17.938 15.6704 18.0783 15.6704C18.3618 15.6704 18.6336 15.5578 18.834 15.3573C19.0345 15.1569 19.1471 14.8851 19.1471 14.6016C19.1471 14.3182 19.0345 14.0463 18.834 13.8459C18.6336 13.6455 18.3618 13.5329 18.0783 13.5329ZM15.7271 14.6016C15.7271 13.978 15.9748 13.38 16.4158 12.9391C16.8567 12.4981 17.4547 12.2504 18.0783 12.2504C18.7019 12.2504 19.2999 12.4981 19.7409 12.9391C20.1818 13.38 20.4295 13.978 20.4295 14.6016C20.4295 15.2252 20.1818 15.8233 19.7409 16.2642C19.2999 16.7051 18.7019 16.9528 18.0783 16.9528C17.4547 16.9528 16.8567 16.7051 16.4158 16.2642C15.9748 15.8233 15.7271 15.2252 15.7271 14.6016Z" fill="white"/>
</svg>
