<svg width="36" height="36" viewBox="0 0 36 36" fill="none" xmlns="http://www.w3.org/2000/svg">
<rect width="36" height="36" rx="18" fill="#1D1B9D"/>
<g clip-path="url(#clip0_1342_6572)">
<path d="M17.5153 16.4948C17.5155 16.6334 17.4607 16.7664 17.3629 16.8645C17.2651 16.9626 17.1323 17.0179 16.9937 17.0182L10.6917 17.0292C10.5531 17.0294 10.4202 16.9746 10.322 16.8768C10.2239 16.779 10.1686 16.6462 10.1684 16.5076L10.1582 10.6954C10.158 10.5568 10.2128 10.4238 10.3106 10.3257C10.4084 10.2276 10.5412 10.1723 10.6797 10.172L16.9818 10.161C17.1203 10.1608 17.2533 10.2156 17.3515 10.3134C17.4496 10.4112 17.5049 10.544 17.5051 10.6826L17.5153 16.4948ZM16.5306 11.231C16.5306 11.2076 16.5213 11.1852 16.5048 11.1687C16.4883 11.1521 16.4658 11.1429 16.4424 11.1429H11.231C11.2076 11.1429 11.1852 11.1521 11.1687 11.1687C11.1521 11.1852 11.1429 11.2076 11.1429 11.231V15.9526C11.1429 15.976 11.1521 15.9985 11.1687 16.015C11.1852 16.0315 11.2076 16.0408 11.231 16.0408H16.4424C16.4658 16.0408 16.4883 16.0315 16.5048 16.015C16.5213 15.9985 16.5306 15.976 16.5306 15.9526V11.231Z" fill="white"/>
<path d="M25.2987 10.2301L18.9708 10.1749C18.7183 10.1727 18.5119 10.3755 18.5097 10.628L18.5095 10.6541C18.5073 10.9066 18.7101 11.113 18.9626 11.1152L25.2905 11.1705C25.543 11.1727 25.7494 10.9698 25.7516 10.7173L25.7519 10.6912C25.7541 10.4387 25.5512 10.2323 25.2987 10.2301Z" fill="white"/>
<path d="M25.321 13.1053H18.9668C18.7125 13.1053 18.5063 13.3114 18.5063 13.5657V13.618C18.5063 13.8722 18.7125 14.0784 18.9668 14.0784H25.321C25.5753 14.0784 25.7815 13.8722 25.7815 13.618V13.5657C25.7815 13.3114 25.5753 13.1053 25.321 13.1053Z" fill="white"/>
<path d="M25.3019 16.0529L18.9803 16.0418C18.7188 16.0414 18.5065 16.253 18.506 16.5145L18.506 16.5406C18.5055 16.8021 18.7171 17.0144 18.9786 17.0149L25.3002 17.0259C25.5617 17.0264 25.7741 16.8148 25.7745 16.5533L25.7746 16.5272C25.775 16.2657 25.5634 16.0533 25.3019 16.0529Z" fill="white"/>
<path d="M25.3404 18.9796H10.6335C10.3937 18.9796 10.1992 19.174 10.1992 19.4139V19.5249C10.1992 19.7648 10.3937 19.9592 10.6335 19.9592H25.3404C25.5803 19.9592 25.7747 19.7648 25.7747 19.5249V19.4139C25.7747 19.174 25.5803 18.9796 25.3404 18.9796Z" fill="white"/>
<path d="M25.3306 21.9216H10.6433C10.398 21.9216 10.1992 22.1205 10.1992 22.3657V22.4506C10.1992 22.6959 10.398 22.8947 10.6433 22.8947H25.3306C25.5759 22.8947 25.7747 22.6959 25.7747 22.4506V22.3657C25.7747 22.1205 25.5759 21.9216 25.3306 21.9216Z" fill="white"/>
<path d="M21.4255 24.8604H10.6565C10.4005 24.8604 10.1929 25.068 10.1929 25.3241V25.3698C10.1929 25.6259 10.4005 25.8335 10.6565 25.8335H21.4255C21.6816 25.8335 21.8892 25.6259 21.8892 25.3698V25.3241C21.8892 25.068 21.6816 24.8604 21.4255 24.8604Z" fill="white"/>
</g>
<defs>
<clipPath id="clip0_1342_6572">
<rect width="16" height="16" fill="white" transform="translate(10 10)"/>
</clipPath>
</defs>
</svg>
