<svg width="56" height="56" viewBox="0 0 56 56" fill="none" xmlns="http://www.w3.org/2000/svg">
<circle cx="28" cy="28" r="28" fill="#F2F5FC"/>
<path d="M34.8657 13.2267C34.8146 13.206 34.7579 13.2132 34.6956 13.2483C33.8141 13.7465 32.9303 14.1849 32.044 14.5633C31.6847 14.7166 31.4133 14.6216 31.2296 14.2783C31.1913 14.2048 31.1769 14.1226 31.1865 14.0316C31.2232 13.6882 31.4045 13.4591 31.7302 13.3441C33.2904 12.7964 34.7635 12.0299 36.1495 11.0446C36.18 11.0226 36.2153 11.0082 36.2526 11.0026C36.2898 10.997 36.3279 11.0005 36.3638 11.0126C36.3996 11.0248 36.432 11.0454 36.4585 11.0726C36.485 11.0998 36.5047 11.1329 36.516 11.1692C37.0046 12.7692 37.6921 14.2272 38.5783 15.543C38.6334 15.6249 38.6687 15.7192 38.6813 15.8184C38.7516 16.3997 38.6606 16.7095 38.4083 16.7478C38.0346 16.8037 37.7631 16.6624 37.5939 16.3238L36.2837 13.6938C36.1974 13.5214 36.1272 13.5269 36.0729 13.7106C33.1219 23.7612 26.0079 31.1363 15.9813 34.2597C15.6699 34.3571 15.3529 34.4114 15.0303 34.4226C15.0129 34.4231 14.9955 34.4198 14.9795 34.413C14.9634 34.4062 14.9491 34.3961 14.9375 34.3833C14.9258 34.3705 14.9172 34.3554 14.9121 34.339C14.9071 34.3226 14.9057 34.3054 14.9082 34.2884C14.9242 34.1735 14.9872 34.0976 15.0974 34.0609C18.2081 33.0149 21.2086 31.3534 24.0989 29.0763C28.3577 25.7205 31.9027 21.294 33.8261 16.2759C34.1918 15.3242 34.5575 14.3485 34.9231 13.3489C34.9315 13.3255 34.9302 13.2996 34.9194 13.2768C34.9087 13.254 34.8894 13.236 34.8657 13.2267Z" fill="#1C1B9D"/>
<path d="M39.0932 20.8726H35.553C35.4974 20.8726 35.4524 20.9176 35.4524 20.9732V38.8994C35.4524 38.955 35.4974 39 35.553 39H39.0932C39.1488 39 39.1938 38.955 39.1938 38.8994V20.9732C39.1938 20.9176 39.1488 20.8726 39.0932 20.8726Z" fill="#1C1B9D"/>
<path d="M33.2273 28.1733H29.7446C29.6599 28.1733 29.5913 28.242 29.5913 28.3266V38.8467C29.5913 38.9314 29.6599 39 29.7446 39H33.2273C33.312 39 33.3806 38.9314 33.3806 38.8467V28.3266C33.3806 28.242 33.312 28.1733 33.2273 28.1733Z" fill="#1C1B9D"/>
<path d="M27.4163 31.7422H23.9049C23.844 31.7422 23.7947 31.7915 23.7947 31.8524V38.8849C23.7947 38.9458 23.844 38.9951 23.9049 38.9951H27.4163C27.4772 38.9951 27.5265 38.9458 27.5265 38.8849V31.8524C27.5265 31.7915 27.4772 31.7422 27.4163 31.7422Z" fill="#1C1B9D"/>
<path d="M21.6022 34.433L17.9997 34.4267C17.9349 34.4266 17.8822 34.4791 17.8821 34.5439L17.8746 38.8745C17.8744 38.9394 17.9269 38.992 17.9917 38.9921L21.5942 38.9984C21.659 38.9985 21.7117 38.9461 21.7118 38.8812L21.7194 34.5506C21.7195 34.4858 21.667 34.4331 21.6022 34.433Z" fill="#1C1B9D"/>
<path d="M15.672 35.8183L12.1557 35.8244C12.0697 35.8246 12.0001 35.8944 12.0003 35.9804L12.0053 38.8404C12.0054 38.9263 12.0752 38.9959 12.1612 38.9958L15.6775 38.9896C15.7635 38.9895 15.8331 38.9197 15.8329 38.8337L15.8279 35.9737C15.8278 35.8877 15.7579 35.8181 15.672 35.8183Z" fill="#1C1B9D"/>
</svg>
