<svg width="24" height="24" viewBox="0 0 24 24" fill="none" xmlns="http://www.w3.org/2000/svg">
<g clip-path="url(#clip0_1342_6659)">
<path d="M11.395 0H12.665C19.1017 0.81 22.88 4.46333 24 10.96V12.985L23.365 15.795C23.3327 15.9379 23.2475 16.0635 23.1262 16.1468C23.0049 16.2301 22.8564 16.2652 22.71 16.245L22.52 16.215C22.4217 16.2011 22.3275 16.1662 22.244 16.1126C22.1604 16.0591 22.0894 15.9881 22.0357 15.9045C21.9821 15.821 21.9471 15.7269 21.9332 15.6286C21.9192 15.5303 21.9267 15.4302 21.955 15.335C22.9217 12.1183 22.55 9.13333 20.84 6.38C19.0333 3.47 16.15 1.86 12.19 1.55C7.95 1.22 3.635 4.505 2.245 8.265C1.215 11.0517 1.27 13.645 2.41 16.045C4.97333 21.445 9.405 23.42 15.705 21.97C15.925 21.92 16.085 21.9983 16.185 22.205C16.2883 22.415 16.33 22.635 16.31 22.865C16.3011 22.9638 16.2614 23.0571 16.1968 23.1317C16.1321 23.2062 16.0457 23.2581 15.95 23.28L12.94 24H11.36C9.66667 23.8267 8.38 23.5333 7.5 23.12C2.98667 20.9967 0.486667 17.4883 0 12.595V11.035C1.11667 4.465 4.915 0.786667 11.395 0Z" fill="url(#paint0_linear_1342_6659)"/>
<path d="M9.67015 4.83501C10.5435 4.50501 11.3651 4.37001 12.1351 4.43001C15.5918 4.70335 17.9451 6.44335 19.1951 9.65001C19.3318 10.0033 19.2235 10.25 18.8701 10.39L18.6601 10.47C18.4958 10.5334 18.3135 10.532 18.1501 10.4661C17.9868 10.4002 17.8545 10.2747 17.7801 10.115C16.5751 7.51001 14.8251 6.00501 11.7401 6.00001C8.56515 5.99001 6.10515 8.79001 5.97515 11.765C5.84515 14.715 7.56515 16.61 10.1201 17.825C10.2617 17.8905 10.3741 18.0061 10.4359 18.15C10.4976 18.2938 10.5045 18.4558 10.4551 18.605C10.4251 18.7017 10.3768 18.7867 10.3101 18.86C10.0501 19.1367 9.74348 19.2067 9.39015 19.07C5.70515 17.64 3.57015 13.525 4.83515 9.69001C5.60515 7.37001 7.21681 5.75168 9.67015 4.83501Z" fill="url(#paint1_linear_1342_6659)"/>
<path d="M14.9202 11.99L13.5302 11.98C13.5752 9.96499 10.1202 9.88999 10.4552 12.39C10.5452 13.08 11.0352 13.4517 11.9252 13.505L11.9502 15.025C9.81352 14.555 8.85185 13.4283 9.06518 11.645C9.50518 7.94499 14.6752 8.24499 14.9202 11.99Z" fill="url(#paint2_linear_1342_6659)"/>
<path d="M14.9199 11.99L19.6249 12.01C21.2416 12.0167 21.4733 12.5883 20.3199 13.725L19.2599 14.775C19.1166 14.9117 19.1166 15.0517 19.2599 15.195L23.9999 19.96V20.51L20.4549 24H19.9899L15.1899 19.22C15.0399 19.0667 14.8883 19.0667 14.7349 19.22L13.1949 20.8C13.0845 20.9124 12.936 20.9794 12.7787 20.9878C12.6213 20.9961 12.4666 20.9452 12.3449 20.845C12.0249 20.5817 11.8783 20.215 11.9049 19.745C11.9916 18.115 12.0066 16.5417 11.9499 15.025L11.9249 13.505C11.8649 12.3483 12.3999 11.84 13.5299 11.98L14.9199 11.99ZM17.3299 14.67L18.1149 13.825C18.3149 13.6083 18.2683 13.5 17.9749 13.5H13.8049C13.5849 13.4967 13.4766 13.605 13.4799 13.825V17.88C13.4833 18.32 13.6216 18.3683 13.8949 18.025C14.5116 17.255 15.0633 17.105 15.5499 17.575C17.0233 18.985 18.5133 20.44 20.0199 21.94C20.1566 22.0767 20.2933 22.0783 20.4299 21.945L21.9699 20.485C22 20.4564 22.0241 20.4221 22.0407 20.3841C22.0573 20.3461 22.0661 20.3051 22.0666 20.2636C22.0671 20.2221 22.0592 20.1809 22.0434 20.1425C22.0277 20.1041 22.0044 20.0692 21.9749 20.04L17.3449 15.385C17.2503 15.291 17.1959 15.1639 17.1931 15.0305C17.1903 14.8972 17.2393 14.7679 17.3299 14.67Z" fill="url(#paint3_linear_1342_6659)"/>
</g>
<defs>
<linearGradient id="paint0_linear_1342_6659" x1="12" y1="0" x2="12" y2="24" gradientUnits="userSpaceOnUse">
<stop stop-color="#6897B5"/>
<stop offset="0.0001" stop-color="#4991EF"/>
<stop offset="0.494792" stop-color="#4060FF"/>
<stop offset="1" stop-color="#004EB6"/>
</linearGradient>
<linearGradient id="paint1_linear_1342_6659" x1="11.8608" y1="4.41617" x2="11.8608" y2="19.1378" gradientUnits="userSpaceOnUse">
<stop stop-color="#6897B5"/>
<stop offset="0.0001" stop-color="#4991EF"/>
<stop offset="0.494792" stop-color="#4060FF"/>
<stop offset="1" stop-color="#004EB6"/>
</linearGradient>
<linearGradient id="paint2_linear_1342_6659" x1="11.9782" y1="9.02039" x2="11.9782" y2="15.025" gradientUnits="userSpaceOnUse">
<stop stop-color="#6897B5"/>
<stop offset="0.0001" stop-color="#4991EF"/>
<stop offset="0.494792" stop-color="#4060FF"/>
<stop offset="1" stop-color="#004EB6"/>
</linearGradient>
<linearGradient id="paint3_linear_1342_6659" x1="17.9509" y1="11.9573" x2="17.9509" y2="24" gradientUnits="userSpaceOnUse">
<stop stop-color="#C21931"/>
<stop offset="1" stop-color="#F0680A"/>
</linearGradient>
<clipPath id="clip0_1342_6659">
<rect width="24" height="24" fill="white"/>
</clipPath>
</defs>
</svg>
