<svg width="36" height="36" viewBox="0 0 36 36" fill="none" xmlns="http://www.w3.org/2000/svg">
<rect width="36" height="36" rx="18" fill="#1D1B9D"/>
<g clip-path="url(#clip0_1342_6598)">
<path d="M13.8836 14.5726L12.3187 9.90367C12.2914 9.82143 12.2838 9.73386 12.2966 9.64819C12.3095 9.56251 12.3424 9.48117 12.3926 9.41087C12.4428 9.34056 12.5089 9.2833 12.5855 9.2438C12.6621 9.2043 12.7469 9.18369 12.833 9.18367H22.7624C22.848 9.18384 22.9324 9.20437 23.0086 9.24358C23.0847 9.28278 23.1504 9.33954 23.2003 9.40916C23.2502 9.47878 23.2828 9.55926 23.2954 9.64397C23.3081 9.72868 23.3004 9.81517 23.273 9.89632L21.7191 14.5249C21.6579 14.7061 21.7008 14.858 21.8477 14.9804C22.0804 15.1739 22.3069 15.3735 22.5273 15.5792C25.1759 18.0073 24.9077 22.8453 22.1893 25.1082C20.5914 26.438 18.2734 27.1543 16.2163 26.5555C13.2898 25.7008 11.6416 23.8543 11.2718 21.0159C11.0342 19.1669 11.4812 17.5004 12.6126 16.0163C12.9395 15.5865 13.4575 15.289 13.8212 14.8812C13.902 14.7906 13.9228 14.6878 13.8836 14.5726ZM13.6632 10.4694L14.8461 14.0473C14.8951 14.1943 14.9906 14.2384 15.1326 14.1796C16.913 13.4473 18.6812 13.4449 20.4371 14.1722C20.5865 14.2359 20.6869 14.1906 20.7383 14.0363L21.9102 10.5429C21.9665 10.3714 21.904 10.2857 21.7228 10.2857H13.8212C13.6742 10.2857 13.6216 10.3469 13.6632 10.4694ZM23.2804 20.1857C23.2804 18.7302 22.7021 17.3342 21.6729 16.305C20.6437 15.2758 19.2478 14.6975 17.7922 14.6975C16.3366 14.6975 14.9407 15.2758 13.9115 16.305C12.8823 17.3342 12.304 18.7302 12.304 20.1857C12.304 21.6413 12.8823 23.0372 13.9115 24.0664C14.9407 25.0957 16.3366 25.6739 17.7922 25.6739C19.2478 25.6739 20.6437 25.0957 21.6729 24.0664C22.7021 23.0372 23.2804 21.6413 23.2804 20.1857Z" fill="white"/>
<path d="M16.4405 17.7943L17.2744 15.9245C17.3187 15.8231 17.3917 15.7368 17.4844 15.6762C17.577 15.6156 17.6853 15.5834 17.796 15.5834C17.9067 15.5834 18.015 15.6156 18.1076 15.6762C18.2003 15.7368 18.2732 15.8231 18.3176 15.9245L19.1515 17.798C19.1773 17.8552 19.2172 17.9048 19.2674 17.9421C19.3175 17.9794 19.3763 18.0032 19.438 18.011C20.0013 18.082 20.5939 18.1347 21.216 18.169C21.7082 18.1984 21.9507 18.4433 21.9433 18.9037C21.9409 19.0433 21.8907 19.162 21.7927 19.26L20.3454 20.7367C20.218 20.8665 20.1788 21.0196 20.2278 21.1959L20.7752 23.1355C20.8089 23.2508 20.8101 23.374 20.7788 23.4918C20.6858 23.8567 20.4948 24.0208 20.2058 23.9841C19.6217 23.9106 18.4939 22.9665 17.976 22.6102C17.856 22.5294 17.7372 22.5294 17.6197 22.6102L15.7058 23.9143C15.6234 23.9705 15.5267 24.0024 15.4266 24.0063C15.3266 24.0102 15.2273 23.986 15.1401 23.9363C14.8291 23.7624 14.7225 23.4906 14.8205 23.1208C15.0164 22.391 15.2037 21.7273 15.3825 21.1298C15.3993 21.0718 15.4007 21.0107 15.3865 20.9526C15.3723 20.8945 15.3431 20.8416 15.3017 20.7992L13.8029 19.2673C13.72 19.1819 13.663 19.0749 13.6383 18.9584C13.6136 18.842 13.6223 18.721 13.6633 18.6093C13.7044 18.4976 13.7762 18.3997 13.8704 18.327C13.9647 18.2543 14.0775 18.2097 14.196 18.1984L16.1209 18.022C16.1901 18.0154 16.2561 17.9908 16.3123 17.9508C16.3684 17.9108 16.4127 17.8568 16.4405 17.7943ZM18.0458 21.3686L19.1515 22.0482C19.345 22.1657 19.3964 22.1204 19.3058 21.9122C19.105 21.4469 19.0486 21.0073 19.1368 20.5935C19.1686 20.4465 19.2384 20.3192 19.3462 20.2114L20.1727 19.3812C20.3466 19.2073 20.3111 19.1314 20.0662 19.1535C18.9715 19.2563 18.2625 18.7861 17.9393 17.7429C17.8486 17.449 17.7544 17.449 17.6564 17.7429C17.3086 18.791 16.596 19.2624 15.5184 19.1571C15.2907 19.1351 15.2564 19.2073 15.4156 19.3739C16.1025 20.0975 16.874 20.542 16.334 21.7396C16.1356 22.1829 16.2274 22.2551 16.6095 21.9563C16.9352 21.7016 17.2903 21.4959 17.6748 21.3392C17.8021 21.2853 17.9258 21.2951 18.0458 21.3686Z" fill="white"/>
</g>
<defs>
<clipPath id="clip0_1342_6598">
<rect width="13.5918" height="18" fill="white" transform="translate(11 9)"/>
</clipPath>
</defs>
</svg>
