<svg width="24" height="24" viewBox="0 0 24 24" fill="none" xmlns="http://www.w3.org/2000/svg">
<g clip-path="url(#clip0_1342_6629)">
<path d="M15.7487 5.99905C15.7487 7.39107 15.1957 8.72607 14.2114 9.71037C13.2271 10.6947 11.8921 11.2476 10.5001 11.2476C9.10805 11.2476 7.77304 10.6947 6.78874 9.71037C5.80444 8.72607 5.25146 7.39107 5.25146 5.99905C5.25146 4.60704 5.80444 3.27204 6.78874 2.28774C7.77304 1.30343 9.10805 0.750458 10.5001 0.750458C11.8921 0.750458 13.2271 1.30343 14.2114 2.28774C15.1957 3.27204 15.7487 4.60704 15.7487 5.99905ZM14.2487 5.99952C14.2487 5.50725 14.1517 5.0198 13.9633 4.565C13.7749 4.11019 13.4988 3.69695 13.1507 3.34886C12.8026 3.00078 12.3894 2.72466 11.9346 2.53627C11.4798 2.34789 10.9923 2.25093 10.5001 2.25093C9.50587 2.25093 8.5524 2.64587 7.8494 3.34886C7.1464 4.05186 6.75146 5.00533 6.75146 5.99952C6.75146 6.99371 7.1464 7.94718 7.8494 8.65018C8.5524 9.35317 9.50587 9.74811 10.5001 9.74811C10.9923 9.74811 11.4798 9.65115 11.9346 9.46277C12.3894 9.27439 12.8026 8.99827 13.1507 8.65018C13.4988 8.30209 13.7749 7.88885 13.9633 7.43405C14.1517 6.97925 14.2487 6.49179 14.2487 5.99952Z" fill="black"/>
<path d="M15.7487 5.99905C15.7487 7.39107 15.1957 8.72607 14.2114 9.71037C13.2271 10.6947 11.8921 11.2476 10.5001 11.2476C9.10805 11.2476 7.77304 10.6947 6.78874 9.71037C5.80444 8.72607 5.25146 7.39107 5.25146 5.99905C5.25146 4.60704 5.80444 3.27204 6.78874 2.28774C7.77304 1.30343 9.10805 0.750458 10.5001 0.750458C11.8921 0.750458 13.2271 1.30343 14.2114 2.28774C15.1957 3.27204 15.7487 4.60704 15.7487 5.99905ZM14.2487 5.99952C14.2487 5.50725 14.1517 5.0198 13.9633 4.565C13.7749 4.11019 13.4988 3.69695 13.1507 3.34886C12.8026 3.00078 12.3894 2.72466 11.9346 2.53627C11.4798 2.34789 10.9923 2.25093 10.5001 2.25093C9.50587 2.25093 8.5524 2.64587 7.8494 3.34886C7.1464 4.05186 6.75146 5.00533 6.75146 5.99952C6.75146 6.99371 7.1464 7.94718 7.8494 8.65018C8.5524 9.35317 9.50587 9.74811 10.5001 9.74811C10.9923 9.74811 11.4798 9.65115 11.9346 9.46277C12.3894 9.27439 12.8026 8.99827 13.1507 8.65018C13.4988 8.30209 13.7749 7.88885 13.9633 7.43405C14.1517 6.97925 14.2487 6.49179 14.2487 5.99952Z" fill="url(#paint0_linear_1342_6629)"/>
<path d="M20.2508 12.0314C20.2483 12.6133 20.2488 13.3275 20.2522 14.1741C20.2536 14.5847 20.0366 14.9109 19.6251 14.9878C19.2777 15.0525 18.9262 14.8439 18.8001 14.5181C18.7638 14.4247 18.7462 14.2991 18.7471 14.1412C18.7521 13.435 18.7529 12.7373 18.7494 12.0483C18.7493 12.0364 18.7445 12.025 18.7361 12.0166C18.7277 12.0082 18.7163 12.0034 18.7044 12.0033C18.0704 11.997 17.3965 11.9973 16.6827 12.0042C16.4699 12.0061 16.3132 11.9847 16.2126 11.94C15.7874 11.7492 15.6158 11.2626 15.8633 10.8567C16.0321 10.5792 16.2927 10.4944 16.619 10.4967C17.3702 10.502 18.0669 10.5025 18.7091 10.4981C18.736 10.4978 18.7494 10.4842 18.7494 10.4573C18.7522 9.82108 18.7513 9.13639 18.7466 8.40327C18.7454 8.20608 18.7646 8.06124 18.8043 7.96874C19.0101 7.48733 19.6237 7.33452 20.0127 7.70577C20.1983 7.88343 20.2532 8.08358 20.2518 8.33999C20.2487 9.06999 20.2487 9.77624 20.2518 10.4587C20.2518 10.4691 20.2559 10.479 20.2631 10.4864C20.2704 10.4938 20.2803 10.498 20.2907 10.4981C20.9279 10.5025 21.6172 10.5019 22.3588 10.4962C22.5554 10.495 22.6999 10.5161 22.7924 10.5595C23.5443 10.9144 23.3104 12.0019 22.4746 12.0005C21.7533 11.9995 21.0226 11.9994 20.2822 12C20.2739 12 20.2659 12.0033 20.26 12.0092C20.2541 12.0151 20.2508 12.0231 20.2508 12.0314Z" fill="url(#paint1_linear_1342_6629)"/>
<path d="M10.9667 12.7641C16.1595 13.012 20.2316 17.303 20.248 22.4906C20.2494 22.9162 19.9156 23.2486 19.4891 23.2491C13.5484 23.25 7.58906 23.2508 1.61093 23.2514C1.43124 23.2514 1.29562 23.2305 1.20406 23.1886C1.02687 23.107 0.89812 22.9812 0.817807 22.8112C0.766557 22.7028 0.743745 22.5387 0.74937 22.3191C0.787807 20.8747 1.1114 19.5244 1.72015 18.2681C3.42499 14.7506 7.05921 12.5775 10.9667 12.7641ZM7.02078 15.0173C5.99859 15.4898 5.10937 16.1497 4.35312 16.9969C3.16468 18.3281 2.47484 19.9044 2.28359 21.7256C2.28326 21.7287 2.28358 21.7318 2.28454 21.7348C2.2855 21.7377 2.28707 21.7404 2.28915 21.7427C2.29123 21.745 2.29377 21.7469 2.29661 21.7481C2.29945 21.7494 2.30252 21.75 2.30562 21.75H18.6917C18.7073 21.75 18.7144 21.7422 18.7128 21.7266C18.1602 16.0519 12.2094 12.6192 7.02078 15.0173Z" fill="black"/>
<path d="M10.9667 12.7641C16.1595 13.012 20.2316 17.303 20.248 22.4906C20.2494 22.9162 19.9156 23.2486 19.4891 23.2491C13.5484 23.25 7.58906 23.2508 1.61093 23.2514C1.43124 23.2514 1.29562 23.2305 1.20406 23.1886C1.02687 23.107 0.89812 22.9812 0.817807 22.8112C0.766557 22.7028 0.743745 22.5387 0.74937 22.3191C0.787807 20.8747 1.1114 19.5244 1.72015 18.2681C3.42499 14.7506 7.05921 12.5775 10.9667 12.7641ZM7.02078 15.0173C5.99859 15.4898 5.10937 16.1497 4.35312 16.9969C3.16468 18.3281 2.47484 19.9044 2.28359 21.7256C2.28326 21.7287 2.28358 21.7318 2.28454 21.7348C2.2855 21.7377 2.28707 21.7404 2.28915 21.7427C2.29123 21.745 2.29377 21.7469 2.29661 21.7481C2.29945 21.7494 2.30252 21.75 2.30562 21.75H18.6917C18.7073 21.75 18.7144 21.7422 18.7128 21.7266C18.1602 16.0519 12.2094 12.6192 7.02078 15.0173Z" fill="url(#paint2_linear_1342_6629)"/>
</g>
<defs>
<linearGradient id="paint0_linear_1342_6629" x1="10.5001" y1="0.750458" x2="10.5001" y2="11.2476" gradientUnits="userSpaceOnUse">
<stop stop-color="#6897B5"/>
<stop offset="0.0001" stop-color="#4991EF"/>
<stop offset="0.494792" stop-color="#4060FF"/>
<stop offset="1" stop-color="#004EB6"/>
</linearGradient>
<linearGradient id="paint1_linear_1342_6629" x1="19.4978" y1="7.49884" x2="19.4978" y2="14.9996" gradientUnits="userSpaceOnUse">
<stop stop-color="#C21931"/>
<stop offset="1" stop-color="#F0680A"/>
</linearGradient>
<linearGradient id="paint2_linear_1342_6629" x1="10.4983" y1="12.7529" x2="10.4983" y2="23.2514" gradientUnits="userSpaceOnUse">
<stop stop-color="#6897B5"/>
<stop offset="0.0001" stop-color="#4991EF"/>
<stop offset="0.494792" stop-color="#4060FF"/>
<stop offset="1" stop-color="#004EB6"/>
</linearGradient>
<clipPath id="clip0_1342_6629">
<rect width="24" height="24" fill="white"/>
</clipPath>
</defs>
</svg>
