<svg width="26" height="24" viewBox="0 0 26 24" fill="none" xmlns="http://www.w3.org/2000/svg">
<path d="M12.0809 10.7316L8.51835 7.17122C8.46299 7.11603 8.41906 7.05047 8.38909 6.97827C8.35912 6.90608 8.3437 6.82868 8.3437 6.75051C8.3437 6.67235 8.35912 6.59494 8.38909 6.52275C8.41906 6.45056 8.46299 6.38499 8.51835 6.32981C8.57354 6.27445 8.6391 6.23052 8.71129 6.20055C8.78349 6.17058 8.86089 6.15515 8.93905 6.15515C9.01722 6.15515 9.09461 6.17058 9.1668 6.20055C9.239 6.23052 9.30457 6.27445 9.35976 6.32981L12.9223 9.89064C12.9777 9.9458 13.0217 10.0114 13.0517 10.0836C13.0817 10.1558 13.0971 10.2332 13.0971 10.3113C13.0971 10.3895 13.0817 10.4669 13.0517 10.5391C13.0217 10.6113 12.9777 10.6769 12.9223 10.7321C12.8671 10.7874 12.8015 10.8312 12.7293 10.8611C12.6571 10.891 12.5797 10.9063 12.5016 10.9062C12.4234 10.9063 12.346 10.8909 12.2738 10.8609C12.2016 10.8309 12.136 10.787 12.0809 10.7316ZM6.14347 4.79592L4.95624 3.60869C4.90078 3.55356 4.85677 3.488 4.82674 3.4158C4.7967 3.3436 4.78125 3.26618 4.78125 3.18798C4.78125 3.10979 4.7967 3.03235 4.82674 2.96014C4.85677 2.88794 4.90078 2.82241 4.95624 2.76728C5.01137 2.71182 5.07692 2.66779 5.14912 2.63776C5.22132 2.60773 5.29875 2.59229 5.37695 2.59229C5.45515 2.59229 5.53257 2.60773 5.60477 2.63776C5.67697 2.66779 5.74252 2.71182 5.79765 2.76728L6.9853 3.95452C7.04071 4.00967 7.08468 4.07521 7.11468 4.14741C7.14468 4.2196 7.16013 4.29704 7.16013 4.37522C7.16013 4.4534 7.14468 4.53081 7.11468 4.60301C7.08468 4.6752 7.04071 4.74077 6.9853 4.79592C6.93014 4.85129 6.86458 4.89516 6.79237 4.92506C6.72016 4.95495 6.64275 4.97027 6.56459 4.9701C6.48637 4.97033 6.40889 4.95505 6.3366 4.92516C6.26432 4.89526 6.19867 4.85134 6.14347 4.79592Z" fill="url(#paint0_linear_1332_3495)"/>
<path d="M20.2198 20.9894C20.1417 20.9898 20.0642 20.9746 19.992 20.9448C19.9198 20.915 19.8542 20.8711 19.7991 20.8156L14.4562 15.4765C14.3909 15.4115 14.3417 15.3321 14.3127 15.2447L13.7191 13.4651C13.6841 13.3605 13.679 13.2482 13.7043 13.1408C13.7295 13.0335 13.7842 12.9352 13.8621 12.8572L15.0498 11.6687C15.128 11.5911 15.2261 11.5366 15.3333 11.5112C15.4405 11.4858 15.5526 11.4905 15.6573 11.5248L17.4385 12.118C17.5259 12.1476 17.6053 12.1968 17.6708 12.2619L23.0137 17.6015C23.0691 17.6566 23.113 17.7222 23.143 17.7944C23.1729 17.8666 23.1883 17.944 23.1883 18.0222C23.1883 18.1003 23.1729 18.1777 23.143 18.2499C23.113 18.3221 23.0691 18.3877 23.0137 18.4429L20.6384 20.8156C20.5833 20.8711 20.5177 20.915 20.4455 20.9448C20.3733 20.9746 20.2958 20.9898 20.2177 20.9894M15.3947 14.736L20.2198 19.5569L21.7545 18.0213L16.9303 13.2026L15.6303 12.7693L14.9614 13.4356L15.3947 14.736Z" fill="url(#paint1_linear_1332_3495)"/>
<path d="M5.96932 10.311C5.8912 10.3112 5.81381 10.2959 5.74161 10.2661C5.66941 10.2363 5.60382 10.1925 5.54861 10.1372L3.175 7.76443C3.11954 7.7093 3.07553 7.64375 3.04549 7.57155C3.01546 7.49935 3 7.42193 3 7.34373C3 7.26553 3.01546 7.18811 3.04549 7.1159C3.07553 7.0437 3.11954 6.97815 3.175 6.92303L7.92307 2.17832C7.97829 2.12305 8.04388 2.07922 8.11607 2.04933C8.18826 2.01944 8.26564 2.00409 8.34377 2.00415H13.0948C13.2123 2.00394 13.3272 2.03861 13.425 2.10377C13.5228 2.16893 13.5991 2.26165 13.6441 2.37018C13.6892 2.47871 13.701 2.59817 13.6781 2.71343C13.6552 2.82869 13.5986 2.93456 13.5155 3.01763L6.38918 10.1372C6.33395 10.1924 6.26835 10.2362 6.19616 10.266C6.12396 10.2959 6.04659 10.3111 5.96847 10.311M4.43459 7.34457L5.96932 8.87762L11.6602 3.1918H8.58904L4.43459 7.34457Z" fill="url(#paint2_linear_1332_3495)"/>
<path d="M8.53407 21.0002C8.074 21.0023 7.61645 20.9322 7.17814 20.7924C7.08136 20.7612 6.99422 20.7056 6.92509 20.631C6.85595 20.5564 6.80714 20.4654 6.78332 20.3665C6.7595 20.2676 6.76148 20.1643 6.78906 20.0664C6.81665 19.9685 6.86892 19.8794 6.94086 19.8075L8.44235 18.3077L7.65816 17.5244C7.63808 17.5043 7.61952 17.4828 7.60263 17.46L6.88322 16.741L5.38089 18.2421C5.30855 18.3134 5.21934 18.3652 5.12158 18.3927C5.02381 18.4202 4.92067 18.4225 4.82177 18.3994C4.72303 18.3754 4.63206 18.3266 4.55753 18.2575C4.48301 18.1884 4.42741 18.1014 4.39602 18.0048C4.15683 17.2661 4.11793 16.4771 4.28326 15.7184C4.4486 14.9597 4.81226 14.2585 5.33713 13.6863C5.80002 13.2017 6.40125 12.872 7.05864 12.7421C7.71603 12.6122 8.3975 12.6885 9.00988 12.9606L15.1589 6.81743C14.883 6.2061 14.8049 5.5239 14.9354 4.86602C15.0658 4.20815 15.3984 3.60741 15.8867 3.14763C16.6858 2.39133 17.7501 1.97944 18.8502 2.00079C19.3106 1.99927 19.7685 2.07025 20.2069 2.21114C20.3036 2.2425 20.3905 2.29814 20.4595 2.37273C20.5285 2.44731 20.5772 2.53836 20.6009 2.63714C20.6246 2.73593 20.6226 2.83915 20.595 2.93692C20.5674 3.0347 20.5152 3.12377 20.4434 3.19559L18.9402 4.69372L19.6604 5.41144C19.7239 5.45662 19.7779 5.51379 19.8195 5.57972L20.5006 6.26042L22.0029 4.75935C22.0744 4.6871 22.1633 4.63457 22.261 4.60685C22.3588 4.57913 22.462 4.57717 22.5608 4.60116C22.6595 4.62521 22.7505 4.67414 22.825 4.74328C22.8996 4.81243 22.9552 4.8995 22.9865 4.9962C23.2249 5.73476 23.2633 6.52327 23.098 7.28152C22.9327 8.03977 22.5695 8.74072 22.0454 9.31305C21.7469 9.62766 21.3883 9.87914 20.9909 10.0526C20.5934 10.226 20.1652 10.3179 19.7315 10.3227C19.261 10.3186 18.796 10.2216 18.363 10.0375L12.2207 16.1752C12.4986 16.787 12.5782 17.4706 12.4482 18.1299C12.3182 18.7893 11.9852 19.3915 11.4958 19.8521C10.6968 20.6089 9.63228 21.0212 8.53196 21.0002M8.56015 16.749L9.70026 17.8878C9.75562 17.943 9.79954 18.0086 9.82951 18.0808C9.85948 18.153 9.87491 18.2304 9.87491 18.3085C9.87491 18.3867 9.85948 18.4641 9.82951 18.5363C9.79954 18.6085 9.75562 18.6741 9.70026 18.7292L8.61484 19.8134C9.37211 19.816 10.102 19.5302 10.6561 19.0141C11.0142 18.6748 11.2427 18.2212 11.3022 17.7315C11.3616 17.2418 11.2483 16.7467 10.9817 16.3317C10.9216 16.2193 10.8992 16.0906 10.9179 15.9645C10.9365 15.8385 10.9952 15.7218 11.0852 15.6316L17.8207 8.90244C17.9109 8.8126 18.0275 8.75406 18.1535 8.73544C18.2794 8.71681 18.408 8.73907 18.5203 8.79895C18.8906 9.00923 19.3071 9.12484 19.7328 9.13551C20.0102 9.13044 20.2836 9.06922 20.5367 8.95555C20.7898 8.84189 21.0172 8.67813 21.2053 8.47417C21.7191 7.92011 22.0038 7.19191 22.0021 6.43627L20.9183 7.51917C20.8631 7.57453 20.7976 7.61845 20.7254 7.64842C20.6532 7.67839 20.5758 7.69382 20.4976 7.69382C20.4195 7.69382 20.3421 7.67839 20.2699 7.64842C20.1977 7.61845 20.1321 7.57453 20.0769 7.51917L18.8729 6.31595C18.8526 6.29592 18.8339 6.2744 18.8169 6.25159L17.6777 5.11568C17.6224 5.06044 17.5786 4.99486 17.5486 4.92267C17.5187 4.85049 17.5034 4.77312 17.5034 4.69498C17.5034 4.61684 17.5187 4.53947 17.5486 4.46729C17.5786 4.3951 17.6224 4.32952 17.6777 4.27428L18.7631 3.18928C18.0057 3.18682 17.2758 3.4726 16.7214 3.98862C16.3642 4.32698 16.136 4.77922 16.076 5.2676C16.016 5.75597 16.1281 6.24998 16.3928 6.66472C16.4526 6.777 16.4747 6.90552 16.4559 7.03132C16.4372 7.15713 16.3785 7.27358 16.2885 7.36351L9.55175 14.0948C9.46186 14.1848 9.34541 14.2435 9.21958 14.2623C9.09376 14.2811 8.96523 14.2589 8.85296 14.1991C8.43891 13.931 7.9438 13.8169 7.45417 13.8768C6.96454 13.9367 6.51154 14.1668 6.17434 14.5268C5.65957 15.0802 5.37455 15.8086 5.3771 16.5643L6.46084 15.481C6.57221 15.3698 6.72313 15.3074 6.88049 15.3074C7.03784 15.3074 7.18877 15.3698 7.30014 15.481L8.5042 16.6834C8.52427 16.7034 8.54283 16.7249 8.55973 16.7477" fill="url(#paint3_linear_1332_3495)"/>
<defs>
<linearGradient id="paint0_linear_1332_3495" x1="8.93918" y1="2.59229" x2="8.93918" y2="10.9062" gradientUnits="userSpaceOnUse">
<stop stop-color="#6897B5"/>
<stop offset="0.0001" stop-color="#4991EF"/>
<stop offset="0.494792" stop-color="#4060FF"/>
<stop offset="1" stop-color="#004EB6"/>
</linearGradient>
<linearGradient id="paint1_linear_1332_3495" x1="18.4384" y1="11.4951" x2="18.4384" y2="20.9894" gradientUnits="userSpaceOnUse">
<stop stop-color="#C21931"/>
<stop offset="1" stop-color="#F0680A"/>
</linearGradient>
<linearGradient id="paint2_linear_1332_3495" x1="8.34473" y1="2.00415" x2="8.34473" y2="10.311" gradientUnits="userSpaceOnUse">
<stop stop-color="#C21931"/>
<stop offset="1" stop-color="#F0680A"/>
</linearGradient>
<linearGradient id="paint3_linear_1332_3495" x1="13.6907" y1="2" x2="13.6907" y2="21.001" gradientUnits="userSpaceOnUse">
<stop stop-color="#6897B5"/>
<stop offset="0.0001" stop-color="#4991EF"/>
<stop offset="0.494792" stop-color="#4060FF"/>
<stop offset="1" stop-color="#004EB6"/>
</linearGradient>
</defs>
</svg>
