<svg width="56" height="56" viewBox="0 0 56 56" fill="none" xmlns="http://www.w3.org/2000/svg">
<circle cx="28" cy="28" r="28" fill="#F2F5FC"/>
<g clip-path="url(#clip0_1021_2400)">
<path d="M14 37.6209V30.3704C14.1351 29.5933 14.671 29.1798 15.4317 29.1842C16.3844 29.1893 17.2957 29.1902 18.1655 29.187C18.1841 29.1869 18.202 29.1795 18.2153 29.1662L29.2977 18.0832C29.3018 18.0792 29.3073 18.077 29.313 18.077C29.3188 18.077 29.3243 18.0792 29.3284 18.0832L31.92 20.6748C31.9224 20.6773 31.9252 20.6792 31.9284 20.6805C31.9315 20.6818 31.9349 20.6825 31.9383 20.6825C31.9417 20.6825 31.9451 20.6818 31.9483 20.6805C31.9514 20.6792 31.9542 20.6773 31.9566 20.6748L36.3245 16.307C36.3417 16.2898 36.3417 16.2727 36.3245 16.2555L34.5505 14.4815C34.5483 14.4794 34.5468 14.4767 34.546 14.4738C34.5453 14.4708 34.5454 14.4677 34.5463 14.4649C34.5472 14.462 34.5489 14.4594 34.5512 14.4574C34.5535 14.4554 34.5562 14.4541 34.5592 14.4536L41.2043 13.3467C41.2059 13.3464 41.2076 13.3465 41.2092 13.3471C41.2108 13.3476 41.2122 13.3485 41.2134 13.3497C41.2146 13.351 41.2155 13.3525 41.216 13.3541C41.2165 13.3558 41.2166 13.3576 41.2163 13.3593L40.1084 20.0104C40.1079 20.0128 40.1068 20.015 40.1053 20.0169C40.1037 20.0187 40.1016 20.0201 40.0993 20.0208C40.0971 20.0216 40.0947 20.0216 40.0924 20.021C40.0901 20.0205 40.0881 20.0192 40.0865 20.0175L38.3004 18.2314C38.298 18.229 38.2951 18.227 38.292 18.2257C38.2889 18.2244 38.2855 18.2237 38.2821 18.2237C38.2787 18.2237 38.2753 18.2244 38.2721 18.2257C38.269 18.227 38.2661 18.229 38.2638 18.2314L37.6447 18.8499C37.6316 18.863 37.625 18.8787 37.625 18.897V31.7545C37.625 31.7688 37.6306 31.7826 37.6406 31.7928C37.6507 31.803 37.6643 31.8089 37.6786 31.8092C37.975 31.8165 38.2871 31.8163 38.6148 31.8087C38.9196 31.8021 39.1546 31.8231 39.3198 31.8716C39.7387 31.9941 40.0684 32.3326 40.1964 32.757C40.2372 32.8929 40.2564 33.0645 40.2538 33.2716C40.2505 33.5417 40.2478 33.8059 40.2456 34.064C40.2445 34.1869 40.2172 34.3176 40.1636 34.4561C40.1559 34.4751 40.1618 34.4878 40.1811 34.4944C40.6128 34.6388 40.9022 34.9133 41.0495 35.318C41.1748 35.6609 41.1124 36.1055 41.1272 36.4888C41.1529 37.1478 40.816 37.6652 40.1816 37.8801C40.1623 37.8866 40.1561 37.8996 40.163 37.9189C40.213 38.0564 40.2394 38.1676 40.2423 38.2525C40.2533 38.5664 40.2556 38.89 40.2495 39.2232C40.2352 40.0074 39.6648 40.5658 38.8823 40.5641C36.67 40.5609 34.4183 40.5618 32.1273 40.5669C31.8662 40.5672 31.6591 40.541 31.506 40.4881C31.0849 40.3421 30.7584 39.9817 30.6595 39.5431C30.6086 39.3173 30.6272 39.087 30.6261 38.8546C30.6257 38.8265 30.6115 38.8125 30.5834 38.8125C25.6178 38.8121 20.5299 38.8121 15.3196 38.8125C15.1873 38.8125 15.0469 38.7879 14.8985 38.7387C14.3972 38.5724 14.0977 38.1998 14 37.6209ZM31.9255 23.3059C31.9288 23.3091 31.9333 23.311 31.938 23.311C31.9427 23.311 31.9473 23.3091 31.9506 23.3059L38.2692 16.9873C38.2726 16.984 38.2771 16.9822 38.2818 16.9822C38.2865 16.9822 38.291 16.984 38.2944 16.9873L39.4964 18.1888C39.4988 18.1911 39.5017 18.1928 39.5049 18.1936C39.5082 18.1944 39.5116 18.1942 39.5147 18.1932C39.5179 18.1922 39.5207 18.1903 39.5229 18.1878C39.5251 18.1853 39.5265 18.1822 39.527 18.1789L40.151 14.4334C40.1515 14.4305 40.1513 14.4276 40.1504 14.4249C40.1495 14.4221 40.148 14.4197 40.146 14.4176C40.1439 14.4156 40.1415 14.4141 40.1387 14.4132C40.136 14.4123 40.1331 14.4121 40.1302 14.4126L36.3847 15.0371C36.3814 15.0376 36.3783 15.0391 36.3758 15.0412C36.3733 15.0434 36.3714 15.0462 36.3704 15.0494C36.3694 15.0526 36.3692 15.056 36.37 15.0592C36.3708 15.0624 36.3725 15.0654 36.3748 15.0677L37.5763 16.2687C37.5796 16.272 37.5814 16.2766 37.5814 16.2813C37.5814 16.2859 37.5796 16.2905 37.5763 16.2938L31.9506 21.919C31.9473 21.9223 31.9427 21.9241 31.938 21.9241C31.9333 21.9241 31.9288 21.9223 31.9255 21.919L29.3256 19.3191C29.3223 19.3159 29.3177 19.314 29.313 19.314C29.3083 19.314 29.3038 19.3159 29.3005 19.3191L19.4611 29.1585C19.4586 29.1611 19.4569 29.1643 19.4563 29.1678C19.4556 29.1713 19.456 29.1749 19.4574 29.1782C19.4589 29.1815 19.4612 29.1843 19.4642 29.1862C19.4672 29.1882 19.4707 29.1892 19.4742 29.1891L20.8119 29.187C20.8143 29.187 20.8167 29.1865 20.819 29.1856C20.8213 29.1846 20.8233 29.1832 20.825 29.1815L29.3005 20.706C29.3038 20.7027 29.3083 20.7009 29.313 20.7009C29.3177 20.7009 29.3223 20.7027 29.3256 20.706L31.9255 23.3059ZM36.75 19.7851C36.75 19.7817 36.749 19.7784 36.7472 19.7756C36.7453 19.7728 36.7427 19.7706 36.7395 19.7693C36.7364 19.768 36.733 19.7677 36.7297 19.7684C36.7264 19.769 36.7234 19.7707 36.721 19.773L35.8799 20.6147C35.8783 20.6163 35.8771 20.6181 35.8763 20.6202C35.8754 20.6223 35.875 20.6245 35.875 20.6267V31.7945C35.875 31.799 35.8768 31.8033 35.88 31.8064C35.8831 31.8096 35.8875 31.8114 35.892 31.8114L36.733 31.812C36.7375 31.812 36.7419 31.8102 36.745 31.807C36.7482 31.8038 36.75 31.7995 36.75 31.795V19.7851ZM35 21.5411C34.9999 21.5373 34.9987 21.5336 34.9965 21.5304C34.9944 21.5273 34.9913 21.5248 34.9878 21.5234C34.9842 21.5219 34.9804 21.5215 34.9766 21.5222C34.9729 21.523 34.9694 21.5248 34.9666 21.5274L34.131 22.3641C34.1291 22.366 34.1276 22.3682 34.1266 22.3706C34.1255 22.3731 34.125 22.3757 34.125 22.3784V31.7917C34.125 31.7969 34.1271 31.802 34.1308 31.8056C34.1345 31.8093 34.1395 31.8114 34.1447 31.8114L34.9803 31.812C34.9855 31.812 34.9905 31.8099 34.9942 31.8062C34.9979 31.8025 35 31.7975 35 31.7923V21.5411ZM29.3442 21.9605C29.3402 21.9565 29.3354 21.9533 29.3302 21.9511C29.3249 21.9489 29.3193 21.9478 29.3136 21.9478C29.3079 21.9478 29.3023 21.9489 29.297 21.9511C29.2918 21.9533 29.287 21.9565 29.283 21.9605L28.8876 22.357C28.8836 22.3611 28.8804 22.3658 28.8782 22.3711C28.8761 22.3763 28.875 22.382 28.875 22.3877V29.1438C28.875 29.1552 28.8796 29.1662 28.8877 29.1743C28.8958 29.1824 28.9067 29.187 28.9182 29.187H29.7068C29.7183 29.187 29.7292 29.1824 29.7373 29.1743C29.7454 29.1662 29.75 29.1552 29.75 29.1438V22.3871C29.75 22.3814 29.7489 22.3758 29.7468 22.3705C29.7446 22.3653 29.7414 22.3605 29.7374 22.3565L29.3442 21.9605ZM28 23.2911C27.9999 23.2873 27.9987 23.2836 27.9965 23.2804C27.9944 23.2773 27.9913 23.2748 27.9878 23.2734C27.9842 23.2719 27.9804 23.2715 27.9766 23.2722C27.9729 23.273 27.9694 23.2748 27.9666 23.2774L27.131 24.1141C27.1291 24.116 27.1276 24.1182 27.1266 24.1206C27.1255 24.1231 27.125 24.1257 27.125 24.1284V29.1667C27.125 29.1693 27.1255 29.1719 27.1265 29.1743C27.1275 29.1766 27.1289 29.1788 27.1308 29.1806C27.1326 29.1825 27.1348 29.1839 27.1372 29.1849C27.1395 29.1859 27.1421 29.1864 27.1447 29.1864L27.9803 29.187C27.9855 29.187 27.9905 29.1849 27.9942 29.1812C27.9979 29.1775 28 29.1725 28 29.1673V23.2911ZM31.5 24.1262C31.5 24.1239 31.4996 24.1217 31.4987 24.1197C31.4979 24.1176 31.4967 24.1157 31.4951 24.1141L30.654 23.2714C30.6516 23.269 30.6486 23.2674 30.6453 23.2667C30.642 23.2661 30.6386 23.2664 30.6355 23.2677C30.6323 23.269 30.6297 23.2712 30.6278 23.274C30.626 23.2768 30.625 23.2801 30.625 23.2834V29.1695C30.625 29.174 30.6268 29.1783 30.63 29.1814C30.6331 29.1846 30.6375 29.1864 30.642 29.1864L31.483 29.187C31.4875 29.187 31.4919 29.1852 31.495 29.182C31.4982 29.1788 31.5 29.1745 31.5 29.17V24.1262ZM33.2232 23.2681C32.9465 23.5503 32.6727 23.8243 32.4018 24.0901C32.3839 24.1079 32.375 24.1295 32.375 24.1546V29.1361C32.375 29.1431 32.3764 29.1501 32.3791 29.1566C32.3818 29.1631 32.3858 29.1689 32.3908 29.1738C32.3958 29.1787 32.4017 29.1825 32.4082 29.1851C32.4147 29.1876 32.4216 29.1888 32.4286 29.1886C32.696 29.1809 32.9591 29.17 33.221 29.2608C33.2403 29.2673 33.25 29.2604 33.25 29.24V23.2911C33.25 23.2879 33.2491 23.2848 33.2473 23.2823C33.2367 23.2674 33.2287 23.2627 33.2232 23.2681ZM26.25 25.0351C26.25 25.0317 26.249 25.0284 26.2472 25.0256C26.2453 25.0228 26.2427 25.0206 26.2395 25.0193C26.2364 25.018 26.233 25.0177 26.2297 25.0184C26.2264 25.019 26.2234 25.0207 26.221 25.023L25.3799 25.8652C25.3784 25.8668 25.3771 25.8687 25.3763 25.8708C25.3754 25.8728 25.375 25.875 25.375 25.8773L25.3755 29.1695C25.3755 29.174 25.3773 29.1783 25.3805 29.1814C25.3837 29.1846 25.388 29.1864 25.3925 29.1864L26.233 29.1875C26.2375 29.1875 26.2419 29.1857 26.245 29.1825C26.2482 29.1794 26.25 29.175 26.25 29.1705V25.0351ZM24.5 26.7845C24.5001 26.7813 24.4992 26.7781 24.4974 26.7753C24.4956 26.7726 24.4931 26.7704 24.4901 26.7691C24.4871 26.7679 24.4838 26.7675 24.4806 26.7681C24.4774 26.7687 24.4744 26.7702 24.4721 26.7725L22.085 29.1596C22.0827 29.1619 22.0812 29.1649 22.0806 29.1681C22.08 29.1713 22.0804 29.1746 22.0816 29.1776C22.0829 29.1806 22.0851 29.1831 22.0878 29.1849C22.0906 29.1867 22.0938 29.1876 22.097 29.1875H24.4836C24.4857 29.1875 24.4879 29.1871 24.4899 29.1863C24.4919 29.1854 24.4937 29.1842 24.4952 29.1827C24.4967 29.1812 24.4979 29.1794 24.4988 29.1774C24.4996 29.1754 24.5 29.1733 24.5 29.1711V26.7845ZM21.2581 37.902C18.5724 35.9682 18.5987 32.04 21.2587 30.0959C21.2893 30.0733 21.2857 30.0621 21.2477 30.0625C19.2885 30.0629 17.3245 30.0625 15.3557 30.0614C15.0763 30.0614 14.875 30.2326 14.875 30.5328C14.875 32.8158 14.875 35.124 14.875 37.4573C14.8745 37.7789 15.0752 37.9386 15.3891 37.9386C17.2926 37.9379 19.2453 37.9373 21.2472 37.937C21.2866 37.937 21.2902 37.9253 21.2581 37.902ZM27.9989 33.9995C27.9989 32.9555 27.5842 31.9542 26.846 31.216C26.1077 30.4778 25.1065 30.063 24.0625 30.063C23.0185 30.063 22.0173 30.4778 21.279 31.216C20.5408 31.9542 20.1261 32.9555 20.1261 33.9995C20.1261 35.0435 20.5408 36.0447 21.279 36.7829C22.0173 37.5211 23.0185 37.9359 24.0625 37.9359C25.1065 37.9359 26.1077 37.5211 26.846 36.7829C27.5842 36.0447 27.9989 35.0435 27.9989 33.9995ZM26.8647 30.0953C29.5225 32.0395 29.5548 35.9671 26.8674 37.902C26.8346 37.9257 26.8384 37.9375 26.8789 37.9375H30.6693C30.6941 37.9375 30.711 37.926 30.7202 37.903C30.8507 37.5775 31.0764 37.3383 31.3972 37.1855C31.4535 37.1588 31.5131 37.144 31.5705 37.121C31.5895 37.1134 31.5952 37.1001 31.5875 37.0811C31.5306 36.9422 31.5016 36.7936 31.5005 36.6354C31.4984 36.3302 31.4993 36.02 31.5033 35.7046C31.5051 35.5635 31.5324 35.4273 31.5853 35.2961C31.5937 35.276 31.5875 35.2624 31.5667 35.2551C30.8815 35.0172 30.5895 34.4813 30.6217 33.7845C30.637 33.4488 30.5823 33.0643 30.6819 32.7515C30.8891 32.1002 31.4185 31.801 32.0813 31.8098C32.4911 31.8149 32.8703 31.8151 33.2188 31.8103C33.2275 31.8102 33.2358 31.8066 33.2419 31.8005C33.2479 31.7943 33.2512 31.7861 33.2511 31.7775C33.2496 31.3776 33.25 30.9705 33.2522 30.5563C33.2533 30.2769 33.0876 30.0625 32.7917 30.0625C30.843 30.0625 28.871 30.0625 26.8756 30.0625C26.8388 30.0625 26.8352 30.0734 26.8647 30.0953ZM38.459 33.5625H37.6589C37.6363 33.5625 37.625 33.5512 37.625 33.5286V32.7285C37.625 32.7176 37.6207 32.7072 37.613 32.6995C37.6053 32.6918 37.5949 32.6875 37.584 32.6875H36.7773C36.7591 32.6875 36.75 32.6966 36.75 32.7148V33.5352C36.75 33.5534 36.7409 33.5625 36.7227 33.5625H35.9023C35.8951 33.5625 35.8881 33.5596 35.883 33.5545C35.8779 33.5494 35.875 33.5424 35.875 33.5352V32.7351C35.875 32.7034 35.859 32.6875 35.8269 32.6875H35.0273C35.0091 32.6875 35 32.6966 35 32.7148V33.5352C35 33.5534 34.9909 33.5625 34.9727 33.5625H34.1523C34.1451 33.5625 34.1381 33.5596 34.133 33.5545C34.1279 33.5494 34.125 33.5424 34.125 33.5352V32.7285C34.125 32.7176 34.1207 32.7072 34.113 32.6995C34.1053 32.6918 34.0949 32.6875 34.084 32.6875H33.2773C33.2591 32.6875 33.25 32.6966 33.25 32.7148V33.5352C33.25 33.5534 33.2409 33.5625 33.2227 33.5625H32.4023C32.3841 33.5625 32.375 33.5534 32.375 33.5352V32.7159C32.375 32.6952 32.3646 32.6851 32.3438 32.6859C32.2465 32.6902 32.1464 32.6901 32.0436 32.6853C31.7198 32.6695 31.494 32.839 31.4984 33.1791C31.5013 33.4511 31.5013 33.7151 31.4984 33.971C31.4951 34.2423 31.6843 34.4337 31.9632 34.4342C34.3177 34.4379 36.6109 34.4397 38.8429 34.4397C39.1437 34.4397 39.3679 34.3106 39.3712 33.9803C39.3734 33.7477 39.3763 33.5115 39.3799 33.2716C39.3821 33.1068 39.3593 32.9841 39.3116 32.9035C39.1459 32.6241 38.8052 32.6853 38.5284 32.687C38.5095 32.6873 38.5 32.6968 38.5 32.7154V33.5215C38.5 33.5488 38.4863 33.5625 38.459 33.5625ZM39.3405 36.1875H38.5273C38.5091 36.1875 38.5 36.1784 38.5 36.1602V35.3398C38.5 35.3326 38.4971 35.3256 38.492 35.3205C38.4869 35.3154 38.4799 35.3125 38.4727 35.3125H37.6523C37.6341 35.3125 37.625 35.3216 37.625 35.3398V36.1602C37.625 36.1784 37.6159 36.1875 37.5977 36.1875H36.7773C36.7591 36.1875 36.75 36.1784 36.75 36.1602V35.3535C36.75 35.3426 36.7457 35.3322 36.738 35.3245C36.7303 35.3168 36.7199 35.3125 36.709 35.3125H35.9023C35.8841 35.3125 35.875 35.3216 35.875 35.3398V36.1602C35.875 36.1784 35.8659 36.1875 35.8477 36.1875H35.0273C35.0091 36.1875 35 36.1784 35 36.1602V35.3535C35 35.3426 34.9957 35.3322 34.988 35.3245C34.9803 35.3168 34.9699 35.3125 34.959 35.3125H34.1523C34.1341 35.3125 34.125 35.3216 34.125 35.3398V36.1602C34.125 36.1784 34.1159 36.1875 34.0977 36.1875H33.2773C33.2591 36.1875 33.25 36.1784 33.25 36.1602V35.342C33.25 35.3205 33.2392 35.3103 33.2177 35.3114C32.9372 35.3234 32.5659 35.2348 32.4187 35.5663C32.3863 35.6392 32.3706 35.7263 32.3717 35.8277C32.3754 36.0902 32.3774 36.3445 32.3777 36.5905C32.3777 36.8973 32.5757 37.0636 32.859 37.063C35.2853 37.062 37.5884 37.062 39.7682 37.063C40.0761 37.063 40.2577 36.8651 40.2527 36.5616C40.2484 36.3027 40.248 36.048 40.2516 35.7976C40.256 35.4837 40.0411 35.2961 39.7337 35.3098C39.6229 35.3149 39.5139 35.3151 39.4067 35.3103C39.3856 35.3092 39.375 35.3192 39.375 35.3404V36.153C39.375 36.176 39.3635 36.1875 39.3405 36.1875ZM38.459 38.8125H37.6523C37.6451 38.8125 37.6381 38.8096 37.633 38.8045C37.6279 38.7994 37.625 38.7924 37.625 38.7852V37.9785C37.625 37.9676 37.6207 37.9572 37.613 37.9495C37.6053 37.9418 37.5949 37.9375 37.584 37.9375H36.7773C36.7591 37.9375 36.75 37.9466 36.75 37.9648V38.7852C36.75 38.8034 36.7409 38.8125 36.7227 38.8125H35.9023C35.8841 38.8125 35.875 38.8034 35.875 38.7852V37.9785C35.875 37.9676 35.8707 37.9572 35.863 37.9495C35.8553 37.9418 35.8449 37.9375 35.834 37.9375H35.0273C35.0091 37.9375 35 37.9466 35 37.9648V38.7852C35 38.8034 34.9909 38.8125 34.9727 38.8125H34.1523C34.1341 38.8125 34.125 38.8034 34.125 38.7852V37.9785C34.125 37.9676 34.1207 37.9572 34.113 37.9495C34.1053 37.9418 34.0949 37.9375 34.084 37.9375H33.2773C33.2591 37.9375 33.25 37.9466 33.25 37.9648V38.7852C33.25 38.8034 33.2409 38.8125 33.2227 38.8125H32.4023C32.3841 38.8125 32.375 38.8034 32.375 38.7852V37.9659C32.375 37.9452 32.3648 37.9351 32.3444 37.9359C32.1617 37.9435 31.9375 37.9074 31.7696 37.9752C31.5383 38.0682 31.4891 38.2804 31.4962 38.5101C31.5035 38.7427 31.5036 38.9631 31.4967 39.1713C31.488 39.4425 31.6466 39.687 31.9419 39.687C34.2923 39.6873 36.6111 39.6875 38.8981 39.6875C39.1852 39.6875 39.3712 39.5147 39.3723 39.2068C39.3734 38.9738 39.3757 38.7387 39.3794 38.5013C39.3887 37.8981 38.9807 37.9211 38.5268 37.9386C38.5089 37.9393 38.5 37.9486 38.5 37.9665V38.7715C38.5 38.7988 38.4863 38.8125 38.459 38.8125Z" fill="#1B1B96"/>
<path d="M15.7801 13.4375H23.5955C23.6034 13.4375 23.6109 13.4406 23.6164 13.4461C23.6219 13.4517 23.6251 13.4592 23.6251 13.467V16.033C23.6251 16.0408 23.6219 16.0483 23.6164 16.0539C23.6109 16.0594 23.6034 16.0625 23.5955 16.0625H15.779C15.7712 16.0625 15.7637 16.0594 15.7582 16.0539C15.7526 16.0483 15.7495 16.0408 15.7495 16.033L15.7506 13.467C15.7506 13.4592 15.7537 13.4517 15.7593 13.4461C15.7648 13.4406 15.7723 13.4375 15.7801 13.4375ZM22.7501 14.3584C22.7501 14.3463 22.7452 14.3346 22.7366 14.326C22.728 14.3173 22.7163 14.3125 22.7041 14.3125H16.671C16.665 14.3125 16.659 14.3137 16.6534 14.316C16.6478 14.3183 16.6428 14.3217 16.6385 14.326C16.6342 14.3302 16.6309 14.3353 16.6286 14.3409C16.6262 14.3464 16.6251 14.3524 16.6251 14.3584V15.1416C16.6251 15.1476 16.6262 15.1536 16.6286 15.1591C16.6309 15.1647 16.6342 15.1698 16.6385 15.174C16.6428 15.1783 16.6478 15.1817 16.6534 15.184C16.659 15.1863 16.665 15.1875 16.671 15.1875H22.7041C22.7102 15.1875 22.7161 15.1863 22.7217 15.184C22.7273 15.1817 22.7323 15.1783 22.7366 15.174C22.7409 15.1698 22.7443 15.1647 22.7466 15.1591C22.7489 15.1536 22.7501 15.1476 22.7501 15.1416V14.3584Z" fill="#1B1B96"/>
<path d="M23.5971 16.9375H15.7779C15.7625 16.9375 15.75 16.95 15.75 16.9654V17.7846C15.75 17.8 15.7625 17.8125 15.7779 17.8125H23.5971C23.6125 17.8125 23.625 17.8 23.625 17.7846V16.9654C23.625 16.95 23.6125 16.9375 23.5971 16.9375Z" fill="#1B1B96"/>
<path d="M23.5971 18.6875H15.7779C15.7625 18.6875 15.75 18.7 15.75 18.7154V19.5346C15.75 19.55 15.7625 19.5625 15.7779 19.5625H23.5971C23.6125 19.5625 23.625 19.55 23.625 19.5346V18.7154C23.625 18.7 23.6125 18.6875 23.5971 18.6875Z" fill="#1B1B96"/>
<path d="M16.5958 20.4368L15.7777 20.4382C15.762 20.4382 15.7493 20.451 15.7493 20.4667L15.7507 21.2848C15.7508 21.3005 15.7635 21.3132 15.7792 21.3132L16.5974 21.3118C16.6131 21.3117 16.6258 21.299 16.6257 21.2833L16.6243 20.4651C16.6243 20.4494 16.6115 20.4367 16.5958 20.4368Z" fill="#1B1B96"/>
<path d="M18.3451 20.4387L17.5314 20.4373C17.5144 20.4373 17.5007 20.451 17.5007 20.4679L17.4993 21.2816C17.4992 21.2985 17.5129 21.3123 17.5298 21.3123L18.3436 21.3137C18.3605 21.3138 18.3742 21.3001 18.3743 21.2832L18.3757 20.4694C18.3757 20.4525 18.362 20.4388 18.3451 20.4387Z" fill="#1B1B96"/>
<path d="M23.5982 20.4375H19.2768C19.262 20.4375 19.25 20.4495 19.25 20.4643V21.2857C19.25 21.3005 19.262 21.3125 19.2768 21.3125H23.5982C23.613 21.3125 23.625 21.3005 23.625 21.2857V20.4643C23.625 20.4495 23.613 20.4375 23.5982 20.4375Z" fill="#1B1B96"/>
<path d="M23.5992 22.1875H15.7767C15.7622 22.1875 15.7505 22.1993 15.7505 22.2137V23.0363C15.7505 23.0507 15.7622 23.0625 15.7767 23.0625H23.5992C23.6137 23.0625 23.6255 23.0507 23.6255 23.0363V22.2137C23.6255 22.1993 23.6137 22.1875 23.5992 22.1875Z" fill="#1B1B96"/>
<path d="M16.7349 31.1152C16.9474 31.0051 17.1931 30.9464 17.472 30.9391C17.4906 30.9387 17.4999 30.9478 17.4999 30.9664V31.7731C17.4999 31.7942 17.4894 31.8061 17.4682 31.8086C16.9651 31.8721 16.6829 32.1543 16.6217 32.6552C16.6191 32.6767 16.6071 32.6875 16.5856 32.6875H15.7784C15.7547 32.6875 15.7437 32.6756 15.7456 32.6519C15.7962 31.9428 16.126 31.4306 16.7349 31.1152Z" fill="#1B1B96"/>
<path d="M23.5888 36.1077C23.0786 35.9321 22.7423 35.4459 22.7494 34.9045C22.7494 34.8848 22.7592 34.875 22.7789 34.875H23.5959C23.6138 34.875 23.6229 34.8839 23.6233 34.9018C23.6291 35.141 23.746 35.2768 23.9738 35.3092C24.1769 35.338 24.3275 35.2873 24.4255 35.1572C24.5683 34.9685 24.4923 34.7071 24.2839 34.6005C24.0283 34.4699 23.7695 34.3407 23.5073 34.2127C23.1481 34.0372 22.891 33.7599 22.7937 33.3815C22.6274 32.7323 22.9741 32.1166 23.5932 31.8885C23.6025 31.8851 23.6106 31.879 23.6162 31.8708C23.6219 31.8627 23.625 31.853 23.6249 31.8431V30.9785C23.6249 30.9676 23.6292 30.9572 23.6369 30.9495C23.6446 30.9418 23.6551 30.9375 23.6659 30.9375H24.4726C24.4908 30.9375 24.4999 30.9466 24.4999 30.9648V31.8431C24.4999 31.8686 24.512 31.8852 24.536 31.8929C25.0583 32.0635 25.3689 32.5541 25.3777 33.0927C25.378 33.1142 25.3675 33.125 25.3459 33.125H24.5404C24.5185 33.125 24.5067 33.1142 24.5048 33.0927C24.4771 32.7836 24.2976 32.6505 23.9662 32.6935C23.5538 32.7477 23.5073 33.2382 23.8792 33.4198C24.1505 33.5521 24.4111 33.6826 24.6613 33.8113C25.6609 34.3254 25.5975 35.727 24.5256 36.1126C24.5085 36.1188 24.4999 36.131 24.4999 36.1492V37.0352C24.4999 37.0534 24.4908 37.0625 24.4726 37.0625H23.6523C23.634 37.0625 23.6249 37.0534 23.6249 37.0352V36.1585C23.6249 36.133 23.6129 36.116 23.5888 36.1077Z" fill="#1B1B96"/>
<path d="M16.6243 35.3464C16.6593 35.7998 16.9995 36.1716 17.4676 36.1837C17.4891 36.1844 17.4999 36.1955 17.4999 36.217V37.0352C17.4999 37.0391 17.4991 37.043 17.4975 37.0466C17.496 37.0503 17.4937 37.0535 17.4908 37.0563C17.488 37.059 17.4846 37.0611 17.4809 37.0624C17.4772 37.0638 17.4732 37.0644 17.4693 37.0641C16.5051 37.0138 15.7915 36.3127 15.7493 35.3442C15.7483 35.3231 15.7583 35.3125 15.7794 35.3125H16.5877C16.6103 35.3125 16.6225 35.3238 16.6243 35.3464Z" fill="#1B1B96"/>
</g>
<defs>
<clipPath id="clip0_1021_2400">
<rect width="28" height="28" fill="white" transform="translate(14 13)"/>
</clipPath>
</defs>
</svg>
