<svg width="50" height="50" viewBox="0 0 50 50" fill="none" xmlns="http://www.w3.org/2000/svg">
<circle cx="25" cy="25" r="25" fill="#F2F5FC"/>
<path d="M33.519 31.0244L34.6496 32.1551C34.6685 32.1739 34.6869 32.1733 34.7049 32.1533C34.8651 31.9731 35.0517 31.8556 35.2873 31.9402C35.3644 31.9675 35.4737 32.0522 35.615 32.1942C36.5876 33.1707 37.5626 34.1468 38.5398 35.1225C39.3733 35.9542 39.5512 37.2703 38.8462 38.2507C38.0877 39.3053 36.7168 39.5921 35.5948 38.9194C35.4178 38.813 35.1506 38.5788 34.7931 38.2167C33.8738 37.2863 32.9672 36.3791 32.0733 35.4952C31.8055 35.2302 31.8976 34.9192 32.1597 34.7026C32.163 34.6999 32.1658 34.6966 32.1677 34.6927C32.1697 34.6889 32.1708 34.6847 32.171 34.6804C32.1712 34.6761 32.1706 34.6718 32.169 34.6678C32.1674 34.6638 32.1651 34.6602 32.162 34.6571L31.0089 33.5046C30.9931 33.4885 30.9755 33.4862 30.9559 33.4977C30.6882 33.6551 30.4538 33.7832 30.2526 33.8819C28.6026 34.6921 26.8453 34.8804 24.9807 34.4469C24.9699 34.4446 24.9605 34.4473 24.9525 34.455C24.3623 35.0451 23.7264 35.6808 23.0448 36.362C22.9392 36.4676 22.8158 36.5204 22.6745 36.5204C22.1111 36.5197 21.5096 36.5195 20.8699 36.5198C20.8665 36.5199 20.8632 36.5212 20.8607 36.5237C20.8583 36.5262 20.8568 36.5295 20.8567 36.5331C20.8486 36.8917 20.8482 37.2454 20.8555 37.5941C20.867 38.1591 20.787 38.5888 20.3723 38.9488C20.0762 39.2056 19.737 39.2892 19.3349 39.2886C17.415 39.2832 15.6348 39.2824 13.9944 39.2863C13.5421 39.287 13.1746 39.1254 12.892 38.8013C12.6409 38.5127 12.5533 38.1775 12.5551 37.7968C12.5601 36.4567 12.5601 35.2945 12.5551 34.3104C12.551 33.4545 13.1357 32.8324 13.9881 32.8324C15.7287 32.8324 17.5215 32.8326 19.3666 32.833C19.5874 32.8334 19.7683 32.8582 19.9092 32.9073C20.5698 33.1383 20.8665 33.697 20.8555 34.3749C20.8494 34.7658 20.849 35.1559 20.8544 35.5453C20.8545 35.5594 20.8603 35.5729 20.8704 35.5828C20.8806 35.5927 20.8942 35.5983 20.9085 35.5983H22.4752C22.4944 35.5983 22.5109 35.5914 22.5247 35.5775L23.9566 34.1428C23.9584 34.1411 23.9598 34.1389 23.9606 34.1365C23.9613 34.1341 23.9615 34.1316 23.961 34.1291C23.9606 34.1267 23.9595 34.1244 23.9579 34.1224C23.9563 34.1205 23.9543 34.119 23.952 34.118C22.3838 33.4764 21.141 32.4431 20.2237 31.0181C20.2114 30.9993 20.1941 30.9899 20.1718 30.9899C17.4206 30.991 14.7447 30.991 12.1444 30.9899C11.3628 30.9899 10.7171 30.4122 10.7171 29.6208C10.714 23.664 10.7135 17.8284 10.7154 12.1139C10.7154 11.3605 11.3138 10.7142 12.0868 10.7142C20.1183 10.7177 28.7238 10.7181 37.9034 10.7154C38.6308 10.7148 39.284 11.3225 39.2834 12.0666C39.2823 17.8556 39.283 23.6467 39.2857 29.4399C39.2857 29.6772 39.2654 29.8659 39.2247 30.0061C39.0507 30.604 38.4955 30.9899 37.8682 30.9904C36.4563 30.9908 35.0114 30.9906 33.5334 30.9899C33.5008 30.9899 33.496 31.0014 33.519 31.0244ZM33.2535 18.5493H32.4004C32.3928 18.5493 32.3855 18.5462 32.3801 18.5408C32.3747 18.5354 32.3716 18.5281 32.3716 18.5205L32.3711 17.4025C32.3711 17.399 32.3701 17.3955 32.3681 17.3925C32.3661 17.3896 32.3633 17.3873 32.3601 17.3859C32.3568 17.3846 32.3532 17.3842 32.3497 17.3849C32.3462 17.3856 32.343 17.3873 32.3405 17.3898L30.062 19.6678C30.0455 19.6843 30.0478 19.6978 30.0689 19.7082C30.4198 19.884 30.6437 20 30.7405 20.056C34.2148 22.0679 35.6432 26.3267 33.9861 30.0355C33.9765 30.0566 33.9832 30.0672 34.0063 30.0672C35.2442 30.0679 36.5051 30.0693 37.7887 30.0712C38.1044 30.0718 38.3618 29.9381 38.3618 29.5902C38.3611 23.8439 38.3613 18.0363 38.3624 12.1674C38.3624 11.8794 38.2069 11.6375 37.8913 11.6375C29.5864 11.6375 20.9987 11.6375 12.1283 11.6375C11.8403 11.6375 11.6398 11.8207 11.6393 12.1317C11.6339 17.8984 11.6341 23.7256 11.6398 29.6133C11.6404 29.8805 11.8547 30.0695 12.126 30.0695C14.6368 30.0687 17.1535 30.0685 19.6759 30.0689C19.7028 30.0689 19.7107 30.0568 19.6995 30.0326C19.5705 29.7523 19.4603 29.4674 19.3689 29.1778C19.3659 29.1685 19.3599 29.1603 19.352 29.1545C19.344 29.1487 19.3344 29.1456 19.3246 29.1456C17.3336 29.1513 15.2489 29.1515 13.0706 29.1462C12.7826 29.145 12.5585 28.9809 12.5585 28.6704C12.5574 24.4055 12.5572 20.13 12.5579 15.8439C12.5579 15.8362 12.5595 15.8286 12.5625 15.8214C12.5654 15.8143 12.5698 15.8078 12.5753 15.8024C12.5808 15.7969 12.5874 15.7926 12.5946 15.7896C12.6018 15.7867 12.6095 15.7852 12.6173 15.7852L13.4363 15.7846C13.4478 15.7846 13.4588 15.7891 13.4669 15.7972C13.475 15.8053 13.4795 15.8163 13.4795 15.8278V28.1681C13.4795 28.1834 13.4856 28.1981 13.4964 28.2089C13.5072 28.2197 13.5218 28.2257 13.5371 28.2257H19.0976C19.1222 28.2257 19.1326 28.2135 19.1287 28.1889C18.7897 26.1388 19.1871 24.2434 20.321 22.5028C20.3348 22.4813 20.3333 22.4611 20.3164 22.4423L19.9512 22.0299C19.9343 22.0107 19.9172 22.0105 19.9 22.0294L15.2299 27.1239C15.2111 27.1446 15.1913 27.1454 15.1706 27.1262L14.552 26.5583C14.5324 26.5402 14.5316 26.5214 14.5497 26.5018C16.1997 24.7029 17.87 22.8805 19.5607 21.0346C19.8389 20.7317 20.1419 20.8382 20.3786 21.1193C20.5564 21.3297 20.7298 21.5252 20.8987 21.7057C20.9121 21.7202 20.9256 21.7202 20.939 21.7057C22.2922 20.1851 23.9821 19.3 26.0088 19.0504C26.0116 19.0501 26.0142 19.0492 26.0165 19.0476C26.0188 19.046 26.0206 19.0439 26.0218 19.0414C26.023 19.0389 26.0236 19.0362 26.0234 19.0334C26.0233 19.0306 26.0224 19.028 26.0209 19.0256L24.2947 16.2638C24.2912 16.2582 24.2863 16.2535 24.2804 16.2503C24.2746 16.2471 24.268 16.2454 24.2613 16.2454H22.7119C22.7082 16.2454 22.7046 16.2468 22.7019 16.2494C22.6992 16.252 22.6976 16.2555 22.6975 16.2592C22.6925 16.6605 22.6927 17.0725 22.6981 17.4952C22.7033 17.8777 22.6209 18.2146 22.3807 18.5038C22.0512 18.8989 21.6561 19.0141 21.1418 19.0124C19.5002 19.0074 17.7281 19.0072 15.8255 19.0118C15.4851 19.0129 15.1608 18.9075 14.8993 18.6875C14.5145 18.3638 14.393 17.9641 14.3965 17.4492C14.4042 16.24 14.4047 15.0992 14.3982 14.0267C14.3942 13.3643 14.7634 12.801 15.3826 12.6178C15.5273 12.5748 15.741 12.5539 16.0236 12.5551C17.7723 12.562 19.5208 12.5624 21.2691 12.5562C22.0524 12.5539 22.6848 13.1408 22.6929 13.9322C22.6967 14.3089 22.6971 14.7494 22.694 15.2535C22.6937 15.2996 22.7167 15.3228 22.7632 15.3232C23.3464 15.3259 23.9191 15.3251 24.4813 15.3209C24.6639 15.3198 24.8321 15.386 24.9294 15.5421C25.6137 16.6345 26.3337 17.7863 27.0893 18.9974C27.0948 19.0063 27.1025 19.0137 27.1115 19.0189C27.1205 19.0241 27.1307 19.027 27.1412 19.0273C27.7844 19.0489 28.4225 19.1516 29.0557 19.3355C29.0638 19.3378 29.0723 19.3379 29.0804 19.3359C29.0885 19.3339 29.0959 19.3298 29.1018 19.324L31.6839 16.7424C31.7081 16.7182 31.7031 16.7061 31.669 16.7061H30.5573C30.5381 16.7061 30.5285 16.6965 30.5285 16.6774V15.8393C30.5285 15.8246 30.5343 15.8106 30.5447 15.8002C30.5551 15.7898 30.5691 15.784 30.5838 15.784C31.3268 15.7852 32.0675 15.785 32.8059 15.7834C33.0847 15.7834 33.2909 15.9764 33.2915 16.2649C33.2934 17.0667 33.294 17.8149 33.2932 18.5095C33.2928 18.536 33.2796 18.5493 33.2535 18.5493ZM21.7704 13.941C21.7703 13.8798 21.7581 13.8192 21.7346 13.7627C21.7111 13.7063 21.6767 13.6549 21.6334 13.6118C21.59 13.5686 21.5386 13.5343 21.482 13.511C21.4254 13.4877 21.3648 13.4757 21.3036 13.4758L15.7846 13.4855C15.7234 13.4856 15.6628 13.4977 15.6063 13.5213C15.5499 13.5448 15.4985 13.5792 15.4554 13.6225C15.4122 13.6659 15.3779 13.7173 15.3546 13.7739C15.3313 13.8305 15.3193 13.8911 15.3194 13.9523L15.3259 17.6282C15.326 17.6894 15.3381 17.7499 15.3616 17.8064C15.3852 17.8629 15.4196 17.9142 15.4629 17.9574C15.5063 18.0006 15.5577 18.0348 15.6143 18.0582C15.6708 18.0815 15.7315 18.0934 15.7926 18.0933L21.3117 18.0837C21.3729 18.0836 21.4334 18.0714 21.4899 18.0479C21.5464 18.0244 21.5977 17.99 21.6409 17.9466C21.6841 17.9033 21.7183 17.8519 21.7417 17.7953C21.765 17.7387 21.7769 17.6781 21.7768 17.6169L21.7704 13.941ZM33.7534 26.8422C33.7534 25.0094 33.0253 23.2517 31.7294 21.9557C30.4334 20.6597 28.6756 19.9316 26.8428 19.9316C25.01 19.9316 23.2523 20.6597 21.9563 21.9557C20.6603 23.2517 19.9322 25.0094 19.9322 26.8422C19.9322 28.675 20.6603 30.4328 21.9563 31.7288C23.2523 33.0248 25.01 33.7528 26.8428 33.7528C28.6756 33.7528 30.4334 33.0248 31.7294 31.7288C33.0253 30.4328 33.7534 28.675 33.7534 26.8422ZM32.848 34.0092L34.008 32.8491C34.0122 32.8449 34.0145 32.8392 34.0145 32.8333C34.0145 32.8274 34.0122 32.8217 34.008 32.8175L33.0075 31.817C32.994 31.8034 32.9799 31.7914 32.9683 31.7836C32.9568 31.7759 32.9487 31.773 32.9459 31.7755L31.7744 32.947C31.7718 32.9499 31.7747 32.9579 31.7825 32.9695C31.7903 32.981 31.8023 32.9951 31.8158 33.0087L32.8163 34.0092C32.8205 34.0133 32.8262 34.0157 32.8321 34.0157C32.8381 34.0157 32.8438 34.0133 32.848 34.0092ZM35.1196 33.0415L33.0404 35.1208C33.0356 35.1256 33.0329 35.1322 33.0329 35.1389C33.0329 35.1457 33.0356 35.1522 33.0404 35.1571L35.8074 37.9241C36.091 38.2076 36.4741 38.3685 36.8723 38.3713C37.2706 38.3741 37.6514 38.2186 37.931 37.9391L37.9379 37.9322C38.2175 37.6525 38.373 37.2717 38.3702 36.8735C38.3673 36.4752 38.2065 36.0922 37.9229 35.8085L35.1559 33.0415C35.1511 33.0368 35.1446 33.0341 35.1378 33.0341C35.131 33.0341 35.1245 33.0368 35.1196 33.0415ZM19.9273 34.2155C19.9272 34.1543 19.915 34.0937 19.8915 34.0372C19.868 33.9807 19.8336 33.9294 19.7902 33.8862C19.7469 33.843 19.6954 33.8088 19.6389 33.7855C19.5823 33.7622 19.5217 33.7502 19.4605 33.7503L13.9415 33.76C13.8803 33.7601 13.8197 33.7722 13.7632 33.7957C13.7067 33.8193 13.6554 33.8537 13.6122 33.897C13.569 33.9404 13.5348 33.9918 13.5115 34.0484C13.4882 34.1049 13.4762 34.1656 13.4763 34.2267L13.4827 37.9026C13.4828 37.9638 13.495 38.0244 13.5185 38.0809C13.542 38.1374 13.5764 38.1887 13.6198 38.2319C13.6631 38.2751 13.7146 38.3093 13.7711 38.3326C13.8277 38.356 13.8883 38.3679 13.9495 38.3678L19.4685 38.3582C19.5297 38.3581 19.5903 38.3459 19.6468 38.3224C19.7033 38.2989 19.7546 38.2645 19.7978 38.2211C19.841 38.1778 19.8752 38.1263 19.8985 38.0698C19.9218 38.0132 19.9338 37.9526 19.9337 37.8914L19.9273 34.2155Z" fill="#1B1B96"/>
<path d="M20.8248 14.4022H16.2711C16.2562 14.4022 16.2441 14.4143 16.2441 14.4293V15.2967C16.2441 15.3117 16.2562 15.3238 16.2711 15.3238H20.8248C20.8398 15.3238 20.8519 15.3117 20.8519 15.2967V14.4293C20.8519 14.4143 20.8398 14.4022 20.8248 14.4022Z" fill="#1B1B96"/>
<path d="M20.826 16.2452H16.27C16.2557 16.2452 16.2441 16.2568 16.2441 16.2712V17.1409C16.2441 17.1552 16.2557 17.1668 16.27 17.1668H20.826C20.8403 17.1668 20.8519 17.1552 20.8519 17.1409V16.2712C20.8519 16.2568 20.8403 16.2452 20.826 16.2452Z" fill="#1B1B96"/>
<path d="M32.8305 26.8432C32.8305 28.4313 32.1997 29.9544 31.0767 31.0773C29.9538 32.2003 28.4307 32.8311 26.8427 32.8311C25.2546 32.8311 23.7315 32.2003 22.6086 31.0773C21.4856 29.9544 20.8548 28.4313 20.8548 26.8432C20.8548 25.2551 21.4856 23.7321 22.6086 22.6092C23.7315 21.4862 25.2546 20.8553 26.8427 20.8553C28.4307 20.8553 29.9538 21.4862 31.0767 22.6092C32.1997 23.7321 32.8305 25.2551 32.8305 26.8432ZM26.5898 21.7896C25.083 21.8604 23.6961 22.6104 22.7906 23.8136C22.7879 23.8173 22.7864 23.8219 22.7865 23.8265C22.7866 23.8311 22.7883 23.8355 22.7912 23.8389L23.6177 24.768C23.6308 24.7826 23.644 24.783 23.6575 24.7691L26.6042 21.8224C26.6272 21.799 26.6224 21.788 26.5898 21.7896ZM27.721 29.1477H22.3529C22.3508 29.1478 22.3488 29.1483 22.347 29.1494C22.3452 29.1505 22.3437 29.152 22.3427 29.1537C22.3417 29.1555 22.3411 29.1576 22.3411 29.1596C22.341 29.1617 22.3415 29.1638 22.3425 29.1656C23.3251 31.0151 25.2541 32.0846 27.3363 31.8854C30.7968 31.5542 32.8749 27.9146 31.4557 24.7478C30.7916 23.2658 29.4708 22.24 27.8898 21.8823C27.8797 21.88 27.8692 21.8804 27.8593 21.8833C27.8493 21.8862 27.8402 21.8916 27.8328 21.899C26.5314 23.1992 25.2449 24.4857 23.9731 25.7587C23.828 25.9044 23.6247 25.9729 23.4311 25.8796C23.3497 25.8405 23.2579 25.7615 23.1558 25.6429C22.8609 25.3004 22.5748 24.9767 22.2976 24.6718C22.2955 24.6695 22.2928 24.6678 22.2898 24.6668C22.2869 24.6658 22.2837 24.6656 22.2807 24.6661C22.2776 24.6666 22.2747 24.6679 22.2722 24.6698C22.2698 24.6717 22.2678 24.6741 22.2665 24.677C21.7374 25.8051 21.6345 26.9767 21.9578 28.1916C21.9639 28.2146 21.9791 28.2262 22.0033 28.2262H27.7354C27.7431 28.2262 27.7504 28.2292 27.7558 28.2346C27.7612 28.24 27.7642 28.2473 27.7642 28.255V29.1045C27.7642 29.1333 27.7498 29.1477 27.721 29.1477Z" fill="#1B1B96"/>
<path d="M18.9811 34.677H14.4274C14.4125 34.677 14.4003 34.6891 14.4003 34.7041V35.5715C14.4003 35.5864 14.4125 35.5986 14.4274 35.5986H18.9811C18.9961 35.5986 19.0082 35.5864 19.0082 35.5715V34.7041C19.0082 34.6891 18.9961 34.677 18.9811 34.677Z" fill="#1B1B96"/>
<path d="M18.9823 36.52H14.4263C14.4119 36.52 14.4003 36.5316 14.4003 36.5459V37.4157C14.4003 37.43 14.4119 37.4416 14.4263 37.4416H18.9823C18.9966 37.4416 19.0082 37.43 19.0082 37.4157V36.5459C19.0082 36.5316 18.9966 36.52 18.9823 36.52Z" fill="#1B1B96"/>
</svg>
