<svg width="36" height="36" viewBox="0 0 36 36" fill="none" xmlns="http://www.w3.org/2000/svg">
<rect width="36" height="36" rx="18" fill="#1D1B9D"/>
<g clip-path="url(#clip0_1342_6578)">
<path d="M14.7158 10.5025C14.6546 10.1596 14.6852 9.82776 14.8077 9.50694C14.8591 9.36735 14.9571 9.28531 15.1016 9.26082C15.4958 9.1898 15.7187 9.35755 15.7701 9.76409C15.8069 10.0482 15.8056 10.3225 15.7665 10.5869C15.7617 10.6177 15.7637 10.6491 15.7724 10.6791C15.7811 10.709 15.7963 10.7368 15.8168 10.7605C15.8374 10.7842 15.8629 10.8032 15.8916 10.8164C15.9203 10.8296 15.9515 10.8365 15.9832 10.8367L19.9432 10.8331C19.9787 10.8331 20.0139 10.8259 20.0465 10.8119C20.0792 10.7979 20.1086 10.7774 20.133 10.7516C20.1574 10.7258 20.1763 10.6952 20.1885 10.6619C20.2007 10.6285 20.206 10.593 20.204 10.5576C20.1869 10.1853 20.226 9.82531 20.3216 9.47755C20.3779 9.26939 20.5126 9.17878 20.7256 9.20572C20.8775 9.22776 21.0109 9.29266 21.126 9.40041C21.1813 9.45108 21.2251 9.51308 21.2542 9.58218C21.2834 9.65128 21.2973 9.72585 21.295 9.80082L21.2693 10.631C21.2644 10.7682 21.3305 10.8367 21.4677 10.8367H25.806C26.073 10.8367 26.329 10.9432 26.5178 11.1326C26.7065 11.3221 26.8126 11.579 26.8126 11.8469L26.8162 25.7143C26.8162 26.0066 26.7001 26.2869 26.4935 26.4935C26.2868 26.7002 26.0065 26.8163 25.7142 26.8163H10.1938C9.92588 26.8163 9.66893 26.7099 9.47948 26.5204C9.29003 26.331 9.18359 26.074 9.18359 25.8061V11.8469C9.18359 11.579 9.29003 11.3221 9.47948 11.1326C9.66893 10.9432 9.92588 10.8367 10.1938 10.8367H14.4367C14.662 10.8367 14.755 10.7253 14.7158 10.5025ZM20.2628 12.6808L20.1967 12.1078C20.182 11.9951 20.1183 11.9388 20.0056 11.9388H16.0971C15.9281 11.9388 15.8326 12.0233 15.8105 12.1922L15.7481 12.6661C15.7309 12.8131 15.6538 12.9171 15.5167 12.9784C15.3207 13.0665 15.1285 13.0616 14.9399 12.9637C14.8762 12.93 14.8223 12.8804 14.7837 12.8198C14.745 12.7593 14.7229 12.6899 14.7195 12.6184L14.6938 12.1188C14.6889 11.9988 14.6265 11.9388 14.5065 11.9388H10.5611C10.3775 11.9388 10.2856 12.0306 10.2856 12.2143V25.5306C10.2856 25.6531 10.3469 25.7143 10.4693 25.7143H25.5305C25.6505 25.7143 25.7105 25.6531 25.7105 25.5306L25.7179 12.2143C25.7179 12.0306 25.6248 11.9388 25.4387 11.9388H21.5044C21.4564 11.9385 21.4099 11.9559 21.374 11.9878C21.338 12.0197 21.3152 12.0637 21.3097 12.1114L21.2362 12.6918C21.2265 12.7727 21.191 12.8484 21.1348 12.9078C21.0787 12.9673 21.0048 13.0075 20.924 13.0225C20.804 13.0445 20.684 13.042 20.564 13.0151C20.4855 12.998 20.4144 12.9566 20.3604 12.8967C20.3064 12.8367 20.2723 12.7613 20.2628 12.6808Z" fill="white"/>
<path d="M17.1736 20.7588L20.7332 16.1633C20.9561 15.8767 21.2414 15.7861 21.5891 15.8914C21.7777 15.9478 21.8438 16.1571 21.7875 16.5196C21.7731 16.6158 21.7339 16.7069 21.6736 16.7841L17.4932 22.1878C17.2091 22.5551 16.9177 22.5624 16.6189 22.2098L14.3083 19.4914C14.0879 19.2343 14.0867 18.9747 14.3046 18.7127C14.361 18.6416 14.4308 18.5853 14.514 18.5437C14.7075 18.4408 14.8765 18.4727 15.021 18.6392L16.8614 20.7661C16.9691 20.891 17.0732 20.8886 17.1736 20.7588Z" fill="white"/>
</g>
<defs>
<clipPath id="clip0_1342_6578">
<rect width="18" height="18" fill="white" transform="translate(9 9)"/>
</clipPath>
</defs>
</svg>
