<svg width="24" height="24" viewBox="0 0 24 24" fill="none" xmlns="http://www.w3.org/2000/svg">
<g clip-path="url(#clip0_1342_6641)">
<path d="M11.7933 0H12.2137C13.7037 0.0659375 14.9984 0.555469 16.0978 1.46859C18.9928 3.87422 19.2839 8.15812 16.7245 10.9233C15.6811 12.0505 14.3497 12.7238 12.7303 12.9431C12.7122 12.9456 12.7031 12.9559 12.7031 12.9741V13.4161C12.7031 13.4323 12.7114 13.4405 12.728 13.4405C14.9495 13.4423 17.2066 13.442 19.4991 13.4395C19.8169 13.4395 20.0597 13.5694 20.1994 13.8577C20.2478 13.958 20.2697 14.1305 20.265 14.3752C20.2569 14.7861 20.2569 15.1895 20.265 15.5855C20.2651 15.5894 20.2665 15.5932 20.2689 15.5962C20.2712 15.5993 20.2745 15.6014 20.2781 15.6023C22.0903 16.1147 22.8328 18.262 21.7397 19.7934C21.7291 19.8081 21.732 19.8194 21.7486 19.8272C23.0812 20.4464 23.9245 21.6844 24 23.1502V23.3803C23.9291 23.7256 23.7214 23.9322 23.377 24H0.616406C0.273594 23.9272 0.068125 23.7197 0 23.3775V23.13C0.0815625 21.6745 0.934219 20.4291 2.24813 19.8337C2.25072 19.8326 2.25303 19.8309 2.25488 19.8287C2.25674 19.8266 2.2581 19.8241 2.25886 19.8213C2.25962 19.8186 2.25977 19.8157 2.25929 19.8129C2.25881 19.8101 2.25772 19.8075 2.25609 19.8052C1.77516 19.1111 1.62937 18.3619 1.81875 17.5575C2.04187 16.6102 2.77969 15.8794 3.70688 15.6033C3.72375 15.5983 3.73234 15.5869 3.73266 15.5691C3.73984 15.1647 3.73937 14.7636 3.73125 14.3658C3.72687 14.132 3.74922 13.9617 3.79828 13.8548C3.91172 13.6078 4.16109 13.4414 4.43625 13.4414C6.70969 13.4411 8.985 13.4409 11.2622 13.4409C11.2853 13.4409 11.2969 13.4294 11.2969 13.4062V12.9736C11.2969 12.9567 11.2886 12.9472 11.272 12.945C9.70953 12.7369 8.40328 12.0886 7.35328 11.0002C4.71422 8.26359 4.97531 3.91406 7.88953 1.47984C8.99141 0.559219 10.2927 0.0659375 11.7933 0ZM7.78734 9.29531C8.16891 8.30625 8.83937 7.58859 9.79875 7.14234C9.81844 7.13328 9.82203 7.11984 9.80953 7.10203C9.165 6.17391 9.11109 4.98375 9.74016 4.03078C10.5595 2.78859 12.2222 2.42062 13.4873 3.26109C14.1319 3.68953 14.5683 4.38328 14.6691 5.15438C14.7603 5.855 14.598 6.50391 14.182 7.10109C14.1723 7.11484 14.1752 7.12531 14.1905 7.1325C15.1505 7.58 15.822 8.29484 16.2052 9.27703C16.213 9.29672 16.2225 9.29766 16.2337 9.27984C16.8222 8.35547 17.0983 7.37219 17.062 6.33C17.0214 5.16687 16.6297 4.13641 15.8869 3.23859C14.5289 1.5975 12.248 0.970781 10.2375 1.72875C7.18219 2.88047 5.97328 6.55266 7.77984 9.29625C7.78028 9.29691 7.78089 9.29743 7.7816 9.29775C7.78231 9.29808 7.7831 9.2982 7.78388 9.29811C7.78466 9.29801 7.7854 9.2977 7.78601 9.2972C7.78662 9.29671 7.78708 9.29605 7.78734 9.29531ZM13.29 5.51344C13.29 5.17006 13.1536 4.84076 12.9108 4.59796C12.668 4.35515 12.3387 4.21875 11.9953 4.21875C11.6519 4.21875 11.3226 4.35515 11.0798 4.59796C10.837 4.84076 10.7006 5.17006 10.7006 5.51344C10.7006 5.85681 10.837 6.18612 11.0798 6.42892C11.3226 6.67172 11.6519 6.80813 11.9953 6.80813C12.3387 6.80813 12.668 6.67172 12.9108 6.42892C13.1536 6.18612 13.29 5.85681 13.29 5.51344ZM8.985 10.5717C10.7873 11.9044 13.2169 11.902 15.0127 10.5727C15.0197 10.5675 15.0254 10.5606 15.0291 10.5527C15.0329 10.5447 15.0346 10.536 15.0342 10.5272C14.9817 9.45844 14.3016 8.58844 13.2675 8.30109C13.0556 8.24234 12.7653 8.21516 12.3966 8.21953C12.0528 8.22359 11.7158 8.22484 11.3855 8.22328C10.0594 8.21719 9.03609 9.20109 8.96484 10.5286C8.96391 10.5467 8.97062 10.5611 8.985 10.5717ZM6.63562 19.8309C7.28437 20.1284 7.80766 20.5627 8.20547 21.1336C8.20719 21.1361 8.2095 21.1382 8.21219 21.1396C8.21489 21.141 8.21789 21.1417 8.22094 21.1417C8.22398 21.1417 8.22698 21.141 8.22968 21.1396C8.23238 21.1382 8.23468 21.1361 8.23641 21.1336C8.64391 20.5561 9.16703 20.123 9.80578 19.8342C9.82266 19.8264 9.82563 19.815 9.81469 19.8C9.29719 19.0842 9.14578 18.1378 9.45 17.3095C9.74719 16.4995 10.4091 15.8297 11.2627 15.6075C11.2855 15.6016 11.2969 15.5867 11.2969 15.563V14.8777C11.2969 14.8701 11.2939 14.8628 11.2885 14.8574C11.2831 14.8521 11.2759 14.8491 11.2683 14.8491H5.17172C5.15172 14.8491 5.14172 14.8591 5.14172 14.8791V15.5625C5.14172 15.5828 5.15141 15.5959 5.17078 15.6019C6.09844 15.8827 6.83016 16.6078 7.05562 17.5552C7.24594 18.3548 7.10266 19.1017 6.62578 19.7958C6.62383 19.7987 6.62253 19.8019 6.62197 19.8054C6.62141 19.8088 6.62161 19.8123 6.62255 19.8156C6.62348 19.819 6.62514 19.8221 6.6274 19.8247C6.62966 19.8274 6.63246 19.8295 6.63562 19.8309ZM14.3541 16.8998C14.843 17.8008 14.8181 18.9422 14.1811 19.7892C14.1677 19.807 14.1711 19.8206 14.1914 19.83C14.843 20.1294 15.3661 20.5631 15.7608 21.1312C15.7717 21.1472 15.7827 21.1473 15.7936 21.1317C16.207 20.5533 16.7264 20.1248 17.3587 19.8361C17.3784 19.827 17.382 19.8136 17.3695 19.7958C16.74 18.907 16.6884 17.8191 17.2008 16.8891C17.5477 16.2597 18.0903 15.8297 18.8288 15.5991C18.8463 15.5934 18.855 15.5814 18.855 15.563V14.8772C18.855 14.8697 18.852 14.8626 18.8466 14.8573C18.8413 14.852 18.834 14.8491 18.8264 14.8491H12.7378C12.7147 14.8491 12.7031 14.8605 12.7031 14.8833V15.5644C12.7031 15.5838 12.7123 15.5962 12.7308 15.6019C13.4705 15.8363 14.0116 16.2689 14.3541 16.8998ZM5.73234 18.2086C5.73234 18.0386 5.69886 17.8702 5.63379 17.7131C5.56873 17.5561 5.47336 17.4133 5.35314 17.2931C5.23292 17.1729 5.09019 17.0775 4.93311 17.0125C4.77603 16.9474 4.60768 16.9139 4.43766 16.9139C4.09428 16.9139 3.76497 17.0503 3.52217 17.2931C3.27937 17.5359 3.14297 17.8652 3.14297 18.2086C3.14297 18.552 3.27937 18.8813 3.52217 19.1241C3.76497 19.3669 4.09428 19.5033 4.43766 19.5033C4.60768 19.5033 4.77603 19.4698 4.93311 19.4047C5.09019 19.3397 5.23292 19.2443 5.35314 19.1241C5.47336 19.0039 5.56873 18.8611 5.63379 18.704C5.69886 18.547 5.73234 18.3786 5.73234 18.2086ZM13.29 18.2086C13.29 17.8652 13.1536 17.5359 12.9108 17.2931C12.668 17.0503 12.3387 16.9139 11.9953 16.9139C11.6519 16.9139 11.3226 17.0503 11.0798 17.2931C10.837 17.5359 10.7006 17.8652 10.7006 18.2086C10.7006 18.552 10.837 18.8813 11.0798 19.1241C11.3226 19.3669 11.6519 19.5033 11.9953 19.5033C12.3387 19.5033 12.668 19.3669 12.9108 19.1241C13.1536 18.8813 13.29 18.552 13.29 18.2086ZM20.8477 18.2086C20.8477 18.0386 20.8142 17.8702 20.7491 17.7131C20.684 17.5561 20.5887 17.4133 20.4685 17.2931C20.3482 17.1729 20.2055 17.0775 20.0484 17.0125C19.8913 16.9474 19.723 16.9139 19.553 16.9139C19.2096 16.9139 18.8803 17.0503 18.6375 17.2931C18.3947 17.5359 18.2583 17.8652 18.2583 18.2086C18.2583 18.552 18.3947 18.8813 18.6375 19.1241C18.8803 19.3669 19.2096 19.5033 19.553 19.5033C19.723 19.5033 19.8913 19.4698 20.0484 19.4047C20.2055 19.3397 20.3482 19.2443 20.4685 19.1241C20.5887 19.0039 20.684 18.8611 20.7491 18.704C20.8142 18.547 20.8477 18.3786 20.8477 18.2086ZM2.80687 21.127C2.18219 21.4173 1.7525 21.8972 1.51781 22.5666C1.51684 22.5695 1.51655 22.5726 1.51698 22.5756C1.51742 22.5786 1.51855 22.5815 1.5203 22.584C1.52204 22.5865 1.52434 22.5885 1.52701 22.5898C1.52968 22.5912 1.53263 22.5919 1.53562 22.5919H7.35C7.3527 22.5919 7.35537 22.5912 7.35777 22.59C7.36017 22.5888 7.36224 22.587 7.3638 22.5848C7.36536 22.5825 7.36637 22.58 7.36674 22.5773C7.36711 22.5746 7.36684 22.5719 7.36594 22.5694C7.02047 21.5625 6.13406 20.9095 5.06531 20.9166C4.73156 20.9184 4.355 20.9177 3.93563 20.9142C3.52547 20.9105 3.15703 20.9644 2.80687 21.127ZM10.7362 20.9953C9.94922 21.2025 9.33984 21.7884 9.08016 22.5605C9.07297 22.5814 9.08047 22.5919 9.10266 22.5919H14.9058C14.9088 22.5919 14.9117 22.5912 14.9144 22.5898C14.9171 22.5885 14.9194 22.5865 14.9211 22.584C14.9229 22.5815 14.924 22.5786 14.9244 22.5756C14.9249 22.5726 14.9246 22.5695 14.9236 22.5666C14.5936 21.6192 13.7367 20.9222 12.7205 20.9208C12.3542 20.9202 11.9806 20.9173 11.5997 20.9123C11.2513 20.9077 10.9634 20.9353 10.7362 20.9953ZM18.9173 20.9161C17.8922 20.918 16.9416 21.5705 16.6364 22.5666C16.6314 22.5834 16.6378 22.5919 16.6556 22.5919H22.4559C22.4599 22.5919 22.4639 22.591 22.4674 22.5891C22.471 22.5873 22.474 22.5846 22.4763 22.5813C22.4786 22.578 22.4801 22.5741 22.4806 22.5701C22.4812 22.5661 22.4807 22.562 22.4794 22.5581C22.2306 21.8628 21.778 21.3753 21.1214 21.0956C20.8711 20.9892 20.5683 20.9217 20.2922 20.9198C19.8369 20.9164 19.3786 20.9152 18.9173 20.9161Z" fill="url(#paint0_linear_1342_6641)"/>
<g clip-path="url(#clip1_1342_6641)">
<path d="M11.7933 0H12.2137C13.7037 0.0659375 14.9984 0.555469 16.0978 1.46859C18.9928 3.87422 19.2839 8.15812 16.7245 10.9233C15.6811 12.0505 14.3497 12.7238 12.7303 12.9431C12.7122 12.9456 12.7031 12.9559 12.7031 12.9741V13.4161C12.7031 13.4323 12.7114 13.4405 12.728 13.4405C14.9495 13.4423 17.2066 13.442 19.4991 13.4395C19.8169 13.4395 20.0597 13.5694 20.1994 13.8577C20.2478 13.958 20.2697 14.1305 20.265 14.3752C20.2569 14.7861 20.2569 15.1895 20.265 15.5855C20.2651 15.5894 20.2665 15.5932 20.2689 15.5962C20.2712 15.5993 20.2745 15.6014 20.2781 15.6023C22.0903 16.1147 22.8328 18.262 21.7397 19.7934C21.7291 19.8081 21.732 19.8194 21.7486 19.8272C23.0812 20.4464 23.9245 21.6844 24 23.1502V23.3803C23.9291 23.7256 23.7214 23.9322 23.377 24H0.616406C0.273594 23.9272 0.068125 23.7197 0 23.3775V23.13C0.0815625 21.6745 0.934219 20.4291 2.24813 19.8337C2.25072 19.8326 2.25303 19.8309 2.25488 19.8287C2.25674 19.8266 2.2581 19.8241 2.25886 19.8213C2.25962 19.8186 2.25977 19.8157 2.25929 19.8129C2.25881 19.8101 2.25772 19.8075 2.25609 19.8052C1.77516 19.1111 1.62937 18.3619 1.81875 17.5575C2.04187 16.6102 2.77969 15.8794 3.70688 15.6033C3.72375 15.5983 3.73234 15.5869 3.73266 15.5691C3.73984 15.1647 3.73937 14.7636 3.73125 14.3658C3.72687 14.132 3.74922 13.9617 3.79828 13.8548C3.91172 13.6078 4.16109 13.4414 4.43625 13.4414C6.70969 13.4411 8.985 13.4409 11.2622 13.4409C11.2853 13.4409 11.2969 13.4294 11.2969 13.4062V12.9736C11.2969 12.9567 11.2886 12.9472 11.272 12.945C9.70953 12.7369 8.40328 12.0886 7.35328 11.0002C4.71422 8.26359 4.97531 3.91406 7.88953 1.47984C8.99141 0.559219 10.2927 0.0659375 11.7933 0ZM7.78734 9.29531C8.16891 8.30625 8.83937 7.58859 9.79875 7.14234C9.81844 7.13328 9.82203 7.11984 9.80953 7.10203C9.165 6.17391 9.11109 4.98375 9.74016 4.03078C10.5595 2.78859 12.2222 2.42062 13.4873 3.26109C14.1319 3.68953 14.5683 4.38328 14.6691 5.15438C14.7603 5.855 14.598 6.50391 14.182 7.10109C14.1723 7.11484 14.1752 7.12531 14.1905 7.1325C15.1505 7.58 15.822 8.29484 16.2052 9.27703C16.213 9.29672 16.2225 9.29766 16.2337 9.27984C16.8222 8.35547 17.0983 7.37219 17.062 6.33C17.0214 5.16687 16.6297 4.13641 15.8869 3.23859C14.5289 1.5975 12.248 0.970781 10.2375 1.72875C7.18219 2.88047 5.97328 6.55266 7.77984 9.29625C7.78028 9.29691 7.78089 9.29743 7.7816 9.29775C7.78231 9.29808 7.7831 9.2982 7.78388 9.29811C7.78466 9.29801 7.7854 9.2977 7.78601 9.2972C7.78662 9.29671 7.78708 9.29605 7.78734 9.29531ZM13.29 5.51344C13.29 5.17006 13.1536 4.84076 12.9108 4.59796C12.668 4.35515 12.3387 4.21875 11.9953 4.21875C11.6519 4.21875 11.3226 4.35515 11.0798 4.59796C10.837 4.84076 10.7006 5.17006 10.7006 5.51344C10.7006 5.85681 10.837 6.18612 11.0798 6.42892C11.3226 6.67172 11.6519 6.80813 11.9953 6.80813C12.3387 6.80813 12.668 6.67172 12.9108 6.42892C13.1536 6.18612 13.29 5.85681 13.29 5.51344ZM8.985 10.5717C10.7873 11.9044 13.2169 11.902 15.0127 10.5727C15.0197 10.5675 15.0254 10.5606 15.0291 10.5527C15.0329 10.5447 15.0346 10.536 15.0342 10.5272C14.9817 9.45844 14.3016 8.58844 13.2675 8.30109C13.0556 8.24234 12.7653 8.21516 12.3966 8.21953C12.0528 8.22359 11.7158 8.22484 11.3855 8.22328C10.0594 8.21719 9.03609 9.20109 8.96484 10.5286C8.96391 10.5467 8.97062 10.5611 8.985 10.5717ZM6.63562 19.8309C7.28437 20.1284 7.80766 20.5627 8.20547 21.1336C8.20719 21.1361 8.2095 21.1382 8.21219 21.1396C8.21489 21.141 8.21789 21.1417 8.22094 21.1417C8.22398 21.1417 8.22698 21.141 8.22968 21.1396C8.23238 21.1382 8.23468 21.1361 8.23641 21.1336C8.64391 20.5561 9.16703 20.123 9.80578 19.8342C9.82266 19.8264 9.82563 19.815 9.81469 19.8C9.29719 19.0842 9.14578 18.1378 9.45 17.3095C9.74719 16.4995 10.4091 15.8297 11.2627 15.6075C11.2855 15.6016 11.2969 15.5867 11.2969 15.563V14.8777C11.2969 14.8701 11.2939 14.8628 11.2885 14.8574C11.2831 14.8521 11.2759 14.8491 11.2683 14.8491H5.17172C5.15172 14.8491 5.14172 14.8591 5.14172 14.8791V15.5625C5.14172 15.5828 5.15141 15.5959 5.17078 15.6019C6.09844 15.8827 6.83016 16.6078 7.05562 17.5552C7.24594 18.3548 7.10266 19.1017 6.62578 19.7958C6.62383 19.7987 6.62253 19.8019 6.62197 19.8054C6.62141 19.8088 6.62161 19.8123 6.62255 19.8156C6.62348 19.819 6.62514 19.8221 6.6274 19.8247C6.62966 19.8274 6.63246 19.8295 6.63562 19.8309ZM14.3541 16.8998C14.843 17.8008 14.8181 18.9422 14.1811 19.7892C14.1677 19.807 14.1711 19.8206 14.1914 19.83C14.843 20.1294 15.3661 20.5631 15.7608 21.1312C15.7717 21.1472 15.7827 21.1473 15.7936 21.1317C16.207 20.5533 16.7264 20.1248 17.3587 19.8361C17.3784 19.827 17.382 19.8136 17.3695 19.7958C16.74 18.907 16.6884 17.8191 17.2008 16.8891C17.5477 16.2597 18.0903 15.8297 18.8288 15.5991C18.8463 15.5934 18.855 15.5814 18.855 15.563V14.8772C18.855 14.8697 18.852 14.8626 18.8466 14.8573C18.8413 14.852 18.834 14.8491 18.8264 14.8491H12.7378C12.7147 14.8491 12.7031 14.8605 12.7031 14.8833V15.5644C12.7031 15.5838 12.7123 15.5962 12.7308 15.6019C13.4705 15.8363 14.0116 16.2689 14.3541 16.8998ZM5.73234 18.2086C5.73234 18.0386 5.69886 17.8702 5.63379 17.7131C5.56873 17.5561 5.47336 17.4133 5.35314 17.2931C5.23292 17.1729 5.09019 17.0775 4.93311 17.0125C4.77603 16.9474 4.60768 16.9139 4.43766 16.9139C4.09428 16.9139 3.76497 17.0503 3.52217 17.2931C3.27937 17.5359 3.14297 17.8652 3.14297 18.2086C3.14297 18.552 3.27937 18.8813 3.52217 19.1241C3.76497 19.3669 4.09428 19.5033 4.43766 19.5033C4.60768 19.5033 4.77603 19.4698 4.93311 19.4047C5.09019 19.3397 5.23292 19.2443 5.35314 19.1241C5.47336 19.0039 5.56873 18.8611 5.63379 18.704C5.69886 18.547 5.73234 18.3786 5.73234 18.2086ZM13.29 18.2086C13.29 17.8652 13.1536 17.5359 12.9108 17.2931C12.668 17.0503 12.3387 16.9139 11.9953 16.9139C11.6519 16.9139 11.3226 17.0503 11.0798 17.2931C10.837 17.5359 10.7006 17.8652 10.7006 18.2086C10.7006 18.552 10.837 18.8813 11.0798 19.1241C11.3226 19.3669 11.6519 19.5033 11.9953 19.5033C12.3387 19.5033 12.668 19.3669 12.9108 19.1241C13.1536 18.8813 13.29 18.552 13.29 18.2086ZM20.8477 18.2086C20.8477 18.0386 20.8142 17.8702 20.7491 17.7131C20.684 17.5561 20.5887 17.4133 20.4685 17.2931C20.3482 17.1729 20.2055 17.0775 20.0484 17.0125C19.8913 16.9474 19.723 16.9139 19.553 16.9139C19.2096 16.9139 18.8803 17.0503 18.6375 17.2931C18.3947 17.5359 18.2583 17.8652 18.2583 18.2086C18.2583 18.552 18.3947 18.8813 18.6375 19.1241C18.8803 19.3669 19.2096 19.5033 19.553 19.5033C19.723 19.5033 19.8913 19.4698 20.0484 19.4047C20.2055 19.3397 20.3482 19.2443 20.4685 19.1241C20.5887 19.0039 20.684 18.8611 20.7491 18.704C20.8142 18.547 20.8477 18.3786 20.8477 18.2086ZM2.80687 21.127C2.18219 21.4173 1.7525 21.8972 1.51781 22.5666C1.51684 22.5695 1.51655 22.5726 1.51698 22.5756C1.51742 22.5786 1.51855 22.5815 1.5203 22.584C1.52204 22.5865 1.52434 22.5885 1.52701 22.5898C1.52968 22.5912 1.53263 22.5919 1.53562 22.5919H7.35C7.3527 22.5919 7.35537 22.5912 7.35777 22.59C7.36017 22.5888 7.36224 22.587 7.3638 22.5848C7.36536 22.5825 7.36637 22.58 7.36674 22.5773C7.36711 22.5746 7.36684 22.5719 7.36594 22.5694C7.02047 21.5625 6.13406 20.9095 5.06531 20.9166C4.73156 20.9184 4.355 20.9177 3.93563 20.9142C3.52547 20.9105 3.15703 20.9644 2.80687 21.127ZM10.7362 20.9953C9.94922 21.2025 9.33984 21.7884 9.08016 22.5605C9.07297 22.5814 9.08047 22.5919 9.10266 22.5919H14.9058C14.9088 22.5919 14.9117 22.5912 14.9144 22.5898C14.9171 22.5885 14.9194 22.5865 14.9211 22.584C14.9229 22.5815 14.924 22.5786 14.9244 22.5756C14.9249 22.5726 14.9246 22.5695 14.9236 22.5666C14.5936 21.6192 13.7367 20.9222 12.7205 20.9208C12.3542 20.9202 11.9806 20.9173 11.5997 20.9123C11.2513 20.9077 10.9634 20.9353 10.7362 20.9953ZM18.9173 20.9161C17.8922 20.918 16.9416 21.5705 16.6364 22.5666C16.6314 22.5834 16.6378 22.5919 16.6556 22.5919H22.4559C22.4599 22.5919 22.4639 22.591 22.4674 22.5891C22.471 22.5873 22.474 22.5846 22.4763 22.5813C22.4786 22.578 22.4801 22.5741 22.4806 22.5701C22.4812 22.5661 22.4807 22.562 22.4794 22.5581C22.2306 21.8628 21.778 21.3753 21.1214 21.0956C20.8711 20.9892 20.5683 20.9217 20.2922 20.9198C19.8369 20.9164 19.3786 20.9152 18.9173 20.9161Z" fill="url(#paint1_linear_1342_6641)"/>
</g>
</g>
<defs>
<linearGradient id="paint0_linear_1342_6641" x1="12" y1="0" x2="12" y2="24" gradientUnits="userSpaceOnUse">
<stop offset="0.47" stop-color="#6897B5"/>
<stop offset="0.685" stop-color="#4991EF"/>
<stop offset="1" stop-color="#004EB6"/>
</linearGradient>
<linearGradient id="paint1_linear_1342_6641" x1="12" y1="0" x2="12" y2="24" gradientUnits="userSpaceOnUse">
<stop stop-color="#C21931"/>
<stop offset="1" stop-color="#F0680A"/>
</linearGradient>
<clipPath id="clip0_1342_6641">
<rect width="24" height="24" fill="white"/>
</clipPath>
<clipPath id="clip1_1342_6641">
<rect width="24" height="13" fill="white" transform="translate(-0.00341797)"/>
</clipPath>
</defs>
</svg>
