<svg width="24" height="24" viewBox="0 0 24 24" fill="none" xmlns="http://www.w3.org/2000/svg">
<path d="M13.8086 17.75H11.1836C11.0095 17.75 10.8426 17.6809 10.7196 17.5578C10.5965 17.4347 10.5273 17.2678 10.5273 17.0937V14.4687H7.90234C7.7283 14.4687 7.56137 14.3996 7.4383 14.2765C7.31523 14.1535 7.24609 13.9865 7.24609 13.8125V11.1875C7.24609 11.0135 7.31523 10.8465 7.4383 10.7235C7.56137 10.6004 7.7283 10.5312 7.90234 10.5312H10.5273V7.90625C10.5273 7.7322 10.5965 7.56528 10.7196 7.44221C10.8426 7.31914 11.0095 7.25 11.1836 7.25H13.8086C13.9826 7.25 14.1496 7.31914 14.2726 7.44221C14.3957 7.56528 14.4648 7.7322 14.4648 7.90625V10.5312H17.0898C17.2639 10.5312 17.4308 10.6004 17.5539 10.7235C17.677 10.8465 17.7461 11.0135 17.7461 11.1875V13.8125C17.7461 13.9865 17.677 14.1535 17.5539 14.2765C17.4308 14.3996 17.2639 14.4687 17.0898 14.4687H14.4648V17.0937C14.4648 17.2678 14.3957 17.4347 14.2726 17.5578C14.1496 17.6809 13.9826 17.75 13.8086 17.75ZM11.8398 16.4375H13.1523V13.8125C13.1523 13.6385 13.2215 13.4715 13.3445 13.3485C13.4676 13.2254 13.6345 13.1562 13.8086 13.1562H16.4336V11.8437H13.8086C13.6345 11.8437 13.4676 11.7746 13.3445 11.6515C13.2215 11.5285 13.1523 11.3615 13.1523 11.1875V8.5625H11.8398V11.1875C11.8398 11.3615 11.7707 11.5285 11.6476 11.6515C11.5246 11.7746 11.3576 11.8437 11.1836 11.8437H8.55859V13.1562H11.1836C11.3576 13.1562 11.5246 13.2254 11.6476 13.3485C11.7707 13.4715 11.8398 13.6385 11.8398 13.8125V16.4375Z" fill="url(#paint0_linear_1332_3522)"/>
<path d="M12.4961 23C10.4194 23 8.38933 22.3842 6.66262 21.2304C4.9359 20.0767 3.59008 18.4368 2.79536 16.5182C2.00064 14.5996 1.79271 12.4884 2.19785 10.4516C2.603 8.41475 3.60303 6.54383 5.07148 5.07538C6.53994 3.60693 8.41085 2.6069 10.4477 2.20176C12.4845 1.79661 14.5956 2.00455 16.5143 2.79927C18.4329 3.59399 20.0728 4.9398 21.2265 6.66652C22.3803 8.39323 22.9961 10.4233 22.9961 12.5C22.9929 15.2838 21.8856 17.9526 19.9171 19.921C17.9487 21.8895 15.2799 22.9968 12.4961 23ZM12.4961 3.3125C10.679 3.3125 8.90267 3.85134 7.39179 4.86088C5.88091 5.87041 4.70334 7.3053 4.00796 8.9841C3.31258 10.6629 3.13063 12.5102 3.48513 14.2924C3.83964 16.0746 4.71466 17.7117 5.99956 18.9965C7.28445 20.2814 8.92151 21.1565 10.7037 21.511C12.4859 21.8655 14.3332 21.6835 16.012 20.9881C17.6908 20.2928 19.1257 19.1152 20.1352 17.6043C21.1448 16.0934 21.6836 14.3171 21.6836 12.5C21.6809 10.0641 20.7121 7.72882 18.9897 6.0064C17.2673 4.28399 14.932 3.31517 12.4961 3.3125Z" fill="url(#paint1_linear_1332_3522)"/>
<defs>
<linearGradient id="paint0_linear_1332_3522" x1="12.4961" y1="7.25" x2="12.4961" y2="17.75" gradientUnits="userSpaceOnUse">
<stop stop-color="#C21931"/>
<stop offset="1" stop-color="#F0680A"/>
</linearGradient>
<linearGradient id="paint1_linear_1332_3522" x1="12.4961" y1="2" x2="12.4961" y2="23" gradientUnits="userSpaceOnUse">
<stop stop-color="#6897B5"/>
<stop offset="0.0001" stop-color="#4991EF"/>
<stop offset="0.494792" stop-color="#4060FF"/>
<stop offset="1" stop-color="#004EB6"/>
</linearGradient>
</defs>
</svg>
