<svg width="56" height="56" viewBox="0 0 56 56" fill="none" xmlns="http://www.w3.org/2000/svg">
<circle cx="28" cy="28" r="28" fill="#F2F5FC"/>
<g clip-path="url(#clip0_929_18362)">
<path d="M15.0707 17.6211C14.5861 18.9866 14.2876 20.3651 14.1751 21.7568C14.0719 23.0374 14.0707 24.3293 14.2738 25.5674C14.6009 27.5641 15.2351 29.3895 16.1763 31.0436C16.6405 31.8595 17.1419 32.6176 17.6807 33.318C17.7232 33.3734 17.7165 33.3801 17.6607 33.338C17.3948 33.1384 17.1367 32.9191 16.8863 32.6799C14.1894 30.103 12.8101 26.5268 12.9126 22.7899C12.9671 20.7974 13.433 18.9249 14.3101 17.1724C15.1492 15.4949 16.2465 14.0972 17.6019 12.9793C17.7036 12.8951 17.7146 12.9055 17.6351 13.0105C16.5182 14.4786 15.6263 16.0555 15.0707 17.6211Z" fill="#1B1B96"/>
<path d="M15.0707 17.6211C14.5861 18.9866 14.2876 20.3651 14.1751 21.7568C14.0719 23.0374 14.0707 24.3293 14.2738 25.5674C14.6009 27.5641 15.2351 29.3895 16.1763 31.0436C16.6405 31.8595 17.1419 32.6176 17.6807 33.318C17.7232 33.3734 17.7165 33.3801 17.6607 33.338C17.3948 33.1384 17.1367 32.9191 16.8863 32.6799C14.1894 30.103 12.8101 26.5268 12.9126 22.7899C12.9671 20.7974 13.433 18.9249 14.3101 17.1724C15.1492 15.4949 16.2465 14.0972 17.6019 12.9793C17.7036 12.8951 17.7146 12.9055 17.6351 13.0105C16.5182 14.4786 15.6263 16.0555 15.0707 17.6211Z" fill="#1B1B96"/>
<path d="M43.0881 22.888C43.1769 26.8917 41.52 30.8317 38.3937 33.3636C38.2837 33.4528 38.2717 33.4411 38.3575 33.3286C38.8975 32.6219 39.39 31.8723 39.835 31.0798C41.0521 28.9128 41.7346 26.588 41.8825 24.1055C42.0525 21.2417 41.3987 18.3273 40.1175 15.8261C39.6156 14.8473 38.9962 13.9055 38.3381 13.0305C38.2765 12.9488 38.2856 12.9398 38.3656 13.0036C41.3231 15.3642 43.0044 19.0911 43.0881 22.888Z" fill="#1B1B96"/>
<path d="M43.0881 22.888C43.1769 26.8917 41.52 30.8317 38.3937 33.3636C38.2837 33.4528 38.2717 33.4411 38.3575 33.3286C38.8975 32.6219 39.39 31.8723 39.835 31.0798C41.0521 28.9128 41.7346 26.588 41.8825 24.1055C42.0525 21.2417 41.3987 18.3273 40.1175 15.8261C39.6156 14.8473 38.9962 13.9055 38.3381 13.0305C38.2765 12.9488 38.2856 12.9398 38.3656 13.0036C41.3231 15.3642 43.0044 19.0911 43.0881 22.888Z" fill="#1B1B96"/>
<path d="M20.1574 15.4824C20.0519 15.6365 19.9478 15.7913 19.8449 15.9468C18.519 17.9455 17.7817 20.1453 17.633 22.5461C17.5049 24.6099 17.9717 26.7761 18.8274 28.6036C19.2069 29.4145 19.6519 30.1828 20.1624 30.9086C20.2049 30.9686 20.1965 30.9768 20.1374 30.933C18.964 30.0634 18.0482 28.9576 17.3899 27.6155C16.6978 26.2051 16.353 24.7372 16.3555 23.2118C16.3563 22.5184 16.4509 21.744 16.6392 20.8886C17.1092 18.7486 18.3686 16.748 20.1599 15.4399C20.1761 15.4282 20.183 15.4322 20.1805 15.4518C20.1792 15.4588 20.1759 15.4645 20.1705 15.4686C20.1651 15.4732 20.1607 15.4778 20.1574 15.4824Z" fill="#1B1B96"/>
<path d="M20.1574 15.4824C20.0519 15.6365 19.9478 15.7913 19.8449 15.9468C18.519 17.9455 17.7817 20.1453 17.633 22.5461C17.5049 24.6099 17.9717 26.7761 18.8274 28.6036C19.2069 29.4145 19.6519 30.1828 20.1624 30.9086C20.2049 30.9686 20.1965 30.9768 20.1374 30.933C18.964 30.0634 18.0482 28.9576 17.3899 27.6155C16.6978 26.2051 16.353 24.7372 16.3555 23.2118C16.3563 22.5184 16.4509 21.744 16.6392 20.8886C17.1092 18.7486 18.3686 16.748 20.1599 15.4399C20.1761 15.4282 20.183 15.4322 20.1805 15.4518C20.1792 15.4588 20.1759 15.4645 20.1705 15.4686C20.1651 15.4732 20.1607 15.4778 20.1574 15.4824Z" fill="#1B1B96"/>
<path d="M39.3687 25.4693C38.9106 27.6155 37.6231 29.6543 35.8381 30.9499C35.806 30.9732 35.801 30.9684 35.8231 30.9355C36.0006 30.6738 36.1752 30.4082 36.3468 30.1386C38.7131 26.4199 39.0312 21.7386 37.1506 17.7386C36.7889 16.9695 36.3514 16.2186 35.8381 15.4861C35.7985 15.4295 35.8068 15.4213 35.8631 15.4618C37.0702 16.3322 37.9974 17.4561 38.6449 18.8336C39.6262 20.9216 39.8674 23.1334 39.3687 25.4693Z" fill="#1B1B96"/>
<path d="M39.3687 25.4693C38.9106 27.6155 37.6231 29.6543 35.8381 30.9499C35.806 30.9732 35.801 30.9684 35.8231 30.9355C36.0006 30.6738 36.1752 30.4082 36.3468 30.1386C38.7131 26.4199 39.0312 21.7386 37.1506 17.7386C36.7889 16.9695 36.3514 16.2186 35.8381 15.4861C35.7985 15.4295 35.8068 15.4213 35.8631 15.4618C37.0702 16.3322 37.9974 17.4561 38.6449 18.8336C39.6262 20.9216 39.8674 23.1334 39.3687 25.4693Z" fill="#1B1B96"/>
<path d="M21.9322 19.2229C21.616 19.9396 21.3764 20.7061 21.2135 21.5223C20.8779 23.2042 21.0829 25.0086 21.6935 26.5911C21.931 27.2056 22.2324 27.8454 22.5979 28.5104C22.6183 28.5479 22.6106 28.5554 22.5747 28.5329C22.1389 28.2613 21.7579 27.9423 21.4316 27.5761C18.9954 24.8429 19.291 20.3579 22.2379 18.0879C22.3479 18.0034 22.4604 17.9271 22.5754 17.8592C22.6037 17.8425 22.6101 17.8488 22.5947 17.8779C22.3285 18.3775 22.1076 18.8259 21.9322 19.2229Z" fill="#1B1B96"/>
<path d="M21.9322 19.2229C21.616 19.9396 21.3764 20.7061 21.2135 21.5223C20.8779 23.2042 21.0829 25.0086 21.6935 26.5911C21.931 27.2056 22.2324 27.8454 22.5979 28.5104C22.6183 28.5479 22.6106 28.5554 22.5747 28.5329C22.1389 28.2613 21.7579 27.9423 21.4316 27.5761C18.9954 24.8429 19.291 20.3579 22.2379 18.0879C22.3479 18.0034 22.4604 17.9271 22.5754 17.8592C22.6037 17.8425 22.6101 17.8488 22.5947 17.8779C22.3285 18.3775 22.1076 18.8259 21.9322 19.2229Z" fill="#1B1B96"/>
<path d="M35.7678 25.5265C35.3115 26.7894 34.539 27.7678 33.4503 28.4615C33.394 28.4973 33.3824 28.4865 33.4153 28.429C33.8534 27.6596 34.249 26.8215 34.559 25.9671C34.6407 25.7413 34.7063 25.5142 34.7559 25.2859C35.1146 23.6434 35.0549 22.0428 34.5765 20.484C34.3219 19.654 33.9322 18.7836 33.4072 17.8728C33.388 17.8398 33.3946 17.8336 33.4271 17.854C33.5063 17.904 33.584 17.9551 33.6603 18.0071C36.0509 19.6459 36.7003 22.9453 35.7678 25.5265Z" fill="#1B1B96"/>
<path d="M35.7678 25.5265C35.3115 26.7894 34.539 27.7678 33.4503 28.4615C33.394 28.4973 33.3824 28.4865 33.4153 28.429C33.8534 27.6596 34.249 26.8215 34.559 25.9671C34.6407 25.7413 34.7063 25.5142 34.7559 25.2859C35.1146 23.6434 35.0549 22.0428 34.5765 20.484C34.3219 19.654 33.9322 18.7836 33.4072 17.8728C33.388 17.8398 33.3946 17.8336 33.4271 17.854C33.5063 17.904 33.584 17.9551 33.6603 18.0071C36.0509 19.6459 36.7003 22.9453 35.7678 25.5265Z" fill="#1B1B96"/>
<path d="M29.3457 27.2231C30.5507 30.3181 31.7657 33.5125 32.8182 36.6194C32.9474 37.001 33.0736 37.4052 33.197 37.8319C33.2974 38.1798 33.3355 38.4764 33.3113 38.7219C33.2451 39.3944 32.732 39.905 32.0913 40.1319C31.9234 40.1914 31.7157 40.2229 31.4682 40.2262C29.0365 40.2571 26.6797 40.2537 24.3976 40.2162C24.2534 40.2142 24.1015 40.1839 23.942 40.1256C23.2845 39.8856 22.7876 39.2469 22.7513 38.5231C22.7434 38.3727 22.7707 38.1848 22.8332 37.9594C22.9807 37.4264 23.1336 36.9287 23.292 36.4662C24.3545 33.36 25.5157 30.3094 26.6651 27.2094C26.6665 27.2056 26.6671 27.2016 26.6667 27.1976C26.6664 27.1936 26.6652 27.1897 26.6632 27.1862C26.6611 27.1827 26.6584 27.1796 26.655 27.1773C26.6517 27.1749 26.6479 27.1733 26.6438 27.1725C25.1795 26.8969 24.0482 25.7194 23.6176 24.3325C23.238 23.11 23.3703 21.9256 24.0145 20.7794C24.2724 20.321 24.5709 19.9494 24.9101 19.6644C25.8226 18.8981 26.8486 18.5067 27.9882 18.49C30.1588 18.4581 32.0557 19.9644 32.4951 22.0869C32.9626 24.3494 31.667 26.645 29.3713 27.1737C29.3438 27.1804 29.3353 27.1969 29.3457 27.2231ZM27.8813 27.3094C27.5238 27.3537 27.1432 27.295 26.7738 27.2475C26.748 27.2442 26.7322 27.2552 26.7263 27.2806C25.8863 30.9394 24.8857 34.6469 23.8745 38.3119C23.8361 38.4502 23.8324 38.5685 23.8632 38.6669C23.9307 38.8837 24.1588 39.0775 24.402 39.0775C26.9199 39.0767 29.292 39.0764 31.5182 39.0769C31.8013 39.0769 32.1026 38.6656 32.0257 38.3919C30.9751 34.6587 29.9895 31 29.1576 27.275C29.153 27.2554 29.1409 27.2477 29.1213 27.2519C28.723 27.3398 28.3624 27.3619 28.0395 27.3181C27.9424 27.3052 27.9422 27.2912 28.0388 27.2762C29.3943 27.0667 30.3968 26.396 31.0463 25.2644C31.5713 24.349 31.6997 23.4112 31.4313 22.4512C31.1697 21.5158 30.6497 20.7935 29.8713 20.2844C28.5651 19.43 26.9338 19.5137 25.712 20.5C25.4165 20.7383 25.1922 20.96 25.0388 21.165C24.5055 21.8762 24.2726 22.6852 24.3401 23.5919C24.4101 24.5325 24.8326 25.5325 25.552 26.1781C26.2236 26.781 27.0001 27.151 27.8813 27.2881C27.9318 27.296 27.9318 27.3031 27.8813 27.3094Z" fill="#1B1B96"/>
<path d="M29.3457 27.2231C30.5507 30.3181 31.7657 33.5125 32.8182 36.6194C32.9474 37.001 33.0736 37.4052 33.197 37.8319C33.2974 38.1798 33.3355 38.4764 33.3113 38.7219C33.2451 39.3944 32.732 39.905 32.0913 40.1319C31.9234 40.1914 31.7157 40.2229 31.4682 40.2262C29.0365 40.2571 26.6797 40.2537 24.3976 40.2162C24.2534 40.2142 24.1015 40.1839 23.942 40.1256C23.2845 39.8856 22.7876 39.2469 22.7513 38.5231C22.7434 38.3727 22.7707 38.1848 22.8332 37.9594C22.9807 37.4264 23.1336 36.9287 23.292 36.4662C24.3545 33.36 25.5157 30.3094 26.6651 27.2094C26.6665 27.2056 26.6671 27.2016 26.6667 27.1976C26.6664 27.1936 26.6652 27.1897 26.6632 27.1862C26.6611 27.1827 26.6584 27.1796 26.655 27.1773C26.6517 27.1749 26.6479 27.1733 26.6438 27.1725C25.1795 26.8969 24.0482 25.7194 23.6176 24.3325C23.238 23.11 23.3703 21.9256 24.0145 20.7794C24.2724 20.321 24.5709 19.9494 24.9101 19.6644C25.8226 18.8981 26.8486 18.5067 27.9882 18.49C30.1588 18.4581 32.0557 19.9644 32.4951 22.0869C32.9626 24.3494 31.667 26.645 29.3713 27.1737C29.3438 27.1804 29.3353 27.1969 29.3457 27.2231ZM27.8813 27.3094C27.5238 27.3537 27.1432 27.295 26.7738 27.2475C26.748 27.2442 26.7322 27.2552 26.7263 27.2806C25.8863 30.9394 24.8857 34.6469 23.8745 38.3119C23.8361 38.4502 23.8324 38.5685 23.8632 38.6669C23.9307 38.8837 24.1588 39.0775 24.402 39.0775C26.9199 39.0767 29.292 39.0764 31.5182 39.0769C31.8013 39.0769 32.1026 38.6656 32.0257 38.3919C30.9751 34.6587 29.9895 31 29.1576 27.275C29.153 27.2554 29.1409 27.2477 29.1213 27.2519C28.723 27.3398 28.3624 27.3619 28.0395 27.3181C27.9424 27.3052 27.9422 27.2912 28.0388 27.2762C29.3943 27.0667 30.3968 26.396 31.0463 25.2644C31.5713 24.349 31.6997 23.4112 31.4313 22.4512C31.1697 21.5158 30.6497 20.7935 29.8713 20.2844C28.5651 19.43 26.9338 19.5137 25.712 20.5C25.4165 20.7383 25.1922 20.96 25.0388 21.165C24.5055 21.8762 24.2726 22.6852 24.3401 23.5919C24.4101 24.5325 24.8326 25.5325 25.552 26.1781C26.2236 26.781 27.0001 27.151 27.8813 27.2881C27.9318 27.296 27.9318 27.3031 27.8813 27.3094Z" fill="#1B1B96"/>
<path d="M26.0474 22.8659C25.253 21.7221 26.983 20.2203 27.9767 21.2365C27.9832 21.2432 27.9869 21.2521 27.9871 21.2614C27.9873 21.2708 27.9841 21.2799 27.978 21.2871C27.6224 21.6971 27.2661 22.1071 26.8305 22.4021C26.6109 22.5505 26.3657 22.7084 26.0949 22.8759C26.0873 22.8806 26.0781 22.8822 26.0693 22.8804C26.0605 22.8785 26.0526 22.8733 26.0474 22.8659Z" fill="#1B1B96"/>
<path d="M26.0474 22.8659C25.253 21.7221 26.983 20.2203 27.9767 21.2365C27.9832 21.2432 27.9869 21.2521 27.9871 21.2614C27.9873 21.2708 27.9841 21.2799 27.978 21.2871C27.6224 21.6971 27.2661 22.1071 26.8305 22.4021C26.6109 22.5505 26.3657 22.7084 26.0949 22.8759C26.0873 22.8806 26.0781 22.8822 26.0693 22.8804C26.0605 22.8785 26.0526 22.8733 26.0474 22.8659Z" fill="#1B1B96"/>
</g>
<defs>
<clipPath id="clip0_929_18362">
<rect width="32" height="29.5758" fill="white" transform="translate(12 13)"/>
</clipPath>
</defs>
</svg>
