<svg width="24" height="24" viewBox="0 0 24 24" fill="none" xmlns="http://www.w3.org/2000/svg">
<g clip-path="url(#clip0_1342_6633)">
<path d="M24 11.2289V11.4061C23.9641 12.023 23.7389 12.5519 23.3245 12.9928C23.3204 12.9971 23.3178 13.0026 23.3169 13.0085C23.3161 13.0145 23.3171 13.0206 23.3198 13.0261C23.7698 13.9106 23.5031 14.9569 22.8745 15.668C22.8678 15.6755 22.8635 15.685 22.8622 15.6951C22.861 15.7053 22.8628 15.7156 22.8675 15.7247C23.3156 16.5942 23.0316 17.6241 22.418 18.3469C22.4119 18.3541 22.408 18.3629 22.407 18.3723C22.4059 18.3816 22.4076 18.391 22.4119 18.3994C22.455 18.4812 22.4867 18.5645 22.507 18.6492C22.7545 19.6908 22.4541 20.827 21.532 21.4233C20.9555 21.7964 20.2509 21.9084 19.5469 21.9089C16.4862 21.912 13.4697 21.9134 10.4972 21.9131C10.215 21.9131 10.0142 21.9033 9.89484 21.8836C9.45609 21.8105 9.05484 21.5967 8.67656 21.3516C8.59063 21.2959 8.47672 21.2728 8.33484 21.2822C8.31516 21.2837 8.30547 21.2942 8.30578 21.3136C8.30734 21.3986 8.30797 21.4819 8.30766 21.5634C8.30391 22.1662 7.86141 22.6176 7.26234 22.6162C5.34453 22.6116 3.37359 22.613 1.34953 22.6205C1.03609 22.6217 0.805156 22.5959 0.656719 22.5431C0.302969 22.4169 0.0840625 22.1387 0 21.7087V11.9489C0.0253125 11.6708 0.128906 11.4397 0.310781 11.2556C0.577969 10.9851 0.882188 10.9322 1.27922 10.9331C3.55266 10.9369 5.80516 10.9372 8.03672 10.9341C8.20328 10.9337 8.38188 10.9805 8.5725 11.0742C8.58687 11.0814 8.60078 11.0809 8.61422 11.0728C8.72172 11.0112 8.82125 10.9294 8.91281 10.8272C9.42984 10.2534 9.85125 9.61827 10.3364 8.85374C10.9723 7.85155 11.5505 6.82905 12.0708 5.78624C12.0809 5.7656 12.0861 5.74295 12.0858 5.72015C12.0714 4.80108 12.0517 3.92858 12.0267 3.10265C12.0186 2.82921 12.0356 2.62608 12.0778 2.49327C12.2147 2.06202 12.5967 1.74515 13.0139 1.5853C13.853 1.26374 14.66 1.33843 15.435 1.80936C15.5794 1.89702 15.7064 2.04655 15.7828 2.20218C16.2156 3.0828 16.5419 3.91733 16.7616 4.70577C16.8628 5.06921 16.9359 5.44343 16.9809 5.82843C16.9994 5.98405 16.9988 6.14514 16.9791 6.31171C16.8619 7.31718 16.6781 8.32827 16.508 9.31733C16.5039 9.34108 16.5139 9.35296 16.538 9.35296C18.4211 9.34858 20.2528 9.34843 22.0331 9.35249C22.7967 9.35436 23.4281 9.66749 23.7698 10.3364C23.9089 10.6086 23.9856 10.9061 24 11.2289ZM15.2714 10.3294C15.3567 9.90093 15.4519 9.46968 15.5264 9.0328C15.6823 8.11936 15.83 7.19499 15.9694 6.25968C15.985 6.15436 15.9852 6.0439 15.9698 5.92827C15.9192 5.54296 15.8472 5.19061 15.7537 4.87124C15.5391 4.13593 15.2375 3.38249 14.8491 2.61093C14.8406 2.59405 14.8275 2.58218 14.8097 2.5753C14.6666 2.51936 14.5239 2.47436 14.3817 2.4403C13.9153 2.32874 13.3964 2.40421 13.0463 2.75905C13.0359 2.76968 13.0309 2.78233 13.0312 2.79702C13.0491 3.77015 13.0695 4.74561 13.0927 5.72343C13.0973 5.91233 13.042 6.0703 12.9647 6.23811C12.8466 6.49343 12.7384 6.71124 12.6403 6.89155C11.9272 8.2003 11.1603 9.44296 10.3397 10.6195C10.1531 10.887 9.96234 11.1389 9.76734 11.3751C9.63891 11.5308 9.4875 11.6734 9.31312 11.8031C8.89125 12.1172 8.43797 12.4059 7.99688 12.6839C7.99127 12.6875 7.98665 12.6924 7.98346 12.6981C7.98027 12.7039 7.97859 12.7102 7.97859 12.7167V20.1103C7.97859 20.1157 7.9807 20.1209 7.98447 20.1247C7.98823 20.1286 7.99336 20.1308 7.99875 20.1309C8.28984 20.1323 8.535 20.1047 8.80172 20.2523C8.81234 20.2583 9.04531 20.3992 9.50062 20.6751C9.74594 20.8239 10.0023 20.8983 10.2698 20.8983C13.3898 20.8964 16.5487 20.8948 19.7466 20.8936C20.393 20.8931 21.0258 20.6133 21.3169 20.0203C21.6094 19.425 21.4425 18.6919 20.73 18.5372C20.7069 18.5322 20.698 18.5183 20.7033 18.4955L20.7455 18.3155C20.7474 18.3072 20.7518 18.2997 20.7581 18.2939C20.7644 18.2881 20.7722 18.2844 20.7806 18.2831C21.3623 18.1955 21.8527 17.7201 21.9877 17.1591C22.1152 16.6291 21.9511 16.2348 21.4955 15.9764C21.398 15.9211 21.2897 15.8906 21.1842 15.8559C21.1658 15.8497 21.1588 15.8372 21.1631 15.8184L21.2072 15.6328C21.2122 15.6122 21.2252 15.6005 21.2461 15.5976C21.9736 15.4983 22.6706 14.6695 22.4705 13.9116C22.365 13.5141 22.0219 13.2937 21.6511 13.177C21.627 13.1695 21.618 13.1534 21.6239 13.1287L21.6675 12.9506C21.6722 12.9306 21.6847 12.9186 21.705 12.9145C22.1488 12.8267 22.488 12.5951 22.7227 12.2198C23.1066 11.6058 23.0756 10.7025 22.3031 10.4297C22.1616 10.38 21.9816 10.3617 21.8297 10.3617C19.7009 10.3614 17.5238 10.3614 15.2981 10.3617C15.2759 10.3617 15.267 10.3509 15.2714 10.3294ZM7.08 11.9634C7.08 11.9586 7.07807 11.9539 7.07465 11.9505C7.07122 11.9471 7.06657 11.9451 7.06172 11.9451H1.02609C1.02125 11.9451 1.0166 11.9471 1.01317 11.9505C1.00974 11.9539 1.00781 11.9586 1.00781 11.9634V21.5831C1.00781 21.588 1.00974 21.5926 1.01317 21.596C1.0166 21.5995 1.02125 21.6014 1.02609 21.6014H7.06172C7.06657 21.6014 7.07122 21.5995 7.07465 21.596C7.07807 21.5926 7.08 21.588 7.08 21.5831V11.9634Z" fill="black"/>
<path d="M24 11.2289V11.4061C23.9641 12.023 23.7389 12.5519 23.3245 12.9928C23.3204 12.9971 23.3178 13.0026 23.3169 13.0085C23.3161 13.0145 23.3171 13.0206 23.3198 13.0261C23.7698 13.9106 23.5031 14.9569 22.8745 15.668C22.8678 15.6755 22.8635 15.685 22.8622 15.6951C22.861 15.7053 22.8628 15.7156 22.8675 15.7247C23.3156 16.5942 23.0316 17.6241 22.418 18.3469C22.4119 18.3541 22.408 18.3629 22.407 18.3723C22.4059 18.3816 22.4076 18.391 22.4119 18.3994C22.455 18.4812 22.4867 18.5645 22.507 18.6492C22.7545 19.6908 22.4541 20.827 21.532 21.4233C20.9555 21.7964 20.2509 21.9084 19.5469 21.9089C16.4862 21.912 13.4697 21.9134 10.4972 21.9131C10.215 21.9131 10.0142 21.9033 9.89484 21.8836C9.45609 21.8105 9.05484 21.5967 8.67656 21.3516C8.59063 21.2959 8.47672 21.2728 8.33484 21.2822C8.31516 21.2837 8.30547 21.2942 8.30578 21.3136C8.30734 21.3986 8.30797 21.4819 8.30766 21.5634C8.30391 22.1662 7.86141 22.6176 7.26234 22.6162C5.34453 22.6116 3.37359 22.613 1.34953 22.6205C1.03609 22.6217 0.805156 22.5959 0.656719 22.5431C0.302969 22.4169 0.0840625 22.1387 0 21.7087V11.9489C0.0253125 11.6708 0.128906 11.4397 0.310781 11.2556C0.577969 10.9851 0.882188 10.9322 1.27922 10.9331C3.55266 10.9369 5.80516 10.9372 8.03672 10.9341C8.20328 10.9337 8.38188 10.9805 8.5725 11.0742C8.58687 11.0814 8.60078 11.0809 8.61422 11.0728C8.72172 11.0112 8.82125 10.9294 8.91281 10.8272C9.42984 10.2534 9.85125 9.61827 10.3364 8.85374C10.9723 7.85155 11.5505 6.82905 12.0708 5.78624C12.0809 5.7656 12.0861 5.74295 12.0858 5.72015C12.0714 4.80108 12.0517 3.92858 12.0267 3.10265C12.0186 2.82921 12.0356 2.62608 12.0778 2.49327C12.2147 2.06202 12.5967 1.74515 13.0139 1.5853C13.853 1.26374 14.66 1.33843 15.435 1.80936C15.5794 1.89702 15.7064 2.04655 15.7828 2.20218C16.2156 3.0828 16.5419 3.91733 16.7616 4.70577C16.8628 5.06921 16.9359 5.44343 16.9809 5.82843C16.9994 5.98405 16.9988 6.14514 16.9791 6.31171C16.8619 7.31718 16.6781 8.32827 16.508 9.31733C16.5039 9.34108 16.5139 9.35296 16.538 9.35296C18.4211 9.34858 20.2528 9.34843 22.0331 9.35249C22.7967 9.35436 23.4281 9.66749 23.7698 10.3364C23.9089 10.6086 23.9856 10.9061 24 11.2289ZM15.2714 10.3294C15.3567 9.90093 15.4519 9.46968 15.5264 9.0328C15.6823 8.11936 15.83 7.19499 15.9694 6.25968C15.985 6.15436 15.9852 6.0439 15.9698 5.92827C15.9192 5.54296 15.8472 5.19061 15.7537 4.87124C15.5391 4.13593 15.2375 3.38249 14.8491 2.61093C14.8406 2.59405 14.8275 2.58218 14.8097 2.5753C14.6666 2.51936 14.5239 2.47436 14.3817 2.4403C13.9153 2.32874 13.3964 2.40421 13.0463 2.75905C13.0359 2.76968 13.0309 2.78233 13.0312 2.79702C13.0491 3.77015 13.0695 4.74561 13.0927 5.72343C13.0973 5.91233 13.042 6.0703 12.9647 6.23811C12.8466 6.49343 12.7384 6.71124 12.6403 6.89155C11.9272 8.2003 11.1603 9.44296 10.3397 10.6195C10.1531 10.887 9.96234 11.1389 9.76734 11.3751C9.63891 11.5308 9.4875 11.6734 9.31312 11.8031C8.89125 12.1172 8.43797 12.4059 7.99688 12.6839C7.99127 12.6875 7.98665 12.6924 7.98346 12.6981C7.98027 12.7039 7.97859 12.7102 7.97859 12.7167V20.1103C7.97859 20.1157 7.9807 20.1209 7.98447 20.1247C7.98823 20.1286 7.99336 20.1308 7.99875 20.1309C8.28984 20.1323 8.535 20.1047 8.80172 20.2523C8.81234 20.2583 9.04531 20.3992 9.50062 20.6751C9.74594 20.8239 10.0023 20.8983 10.2698 20.8983C13.3898 20.8964 16.5487 20.8948 19.7466 20.8936C20.393 20.8931 21.0258 20.6133 21.3169 20.0203C21.6094 19.425 21.4425 18.6919 20.73 18.5372C20.7069 18.5322 20.698 18.5183 20.7033 18.4955L20.7455 18.3155C20.7474 18.3072 20.7518 18.2997 20.7581 18.2939C20.7644 18.2881 20.7722 18.2844 20.7806 18.2831C21.3623 18.1955 21.8527 17.7201 21.9877 17.1591C22.1152 16.6291 21.9511 16.2348 21.4955 15.9764C21.398 15.9211 21.2897 15.8906 21.1842 15.8559C21.1658 15.8497 21.1588 15.8372 21.1631 15.8184L21.2072 15.6328C21.2122 15.6122 21.2252 15.6005 21.2461 15.5976C21.9736 15.4983 22.6706 14.6695 22.4705 13.9116C22.365 13.5141 22.0219 13.2937 21.6511 13.177C21.627 13.1695 21.618 13.1534 21.6239 13.1287L21.6675 12.9506C21.6722 12.9306 21.6847 12.9186 21.705 12.9145C22.1488 12.8267 22.488 12.5951 22.7227 12.2198C23.1066 11.6058 23.0756 10.7025 22.3031 10.4297C22.1616 10.38 21.9816 10.3617 21.8297 10.3617C19.7009 10.3614 17.5238 10.3614 15.2981 10.3617C15.2759 10.3617 15.267 10.3509 15.2714 10.3294ZM7.08 11.9634C7.08 11.9586 7.07807 11.9539 7.07465 11.9505C7.07122 11.9471 7.06657 11.9451 7.06172 11.9451H1.02609C1.02125 11.9451 1.0166 11.9471 1.01317 11.9505C1.00974 11.9539 1.00781 11.9586 1.00781 11.9634V21.5831C1.00781 21.588 1.00974 21.5926 1.01317 21.596C1.0166 21.5995 1.02125 21.6014 1.02609 21.6014H7.06172C7.06657 21.6014 7.07122 21.5995 7.07465 21.596C7.07807 21.5926 7.08 21.588 7.08 21.5831V11.9634Z" fill="url(#paint0_linear_1342_6633)"/>
<g clip-path="url(#clip1_1342_6633)">
<path d="M24 11.2289V11.4061C23.9641 12.023 23.7389 12.5519 23.3245 12.9928C23.3204 12.9971 23.3178 13.0026 23.3169 13.0085C23.3161 13.0145 23.3171 13.0206 23.3198 13.0261C23.7698 13.9106 23.5031 14.9569 22.8745 15.668C22.8678 15.6755 22.8635 15.685 22.8622 15.6951C22.861 15.7053 22.8628 15.7156 22.8675 15.7247C23.3156 16.5942 23.0316 17.6241 22.418 18.3469C22.4119 18.3541 22.408 18.3629 22.407 18.3723C22.4059 18.3816 22.4076 18.391 22.4119 18.3994C22.455 18.4812 22.4867 18.5645 22.507 18.6492C22.7545 19.6908 22.4541 20.827 21.532 21.4233C20.9555 21.7964 20.2509 21.9084 19.5469 21.9089C16.4862 21.912 13.4697 21.9134 10.4972 21.9131C10.215 21.9131 10.0142 21.9033 9.89484 21.8836C9.45609 21.8105 9.05484 21.5967 8.67656 21.3516C8.59063 21.2959 8.47672 21.2728 8.33484 21.2822C8.31516 21.2837 8.30547 21.2942 8.30578 21.3136C8.30734 21.3986 8.30797 21.4819 8.30766 21.5634C8.30391 22.1662 7.86141 22.6176 7.26234 22.6162C5.34453 22.6116 3.37359 22.613 1.34953 22.6205C1.03609 22.6217 0.805156 22.5959 0.656719 22.5431C0.302969 22.4169 0.0840625 22.1387 0 21.7087V11.9489C0.0253125 11.6708 0.128906 11.4397 0.310781 11.2556C0.577969 10.9851 0.882188 10.9322 1.27922 10.9331C3.55266 10.9369 5.80516 10.9372 8.03672 10.9341C8.20328 10.9337 8.38188 10.9805 8.5725 11.0742C8.58687 11.0814 8.60078 11.0809 8.61422 11.0728C8.72172 11.0112 8.82125 10.9294 8.91281 10.8272C9.42984 10.2534 9.85125 9.61827 10.3364 8.85374C10.9723 7.85155 11.5505 6.82905 12.0708 5.78624C12.0809 5.7656 12.0861 5.74295 12.0858 5.72015C12.0714 4.80108 12.0517 3.92858 12.0267 3.10265C12.0186 2.82921 12.0356 2.62608 12.0778 2.49327C12.2147 2.06202 12.5967 1.74515 13.0139 1.5853C13.853 1.26374 14.66 1.33843 15.435 1.80936C15.5794 1.89702 15.7064 2.04655 15.7828 2.20218C16.2156 3.0828 16.5419 3.91733 16.7616 4.70577C16.8628 5.06921 16.9359 5.44343 16.9809 5.82843C16.9994 5.98405 16.9988 6.14514 16.9791 6.31171C16.8619 7.31718 16.6781 8.32827 16.508 9.31733C16.5039 9.34108 16.5139 9.35296 16.538 9.35296C18.4211 9.34858 20.2528 9.34843 22.0331 9.35249C22.7967 9.35436 23.4281 9.66749 23.7698 10.3364C23.9089 10.6086 23.9856 10.9061 24 11.2289ZM15.2714 10.3294C15.3567 9.90093 15.4519 9.46968 15.5264 9.0328C15.6823 8.11936 15.83 7.19499 15.9694 6.25968C15.985 6.15436 15.9852 6.0439 15.9698 5.92827C15.9192 5.54296 15.8472 5.19061 15.7537 4.87124C15.5391 4.13593 15.2375 3.38249 14.8491 2.61093C14.8406 2.59405 14.8275 2.58218 14.8097 2.5753C14.6666 2.51936 14.5239 2.47436 14.3817 2.4403C13.9153 2.32874 13.3964 2.40421 13.0463 2.75905C13.0359 2.76968 13.0309 2.78233 13.0312 2.79702C13.0491 3.77015 13.0695 4.74561 13.0927 5.72343C13.0973 5.91233 13.042 6.0703 12.9647 6.23811C12.8466 6.49343 12.7384 6.71124 12.6403 6.89155C11.9272 8.2003 11.1603 9.44296 10.3397 10.6195C10.1531 10.887 9.96234 11.1389 9.76734 11.3751C9.63891 11.5308 9.4875 11.6734 9.31312 11.8031C8.89125 12.1172 8.43797 12.4059 7.99688 12.6839C7.99127 12.6875 7.98665 12.6924 7.98346 12.6981C7.98027 12.7039 7.97859 12.7102 7.97859 12.7167V20.1103C7.97859 20.1157 7.9807 20.1209 7.98447 20.1247C7.98823 20.1286 7.99336 20.1308 7.99875 20.1309C8.28984 20.1323 8.535 20.1047 8.80172 20.2523C8.81234 20.2583 9.04531 20.3992 9.50062 20.6751C9.74594 20.8239 10.0023 20.8983 10.2698 20.8983C13.3898 20.8964 16.5487 20.8948 19.7466 20.8936C20.393 20.8931 21.0258 20.6133 21.3169 20.0203C21.6094 19.425 21.4425 18.6919 20.73 18.5372C20.7069 18.5322 20.698 18.5183 20.7033 18.4955L20.7455 18.3155C20.7474 18.3072 20.7518 18.2997 20.7581 18.2939C20.7644 18.2881 20.7722 18.2844 20.7806 18.2831C21.3623 18.1955 21.8527 17.7201 21.9877 17.1591C22.1152 16.6291 21.9511 16.2348 21.4955 15.9764C21.398 15.9211 21.2897 15.8906 21.1842 15.8559C21.1658 15.8497 21.1588 15.8372 21.1631 15.8184L21.2072 15.6328C21.2122 15.6122 21.2252 15.6005 21.2461 15.5976C21.9736 15.4983 22.6706 14.6695 22.4705 13.9116C22.365 13.5141 22.0219 13.2937 21.6511 13.177C21.627 13.1695 21.618 13.1534 21.6239 13.1287L21.6675 12.9506C21.6722 12.9306 21.6847 12.9186 21.705 12.9145C22.1488 12.8267 22.488 12.5951 22.7227 12.2198C23.1066 11.6058 23.0756 10.7025 22.3031 10.4297C22.1616 10.38 21.9816 10.3617 21.8297 10.3617C19.7009 10.3614 17.5238 10.3614 15.2981 10.3617C15.2759 10.3617 15.267 10.3509 15.2714 10.3294ZM7.08 11.9634C7.08 11.9586 7.07807 11.9539 7.07465 11.9505C7.07122 11.9471 7.06657 11.9451 7.06172 11.9451H1.02609C1.02125 11.9451 1.0166 11.9471 1.01317 11.9505C1.00974 11.9539 1.00781 11.9586 1.00781 11.9634V21.5831C1.00781 21.588 1.00974 21.5926 1.01317 21.596C1.0166 21.5995 1.02125 21.6014 1.02609 21.6014H7.06172C7.06657 21.6014 7.07122 21.5995 7.07465 21.596C7.07807 21.5926 7.08 21.588 7.08 21.5831V11.9634Z" fill="url(#paint1_linear_1342_6633)"/>
</g>
</g>
<defs>
<linearGradient id="paint0_linear_1342_6633" x1="12" y1="1.38959" x2="12" y2="22.6205" gradientUnits="userSpaceOnUse">
<stop stop-color="#6897B5"/>
<stop offset="0.0001" stop-color="#4991EF"/>
<stop offset="0.494792" stop-color="#4060FF"/>
<stop offset="1" stop-color="#004EB6"/>
</linearGradient>
<linearGradient id="paint1_linear_1342_6633" x1="12" y1="1.38959" x2="12" y2="22.6205" gradientUnits="userSpaceOnUse">
<stop stop-color="#C21931"/>
<stop offset="1" stop-color="#F0680A"/>
</linearGradient>
<clipPath id="clip0_1342_6633">
<rect width="24" height="24" fill="white"/>
</clipPath>
<clipPath id="clip1_1342_6633">
<rect width="8" height="24" fill="white"/>
</clipPath>
</defs>
</svg>
