<svg width="24" height="24" viewBox="0 0 24 24" fill="none" xmlns="http://www.w3.org/2000/svg">
<g clip-path="url(#clip0_1334_5673)">
<path d="M12.035 0H13.14C13.7567 0.35 14.2 0.833333 14.47 1.45C14.5367 1.60333 14.565 1.765 14.555 1.935L14.515 2.46C14.5017 2.65667 14.5833 2.795 14.76 2.875C16.6567 3.72833 18.0817 5.15167 19.035 7.145C19.1183 7.31167 19.2517 7.39 19.435 7.38C21.265 7.265 22.8 9.195 21.415 10.685C20.275 11.915 19.0133 13.1717 17.63 14.455C17.29 14.7717 16.9067 14.8933 16.48 14.82C14.9733 14.56 14.2867 13.755 14.42 12.405C14.44 12.2083 14.3667 12.06 14.2 11.96L13.61 11.605C13.44 11.505 13.2867 11.525 13.15 11.665L8.855 16.045C8.735 16.1683 8.65667 16.315 8.62 16.485C8.54333 16.8617 8.45 17.1067 8.34 17.22C7.06 18.5167 5.77 19.8017 4.47 21.075C3.965 21.57 3.165 22.035 2.525 21.95C1.24167 21.7767 0.4 21.0317 0 19.715V18.69C1.25667 16.9933 2.75 15.3683 4.48 13.815C4.91 13.42 5.495 13.415 5.9 13.01C7.26333 11.6533 8.65667 10.2683 10.08 8.855C10.2233 8.71167 10.2767 8.54 10.24 8.34C10.1133 7.62667 9.69333 7.34167 8.98 7.485C8.78465 7.52353 8.58329 7.48397 8.42 7.375C6.89 6.33167 6.72667 5.10167 7.93 3.685C9.09 2.315 10.4583 1.08667 12.035 0ZM13.0417 1.60245C12.9803 1.54038 12.9073 1.49101 12.8268 1.45717C12.7463 1.42333 12.6599 1.40568 12.5725 1.40522C12.4852 1.40477 12.3986 1.42152 12.3178 1.45452C12.2369 1.48752 12.1634 1.53612 12.1013 1.59755L8.72505 4.93865C8.66297 5.00008 8.6136 5.07313 8.57976 5.15363C8.54591 5.23414 8.52826 5.32052 8.5278 5.40785C8.52734 5.49518 8.54408 5.58174 8.57708 5.6626C8.61007 5.74346 8.65867 5.81702 8.7201 5.8791L8.74825 5.90755C8.80968 5.96962 8.88273 6.01899 8.96324 6.05283C9.04375 6.08667 9.13013 6.10432 9.21746 6.10478C9.30479 6.10523 9.39135 6.08848 9.47221 6.05548C9.55306 6.02248 9.62663 5.97388 9.6887 5.91245L13.0649 2.57135C13.127 2.50992 13.1764 2.43687 13.2102 2.35637C13.2441 2.27586 13.2617 2.18948 13.2622 2.10215C13.2627 2.01482 13.2459 1.92826 13.2129 1.8474C13.1799 1.76654 13.1313 1.69298 13.0699 1.6309L13.0417 1.60245ZM15.0967 4.4771C14.9683 4.34735 14.8156 4.24416 14.6473 4.17342C14.479 4.10268 14.2984 4.06578 14.1159 4.06482C13.9334 4.06387 13.7524 4.09887 13.5834 4.16785C13.4144 4.23682 13.2606 4.3384 13.1309 4.4668L11.5814 6.0002C11.4516 6.1286 11.3484 6.28129 11.2777 6.44957C11.2069 6.61784 11.17 6.7984 11.1691 6.98094C11.1681 7.16348 11.2031 7.34442 11.2721 7.51343C11.3411 7.68243 11.4427 7.8362 11.571 7.96595L13.9134 10.3329C14.0417 10.4627 14.1944 10.5658 14.3627 10.6366C14.531 10.7073 14.7116 10.7442 14.8941 10.7452C15.0766 10.7461 15.2576 10.7111 15.4266 10.6422C15.5956 10.5732 15.7494 10.4716 15.8791 10.3432L17.4286 8.8098C17.5584 8.6814 17.6616 8.52871 17.7323 8.36043C17.8031 8.19216 17.84 8.0116 17.8409 7.82906C17.8419 7.64652 17.8069 7.46558 17.7379 7.29657C17.6689 7.12757 17.5673 6.9738 17.4389 6.84405L15.0967 4.4771ZM20.2857 8.93405C20.2238 8.8715 20.1502 8.82176 20.069 8.78766C19.9879 8.75357 19.9009 8.73578 19.8129 8.73532C19.7249 8.73486 19.6377 8.75174 19.5562 8.78499C19.4748 8.81823 19.4006 8.8672 19.3381 8.9291L16.0471 12.1858C15.9208 12.3108 15.8493 12.4808 15.8484 12.6585C15.8475 12.8362 15.9172 13.007 16.0422 13.1333L16.0844 13.176C16.1462 13.2385 16.2198 13.2882 16.301 13.3223C16.3821 13.3564 16.4691 13.3742 16.5571 13.3747C16.6451 13.3751 16.7323 13.3583 16.8138 13.325C16.8952 13.2918 16.9694 13.2428 17.0319 13.1809L20.3229 9.9242C20.4492 9.79921 20.5207 9.62917 20.5216 9.45148C20.5225 9.27378 20.4528 9.103 20.3279 8.9767L20.2857 8.93405ZM11.3636 9.90205C11.3226 9.86058 11.2667 9.83711 11.2084 9.8368C11.1501 9.83649 11.094 9.85937 11.0525 9.9004L6.73795 14.17C6.71741 14.1903 6.70107 14.2145 6.68987 14.2411C6.67867 14.2678 6.67283 14.2963 6.67268 14.3252C6.67252 14.3541 6.67806 14.3828 6.68898 14.4095C6.6999 14.4363 6.71598 14.4606 6.7363 14.4811L7.3764 15.1279C7.41744 15.1694 7.47327 15.1929 7.53161 15.1932C7.58995 15.1935 7.64602 15.1706 7.6875 15.1296L12.0021 10.86C12.0226 10.8397 12.0389 10.8155 12.0501 10.7889C12.0613 10.7622 12.0672 10.7337 12.0673 10.7048C12.0675 10.6759 12.0619 10.6472 12.051 10.6205C12.0401 10.5937 12.024 10.5694 12.0037 10.5489L11.3636 9.90205ZM6.69 16.46L5.5 15.27C5.42673 15.1964 5.32741 15.1545 5.22353 15.1536C5.11965 15.1527 5.01958 15.1927 4.945 15.265L2.04 18.16C1.73095 18.4678 1.51889 18.8477 1.45044 19.2162C1.38199 19.5847 1.46277 19.9116 1.675 20.125L1.815 20.27C2.02801 20.4821 2.35454 20.5634 2.72294 20.4959C3.09133 20.4284 3.4715 20.2177 3.78 19.91L6.685 17.015C6.75865 16.9417 6.80047 16.8424 6.8014 16.7385C6.80234 16.6346 6.76232 16.5346 6.69 16.46Z" fill="url(#paint0_linear_1334_5673)"/>
<path d="M23.9999 20.055V24H8.70991C8.45658 22.74 8.42991 21.4567 8.62991 20.15C8.64054 20.075 8.67204 20.0045 8.72073 19.947C8.76943 19.8895 8.8333 19.8472 8.90491 19.825C9.12491 19.7583 9.34824 19.7383 9.57491 19.765C9.63387 19.7716 9.69355 19.7647 9.74943 19.7448C9.80531 19.7249 9.85591 19.6925 9.89738 19.65C9.93884 19.6076 9.97008 19.5563 9.98871 19.5C10.0073 19.4436 10.0129 19.3838 10.0049 19.325C9.80491 17.955 10.4399 16.51 11.9349 16.505C14.6782 16.5017 17.5516 16.5 20.5549 16.5C22.1099 16.495 22.7649 17.705 22.5399 19.225C22.4866 19.5817 22.6399 19.7417 22.9999 19.705C23.2999 19.6717 23.6332 19.7883 23.9999 20.055ZM21.1949 18.23C21.1949 18.1385 21.1586 18.0508 21.0939 17.9861C21.0292 17.9214 20.9414 17.885 20.8499 17.885H11.6999C11.6084 17.885 11.5207 17.9214 11.456 17.9861C11.3913 18.0508 11.3549 18.1385 11.3549 18.23V19.41C11.3549 19.5015 11.3913 19.5893 11.456 19.654C11.5207 19.7187 11.6084 19.755 11.6999 19.755H20.8499C20.9414 19.755 21.0292 19.7187 21.0939 19.654C21.1586 19.5893 21.1949 19.5015 21.1949 19.41V18.23ZM22.6099 21.43C22.6099 21.381 22.5904 21.3339 22.5557 21.2992C22.521 21.2645 22.474 21.245 22.4249 21.245H10.1349C10.1106 21.245 10.0866 21.2498 10.0641 21.2591C10.0417 21.2684 10.0213 21.282 10.0041 21.2992C9.98692 21.3164 9.97329 21.3368 9.96399 21.3592C9.9547 21.3817 9.94991 21.4057 9.94991 21.43V22.44C9.94991 22.4891 9.9694 22.5361 10.0041 22.5708C10.0388 22.6055 10.0858 22.625 10.1349 22.625H22.4249C22.474 22.625 22.521 22.6055 22.5557 22.5708C22.5904 22.5361 22.6099 22.4891 22.6099 22.44V21.43Z" fill="url(#paint1_linear_1334_5673)"/>
</g>
<defs>
<linearGradient id="paint0_linear_1334_5673" x1="10.975" y1="0" x2="10.975" y2="21.9601" gradientUnits="userSpaceOnUse">
<stop stop-color="#6897B5"/>
<stop offset="0.0001" stop-color="#4991EF"/>
<stop offset="0.494792" stop-color="#4060FF"/>
<stop offset="1" stop-color="#004EB6"/>
</linearGradient>
<linearGradient id="paint1_linear_1334_5673" x1="16.2487" y1="16.5" x2="16.2487" y2="24" gradientUnits="userSpaceOnUse">
<stop stop-color="#C21931"/>
<stop offset="1" stop-color="#F0680A"/>
</linearGradient>
<clipPath id="clip0_1334_5673">
<rect width="24" height="24" fill="white"/>
</clipPath>
</defs>
</svg>
