<svg width="24" height="24" viewBox="0 0 24 24" fill="none" xmlns="http://www.w3.org/2000/svg">
<g clip-path="url(#clip0_1342_6638)">
<path d="M10.6 0H13.015C16.045 0.336667 18.6017 1.59167 20.685 3.765C20.8917 3.98167 20.9967 3.94 21 3.64V2.49C21 2.33359 21.0451 2.18075 21.13 2.05C21.38 1.66 21.6183 1.495 21.845 1.555C22.2817 1.66833 22.5 1.95 22.5 2.4L22.495 6.125C22.495 6.28943 22.4297 6.44713 22.3134 6.56341C22.1971 6.67968 22.0394 6.745 21.875 6.745L17.89 6.75C17.7412 6.7502 17.5981 6.69323 17.4901 6.59086C17.3822 6.4885 17.3177 6.34857 17.31 6.2L17.3 6C17.27 5.50667 17.5033 5.25833 18 5.255L19.63 5.25C19.88 5.24667 19.9167 5.15667 19.74 4.98C17.7333 2.95 15.5033 1.82 13.05 1.59C5.645 0.9 -0.5 8.22 2.08 15.345C3.51333 19.305 6.36667 21.655 10.64 22.395C13.185 22.84 16.54 21.81 18.465 20.235C21.6017 17.6717 22.89 14.2183 22.33 9.875C22.27 9.43167 22.4617 9.19167 22.905 9.155L23.105 9.135C23.4383 9.10833 23.64 9.25667 23.71 9.58L24 10.925V12.98C23.67 15.6733 22.6917 17.9517 21.065 19.815C18.8983 22.3083 16.1083 23.7033 12.695 24H11.205C4.80167 23.1 1.06667 19.4083 0 12.925V10.97C0.906667 4.96 4.44 1.30333 10.6 0Z" fill="url(#paint0_linear_1342_6638)"/>
<path d="M15.9552 10.585C16.2586 10.775 16.4152 11.055 16.4252 11.425C16.4686 13.0217 16.4519 14.5083 16.3752 15.885C16.3438 16.4441 16.1028 16.9707 15.7003 17.3592C15.2979 17.7477 14.7639 17.9695 14.2052 17.98C12.7019 18.0067 11.2669 18.005 9.90023 17.975C8.41023 17.945 7.62189 17.1283 7.53523 15.525C7.46523 14.2817 7.46356 12.9583 7.53023 11.555C7.54689 11.1617 7.69356 10.8317 7.97023 10.565C8.09023 10.4517 8.16356 10.3133 8.19023 10.15C8.31023 9.39001 8.30023 8.70001 8.73023 8.01501C10.0952 5.82001 12.8252 5.28501 14.6502 7.20501C15.4536 8.05501 15.8136 9.03001 15.7302 10.13C15.7136 10.3267 15.7886 10.4783 15.9552 10.585ZM9.87523 10.5H14.1152C14.155 10.5 14.1932 10.4842 14.2213 10.4561C14.2494 10.4279 14.2652 10.3898 14.2652 10.35V9.88001C14.2652 9.24879 14.034 8.64343 13.6223 8.19709C13.2107 7.75076 12.6524 7.50001 12.0702 7.50001H11.9202C11.632 7.50001 11.3465 7.56157 11.0802 7.68117C10.8139 7.80078 10.572 7.97609 10.3681 8.19709C10.1643 8.4181 10.0026 8.68047 9.89231 8.96922C9.782 9.25798 9.72523 9.56746 9.72523 9.88001V10.35C9.72523 10.3898 9.74103 10.4279 9.76916 10.4561C9.79729 10.4842 9.83544 10.5 9.87523 10.5ZM14.6952 11.99L9.27523 11.98C9.2378 11.98 9.20074 11.9874 9.16616 12.0017C9.13158 12.016 9.10017 12.037 9.0737 12.0635C9.04724 12.0899 9.02624 12.1214 9.01192 12.1559C8.9976 12.1905 8.99023 12.2276 8.99023 12.265L8.98523 15.51C8.98525 15.7744 9.09309 16.028 9.28517 16.2154C9.47725 16.4028 9.73794 16.5087 10.0102 16.51L13.9402 16.52C14.0759 16.5207 14.2104 16.4953 14.3359 16.4453C14.4615 16.3954 14.5756 16.3218 14.6718 16.2289C14.768 16.1359 14.8443 16.0255 14.8964 15.9038C14.9484 15.7822 14.9752 15.6517 14.9752 15.52L14.9802 12.275C14.9802 12.1994 14.9502 12.1269 14.8968 12.0735C14.8433 12.02 14.7708 11.99 14.6952 11.99Z" fill="url(#paint1_linear_1342_6638)"/>
</g>
<defs>
<linearGradient id="paint0_linear_1342_6638" x1="12" y1="0" x2="12" y2="24" gradientUnits="userSpaceOnUse">
<stop stop-color="#6897B5"/>
<stop offset="0.0001" stop-color="#4991EF"/>
<stop offset="0.494792" stop-color="#4060FF"/>
<stop offset="1" stop-color="#004EB6"/>
</linearGradient>
<linearGradient id="paint1_linear_1342_6638" x1="11.9651" y1="6.02609" x2="11.9651" y2="17.9988" gradientUnits="userSpaceOnUse">
<stop stop-color="#C21931"/>
<stop offset="1" stop-color="#F0680A"/>
</linearGradient>
<clipPath id="clip0_1342_6638">
<rect width="24" height="24" fill="white"/>
</clipPath>
</defs>
</svg>
