<svg width="36" height="36" viewBox="0 0 36 36" fill="none" xmlns="http://www.w3.org/2000/svg">
<rect width="36" height="36" rx="18" fill="#1D1B9D"/>
<g clip-path="url(#clip0_1342_6584)">
<path d="M18.1652 10.1094C18.6256 9.60245 19.1571 9.33061 19.7595 9.29388C21.6918 9.18367 23.8383 9.16041 26.1991 9.22408C26.6032 9.23633 26.8065 9.44449 26.8089 9.84857L26.8199 24.0539C26.8199 24.4237 26.635 24.6086 26.2652 24.6086C24.1346 24.6159 22.1583 24.6147 20.3362 24.6049C19.2562 24.6 18.6501 25.1914 18.5179 26.3792C18.5032 26.5188 18.4371 26.629 18.3195 26.7098C18.1187 26.8494 17.913 26.8592 17.7024 26.7392C17.6442 26.7061 17.5944 26.66 17.5568 26.6046C17.5192 26.5492 17.4949 26.4859 17.4856 26.4196C17.3387 25.3175 16.8391 24.5939 15.6342 24.6012C13.6628 24.6159 11.6962 24.6184 9.73461 24.6086C9.36727 24.6061 9.18359 24.4224 9.18359 24.0575V9.81918C9.18359 9.65161 9.25016 9.4909 9.36865 9.37241C9.48715 9.25391 9.64786 9.18735 9.81543 9.18735C11.6399 9.18245 13.522 9.18735 15.4616 9.20204C16.5171 9.21184 17.3093 9.51428 17.8383 10.1094C17.946 10.2294 18.055 10.2294 18.1652 10.1094ZM15.5497 23.5175C16.1191 23.5212 16.7105 23.6829 17.2101 23.9731C17.3693 24.0637 17.4489 24.0171 17.4489 23.8335C17.4489 19.9518 17.4489 16.0237 17.4489 12.049C17.4489 11.0057 16.7656 10.2894 15.6783 10.2857C13.9028 10.2833 12.175 10.2784 10.495 10.271C10.3554 10.2686 10.2856 10.3384 10.2856 10.4804V23.3155C10.2856 23.3424 10.291 23.3689 10.3014 23.3937C10.3117 23.4184 10.327 23.4409 10.3461 23.4597C10.3653 23.4785 10.388 23.4933 10.4129 23.5032C10.4378 23.5132 10.4645 23.518 10.4913 23.5175C12.1909 23.5053 13.8771 23.5053 15.5497 23.5175ZM18.742 23.9988C19.293 23.6608 19.9616 23.5029 20.6007 23.5029C22.2416 23.5102 23.8799 23.5127 25.5158 23.5102C25.6481 23.5102 25.7142 23.4441 25.7142 23.3118L25.7105 10.4694C25.7105 10.4207 25.6916 10.374 25.6578 10.3395C25.6241 10.3051 25.5783 10.2857 25.5305 10.2857H20.1122C19.6981 10.2857 19.301 10.4502 19.0082 10.743C18.7154 11.0358 18.5509 11.4329 18.5509 11.8469V23.8922C18.5508 23.9146 18.5567 23.9365 18.568 23.9558C18.5793 23.9751 18.5955 23.991 18.615 24.0019C18.6345 24.0128 18.6566 24.0182 18.6789 24.0177C18.7012 24.0171 18.723 24.0106 18.742 23.9988Z" fill="white"/>
<path d="M15.7774 13.0482H11.957C11.6628 13.0482 11.4243 13.2866 11.4243 13.5808V13.6102C11.4243 13.9044 11.6628 14.1429 11.957 14.1429H15.7774C16.0716 14.1429 16.31 13.9044 16.31 13.6102V13.5808C16.31 13.2866 16.0716 13.0482 15.7774 13.0482Z" fill="white"/>
<path d="M24.0436 13.0419L20.2599 13.0617C19.9678 13.0633 19.7322 13.3013 19.7337 13.5935L19.7339 13.6302C19.7354 13.9224 19.9735 14.158 20.2657 14.1564L24.0493 14.1366C24.3414 14.1351 24.577 13.897 24.5755 13.6049L24.5753 13.5681C24.5738 13.276 24.3357 13.0404 24.0436 13.0419Z" fill="white"/>
<path d="M15.7813 16.3543H11.9536C11.6594 16.3543 11.4209 16.5928 11.4209 16.8869V16.9163C11.4209 17.2105 11.6594 17.449 11.9536 17.449H15.7813C16.0755 17.449 16.314 17.2105 16.314 16.9163V16.8869C16.314 16.5928 16.0755 16.3543 15.7813 16.3543Z" fill="white"/>
<path d="M24.0465 16.3543H20.2114C19.9172 16.3543 19.6787 16.5928 19.6787 16.8869V16.9163C19.6787 17.2105 19.9172 17.449 20.2114 17.449H24.0465C24.3406 17.449 24.5791 17.2105 24.5791 16.9163V16.8869C24.5791 16.5928 24.3406 16.3543 24.0465 16.3543Z" fill="white"/>
<path d="M15.7764 19.6534L11.956 19.6601C11.6618 19.6606 11.4238 19.8995 11.4243 20.1937L11.4243 20.2304C11.4248 20.5246 11.6637 20.7626 11.9579 20.7621L15.7783 20.7554C16.0725 20.7549 16.3106 20.516 16.31 20.2219L16.31 20.1851C16.3095 19.8909 16.0706 19.6529 15.7764 19.6534Z" fill="white"/>
<path d="M24.043 19.6604H20.2153C19.9211 19.6604 19.6826 19.8989 19.6826 20.1931V20.2224C19.6826 20.5166 19.9211 20.7551 20.2153 20.7551H24.043C24.3372 20.7551 24.5757 20.5166 24.5757 20.2224V20.1931C24.5757 19.8989 24.3372 19.6604 24.043 19.6604Z" fill="white"/>
</g>
<defs>
<clipPath id="clip0_1342_6584">
<rect width="18" height="18" fill="white" transform="translate(9 9)"/>
</clipPath>
</defs>
</svg>
