<svg width="24" height="24" viewBox="0 0 24 24" fill="none" xmlns="http://www.w3.org/2000/svg">
<path d="M16.5333 19.1753C16.3618 19.1752 16.1973 19.107 16.076 18.9856C15.9547 18.8642 15.8866 18.6997 15.8866 18.5281V17.2341H8.1214V18.5281C8.1214 18.6998 8.05321 18.8644 7.93184 18.9858C7.81046 19.1071 7.64584 19.1753 7.47419 19.1753H3.59044C3.50547 19.1753 3.42133 19.1586 3.34283 19.126C3.26434 19.0935 3.19302 19.0458 3.13295 18.9857C3.07289 18.9256 3.02526 18.8543 2.99278 18.7758C2.96031 18.6972 2.94363 18.6131 2.94369 18.5281V17.2341C2.60053 17.2337 2.27157 17.0971 2.02892 16.8545C1.78628 16.6118 1.64974 16.2829 1.64926 15.9397V10.7629C1.64987 10.4198 1.78645 10.091 2.02909 9.84845C2.27172 9.6059 2.60061 9.46943 2.94369 9.46895C2.94363 9.39948 2.95477 9.33045 2.97669 9.26453L3.12428 8.82219H1.65018C1.5652 8.82219 1.48106 8.80545 1.40257 8.77292C1.32407 8.74039 1.25275 8.6927 1.19269 8.63259C1.13263 8.57249 1.085 8.50115 1.05252 8.42263C1.02004 8.34411 1.00336 8.25995 1.00342 8.17498C1.00336 8.09001 1.02004 8.00585 1.05252 7.92733C1.085 7.84881 1.13263 7.77745 1.19269 7.71734C1.25275 7.65724 1.32407 7.60957 1.40257 7.57704C1.48106 7.54451 1.5652 7.52777 1.65018 7.52777H3.55652L4.71436 4.05427C4.82472 3.75158 5.02365 3.48912 5.28527 3.30108C5.54688 3.11305 5.85906 3.00812 6.18113 3H17.8292C18.1512 3.00812 18.4634 3.11305 18.725 3.30108C18.9866 3.48912 19.1856 3.75158 19.2959 4.05427L20.4538 7.52777H22.3601C22.5318 7.52777 22.6964 7.59594 22.8178 7.71731C22.9391 7.83869 23.0073 8.00333 23.0073 8.17498C23.0073 8.25997 22.9906 8.34413 22.9581 8.42266C22.9255 8.50118 22.8779 8.57252 22.8178 8.63262C22.7577 8.69272 22.6863 8.7404 22.6078 8.77292C22.5293 8.80545 22.4451 8.82219 22.3601 8.82219H20.8851L21.0327 9.26453C21.0548 9.33043 21.0661 9.39945 21.0661 9.46895C21.4092 9.46943 21.738 9.60592 21.9806 9.84848C22.2231 10.091 22.3596 10.4199 22.3601 10.7629V15.9397C22.3596 16.2828 22.2232 16.6117 21.9806 16.8543C21.7381 17.097 21.4092 17.2335 21.0661 17.2341V18.5281C21.0661 18.6998 20.998 18.8644 20.8766 18.9858C20.7552 19.1071 20.5906 19.1753 20.4189 19.1753H16.5333ZM17.1806 17.2341V17.8809H19.7708V17.2341H17.1806ZM6.82697 17.8809V17.2341H4.23857V17.8809H6.82697ZM2.94414 15.9397H21.0611V10.7629H2.94414V15.9397ZM19.7346 9.46895L18.0666 4.46311C18.0426 4.4183 18.0086 4.37959 17.9673 4.34995C17.9259 4.32031 17.8784 4.30054 17.8282 4.29215H6.17976C6.12971 4.30068 6.08227 4.32052 6.04104 4.35015C5.99982 4.37977 5.9659 4.4184 5.94186 4.46311L4.27341 9.46847L19.7346 9.46895Z" fill="url(#paint0_linear_1332_3514)"/>
<path d="M17.1802 13.3516C17.1808 13.0085 17.3174 12.6797 17.5601 12.4371C17.8027 12.1946 18.1316 12.0581 18.4747 12.0576C18.8177 12.0581 19.1465 12.1946 19.3891 12.4371C19.6317 12.6797 19.7682 13.0086 19.7686 13.3516C19.7683 13.6947 19.6318 14.0236 19.3893 14.2663C19.1467 14.509 18.8178 14.6455 18.4747 14.646C18.1315 14.6455 17.8026 14.509 17.5599 14.2663C17.3173 14.0237 17.1807 13.6947 17.1802 13.3516ZM4.23779 13.3516C4.23828 13.0086 4.37476 12.6797 4.61733 12.4371C4.85989 12.1946 5.18873 12.0581 5.53177 12.0576C5.87484 12.0581 6.20373 12.1946 6.44637 12.4371C6.689 12.6797 6.82559 13.0085 6.82619 13.3516C6.82571 13.6947 6.68924 14.0235 6.44669 14.2662C6.20414 14.5088 5.8753 14.6454 5.53222 14.646C5.18903 14.6456 4.86 14.5091 4.61733 14.2665C4.37465 14.0238 4.23816 13.6948 4.23779 13.3516Z" fill="url(#paint1_linear_1332_3514)"/>
<defs>
<linearGradient id="paint0_linear_1332_3514" x1="12.0054" y1="3" x2="12.0054" y2="19.1753" gradientUnits="userSpaceOnUse">
<stop stop-color="#6897B5"/>
<stop offset="0.0001" stop-color="#4991EF"/>
<stop offset="0.494792" stop-color="#4060FF"/>
<stop offset="1" stop-color="#004EB6"/>
</linearGradient>
<linearGradient id="paint1_linear_1332_3514" x1="12.0032" y1="12.0576" x2="12.0032" y2="14.646" gradientUnits="userSpaceOnUse">
<stop stop-color="#C21931"/>
<stop offset="1" stop-color="#F0680A"/>
</linearGradient>
</defs>
</svg>
