<svg width="50" height="50" viewBox="0 0 50 50" fill="none" xmlns="http://www.w3.org/2000/svg">
<circle cx="25" cy="25" r="25" fill="#F2F5FC"/>
<g clip-path="url(#clip0_860_2353)">
<path d="M19.9618 11H26.4811C26.7199 11.0638 26.8356 11.2036 26.8283 11.4195C26.8225 11.5952 26.7485 11.7139 26.6063 11.7755C26.537 11.8057 26.436 11.8209 26.3033 11.8209C24.3656 11.8223 22.4165 11.8212 20.4561 11.8176C20.4511 11.8176 20.4462 11.8195 20.4426 11.823C20.439 11.8265 20.437 11.8312 20.437 11.8362V15.3914C20.437 15.3984 20.4398 15.405 20.4448 15.41C20.4499 15.4149 20.4567 15.4177 20.4638 15.4177H29.5359C29.5534 15.4177 29.5622 15.4089 29.5622 15.3914L29.5627 11.846C29.5627 11.8394 29.5601 11.8331 29.5554 11.8284C29.5507 11.8237 29.5443 11.821 29.5375 11.8209C29.1748 11.8201 28.7856 11.8201 28.37 11.8209C27.8379 11.822 27.7493 11.1455 28.2704 11H30.0363C30.2682 11.0645 30.3839 11.224 30.3836 11.4785C30.3817 12.9186 30.3817 14.3587 30.3836 15.7988C30.3836 16.0444 30.2129 16.2374 29.9718 16.2374C28.5513 16.2382 27.0431 16.2383 25.4469 16.238C25.4225 16.238 25.4103 16.25 25.4103 16.2741L25.4108 19.7916C25.4108 19.8098 25.4199 19.8189 25.4382 19.8189H29.1843C29.195 19.8189 29.2056 19.8168 29.2155 19.8126C29.2253 19.8085 29.2342 19.8024 29.2417 19.7948C30.1852 18.8491 31.0992 17.9358 31.9837 17.055C32.2019 16.8368 32.4453 16.9276 32.64 17.1234C33.5693 18.0567 34.4806 18.9683 35.3738 19.8583C35.4766 19.9607 35.5402 20.0533 35.5647 20.1361C35.6066 20.2776 35.5634 20.4126 35.435 20.5413C34.4853 21.494 33.5328 22.4465 32.5776 23.3988C32.3649 23.6109 32.1188 23.5497 31.9252 23.3545C31.0075 22.431 30.1096 21.5326 29.2313 20.6595C29.2249 20.653 29.2173 20.6479 29.2089 20.6445C29.2006 20.641 29.1916 20.6392 29.1826 20.6392H25.424C25.4205 20.6392 25.4171 20.6406 25.4147 20.6431C25.4122 20.6455 25.4108 20.6489 25.4108 20.6523V24.5499C25.4108 24.5609 25.4151 24.5715 25.4228 24.5793C25.4305 24.5871 25.441 24.5915 25.4518 24.5915C28.7426 24.5889 32.1082 24.5891 35.5488 24.592C35.8053 24.592 35.9595 24.784 35.96 25.0421C35.9608 26.0564 35.9622 27.0736 35.9644 28.0937C35.9648 28.1115 35.9739 28.1207 35.9918 28.121C36.8234 28.1258 37.6528 28.127 38.48 28.1248C38.7641 28.1238 38.9374 28.2404 39.0001 28.4748V31.9185C38.9454 32.117 38.7967 32.2587 38.5916 32.2587C37.7104 32.2598 36.844 32.2599 35.9923 32.2592C35.9726 32.2592 35.9628 32.2692 35.9628 32.2893L35.9639 34.8279C35.9639 34.8377 35.9677 34.847 35.9746 34.854C35.9814 34.861 35.9907 34.8649 36.0005 34.8651C36.8555 34.8665 37.7095 34.8684 38.5626 34.8705C38.796 34.8709 38.9418 34.9859 39.0001 35.2156V38.6571C38.9509 38.8409 38.8348 38.9552 38.6518 39H32.4486C32.2178 38.9369 32.1026 38.7911 32.1029 38.5625C32.1037 37.4159 32.1038 36.3221 32.1035 35.2812C32.1029 34.9947 32.3228 34.864 32.5858 34.8645C33.5924 34.8674 34.4297 34.8676 35.0976 34.8651C35.1096 34.8649 35.121 34.8601 35.1294 34.8516C35.1378 34.8431 35.1425 34.8316 35.1425 34.8197L35.1419 32.2893C35.1419 32.2696 35.1323 32.2598 35.1129 32.2598C34.3196 32.259 33.4599 32.259 32.5339 32.2598C32.2435 32.2598 32.0936 32.0509 32.1007 31.7687C32.1055 31.5747 32.106 31.3864 32.1024 31.2038C32.0909 30.6252 32.9282 30.6224 32.9232 31.1939C32.9225 31.2661 32.9222 31.3363 32.9222 31.4045C32.9222 31.4274 32.9336 31.4389 32.9566 31.4389H38.1525C38.1707 31.4389 38.1798 31.43 38.1798 31.4121V28.9687C38.1798 28.953 38.172 28.9452 38.1563 28.9452H32.9402C32.9358 28.9452 32.9316 28.9469 32.9284 28.9499C32.9252 28.953 32.9234 28.9572 32.9232 28.9616C32.9205 29.1223 32.9506 29.3274 32.8631 29.4674C32.7029 29.725 32.3419 29.7348 32.1746 29.486C32.1224 29.4084 32.0973 29.3021 32.0991 29.1672C32.102 28.955 32.1037 28.7663 32.104 28.6012C32.1051 28.2843 32.2562 28.1258 32.5574 28.1254C33.4069 28.125 34.2622 28.1247 35.1233 28.1243C35.1283 28.1243 35.133 28.1223 35.1365 28.1189C35.14 28.1154 35.1419 28.1106 35.1419 28.1057V25.4572C35.1419 25.445 35.1371 25.4333 35.1285 25.4247C35.1199 25.4161 35.1082 25.4112 35.096 25.4112H25.4376C25.4305 25.4112 25.4237 25.414 25.4187 25.4189C25.4136 25.4239 25.4108 25.4305 25.4108 25.4375L25.4103 28.0915C25.4103 28.1145 25.4218 28.1259 25.4447 28.1259C26.2388 28.1241 27.0963 28.1241 28.0172 28.1259C28.306 28.1265 28.4509 28.3283 28.4498 28.6012C28.4469 29.6216 28.4458 30.6919 28.4465 31.8119C28.4471 32.0968 28.2677 32.2614 28.0041 32.2609C27.1466 32.259 26.292 32.2585 25.4404 32.2592C25.4203 32.2592 25.4103 32.2692 25.4103 32.2893L25.4108 34.8328C25.4108 34.8409 25.4141 34.8487 25.4198 34.8545C25.4255 34.8602 25.4333 34.8634 25.4415 34.8634C26.2632 34.8682 27.0999 34.8682 27.9516 34.8634C28.1359 34.8623 28.2961 34.9006 28.3935 35.0723C28.4292 35.1358 28.4471 35.2468 28.4471 35.4054C28.4474 36.4441 28.4474 37.4828 28.4471 38.5215C28.4471 38.7792 28.3308 38.9387 28.0982 39H21.8944C21.6644 38.9351 21.5495 38.7847 21.5499 38.5488C21.5524 37.4551 21.5532 36.3613 21.5521 35.2676C21.5521 35.0297 21.755 34.8651 21.9819 34.8656C22.8354 34.8671 23.6894 34.8667 24.544 34.8645C24.5562 34.8645 24.5679 34.8597 24.5765 34.8511C24.5851 34.8425 24.59 34.8308 24.59 34.8186V32.2751C24.59 32.2709 24.5883 32.2668 24.5853 32.2639C24.5823 32.2609 24.5783 32.2592 24.5741 32.2592C23.741 32.2592 22.8784 32.2594 21.9863 32.2598C21.6954 32.2598 21.5537 32.0673 21.5537 31.7856C21.5534 30.705 21.553 29.6437 21.5526 28.6017C21.5526 28.2827 21.7123 28.1234 22.0317 28.1237C22.8669 28.1252 23.7084 28.1254 24.5561 28.1243C24.5787 28.1243 24.59 28.1132 24.59 28.0909V25.4517C24.59 25.441 24.5857 25.4307 24.5781 25.4231C24.5705 25.4155 24.5602 25.4112 24.5495 25.4112L14.8698 25.4107C14.8663 25.4107 14.863 25.4121 14.8605 25.4145C14.8581 25.417 14.8567 25.4203 14.8567 25.4238L14.8578 28.1128C14.8578 28.1163 14.8592 28.1196 14.8616 28.1221C14.8641 28.1246 14.8674 28.1259 14.8709 28.1259C15.7718 28.1241 16.6318 28.1243 17.4511 28.1265C17.8054 28.127 17.9072 28.3704 17.9044 28.6766C17.8931 29.7657 17.8918 30.8095 17.9006 31.808C17.9033 32.1198 17.6911 32.2696 17.3904 32.2625C17.2686 32.2596 17.1474 32.2576 17.0267 32.2565C16.8123 32.2548 16.6231 32.0438 16.6466 31.8228C16.6707 31.5968 16.8032 31.4686 17.0442 31.4384C17.0661 31.4354 17.077 31.423 17.077 31.4012V28.9687C17.077 28.953 17.0693 28.9452 17.054 28.9452H11.8505C11.8305 28.9452 11.8204 28.9554 11.8204 28.9758V31.4143C11.8204 31.4208 11.823 31.4271 11.8276 31.4317C11.8323 31.4363 11.8385 31.4389 11.845 31.4389C12.9629 31.4389 14.0531 31.4389 15.1159 31.4389C15.6945 31.4389 15.6819 32.2773 15.1017 32.2603C15.028 32.2585 14.9564 32.2581 14.8868 32.2592C14.8789 32.2594 14.8714 32.2626 14.8658 32.2682C14.8603 32.2738 14.8572 32.2814 14.8572 32.2893V34.8301C14.8572 34.8392 14.8609 34.848 14.8675 34.8544C14.874 34.8609 14.8829 34.8645 14.8922 34.8645C15.694 34.8674 16.5405 34.8676 17.4319 34.8651C17.6507 34.8645 17.8946 34.9914 17.8946 35.2446C17.8935 36.2757 17.8959 37.3559 17.9017 38.4854C17.9033 38.7457 17.8235 38.9262 17.5457 39H11.3408C11.1574 38.9501 11.0439 38.8339 11.0001 38.6516V35.2074C11.065 34.9799 11.2245 34.8662 11.4786 34.8662C12.311 34.8665 13.1488 34.8662 13.9921 34.8651C13.9979 34.8651 14.0037 34.8639 14.009 34.8617C14.0144 34.8594 14.0193 34.8561 14.0234 34.8519C14.0275 34.8478 14.0308 34.8428 14.033 34.8374C14.0352 34.832 14.0364 34.8261 14.0364 34.8202L14.0369 32.2762C14.0369 32.266 14.032 32.2609 14.0222 32.2609C13.2551 32.2579 12.3819 32.2578 11.4026 32.2603C11.2014 32.2609 11.0493 32.1088 11.0001 31.913V28.4672C11.1068 28.1024 11.3791 28.1139 11.7275 28.1183C12.5051 28.1278 13.2651 28.129 14.0074 28.1221C14.026 28.1217 14.0353 28.1123 14.0353 28.0937C14.0371 27.0918 14.0375 26.0655 14.0364 25.0148C14.0364 24.7698 14.224 24.5904 14.4602 24.5904C17.8483 24.5897 21.2121 24.5897 24.5517 24.5904C24.5618 24.5904 24.5716 24.5863 24.5788 24.579C24.5859 24.5717 24.59 24.5619 24.59 24.5516V16.262C24.59 16.2456 24.5818 16.2374 24.5654 16.2374C23.1059 16.2378 21.5976 16.238 20.0405 16.238C19.871 16.2385 19.7004 16.139 19.6495 15.9777C19.6284 15.9113 19.6178 15.8291 19.6178 15.731C19.6163 14.3988 19.6165 13.0699 19.6183 11.7443C19.6189 11.368 19.5806 11.111 19.9618 11ZM32.2957 17.9408C32.2931 17.9382 32.2899 17.9361 32.2865 17.9347C32.283 17.9332 32.2793 17.9325 32.2756 17.9325C32.2719 17.9325 32.2682 17.9332 32.2647 17.9347C32.2613 17.9361 32.2581 17.9382 32.2555 17.9408L29.9848 20.2115C29.9821 20.2142 29.98 20.2173 29.9786 20.2208C29.9772 20.2242 29.9765 20.2279 29.9765 20.2316C29.9765 20.2354 29.9772 20.2391 29.9786 20.2425C29.98 20.246 29.9821 20.2491 29.9848 20.2517L32.2547 22.5217C32.2573 22.5243 32.2605 22.5264 32.2639 22.5278C32.2674 22.5293 32.2711 22.53 32.2748 22.53C32.2785 22.53 32.2822 22.5293 32.2857 22.5278C32.2891 22.5264 32.2923 22.5243 32.2949 22.5217L34.5656 20.251C34.5683 20.2483 34.5704 20.2452 34.5718 20.2417C34.5732 20.2383 34.5739 20.2346 34.5739 20.2309C34.5739 20.2271 34.5732 20.2234 34.5718 20.22C34.5704 20.2165 34.5683 20.2134 34.5656 20.2108L32.2957 17.9408ZM27.6273 28.9627C27.6273 28.958 27.6255 28.9536 27.6222 28.9503C27.6189 28.947 27.6145 28.9452 27.6098 28.9452H22.3904C22.3858 28.9452 22.3813 28.947 22.3781 28.9503C22.3748 28.9536 22.3729 28.958 22.3729 28.9627V31.4214C22.3729 31.426 22.3748 31.4305 22.3781 31.4338C22.3813 31.4371 22.3858 31.4389 22.3904 31.4389H27.6098C27.6145 31.4389 27.6189 31.4371 27.6222 31.4338C27.6255 31.4305 27.6273 31.426 27.6273 31.4214V28.9627ZM11.845 35.6865C11.8385 35.6865 11.8323 35.6891 11.8276 35.6937C11.823 35.6983 11.8204 35.7046 11.8204 35.7111L11.821 38.1551C11.821 38.1583 11.8216 38.1615 11.8229 38.1645C11.8241 38.1675 11.8259 38.1702 11.8282 38.1725C11.8305 38.1748 11.8332 38.1766 11.8362 38.1778C11.8392 38.1791 11.8424 38.1797 11.8456 38.1797H17.0524C17.0589 38.1797 17.0652 38.1771 17.0698 38.1725C17.0744 38.1679 17.077 38.1616 17.077 38.1551L17.0765 35.7111C17.0765 35.7046 17.0739 35.6983 17.0692 35.6937C17.0646 35.6891 17.0584 35.6865 17.0518 35.6865H11.845ZM27.6273 35.7116C27.6273 35.7083 27.6266 35.7049 27.6254 35.7018C27.6241 35.6987 27.6222 35.6959 27.6198 35.6935C27.6174 35.6911 27.6146 35.6892 27.6114 35.6879C27.6083 35.6866 27.605 35.6859 27.6016 35.6859H22.3986C22.3918 35.6859 22.3853 35.6886 22.3805 35.6935C22.3756 35.6983 22.3729 35.7048 22.3729 35.7116V38.154C22.3729 38.1608 22.3756 38.1673 22.3805 38.1722C22.3853 38.177 22.3918 38.1797 22.3986 38.1797H27.6016C27.605 38.1797 27.6083 38.179 27.6114 38.1777C27.6146 38.1764 27.6174 38.1745 27.6198 38.1722C27.6222 38.1698 27.6241 38.1669 27.6254 38.1638C27.6266 38.1607 27.6273 38.1574 27.6273 38.154V35.7116ZM38.1798 35.7149C38.1798 35.7072 38.1768 35.6999 38.1713 35.6944C38.1659 35.689 38.1585 35.6859 38.1508 35.6859H32.9522C32.9484 35.6859 32.9447 35.6867 32.9411 35.6881C32.9376 35.6896 32.9344 35.6917 32.9317 35.6944C32.929 35.6971 32.9269 35.7003 32.9255 35.7038C32.924 35.7073 32.9232 35.7111 32.9232 35.7149V38.1507C32.9232 38.1545 32.924 38.1583 32.9255 38.1618C32.9269 38.1653 32.929 38.1685 32.9317 38.1712C32.9344 38.1739 32.9376 38.176 32.9411 38.1775C32.9447 38.1789 32.9484 38.1797 32.9522 38.1797H38.1508C38.1585 38.1797 38.1659 38.1766 38.1713 38.1712C38.1768 38.1658 38.1798 38.1584 38.1798 38.1507V35.7149Z" fill="#1B1B96"/>
</g>
<defs>
<clipPath id="clip0_860_2353">
<rect width="28" height="28" fill="white" transform="translate(11 11)"/>
</clipPath>
</defs>
</svg>
