<svg width="16" height="21" viewBox="0 0 16 21" fill="none" xmlns="http://www.w3.org/2000/svg">
<g clip-path="url(#clip0_1334_5692)">
<path d="M1.70371 18.8128H7.45171C7.59848 18.8128 7.7393 18.8709 7.84345 18.9743C7.94761 19.0777 8.00665 19.2181 8.00771 19.3648L8.01171 19.5048C8.01171 19.8435 7.84371 20.0128 7.50771 20.0128H0.799707C0.399707 20.0128 0.199707 19.8128 0.199707 19.4128L0.207707 2.68883C0.207625 2.52463 0.271458 2.36683 0.385689 2.24887C0.499921 2.1309 0.655581 2.06203 0.819707 2.05683L3.50771 1.96083C3.67304 1.95283 3.76504 1.8675 3.78371 1.70483C3.83571 1.26883 4.26371 0.992835 4.67171 0.972835C6.61837 0.882168 8.54904 0.906168 10.4637 1.04483C10.6104 1.0555 10.7344 1.11283 10.8357 1.21683L11.3637 1.74083C11.4437 1.82073 11.5503 1.86903 11.6637 1.87683L14.1917 2.06083C14.3541 2.07297 14.5058 2.14614 14.6164 2.26562C14.7269 2.38511 14.7882 2.54204 14.7877 2.70483V12.2088C14.7879 12.2916 14.771 12.3736 14.738 12.4496C14.705 12.5256 14.6566 12.5941 14.5958 12.6507C14.5351 12.7074 14.4632 12.751 14.3847 12.7789C14.3063 12.8068 14.2229 12.8183 14.1397 12.8128C14.0837 12.8075 14.029 12.7982 13.9757 12.7848C13.8636 12.7571 13.764 12.6932 13.6929 12.6032C13.6219 12.5133 13.5834 12.4026 13.5837 12.2888L13.5797 3.40083C13.5797 3.37528 13.5747 3.34998 13.565 3.32642C13.5553 3.30286 13.5411 3.28152 13.5232 3.26364C13.5053 3.24575 13.4841 3.2317 13.4609 3.22229C13.4376 3.21288 13.4127 3.2083 13.3877 3.20883L11.4077 3.22083C11.2504 3.22083 11.1237 3.2835 11.0277 3.40883C10.5344 4.05683 9.82504 4.36883 8.89971 4.34483C7.82504 4.31817 6.79837 4.33017 5.81971 4.38083C5.06237 4.41817 4.46237 4.1035 4.01971 3.43683C3.97527 3.36921 3.91472 3.3137 3.8435 3.2753C3.77227 3.2369 3.69262 3.21681 3.61171 3.21683L1.60371 3.20483C1.47037 3.20483 1.40371 3.27283 1.40371 3.40883L1.41171 18.5168C1.41171 18.7142 1.50904 18.8128 1.70371 18.8128ZM9.71571 2.03283L5.25971 1.98483C5.22504 1.98431 5.1906 1.99061 5.15837 2.00339C5.12614 2.01617 5.09674 2.03518 5.07185 2.05932C5.04696 2.08347 5.02708 2.11228 5.01333 2.14411C4.99957 2.17594 4.99223 2.21016 4.99171 2.24483V2.37683C4.98871 2.5942 5.08309 2.80394 5.25411 2.95995C5.42513 3.11596 5.65878 3.20549 5.90371 3.20883L9.03971 3.24083C9.16112 3.24251 9.28165 3.22294 9.39442 3.18323C9.50718 3.14352 9.60997 3.08446 9.69689 3.00942C9.78382 2.93438 9.85319 2.84483 9.90103 2.7459C9.94887 2.64696 9.97425 2.54058 9.97571 2.43283V2.30083C9.97624 2.26616 9.96993 2.23173 9.95715 2.1995C9.94437 2.16726 9.92536 2.13787 9.90122 2.11298C9.87708 2.08809 9.84827 2.0682 9.81644 2.05445C9.78461 2.0407 9.75038 2.03336 9.71571 2.03283Z" fill="url(#paint0_linear_1334_5692)"/>
<path d="M4.44803 8.63287C5.12181 8.63287 5.66803 8.08666 5.66803 7.41287C5.66803 6.73908 5.12181 6.19287 4.44803 6.19287C3.77424 6.19287 3.22803 6.73908 3.22803 7.41287C3.22803 8.08666 3.77424 8.63287 4.44803 8.63287Z" fill="url(#paint1_linear_1334_5692)"/>
<path d="M11.0976 6.81844L7.45764 6.83115C7.14395 6.83224 6.89054 7.08743 6.89163 7.40113L6.89183 7.45713C6.89292 7.77082 7.14811 8.02424 7.46181 8.02314L11.1018 8.01043C11.4155 8.00934 11.6689 7.75415 11.6678 7.44045L11.6676 7.38446C11.6665 7.07076 11.4113 6.81735 11.0976 6.81844Z" fill="url(#paint2_linear_1334_5692)"/>
<path d="M4.45193 12.2326C5.12572 12.2326 5.67193 11.6864 5.67193 11.0126C5.67193 10.3388 5.12572 9.7926 4.45193 9.7926C3.77815 9.7926 3.23193 10.3388 3.23193 11.0126C3.23193 11.6864 3.77815 12.2326 4.45193 12.2326Z" fill="url(#paint3_linear_1334_5692)"/>
<path d="M11.1027 10.4135L7.45472 10.4199C7.14102 10.4205 6.88716 10.6752 6.88771 10.9889L6.88782 11.0529C6.88837 11.3666 7.14312 11.6205 7.45681 11.6199L11.1048 11.6135C11.4185 11.613 11.6724 11.3582 11.6718 11.0445L11.6717 10.9805C11.6712 10.6669 11.4164 10.413 11.1027 10.4135Z" fill="url(#paint4_linear_1334_5692)"/>
<path d="M4.45193 15.8328C5.12572 15.8328 5.67193 15.2866 5.67193 14.6128C5.67193 13.939 5.12572 13.3928 4.45193 13.3928C3.77815 13.3928 3.23193 13.939 3.23193 14.6128C3.23193 15.2866 3.77815 15.8328 4.45193 15.8328Z" fill="url(#paint5_linear_1334_5692)"/>
<path d="M11.0991 14.0137L7.45911 14.02C7.14542 14.0206 6.89156 14.2753 6.8921 14.589L6.89222 14.653C6.89276 14.9667 7.14751 15.2206 7.46121 15.22L11.1012 15.2136C11.4149 15.2131 11.6688 14.9584 11.6682 14.6447L11.6681 14.5807C11.6675 14.267 11.4128 14.0131 11.0991 14.0137Z" fill="url(#paint6_linear_1334_5692)"/>
<path d="M16 14.3286V14.7766L12.576 19.6526C12.2614 20.1006 11.8987 20.1433 11.488 19.7806L8.82803 17.4126C8.6547 17.2606 8.62937 17.0873 8.75203 16.8926L8.86403 16.7206C9.0907 16.3606 9.36537 16.3193 9.68803 16.5966L11.74 18.3726C11.852 18.4686 11.9507 18.4579 12.036 18.3406C12.9774 17.0366 13.9054 15.7339 14.82 14.4326C15.1667 13.9419 15.56 13.9073 16 14.3286Z" fill="url(#paint7_linear_1334_5692)"/>
</g>
<defs>
<linearGradient id="paint0_linear_1334_5692" x1="7.49371" y1="0.919067" x2="7.49371" y2="20.0128" gradientUnits="userSpaceOnUse">
<stop stop-color="#6897B5"/>
<stop offset="0.0001" stop-color="#4991EF"/>
<stop offset="0.494792" stop-color="#4060FF"/>
<stop offset="1" stop-color="#004EB6"/>
</linearGradient>
<linearGradient id="paint1_linear_1334_5692" x1="4.44803" y1="6.19287" x2="4.44803" y2="8.63287" gradientUnits="userSpaceOnUse">
<stop stop-color="#6897B5"/>
<stop offset="0.0001" stop-color="#4991EF"/>
<stop offset="0.494792" stop-color="#4060FF"/>
<stop offset="1" stop-color="#004EB6"/>
</linearGradient>
<linearGradient id="paint2_linear_1334_5692" x1="9.27763" y1="6.82479" x2="9.28179" y2="8.01679" gradientUnits="userSpaceOnUse">
<stop stop-color="#6897B5"/>
<stop offset="0.0001" stop-color="#4991EF"/>
<stop offset="0.494792" stop-color="#4060FF"/>
<stop offset="1" stop-color="#004EB6"/>
</linearGradient>
<linearGradient id="paint3_linear_1334_5692" x1="4.45193" y1="9.7926" x2="4.45193" y2="12.2326" gradientUnits="userSpaceOnUse">
<stop stop-color="#6897B5"/>
<stop offset="0.0001" stop-color="#4991EF"/>
<stop offset="0.494792" stop-color="#4060FF"/>
<stop offset="1" stop-color="#004EB6"/>
</linearGradient>
<linearGradient id="paint4_linear_1334_5692" x1="9.27872" y1="10.4167" x2="9.28081" y2="11.6167" gradientUnits="userSpaceOnUse">
<stop stop-color="#6897B5"/>
<stop offset="0.0001" stop-color="#4991EF"/>
<stop offset="0.494792" stop-color="#4060FF"/>
<stop offset="1" stop-color="#004EB6"/>
</linearGradient>
<linearGradient id="paint5_linear_1334_5692" x1="4.45193" y1="13.3928" x2="4.45193" y2="15.8328" gradientUnits="userSpaceOnUse">
<stop stop-color="#6897B5"/>
<stop offset="0.0001" stop-color="#4991EF"/>
<stop offset="0.494792" stop-color="#4060FF"/>
<stop offset="1" stop-color="#004EB6"/>
</linearGradient>
<linearGradient id="paint6_linear_1334_5692" x1="9.27911" y1="14.0168" x2="9.2812" y2="15.2168" gradientUnits="userSpaceOnUse">
<stop stop-color="#6897B5"/>
<stop offset="0.0001" stop-color="#4991EF"/>
<stop offset="0.494792" stop-color="#4060FF"/>
<stop offset="1" stop-color="#004EB6"/>
</linearGradient>
<linearGradient id="paint7_linear_1334_5692" x1="12.3379" y1="14.0366" x2="12.3379" y2="20.024" gradientUnits="userSpaceOnUse">
<stop stop-color="#C21931"/>
<stop offset="1" stop-color="#F0680A"/>
</linearGradient>
<clipPath id="clip0_1334_5692">
<rect width="16" height="19.6" fill="white" transform="translate(0 0.612305)"/>
</clipPath>
</defs>
</svg>
