<svg width="36" height="36" viewBox="0 0 36 36" fill="none" xmlns="http://www.w3.org/2000/svg">
<rect width="36" height="36" rx="18" fill="#1D1B9D"/>
<g clip-path="url(#clip0_1342_6591)">
<path d="M21.3576 18.7131C21.3583 19.0921 21.2843 19.4674 21.1399 19.8178C20.9955 20.1682 20.7835 20.4867 20.516 20.7551C20.2485 21.0235 19.9307 21.2366 19.5809 21.3823C19.231 21.5279 18.8559 21.6032 18.4769 21.6038L18.1994 21.6043C17.8204 21.605 17.445 21.531 17.0947 21.3866C16.7443 21.2422 16.4258 21.0302 16.1574 20.7627C15.889 20.4952 15.6759 20.1774 15.5302 19.8276C15.3846 19.4777 15.3093 19.1026 15.3086 18.7236L15.2954 11.1645C15.2948 10.7855 15.3687 10.4101 15.5132 10.0598C15.6576 9.70939 15.8696 9.3909 16.1371 9.12247C16.4046 8.85404 16.7223 8.64093 17.0722 8.4953C17.422 8.34967 17.7972 8.27438 18.1761 8.27372L18.4537 8.27323C18.8326 8.27257 19.208 8.34656 19.5584 8.49097C19.9087 8.63538 20.2272 8.84739 20.4956 9.11488C20.7641 9.38238 20.9772 9.70013 21.1228 10.05C21.2684 10.3998 21.3437 10.775 21.3444 11.1539L21.3576 18.7131ZM20.1551 11.2082C20.1551 10.7394 19.9689 10.2899 19.6374 9.95846C19.306 9.62702 18.8565 9.44082 18.3877 9.44082H18.2653C17.7966 9.44082 17.347 9.62702 17.0156 9.95846C16.6841 10.2899 16.4979 10.7394 16.4979 11.2082V18.6694C16.4979 19.1381 16.6841 19.5877 17.0156 19.9191C17.347 20.2505 17.7966 20.4367 18.2653 20.4367H18.3877C18.8565 20.4367 19.306 20.2505 19.6374 19.9191C19.9689 19.5877 20.1551 19.1381 20.1551 18.6694V11.2082Z" fill="white"/>
<path d="M17.6122 26.5714C17.6385 26.5714 17.6639 26.5608 17.6829 26.5417C17.7019 26.5227 17.7132 26.4968 17.7142 26.4694V24.8204C17.7142 24.7469 17.6802 24.7034 17.6122 24.6898C12.9346 23.7102 11.8571 20.3265 12.253 16.1306C12.2829 15.834 12.4435 15.6558 12.7346 15.5959C12.7836 15.5878 12.8339 15.5878 12.8856 15.5959C13.2258 15.6612 13.4027 15.8667 13.4163 16.2122C13.4693 17.5755 13.2816 18.9551 13.7224 20.2571C14.755 23.3306 18.7673 24.6 21.3714 22.4408C23.5387 20.6449 23.1714 18.6408 23.2326 16.1755C23.2353 16.0418 23.2878 15.9149 23.3795 15.8204C23.5754 15.6245 23.7741 15.5537 23.9754 15.6082C24.2639 15.6844 24.4122 15.8708 24.4203 16.1673C24.4612 17.3102 24.5346 18.649 24.3061 19.7592C23.7673 22.3959 22.0544 24.0272 19.1673 24.6531C19.0122 24.6857 18.936 24.781 18.9387 24.9388V26.2653C18.9387 26.4694 19.0408 26.5714 19.2448 26.5714H21.9061C22.2761 26.5714 22.4993 26.7537 22.5754 27.1184C22.5836 27.1537 22.5863 27.1905 22.5836 27.2286C22.57 27.6068 22.3741 27.7959 21.9959 27.7959H14.6163C14.3006 27.7959 14.1197 27.6408 14.0734 27.3306C14.0571 27.2354 14.072 27.1388 14.1183 27.0408C14.2598 26.7279 14.502 26.5714 14.8448 26.5714H17.6122Z" fill="white"/>
</g>
<defs>
<clipPath id="clip0_1342_6591">
<rect width="12.6531" height="20" fill="white" transform="translate(12 8)"/>
</clipPath>
</defs>
</svg>
