<svg width="56" height="56" viewBox="0 0 56 56" fill="none" xmlns="http://www.w3.org/2000/svg">
<circle cx="28" cy="28" r="28" fill="#F2F5FC"/>
<g clip-path="url(#clip0_850_5409)">
<path d="M28.6814 18.3779V16.9836C28.6814 16.9798 28.6822 16.9759 28.6837 16.9723C28.6851 16.9688 28.6873 16.9655 28.6901 16.9628C28.6928 16.96 28.6961 16.9578 28.6996 16.9564C28.7032 16.9549 28.7071 16.9541 28.711 16.9541H34.469C34.4729 16.9541 34.4768 16.9549 34.4803 16.9564C34.4839 16.9578 34.4872 16.96 34.4899 16.9628C34.4927 16.9655 34.4949 16.9688 34.4963 16.9723C34.4978 16.9759 34.4986 16.9798 34.4986 16.9836V22.7417C34.4986 22.7496 34.4955 22.7571 34.4899 22.7626C34.4844 22.7682 34.4769 22.7713 34.469 22.7713H33.0729C33.0651 22.7713 33.0576 22.7682 33.052 22.7626C33.0465 22.7571 33.0434 22.7496 33.0434 22.7417L33.0452 19.5081C33.0452 19.5022 33.0434 19.4965 33.0401 19.4917C33.0368 19.4868 33.0321 19.4831 33.0266 19.4809C33.0212 19.4787 33.0152 19.4782 33.0095 19.4794C33.0037 19.4807 32.9985 19.4836 32.9944 19.4878L26.807 25.6762C26.8042 25.679 26.8009 25.6813 26.7973 25.6828C26.7936 25.6844 26.7897 25.6852 26.7857 25.6852C26.7818 25.6852 26.7779 25.6844 26.7742 25.6828C26.7706 25.6813 26.7673 25.679 26.7645 25.6762L24.2363 23.1471C24.2336 23.1442 24.2303 23.142 24.2266 23.1404C24.223 23.1389 24.2191 23.1381 24.2151 23.1381C24.2111 23.1381 24.2072 23.1389 24.2036 23.1404C24.1999 23.142 24.1966 23.1442 24.1939 23.1471L18.77 28.57C18.7673 28.5728 18.764 28.5751 18.7603 28.5766C18.7567 28.5782 18.7528 28.579 18.7488 28.579C18.7448 28.579 18.7409 28.5782 18.7373 28.5766C18.7336 28.5751 18.7303 28.5728 18.7276 28.57L17.7414 27.5866C17.7386 27.5838 17.7363 27.5805 17.7348 27.5769C17.7332 27.5732 17.7324 27.5693 17.7324 27.5654C17.7324 27.5614 17.7332 27.5575 17.7348 27.5538C17.7363 27.5502 17.7386 27.5469 17.7414 27.5441L24.1948 21.088C24.1976 21.0851 24.2009 21.0829 24.2045 21.0813C24.2081 21.0798 24.2121 21.079 24.216 21.079C24.22 21.079 24.2239 21.0798 24.2276 21.0813C24.2312 21.0829 24.2345 21.0851 24.2373 21.088L26.7636 23.6189C26.7663 23.6218 26.7696 23.624 26.7733 23.6256C26.7769 23.6271 26.7809 23.6279 26.7848 23.6279C26.7888 23.6279 26.7927 23.6271 26.7964 23.6256C26.8 23.624 26.8033 23.6218 26.8061 23.6189L31.9695 18.4573C31.9737 18.4533 31.9766 18.448 31.9778 18.4423C31.9791 18.4365 31.9786 18.4306 31.9764 18.4251C31.9742 18.4197 31.9705 18.415 31.9656 18.4117C31.9608 18.4084 31.955 18.4066 31.9492 18.4065L28.711 18.4075C28.7031 18.4075 28.6956 18.4044 28.6901 18.3988C28.6845 18.3933 28.6814 18.3858 28.6814 18.3779Z" fill="#1B1B96"/>
<path d="M41.8098 37.315H43.9658C43.9749 37.315 43.9836 37.3186 43.99 37.325C43.9964 37.3314 44 37.3401 44 37.3492V38.7342C44 38.7433 43.9964 38.752 43.99 38.7584C43.9836 38.7648 43.9749 38.7684 43.9658 38.7684H12.0342C12.0297 38.7684 12.0252 38.7675 12.0211 38.7658C12.0169 38.7641 12.0132 38.7616 12.01 38.7584C12.0068 38.7552 12.0043 38.7515 12.0026 38.7473C12.0009 38.7432 12 38.7387 12 38.7342V37.3492C12 37.3447 12.0009 37.3403 12.0026 37.3361C12.0043 37.332 12.0068 37.3282 12.01 37.325C12.0132 37.3219 12.0169 37.3193 12.0211 37.3176C12.0252 37.3159 12.0297 37.315 12.0342 37.315H14.0997C14.1088 37.315 14.1175 37.3114 14.1239 37.305C14.1303 37.2986 14.1339 37.2899 14.1339 37.2809V31.532C14.1339 31.523 14.1375 31.5143 14.1439 31.5079C14.1503 31.5015 14.159 31.4979 14.1681 31.4979H19.9187C19.9278 31.4979 19.9365 31.5015 19.9429 31.5079C19.9493 31.5143 19.9529 31.523 19.9529 31.532V37.2809C19.9529 37.2899 19.9565 37.2986 19.9629 37.305C19.9693 37.3114 19.978 37.315 19.9871 37.315H21.374C21.383 37.315 21.3917 37.3114 21.3981 37.305C21.4045 37.2986 21.4081 37.2899 21.4081 37.2809V28.6216C21.4081 28.6125 21.4117 28.6038 21.4181 28.5974C21.4245 28.591 21.4332 28.5874 21.4423 28.5874H27.193C27.202 28.5874 27.2107 28.591 27.2171 28.5974C27.2235 28.6038 27.2271 28.6125 27.2271 28.6216L27.2281 37.2809C27.2281 37.2899 27.2317 37.2986 27.2381 37.305C27.2445 37.3114 27.2532 37.315 27.2622 37.315H28.6482C28.6573 37.315 28.6659 37.3114 28.6724 37.305C28.6788 37.2986 28.6824 37.2899 28.6824 37.2809V25.7112C28.6824 25.7021 28.686 25.6934 28.6924 25.687C28.6988 25.6806 28.7075 25.677 28.7165 25.677H34.4672C34.4763 25.677 34.485 25.6806 34.4914 25.687C34.4978 25.6934 34.5014 25.7021 34.5014 25.7112V37.2809C34.5014 37.2899 34.505 37.2986 34.5114 37.305C34.5178 37.3114 34.5265 37.315 34.5355 37.315H35.9224C35.9315 37.315 35.9402 37.3114 35.9466 37.305C35.953 37.2986 35.9566 37.2899 35.9566 37.2809V22.8044C35.9566 22.7999 35.9575 22.7955 35.9592 22.7914C35.9609 22.7872 35.9634 22.7834 35.9666 22.7803C35.9698 22.7771 35.9735 22.7746 35.9777 22.7729C35.9818 22.7711 35.9863 22.7703 35.9908 22.7703H41.7415C41.7505 22.7703 41.7592 22.7739 41.7656 22.7803C41.772 22.7867 41.7756 22.7954 41.7756 22.8044V37.2809C41.7756 37.2899 41.7792 37.2986 41.7856 37.305C41.792 37.3114 41.8007 37.315 41.8098 37.315ZM40.229 24.34C40.229 24.3336 40.2265 24.3275 40.222 24.323C40.2175 24.3185 40.2114 24.316 40.205 24.316H37.5235C37.5172 24.316 37.5111 24.3185 37.5066 24.323C37.5021 24.3275 37.4995 24.3336 37.4995 24.34V37.291C37.4995 37.2974 37.5021 37.3035 37.5066 37.308C37.5111 37.3125 37.5172 37.315 37.5235 37.315H40.205C40.2114 37.315 40.2175 37.3125 40.222 37.308C40.2265 37.3035 40.229 37.2974 40.229 37.291V24.34ZM32.9557 27.2726C32.9557 27.2603 32.9508 27.2486 32.9422 27.2399C32.9335 27.2313 32.9218 27.2264 32.9095 27.2264H30.2724C30.2601 27.2264 30.2484 27.2313 30.2397 27.2399C30.2311 27.2486 30.2262 27.2603 30.2262 27.2726V37.2689C30.2262 37.2811 30.2311 37.2928 30.2397 37.3015C30.2484 37.3102 30.2601 37.315 30.2724 37.315H32.9095C32.9218 37.315 32.9335 37.3102 32.9422 37.3015C32.9508 37.2928 32.9557 37.2811 32.9557 37.2689V27.2726ZM25.6814 30.1691C25.6814 30.1596 25.6776 30.1504 25.6709 30.1437C25.6641 30.1369 25.655 30.1331 25.6454 30.1331H22.988C22.9784 30.1331 22.9693 30.1369 22.9625 30.1437C22.9558 30.1504 22.952 30.1596 22.952 30.1691V37.279C22.952 37.2886 22.9558 37.2977 22.9625 37.3045C22.9693 37.3112 22.9784 37.315 22.988 37.315H25.6454C25.655 37.315 25.6641 37.3112 25.6709 37.3045C25.6776 37.2977 25.6814 37.2886 25.6814 37.279V30.1691ZM18.3961 33.0888C18.3961 33.0848 18.3953 33.0808 18.3938 33.0772C18.3923 33.0735 18.39 33.0701 18.3872 33.0673C18.3844 33.0644 18.381 33.0622 18.3773 33.0607C18.3736 33.0591 18.3697 33.0583 18.3657 33.0583H15.7248C15.7168 33.0583 15.709 33.0616 15.7033 33.0673C15.6976 33.073 15.6944 33.0807 15.6944 33.0888V37.2846C15.6944 37.2926 15.6976 37.3004 15.7033 37.3061C15.709 37.3118 15.7168 37.315 15.7248 37.315H18.3657C18.3697 37.315 18.3736 37.3142 18.3773 37.3127C18.381 37.3112 18.3844 37.3089 18.3872 37.3061C18.39 37.3033 18.3923 37.2999 18.3938 37.2962C18.3953 37.2925 18.3961 37.2886 18.3961 37.2846V33.0888Z" fill="#1B1B96"/>
</g>
<defs>
<clipPath id="clip0_850_5409">
<rect width="32" height="23.2727" fill="white" transform="translate(12 15.5)"/>
</clipPath>
</defs>
</svg>
