<svg width="50" height="50" viewBox="0 0 50 50" fill="none" xmlns="http://www.w3.org/2000/svg">
<circle cx="25" cy="25" r="25" fill="#F2F5FC"/>
<path d="M19.1807 11H36.1732C36.4012 11.0596 36.5407 11.2226 36.5407 11.4534C36.5403 18.7468 36.5401 25.9982 36.5401 33.2075C36.5401 33.4968 36.3093 33.6472 36.0375 33.6461C35.2861 33.6421 34.5675 33.6415 33.8818 33.6445C33.8694 33.6445 33.8632 33.6507 33.8632 33.663C33.8632 34.3871 33.8633 35.1126 33.8637 35.8396C33.8637 36.1809 33.6439 36.3307 33.3311 36.328C32.5778 36.3207 31.8736 36.319 31.2185 36.323C31.1981 36.323 31.1878 36.3334 31.1878 36.3542C31.1878 37.0579 31.1875 37.7571 31.1868 38.452C31.1864 38.7524 31.0608 38.9351 30.81 39H13.8257C13.581 38.9318 13.4587 38.7586 13.4587 38.4805C13.4587 31.2938 13.4587 24.107 13.4587 16.9199C13.4587 16.7584 13.4775 16.6439 13.515 16.5765C13.5927 16.4365 13.742 16.3572 13.9006 16.3572C14.6374 16.3572 15.3748 16.357 16.1127 16.3566C16.1185 16.3566 16.1241 16.3544 16.1282 16.3504C16.1323 16.3464 16.1346 16.341 16.1346 16.3353C16.1364 15.6174 16.1362 14.8824 16.134 14.1303C16.1335 13.8301 16.3599 13.6731 16.6393 13.6748C17.4217 13.6784 18.1376 13.679 18.7869 13.6764C18.7936 13.6763 18.8 13.6735 18.8047 13.6688C18.8094 13.6641 18.8121 13.6578 18.8121 13.6512C18.811 12.9607 18.8108 12.2502 18.8115 11.5195C18.8119 11.2414 18.9349 11.0682 19.1807 11ZM35.6657 11.8952C35.6657 11.8899 35.6635 11.8847 35.6597 11.8809C35.6559 11.8771 35.6508 11.875 35.6454 11.875H19.7062C19.7008 11.875 19.6957 11.8771 19.6919 11.8809C19.6881 11.8847 19.686 11.8899 19.686 11.8952V32.7476C19.686 32.7529 19.6881 32.7581 19.6919 32.7619C19.6957 32.7657 19.7008 32.7678 19.7062 32.7678H35.6454C35.6508 32.7678 35.6559 32.7657 35.6597 32.7619C35.6635 32.7581 35.6657 32.7529 35.6657 32.7476V11.8952ZM19.2545 33.6428C18.9641 33.6423 18.811 33.4213 18.811 33.1479C18.8113 26.9602 18.8113 20.7721 18.811 14.5837C18.811 14.5625 18.8002 14.552 18.7787 14.552H17.0276C17.0159 14.552 17.0101 14.5578 17.0101 14.5695V35.4305C17.0101 35.4352 17.012 35.4396 17.0152 35.4429C17.0185 35.4462 17.023 35.448 17.0276 35.448H32.9712C32.9758 35.448 32.9803 35.4462 32.9836 35.4429C32.9869 35.4396 32.9887 35.4352 32.9887 35.4305V33.668C32.9887 33.6613 32.9861 33.6549 32.9813 33.6502C32.9766 33.6455 32.9702 33.6428 32.9636 33.6428C28.4012 33.6435 23.8315 33.6435 19.2545 33.6428ZM16.5715 36.323C16.2844 36.323 16.1307 36.0895 16.1307 35.8068C16.1333 29.8933 16.1337 23.7074 16.1318 17.2491C16.1318 17.2378 16.1262 17.2322 16.1149 17.2322L14.3632 17.2316C14.3436 17.2316 14.3337 17.2415 14.3337 17.2612V38.0966C14.3337 38.1041 14.3366 38.1113 14.3419 38.1167C14.3471 38.122 14.3542 38.125 14.3616 38.125H30.2877C30.3045 38.125 30.3128 38.1168 30.3128 38.1004V36.3498C30.3128 36.3463 30.3122 36.3428 30.3108 36.3396C30.3095 36.3363 30.3075 36.3334 30.305 36.3309C30.3025 36.3284 30.2996 36.3264 30.2963 36.3251C30.2931 36.3237 30.2896 36.323 30.2861 36.323C25.7459 36.3223 21.1744 36.3223 16.5715 36.323Z" fill="#1B1B96"/>
<path d="M26.9473 15.9078C26.9473 16.3252 26.8651 16.7385 26.7054 17.1241C26.5456 17.5098 26.3115 17.8602 26.0164 18.1553C25.7212 18.4504 25.3708 18.6846 24.9852 18.8443C24.5996 19.004 24.1863 19.0862 23.7689 19.0862C22.9259 19.0862 22.1174 18.7514 21.5214 18.1553C20.9253 17.5592 20.5904 16.7508 20.5904 15.9078C20.5904 15.0648 20.9253 14.2564 21.5214 13.6603C22.1174 13.0642 22.9259 12.7294 23.7689 12.7294C24.6118 12.7294 25.4203 13.0642 26.0164 13.6603C26.6124 14.2564 26.9473 15.0648 26.9473 15.9078ZM23.298 13.6503C21.7613 14.0069 21.0153 15.6322 21.7558 17.0333C21.7657 17.0519 21.7784 17.0542 21.7941 17.0404L23.3155 15.7224C23.3205 15.7181 23.3245 15.7128 23.3272 15.7067C23.33 15.7007 23.3314 15.6941 23.3314 15.6874L23.3319 13.6771C23.3319 13.673 23.331 13.6689 23.3292 13.6652C23.3275 13.6615 23.3248 13.6582 23.3216 13.6557C23.3183 13.6531 23.3145 13.6513 23.3104 13.6503C23.3063 13.6494 23.3021 13.6494 23.298 13.6503ZM26.028 15.4457C25.8224 14.5685 25.1426 13.8056 24.2217 13.653C24.2197 13.6528 24.2178 13.653 24.2159 13.6535C24.2141 13.6541 24.2123 13.655 24.2109 13.6562C24.2094 13.6575 24.2083 13.659 24.2075 13.6607C24.2067 13.6624 24.2063 13.6643 24.2064 13.6662L24.2069 15.4566C24.2069 15.4603 24.2083 15.4637 24.2108 15.4663C24.2132 15.4689 24.2166 15.4703 24.22 15.4703H26.0083C26.0114 15.4703 26.0144 15.4696 26.0172 15.4683C26.02 15.467 26.0224 15.465 26.0243 15.4627C26.0262 15.4603 26.0275 15.4575 26.0282 15.4546C26.0288 15.4516 26.0288 15.4486 26.028 15.4457ZM25.8765 16.8375C25.9476 16.6902 25.9954 16.5353 26.0198 16.3727C26.0227 16.3544 26.0149 16.3453 25.9963 16.3453H23.9657C23.9435 16.3453 23.924 16.3526 23.9072 16.3672L22.3727 17.6977C22.353 17.7149 22.3537 17.7309 22.3749 17.7459C22.9177 18.133 23.4921 18.2794 24.0981 18.185C24.9122 18.0581 25.505 17.609 25.8765 16.8375Z" fill="#1B1B96"/>
<path d="M33.5115 14.3096H27.976C27.738 14.3096 27.5451 14.5025 27.5451 14.7405V14.7547C27.5451 14.9927 27.738 15.1857 27.976 15.1857H33.5115C33.7495 15.1857 33.9424 14.9927 33.9424 14.7547V14.7405C33.9424 14.5025 33.7495 14.3096 33.5115 14.3096Z" fill="#1B1B96"/>
<path d="M33.5126 16.6328H27.9749C27.7375 16.6328 27.5451 16.8253 27.5451 17.0627V17.0769C27.5451 17.3143 27.7375 17.5067 27.9749 17.5067H33.5126C33.75 17.5067 33.9424 17.3143 33.9424 17.0769V17.0627C33.9424 16.8253 33.75 16.6328 33.5126 16.6328Z" fill="#1B1B96"/>
<path d="M31.9731 19.6149C31.8105 19.6007 31.6472 19.5861 31.4831 19.5711C30.8832 19.5153 30.9581 18.6513 31.5564 18.701C32.038 18.7415 32.5488 18.7865 33.0887 18.8361C33.3966 18.8646 33.5377 19.0877 33.5109 19.3742C33.4602 19.9142 33.4158 20.4142 33.3775 20.8743C33.3387 21.3414 32.7059 21.4398 32.5298 20.9985C32.4708 20.8497 32.5266 20.5292 32.5441 20.3504C32.5473 20.3183 32.5366 20.3129 32.5118 20.334C31.6269 21.0913 30.7357 21.8523 29.8381 22.6172C29.6908 22.7426 29.5266 22.7652 29.3454 22.685C28.2702 22.2085 27.1918 21.7307 26.1101 21.2517C26.1023 21.2484 26.0938 21.2473 26.0855 21.2486C26.0772 21.2498 26.0694 21.2534 26.063 21.2588C24.9861 22.1633 23.8865 23.0863 22.7643 24.0276C22.3137 24.4055 21.7575 23.7323 22.1933 23.3664C23.4005 22.3518 24.5743 21.3654 25.7147 20.4073C25.9132 20.2405 26.0816 20.2821 26.3157 20.386C27.3697 20.8534 28.4159 21.3164 29.4542 21.775C29.4659 21.7801 29.4764 21.7787 29.4859 21.7707L31.9808 19.6384C31.9827 19.6366 31.984 19.6343 31.9846 19.6318C31.9853 19.6293 31.9852 19.6267 31.9844 19.6242C31.9836 19.6217 31.9821 19.6196 31.9801 19.6179C31.9781 19.6162 31.9757 19.6152 31.9731 19.6149Z" fill="#1B1B96"/>
<path d="M29.6299 29.584C29.6299 29.5887 29.6318 29.5931 29.635 29.5964C29.6383 29.5997 29.6428 29.6015 29.6474 29.6015H31.5587C31.5799 29.6015 31.5905 29.591 31.5905 29.5698C31.5901 27.1865 31.5899 24.769 31.5899 22.3172C31.5899 21.7129 32.4644 21.7123 32.4644 22.3144C32.4644 24.8403 32.4645 27.2638 32.4649 29.5851C32.4649 29.5964 32.4706 29.6021 32.4819 29.6021C32.8176 29.6017 33.1547 29.6015 33.493 29.6015C33.8053 29.6015 34.0158 29.881 33.919 30.1769C33.843 30.4087 33.6483 30.4776 33.4225 30.4776C29.536 30.4784 25.7006 30.478 21.9162 30.4765C21.8236 30.4765 21.7434 30.4632 21.6756 30.4366C21.2272 30.26 21.3765 29.6032 21.8637 29.6021C22.2429 29.6014 22.6381 29.6014 23.0494 29.6021C23.0727 29.6025 23.0844 29.591 23.0844 29.5676C23.0851 28.4506 23.0844 27.2573 23.0822 25.9878C23.0822 25.8977 23.0997 25.817 23.1347 25.7455C23.2993 25.4103 23.8035 25.442 23.9282 25.7953C23.9501 25.8573 23.961 25.9389 23.961 26.0403C23.9595 27.238 23.9584 28.4177 23.9577 29.5797C23.9577 29.5943 23.965 29.6015 23.9796 29.6015H25.9008C25.9053 29.6015 25.9096 29.5997 25.9128 29.5964C25.9159 29.5931 25.9177 29.5887 25.9177 29.584C25.9177 27.5537 25.9177 25.529 25.9177 23.5099C25.9177 22.9226 26.7922 22.9138 26.7922 23.5099C26.7925 25.5997 26.7927 27.624 26.7927 29.583C26.7927 29.5879 26.7947 29.5926 26.7982 29.5961C26.8017 29.5996 26.8064 29.6015 26.8113 29.6015H28.7314C28.7474 29.6015 28.7555 29.5935 28.7555 29.5775C28.7558 28.0513 28.7556 26.4592 28.7549 24.8011C28.7549 24.2094 29.6305 24.205 29.6305 24.8109C29.6305 26.4125 29.6303 28.0036 29.6299 29.584Z" fill="#1B1B96"/>
</svg>
