<svg width="24" height="16" viewBox="0 0 24 16" fill="none" xmlns="http://www.w3.org/2000/svg">
<g clip-path="url(#clip0_1334_5669)">
<path d="M11.0401 0.5H13.0051C16.6551 0.893333 19.6801 2.49167 22.0801 5.295C22.5701 5.86833 23.2101 6.75333 24.0001 7.95C23.9967 7.95333 23.9967 7.95833 24.0001 7.965C21.4634 12.4583 17.7617 14.97 12.8951 15.5H10.9701C6.15672 14.9033 2.56173 12.4767 0.185059 8.22C0.101725 8.07333 0.101725 7.92667 0.185059 7.78C2.55839 3.51 6.17672 1.08333 11.0401 0.5ZM1.59006 8.225C4.14006 12.315 9.16006 14.975 13.9501 14.03C17.4667 13.3367 20.2884 11.4033 22.4151 8.23C22.4594 8.16484 22.4832 8.08766 22.4832 8.00836C22.4832 7.92906 22.4594 7.85127 22.4151 7.785C18.4251 1.785 11.1601 -0.17 5.05506 4.095C3.63506 5.085 2.48006 6.31167 1.59006 7.775C1.49673 7.925 1.49673 8.075 1.59006 8.225Z" fill="url(#paint0_linear_1334_5669)"/>
<path d="M9.41025 3.06494C12.0836 2.02494 14.2419 2.4716 15.8853 4.40494C17.4086 6.2016 17.6669 8.1966 16.6603 10.3899C16.5803 10.5599 16.5686 10.7366 16.6253 10.9199C16.9753 12.0899 16.0303 12.9499 14.8953 12.5749C14.8167 12.5499 14.734 12.5418 14.6529 12.5513C14.5718 12.5608 14.4941 12.5876 14.4253 12.6299C13.5786 13.1433 12.6986 13.3433 11.7853 13.2299C7.72025 12.7199 5.34025 9.27494 7.12525 5.38494C7.20525 5.20827 7.21525 5.0266 7.15525 4.83994C6.76025 3.64494 7.88525 2.86494 8.99025 3.09994C9.13359 3.12994 9.27359 3.11827 9.41025 3.06494ZM9.70025 4.06494C9.72525 5.13494 9.14525 5.81494 8.03525 5.73494C7.85859 5.7216 7.73859 5.79827 7.67525 5.96494C7.07192 7.61827 7.16359 9.04827 7.95025 10.2549C9.30025 12.3283 11.2569 12.9249 13.8203 12.0449C14.0103 11.9816 14.1053 11.8499 14.1053 11.6499C14.1053 10.5433 14.6536 10.0049 15.7503 10.0349C15.821 10.0364 15.8905 10.0166 15.9494 9.97822C16.0083 9.93983 16.0539 9.88464 16.0803 9.81994C16.7936 7.99994 16.5853 6.39827 15.4553 5.01494C14.0686 3.31827 12.2453 2.86494 9.98525 3.65494C9.79192 3.7216 9.69692 3.85827 9.70025 4.06494ZM8.92525 4.36994C8.92525 4.29902 8.91129 4.2288 8.88415 4.16329C8.85701 4.09777 8.81723 4.03824 8.76709 3.9881C8.71695 3.93796 8.65742 3.89818 8.5919 3.87104C8.52639 3.8439 8.45617 3.82994 8.38525 3.82994C8.24204 3.82994 8.10468 3.88683 8.00342 3.9881C7.90215 4.08937 7.84525 4.22672 7.84525 4.36994C7.84525 4.51315 7.90215 4.65051 8.00342 4.75178C8.10468 4.85304 8.24204 4.90994 8.38525 4.90994C8.45617 4.90994 8.52639 4.89597 8.5919 4.86883C8.65742 4.84169 8.71695 4.80192 8.76709 4.75178C8.81723 4.70163 8.85701 4.6421 8.88415 4.57659C8.91129 4.51107 8.92525 4.44085 8.92525 4.36994ZM15.9203 11.3699C15.9203 11.228 15.8639 11.092 15.7636 10.9916C15.6632 10.8913 15.5271 10.8349 15.3853 10.8349C15.2434 10.8349 15.1073 10.8913 15.007 10.9916C14.9066 11.092 14.8503 11.228 14.8503 11.3699C14.8503 11.5118 14.9066 11.6479 15.007 11.7482C15.1073 11.8486 15.2434 11.9049 15.3853 11.9049C15.5271 11.9049 15.6632 11.8486 15.7636 11.7482C15.8639 11.6479 15.9203 11.5118 15.9203 11.3699Z" fill="url(#paint1_linear_1334_5669)"/>
<path d="M13.4498 7.7449C13.4498 8.20107 13.2686 8.63856 12.946 8.96113C12.6234 9.28369 12.1859 9.4649 11.7298 9.4649C11.5039 9.4649 11.2802 9.42041 11.0716 9.33398C10.8629 9.24754 10.6733 9.12084 10.5135 8.96113C10.3538 8.80141 10.2271 8.6118 10.1407 8.40312C10.0543 8.19444 10.0098 7.97078 10.0098 7.7449C10.0098 7.51903 10.0543 7.29537 10.1407 7.08669C10.2271 6.87801 10.3538 6.6884 10.5135 6.52868C10.6733 6.36896 10.8629 6.24227 11.0716 6.15583C11.2802 6.06939 11.5039 6.0249 11.7298 6.0249C12.1859 6.0249 12.6234 6.20612 12.946 6.52868C13.2686 6.85124 13.4498 7.28873 13.4498 7.7449ZM12.4548 7.7199C12.4548 7.52762 12.3784 7.34321 12.2424 7.20725C12.1065 7.07129 11.922 6.9949 11.7298 6.9949C11.5375 6.9949 11.3531 7.07129 11.2171 7.20725C11.0811 7.34321 11.0048 7.52762 11.0048 7.7199C11.0048 7.81511 11.0235 7.90939 11.06 7.99735C11.0964 8.08531 11.1498 8.16523 11.2171 8.23255C11.2844 8.29988 11.3644 8.35328 11.4523 8.38971C11.5403 8.42615 11.6346 8.4449 11.7298 8.4449C11.825 8.4449 11.9192 8.42615 12.0072 8.38971C12.0952 8.35328 12.1751 8.29988 12.2424 8.23255C12.3097 8.16523 12.3631 8.08531 12.3996 7.99735C12.436 7.90939 12.4548 7.81511 12.4548 7.7199Z" fill="url(#paint2_linear_1334_5669)"/>
</g>
<defs>
<linearGradient id="paint0_linear_1334_5669" x1="12.0613" y1="0.5" x2="12.0613" y2="15.5" gradientUnits="userSpaceOnUse">
<stop stop-color="#6897B5"/>
<stop offset="0.0001" stop-color="#4991EF"/>
<stop offset="0.494792" stop-color="#4060FF"/>
<stop offset="1" stop-color="#004EB6"/>
</linearGradient>
<linearGradient id="paint1_linear_1334_5669" x1="11.8927" y1="2.51929" x2="11.8927" y2="13.2607" gradientUnits="userSpaceOnUse">
<stop stop-color="#C21931"/>
<stop offset="1" stop-color="#F0680A"/>
</linearGradient>
<linearGradient id="paint2_linear_1334_5669" x1="11.7298" y1="6.0249" x2="11.7298" y2="9.4649" gradientUnits="userSpaceOnUse">
<stop stop-color="#6897B5"/>
<stop offset="0.0001" stop-color="#4991EF"/>
<stop offset="0.494792" stop-color="#4060FF"/>
<stop offset="1" stop-color="#004EB6"/>
</linearGradient>
<clipPath id="clip0_1334_5669">
<rect width="24" height="15" fill="white" transform="translate(0 0.5)"/>
</clipPath>
</defs>
</svg>
