<svg width="50" height="50" viewBox="0 0 50 50" fill="none" xmlns="http://www.w3.org/2000/svg">
<circle cx="25" cy="25" r="25" fill="#F2F5FC"/>
<g clip-path="url(#clip0_860_2325)">
<path d="M11 24.4212V23.5478C11.0835 20.9294 11.8914 18.5889 13.4237 16.5265C14.4541 15.1396 15.824 13.9452 17.3585 13.1085C19.3331 12.0323 21.4803 11.5359 23.8002 11.6194C23.8024 11.6195 23.8045 11.6205 23.806 11.6221C23.8075 11.6237 23.8084 11.6259 23.8084 11.6281V24.3309C23.8084 24.3492 23.7994 24.3592 23.7816 24.361L11.152 25.6363C11.1345 25.6381 11.1249 25.6303 11.123 25.6128L11 24.4212ZM22.6419 12.7951C22.6419 12.7802 22.6344 12.7736 22.6195 12.7755C22.171 12.8258 21.7149 12.8471 21.278 12.9368C20.9564 13.0024 20.6294 13.056 20.3193 13.1501C19.9332 13.2676 19.5537 13.377 19.1769 13.528C17.0692 14.372 15.363 15.7435 14.0581 17.6426C13.8935 17.8827 13.7519 18.1321 13.6037 18.382C13.4936 18.5676 13.3942 18.7555 13.3056 18.9459C13.1629 19.2537 13.0103 19.5562 12.8998 19.8728C12.7812 20.2157 12.6538 20.5444 12.5646 20.9048C12.4842 21.2285 12.3929 21.5462 12.3448 21.8749C12.3229 22.0255 12.2997 22.1803 12.2753 22.3392C12.1758 22.9905 12.1637 23.6676 12.1605 24.3304C12.1605 24.3493 12.1699 24.3579 12.1889 24.3561L22.6184 23.3132C22.6248 23.3126 22.6308 23.3097 22.6351 23.3049C22.6395 23.3002 22.6419 23.2939 22.6419 23.2875V12.7951Z" fill="#1B1B96"/>
<path d="M39.0005 25.8901V26.4528C38.89 29.4847 37.8391 32.11 35.8478 34.3289C32.5403 38.0148 27.2329 39.3536 22.574 37.6615C21.0559 37.1099 19.7095 36.2878 18.5348 35.1951C18.2657 34.945 17.9947 34.6776 17.7216 34.3929C17.7063 34.3768 17.7065 34.361 17.7221 34.3453L26.1719 25.8955C26.1783 25.8891 26.1834 25.8815 26.1869 25.873C26.1904 25.8646 26.1922 25.8555 26.1921 25.8463V13.978C26.1921 13.9536 26.2044 13.941 26.2288 13.9403C29.3926 13.8616 32.1586 14.7863 34.5265 16.7146C37.2795 18.9568 38.901 22.3031 39.0005 25.8901ZM27.2985 26.3697C27.2985 26.3894 27.2915 26.406 27.2777 26.4194L19.336 34.3612C19.3305 34.3666 19.3307 34.3719 19.3365 34.377C21.0723 35.9342 23.0948 36.8556 25.4041 37.1415C25.8339 37.1945 26.3289 37.2164 26.6991 37.2191C27.7542 37.2271 28.8017 37.0789 29.8414 36.7745C30.1368 36.6881 30.4271 36.5727 30.7159 36.4699C30.9299 36.3933 31.137 36.306 31.3371 36.208C31.6336 36.063 31.9398 35.9241 32.2209 35.7519C32.3988 35.6429 32.5751 35.5349 32.7497 35.4281C33.0035 35.2728 33.2419 35.0808 33.4836 34.9037C33.8019 34.6701 34.0852 34.3994 34.3767 34.1342C34.6004 33.9308 34.7972 33.7044 35.0034 33.4801C35.1642 33.3051 35.3075 33.1327 35.4332 32.9628C35.6318 32.6954 35.8423 32.4345 36.0135 32.1485C36.2071 31.8237 36.4056 31.5185 36.5696 31.1773C36.7206 30.8644 36.8715 30.5697 36.9924 30.2443C37.1455 29.8308 37.2427 29.5594 37.2839 29.43C37.5817 28.497 37.7447 27.4829 37.7728 26.3877C37.781 26.0716 37.7569 25.7424 37.7432 25.4291C37.7327 25.1884 37.709 24.9496 37.6721 24.7126C37.624 24.4015 37.5836 24.0821 37.507 23.7682C37.4093 23.3672 37.3424 23.1076 37.3063 22.9894C36.8867 21.6248 36.249 20.4031 35.3933 19.3243C33.8938 17.4328 31.9748 16.1524 29.6364 15.483C29.323 15.3934 29.0042 15.3365 28.6854 15.2719C28.2375 15.1806 27.7846 15.1555 27.328 15.1046C27.3083 15.1024 27.2985 15.1112 27.2985 15.1309V26.3697Z" fill="#1B1B96"/>
<path d="M12.0544 31.0573C11.6847 30.2042 11.4226 29.3392 11.268 28.4624C11.1746 27.9323 11.1065 27.3826 11.0634 26.8135C11.0631 26.8077 11.0656 26.8046 11.0711 26.8042L24.8103 25.4119C24.8409 25.409 24.8452 25.4185 24.8234 25.4403L15.0425 35.2206C15.0272 35.2363 15.0117 35.2365 14.996 35.2212C14.6198 34.8595 14.2598 34.4756 13.916 34.0695C13.1551 33.169 12.5345 32.1649 12.0544 31.0573ZM12.312 27.8499C12.2941 27.8517 12.2866 27.8613 12.2895 27.8788C12.6456 29.981 13.5676 31.9618 15.0059 33.5401C15.0076 33.542 15.0096 33.5436 15.0119 33.5447C15.0142 33.5458 15.0167 33.5464 15.0192 33.5465C15.0217 33.5466 15.0242 33.5462 15.0265 33.5453C15.0288 33.5443 15.0309 33.543 15.0327 33.5412L21.6132 26.9606C21.6391 26.9348 21.6338 26.9236 21.5974 26.9273L12.312 27.8499Z" fill="#1B1B96"/>
</g>
<defs>
<clipPath id="clip0_860_2325">
<rect width="28" height="28" fill="white" transform="translate(11 11)"/>
</clipPath>
</defs>
</svg>
