<svg width="21" height="24" viewBox="0 0 21 24" fill="none" xmlns="http://www.w3.org/2000/svg">
<g clip-path="url(#clip0_1342_6656)">
<path d="M10.1847 0H10.7651C12.7782 2.35055 15.5171 3.39345 18.9818 3.12873C20.0436 3.04727 20.6982 3.47345 20.9455 4.40727V8.81891C20.2735 15.5433 17.3018 21.312 10.7956 24H10.0844C6.75636 22.6211 4.27927 20.5033 2.65309 17.6465C1.23927 15.1593 0.354909 12.2705 0 8.98036V4.35055C0.264727 3.50982 0.884364 3.10982 1.85891 3.15055C2.73164 3.18545 3.60145 3.15491 4.46836 3.05891C6.79273 2.8 8.69818 1.78036 10.1847 0ZM19.008 4.77382C15.8138 4.97891 13.0865 4.45527 10.6385 2.24727C10.5251 2.14545 10.4102 2.14545 10.2938 2.24727C8.93818 3.44582 7.36727 4.24 5.58109 4.62982C4.37236 4.896 3.09818 4.79564 1.88945 4.79127C1.72073 4.79127 1.63345 4.87564 1.62764 5.04436C1.30036 12.0087 3.32073 19.2524 10.2327 22.2589C10.3927 22.3287 10.5542 22.3302 10.7171 22.2633C17.5113 19.4444 19.6844 11.8255 19.296 5.03127C19.2873 4.848 19.1913 4.76218 19.008 4.77382Z" fill="url(#paint0_linear_1342_6656)"/>
<path d="M10.1629 13.6844L13.7585 8.42183C14.0407 8.00874 14.4131 7.89674 14.8756 8.08583C15.0967 8.1731 15.2291 8.40147 15.2727 8.77092C15.2951 8.9509 15.2501 9.1328 15.1462 9.28147L10.8305 15.5171C10.3825 16.1629 9.89526 16.1949 9.36872 15.6131L5.90835 11.8211C5.56799 11.4487 5.55635 11.0662 5.87344 10.6735C6.01308 10.5018 6.21817 10.4131 6.48872 10.4073C6.57765 10.4046 6.66627 10.4216 6.74842 10.457C6.83057 10.4924 6.90425 10.5455 6.96435 10.6124L9.72217 13.7106C9.88217 13.8909 10.0291 13.8822 10.1629 13.6844Z" fill="url(#paint1_linear_1342_6656)"/>
</g>
<defs>
<linearGradient id="paint0_linear_1342_6656" x1="10.4727" y1="0" x2="10.4727" y2="24" gradientUnits="userSpaceOnUse">
<stop stop-color="#6897B5"/>
<stop offset="0.0001" stop-color="#4991EF"/>
<stop offset="0.494792" stop-color="#4060FF"/>
<stop offset="1" stop-color="#004EB6"/>
</linearGradient>
<linearGradient id="paint1_linear_1342_6656" x1="10.4612" y1="7.99677" x2="10.4612" y2="16.0267" gradientUnits="userSpaceOnUse">
<stop stop-color="#C21931"/>
<stop offset="1" stop-color="#F0680A"/>
</linearGradient>
<clipPath id="clip0_1342_6656">
<rect width="20.9455" height="24" fill="white"/>
</clipPath>
</defs>
</svg>
