<svg width="36" height="36" viewBox="0 0 36 36" fill="none" xmlns="http://www.w3.org/2000/svg">
<rect width="36" height="36" rx="18" fill="#1D1B9D"/>
<path d="M16.7959 18.4L15.1351 16.7391L14.231 17.6433L16.7959 20.2083L21.9258 15.0783L21.0217 14.1742L16.7959 18.4Z" fill="white"/>
<path d="M18.0782 26.999L14.1179 24.8874C12.9889 24.2867 12.0447 23.39 11.3868 22.2934C10.7289 21.1968 10.3819 19.9417 10.3833 18.6629V10.3267C10.3836 9.9867 10.5189 9.66069 10.7593 9.42026C10.9997 9.17982 11.3258 9.04459 11.6658 9.04425H24.4906C24.8306 9.04459 25.1566 9.17982 25.3971 9.42026C25.6375 9.66069 25.7727 9.9867 25.7731 10.3267V18.6629C25.7744 19.9417 25.4275 21.1968 24.7696 22.2934C24.1116 23.39 23.1675 24.2867 22.0385 24.8874L18.0782 26.999ZM11.6658 10.3267V18.6629C11.6647 19.7092 11.9486 20.7362 12.4871 21.6334C13.0255 22.5306 13.7981 23.2643 14.7219 23.7556L18.0782 25.5453L21.4344 23.7562C22.3584 23.2648 23.1311 22.5311 23.6695 21.6337C24.2079 20.7364 24.4918 19.7093 24.4906 18.6629V10.3267H11.6658Z" fill="white"/>
</svg>
