<svg width="56" height="56" viewBox="0 0 56 56" fill="none" xmlns="http://www.w3.org/2000/svg">
<circle cx="28" cy="28" r="28" fill="#F2F5FC"/>
<path d="M17.382 24.8053C18.9686 23.8206 20.6031 22.8481 22.2854 21.8878C22.7056 21.6477 22.87 21.2249 23.0605 20.8074C23.1022 20.7187 23.1675 20.6552 23.2562 20.6169C24.1261 20.2307 24.7211 20.4725 25.0412 21.3424C25.0934 21.4885 25.1908 21.5981 25.3335 21.6712C26.9444 22.5167 28.565 23.3857 30.1952 24.2782C30.395 24.3871 30.6279 24.4189 30.8493 24.3674C31.0707 24.3159 31.2652 24.1847 31.3956 23.9989C33.2797 21.3406 35.2343 18.5997 37.2594 15.7761C37.4681 15.4873 37.5977 15.1637 37.6482 14.8053C37.7995 13.7693 39.1357 13.751 39.548 14.6461C40.0647 15.7656 38.6842 15.7969 38.2484 16.4128C36.3782 19.0624 34.4897 21.7164 32.5829 24.3747C32.2306 24.8679 32.4055 25.2855 32.2567 25.8074C32.061 26.4885 31.1633 26.5694 30.6257 26.3006C30.5387 26.2571 30.4752 26.1901 30.4352 26.0997C30.2752 25.7448 30.0247 25.4821 29.6837 25.3116C28.1144 24.5304 26.5974 23.7258 25.1325 22.8977C24.4305 22.501 23.465 22.4958 22.7708 22.9316C21.252 23.8815 19.6306 24.8471 17.9065 25.8283C17.691 25.9504 17.5185 26.1384 17.4133 26.3658C17.2463 26.7286 17.0323 27.0496 16.633 27.1879C15.2552 27.6602 14.5819 25.9326 15.5031 25.1889C16.0667 24.7374 16.74 25.202 17.382 24.8053Z" fill="#1C1B9D"/>
<path d="M40.8814 19.6409H36.5755C36.4386 19.6409 36.3276 19.7519 36.3276 19.8888V41.6425C36.3276 41.7794 36.4386 41.8904 36.5755 41.8904H40.8814C41.0183 41.8904 41.1293 41.7794 41.1293 41.6425V19.8888C41.1293 19.7519 41.0183 19.6409 40.8814 19.6409Z" fill="#1C1B9D"/>
<path d="M26.0876 24.1189H21.6774C21.5088 24.1189 21.3721 24.2556 21.3721 24.4242V41.6946C21.3721 41.8632 21.5088 41.9999 21.6774 41.9999H26.0876C26.2563 41.9999 26.393 41.8632 26.393 41.6946V24.4242C26.393 24.2556 26.2563 24.1189 26.0876 24.1189Z" fill="#1C1B9D"/>
<path d="M18.9243 30.2803H14.1592C14.0713 30.2803 14 30.3515 14 30.4395V41.6608C14 41.7487 14.0713 41.82 14.1592 41.82H18.9243C19.0122 41.82 19.0835 41.7487 19.0835 41.6608V30.4395C19.0835 30.3515 19.0122 30.2803 18.9243 30.2803Z" fill="#1C1B9D"/>
<path d="M33.585 33.8215H29.1643C28.9971 33.8215 28.8616 33.9571 28.8616 34.1242V41.5512C28.8616 41.7184 28.9971 41.8539 29.1643 41.8539H33.585C33.7521 41.8539 33.8877 41.7184 33.8877 41.5512V34.1242C33.8877 33.9571 33.7521 33.8215 33.585 33.8215Z" fill="#1C1B9D"/>
</svg>
