<svg width="36" height="36" viewBox="0 0 36 36" fill="none" xmlns="http://www.w3.org/2000/svg">
<rect width="36" height="36" rx="18" fill="#1D1B9D"/>
<g clip-path="url(#clip0_1339_6468)">
<path d="M18.0417 9.06667H17.9583C17.6362 9.06667 17.375 9.32783 17.375 9.65V13.4083C17.375 13.7305 17.6362 13.9917 17.9583 13.9917H18.0417C18.3638 13.9917 18.625 13.7305 18.625 13.4083V9.65C18.625 9.32783 18.3638 9.06667 18.0417 9.06667Z" fill="white"/>
<path d="M14.063 13.5833L11.5484 11.0774C11.3251 10.8549 10.9636 10.8555 10.7411 11.0789L10.694 11.1261C10.4715 11.3494 10.4721 11.7108 10.6955 11.9334L13.2101 14.4392C13.4334 14.6617 13.7948 14.6611 14.0173 14.4378L14.0644 14.3906C14.2869 14.1673 14.2863 13.8058 14.063 13.5833Z" fill="white"/>
<path d="M24.4487 11.0762L21.94 13.5762C21.7135 13.802 21.7128 14.1687 21.9386 14.3953L21.9739 14.4307C22.1997 14.6573 22.5664 14.6579 22.793 14.4321L25.3017 11.9321C25.5282 11.7064 25.5289 11.3397 25.3031 11.1131L25.2678 11.0777C25.042 10.8511 24.6753 10.8505 24.4487 11.0762Z" fill="white"/>
<path d="M22.2333 21.4417L19.475 21.5583L16.5333 21.5458L13.625 21.4417L14.9333 15.7C15.0028 15.4 15.1903 15.25 15.4958 15.25H20.4208C20.7458 15.25 20.9597 15.4028 21.0625 15.7083C21.7208 17.6611 22.1111 19.5722 22.2333 21.4417ZM20.7958 20.25C20.8147 20.2499 20.8332 20.2455 20.8501 20.2372C20.8671 20.2289 20.8819 20.2169 20.8935 20.2021C20.9051 20.1873 20.9132 20.17 20.9172 20.1516C20.9213 20.1332 20.9211 20.1141 20.9167 20.0958L20.0458 16.5958C20.0393 16.5686 20.0239 16.5444 20.002 16.5271C19.9801 16.5097 19.953 16.5002 19.925 16.5H16.0708C16.0429 16.5002 16.0158 16.5097 15.9939 16.5271C15.972 16.5444 15.9565 16.5686 15.95 16.5958L15.0875 20.0958C15.0831 20.1141 15.0829 20.1332 15.0869 20.1516C15.0909 20.17 15.099 20.1873 15.1107 20.2021C15.1223 20.2169 15.1371 20.2289 15.154 20.2372C15.1709 20.2455 15.1895 20.2499 15.2083 20.25H20.7958Z" fill="white"/>
<path d="M8 18.8083V18.0583C9.33611 17.7 10.7931 17.6014 12.3708 17.7625C12.5112 17.7773 12.6432 17.8365 12.7481 17.9316C12.8529 18.0267 12.9251 18.1527 12.9542 18.2917C12.9986 18.4944 12.9569 18.6639 12.8292 18.8C12.7208 18.9167 12.5778 18.9806 12.4 18.9917C10.8778 19.0861 9.41111 19.025 8 18.8083Z" fill="white"/>
<path d="M27.9999 18.0792V18.6C27.8582 18.8417 27.4763 18.9694 26.854 18.9833C25.7457 19.0111 24.6318 19.0083 23.5124 18.975C23.3871 18.9711 23.2678 18.9208 23.1777 18.8337C23.0876 18.7467 23.0331 18.6292 23.0249 18.5042C23.0082 18.2431 23.0999 18.0444 23.2999 17.9083C23.4388 17.8167 23.6054 17.7625 23.7999 17.7458C25.3582 17.6069 26.7582 17.7181 27.9999 18.0792Z" fill="white"/>
<path d="M13.6248 21.4417L16.5331 21.5458L17.8373 26.5083C17.9401 26.8972 18.0442 26.8972 18.1498 26.5083L19.4748 21.5583L22.2331 21.4417L24.9373 21.5125C25.0457 21.5147 25.151 21.5507 25.2389 21.6155C25.3269 21.6803 25.3932 21.7709 25.4289 21.875C26.1012 23.8917 26.4942 25.85 26.6081 27.75H9.30811L10.5289 22.0375C10.6039 21.6792 10.8248 21.4958 11.1914 21.4875L13.6248 21.4417ZM11.7039 22.75C11.676 22.7502 11.6489 22.7597 11.627 22.7771C11.6051 22.7944 11.5896 22.8186 11.5831 22.8458L10.7039 26.3458C10.6995 26.3641 10.6993 26.3832 10.7034 26.4016C10.7074 26.42 10.7155 26.4373 10.7271 26.4521C10.7387 26.4669 10.7535 26.4789 10.7705 26.4872C10.7874 26.4955 10.8059 26.4999 10.8248 26.5H16.4248C16.4436 26.4999 16.4622 26.4955 16.4791 26.4872C16.496 26.4789 16.5108 26.4669 16.5224 26.4521C16.5341 26.4373 16.5422 26.42 16.5462 26.4016C16.5502 26.3832 16.55 26.3641 16.5456 26.3458L15.6664 22.85C15.6599 22.8228 15.6445 22.7986 15.6226 22.7812C15.6007 22.7639 15.5736 22.7543 15.5456 22.7542L11.7039 22.75ZM25.1706 26.5C25.1894 26.4999 25.208 26.4955 25.2249 26.4872C25.2418 26.4789 25.2567 26.4669 25.2683 26.4521C25.2799 26.4373 25.288 26.42 25.292 26.4016C25.296 26.3832 25.2958 26.3641 25.2914 26.3458L24.4164 22.8458C24.4099 22.8186 24.3945 22.7944 24.3726 22.7771C24.3507 22.7597 24.3236 22.7502 24.2956 22.75H20.4498C20.4218 22.7502 20.3947 22.7597 20.3728 22.7771C20.3509 22.7944 20.3355 22.8186 20.3289 22.8458L19.4581 26.3458C19.4537 26.3641 19.4535 26.3832 19.4575 26.4016C19.4615 26.42 19.4697 26.4373 19.4813 26.4521C19.4929 26.4669 19.5077 26.4789 19.5246 26.4872C19.5415 26.4955 19.5601 26.4999 19.5789 26.5H25.1706Z" fill="white"/>
</g>
<defs>
<clipPath id="clip0_1339_6468">
<rect width="20" height="18.75" fill="white" transform="translate(8 9)"/>
</clipPath>
</defs>
</svg>
