<svg width="23" height="24" viewBox="0 0 23 24" fill="none" xmlns="http://www.w3.org/2000/svg">
<g clip-path="url(#clip0_1342_6625)">
<path d="M11.1658 0.5H11.8405C14.9913 0.606914 17.9643 1.97523 20.0387 4.2923C21.8988 6.36949 22.8859 8.82777 23 11.6671V12.3387C22.885 15.6593 21.3756 18.7666 18.8402 20.8563C16.8232 22.5188 14.4849 23.4 11.8252 23.5H11.1698C8.04236 23.3949 5.08561 22.0481 3.01022 19.7603C1.122 17.6786 0.118594 15.2073 0 12.3463V11.6474C0.119193 8.80051 1.11541 6.33895 2.98865 4.26266C3.96555 3.17974 5.13487 2.30526 6.4966 1.63922C7.9338 0.936042 9.4902 0.556302 11.1658 0.5ZM21.3922 11.9996C21.3922 9.37596 20.35 6.85983 18.4949 5.00468C16.6397 3.14952 14.1236 2.1073 11.5 2.1073C8.87641 2.1073 6.36028 3.14952 4.50513 5.00468C2.64997 6.85983 1.60775 9.37596 1.60775 11.9996C1.60775 14.6231 2.64997 17.1393 4.50513 18.9944C6.36028 20.8496 8.87641 21.8918 11.5 21.8918C14.1236 21.8918 16.6397 20.8496 18.4949 18.9944C20.35 17.1393 21.3922 14.6231 21.3922 11.9996Z" fill="url(#paint0_linear_1342_6625)"/>
<path d="M11.4931 8.68836C12.1724 8.68836 12.7231 8.20507 12.7231 7.60889C12.7231 7.01272 12.1724 6.52942 11.4931 6.52942C10.8139 6.52942 10.2632 7.01272 10.2632 7.60889C10.2632 8.20507 10.8139 8.68836 11.4931 8.68836Z" fill="url(#paint1_linear_1342_6625)"/>
<path d="M12.4282 16.9967C11.9246 17.3817 11.0365 17.4077 10.5468 16.9747C10.4098 16.8534 10.3339 16.7087 10.3339 16.5326C10.3342 14.6881 10.3339 12.7866 10.333 10.828C10.333 9.80514 12.6802 9.88016 12.6802 10.797C12.6802 12.7113 12.6803 14.6308 12.6806 16.5556C12.6806 16.7325 12.5643 16.8925 12.4282 16.9967Z" fill="url(#paint2_linear_1342_6625)"/>
</g>
<defs>
<linearGradient id="paint0_linear_1342_6625" x1="11.5" y1="0.5" x2="11.5" y2="23.5" gradientUnits="userSpaceOnUse">
<stop stop-color="#6897B5"/>
<stop offset="0.0001" stop-color="#4991EF"/>
<stop offset="0.494792" stop-color="#4060FF"/>
<stop offset="1" stop-color="#004EB6"/>
</linearGradient>
<linearGradient id="paint1_linear_1342_6625" x1="11.4931" y1="6.52942" x2="11.4931" y2="8.68836" gradientUnits="userSpaceOnUse">
<stop stop-color="#C21931"/>
<stop offset="1" stop-color="#F0680A"/>
</linearGradient>
<linearGradient id="paint2_linear_1342_6625" x1="11.5068" y1="10.085" x2="11.5068" y2="17.2924" gradientUnits="userSpaceOnUse">
<stop stop-color="#C21931"/>
<stop offset="1" stop-color="#F0680A"/>
</linearGradient>
<clipPath id="clip0_1342_6625">
<rect width="23" height="23" fill="white" transform="translate(0 0.5)"/>
</clipPath>
</defs>
</svg>
