<svg width="36" height="36" viewBox="0 0 36 36" fill="none" xmlns="http://www.w3.org/2000/svg">
<rect width="36" height="36" rx="18" fill="#1D1B9D"/>
<g clip-path="url(#clip0_1339_6500)">
<path d="M28 12.8417V13.3167C27.4278 13.6139 26.6806 13.7306 25.7583 13.6667C25.5861 13.6528 25.5 13.7333 25.5 13.9083V17.0958C25.5 17.2681 25.5861 17.3472 25.7583 17.3333C26.6972 17.2639 27.4444 17.4 28 17.7417V18.2083C27.875 18.4472 27.5264 18.5833 26.9542 18.6167C26.4181 18.6472 26.0278 18.6389 25.7833 18.5917C25.7489 18.5849 25.7134 18.5858 25.6793 18.5944C25.6453 18.603 25.6136 18.6191 25.5865 18.6414C25.5594 18.6637 25.5376 18.6917 25.5227 18.7235C25.5077 18.7552 25.5 18.7899 25.5 18.825V22.1833C25.5 22.3833 25.5986 22.4639 25.7958 22.425C26.7292 22.2389 27.4639 22.3444 28 22.7417V23.2083C27.8222 23.5611 27.4722 23.7083 26.95 23.65C26.5444 23.6028 26.1278 23.6 25.7 23.6417C25.5333 23.6556 25.4611 23.7472 25.4833 23.9167C25.65 25.2375 24.9125 25.4417 23.8792 25.5C23.7069 25.5111 23.6278 25.6028 23.6417 25.775C23.7222 26.6444 23.6278 27.3861 23.3583 28H22.6125C22.3875 27.3444 22.2958 26.5972 22.3375 25.7583C22.3458 25.5861 22.2639 25.5 22.0917 25.5H18.9208C18.7486 25.5 18.6667 25.5861 18.675 25.7583C18.7083 26.6194 18.6069 27.3667 18.3708 28H17.6125C17.3875 27.3444 17.2958 26.5972 17.3375 25.7583C17.3458 25.5861 17.2639 25.5 17.0917 25.5H13.9208C13.7486 25.5 13.6667 25.5861 13.675 25.7583C13.7083 26.6194 13.6069 27.3667 13.3708 28H12.6083C12.3889 27.3306 12.2972 26.5681 12.3333 25.7125C12.3417 25.5431 12.2611 25.4653 12.0917 25.4792C10.9361 25.5847 10.4097 25.0444 10.5125 23.8583C10.5264 23.7028 10.4542 23.6236 10.2958 23.6208C9.80417 23.6097 9.31944 23.6208 8.84167 23.6542C8.4 23.6819 8.11944 23.5167 8 23.1583V22.8458C8.4 22.2167 9.4875 22.3083 10.1667 22.3917C10.3889 22.4167 10.5 22.3181 10.5 22.0958V18.9083C10.5 18.6861 10.3903 18.5833 10.1708 18.6C9.69861 18.6389 9.25417 18.6639 8.8375 18.675C8.39861 18.6889 8.11944 18.5167 8 18.1583V17.7625C8.48889 17.3542 9.18472 17.2375 10.0875 17.4125C10.3625 17.4653 10.5 17.3528 10.5 17.075V13.9417C10.5 13.6722 10.3667 13.5569 10.1 13.5958C9.81944 13.6375 9.39861 13.6458 8.8375 13.6208C8.37639 13.6014 8.09722 13.4486 8 13.1625V12.8458C8.25 12.4431 8.85694 12.3194 9.82083 12.475C10.2931 12.5528 10.5014 12.3528 10.4458 11.875C10.3403 10.9917 10.8958 10.5306 12.1125 10.4917C12.2903 10.4861 12.3778 10.3944 12.375 10.2167V8.6125C12.3722 8.25417 12.55 8.07361 12.9083 8.07083H13.1333C13.4583 8.06806 13.6208 8.22778 13.6208 8.55L13.625 10.1375C13.6278 10.3792 13.75 10.5 13.9917 10.5H17.0125C17.2542 10.5 17.375 10.3778 17.375 10.1333V8.725C17.375 8.30278 17.5861 8.08194 18.0083 8.0625C18.0889 8.05972 18.1694 8.07361 18.25 8.10417C18.4972 8.20139 18.6208 8.38194 18.6208 8.64583L18.625 10.1375C18.6278 10.3792 18.75 10.5 18.9917 10.5H22.0125C22.2542 10.5 22.375 10.3778 22.375 10.1333V8.6125C22.375 8.25417 22.5528 8.07361 22.9083 8.07083H23.0875C23.4486 8.06806 23.6278 8.24722 23.625 8.60833L23.6208 10.2917C23.6207 10.3236 23.6272 10.3552 23.64 10.3845C23.6528 10.4137 23.6716 10.44 23.6951 10.4615C23.7187 10.4831 23.7465 10.4995 23.7767 10.5098C23.807 10.52 23.839 10.5237 23.8708 10.5208C25.0569 10.4153 25.5931 10.9431 25.4792 12.1042C25.4653 12.2681 25.5403 12.3556 25.7042 12.3667C26.4042 12.4042 27.5667 12.1333 28 12.8417ZM24.25 11.8583C24.25 11.8296 24.2386 11.802 24.2183 11.7817C24.198 11.7614 24.1704 11.75 24.1417 11.75H11.8583C11.8296 11.75 11.802 11.7614 11.7817 11.7817C11.7614 11.802 11.75 11.8296 11.75 11.8583V24.1417C11.75 24.1704 11.7614 24.198 11.7817 24.2183C11.802 24.2386 11.8296 24.25 11.8583 24.25H24.1417C24.1704 24.25 24.198 24.2386 24.2183 24.2183C24.2386 24.198 24.25 24.1704 24.25 24.1417V11.8583Z" fill="white"/>
<path d="M21.1292 20.457C21.1293 20.5446 21.1123 20.6313 21.0789 20.7123C21.0455 20.7932 20.9966 20.8668 20.9348 20.9288C20.873 20.9908 20.7995 21.04 20.7187 21.0737C20.6379 21.1073 20.5512 21.1247 20.4637 21.1249L15.547 21.1335C15.4595 21.1336 15.3728 21.1165 15.2918 21.0832C15.2109 21.0498 15.1373 21.0008 15.0753 20.939C15.0133 20.8772 14.964 20.8038 14.9304 20.723C14.8967 20.6422 14.8793 20.5555 14.8792 20.468L14.8706 15.5513C14.8705 15.4637 14.8875 15.377 14.9209 15.2961C14.9543 15.2151 15.0032 15.1416 15.065 15.0795C15.1268 15.0175 15.2002 14.9683 15.2811 14.9347C15.3619 14.901 15.4486 14.8836 15.5361 14.8835L20.4528 14.8749C20.5403 14.8747 20.627 14.8918 20.708 14.9252C20.7889 14.9585 20.8625 15.0075 20.9245 15.0693C20.9865 15.1311 21.0358 15.2045 21.0694 15.2853C21.1031 15.3662 21.1205 15.4528 21.1206 15.5404L21.1292 20.457ZM19.8718 16.2342C19.8718 16.2195 19.8689 16.2048 19.8632 16.1912C19.8575 16.1776 19.8492 16.1652 19.8387 16.1547C19.8283 16.1443 19.8158 16.136 19.8022 16.1304C19.7885 16.1248 19.7739 16.1219 19.7591 16.1219L16.2341 16.1281C16.2194 16.1281 16.2047 16.131 16.1911 16.1367C16.1775 16.1424 16.1651 16.1507 16.1546 16.1612C16.1442 16.1716 16.1359 16.1841 16.1303 16.1977C16.1247 16.2114 16.1218 16.226 16.1218 16.2408L16.128 19.7658C16.128 19.7805 16.1309 19.7952 16.1366 19.8088C16.1423 19.8224 16.1506 19.8348 16.1611 19.8453C16.1715 19.8557 16.184 19.864 16.1976 19.8696C16.2113 19.8752 16.2259 19.8781 16.2407 19.8781L19.7656 19.8719C19.7804 19.8719 19.7951 19.869 19.8087 19.8633C19.8223 19.8576 19.8347 19.8493 19.8452 19.8388C19.8556 19.8284 19.8639 19.8159 19.8695 19.8023C19.8751 19.7886 19.878 19.774 19.878 19.7592L19.8718 16.2342Z" fill="white"/>
</g>
<defs>
<clipPath id="clip0_1339_6500">
<rect width="20" height="20" fill="white" transform="translate(8 8)"/>
</clipPath>
</defs>
</svg>
