<svg width="36" height="36" viewBox="0 0 36 36" fill="none" xmlns="http://www.w3.org/2000/svg">
<rect width="36" height="36" rx="18" fill="#1D1B9D"/>
<path fill-rule="evenodd" clip-rule="evenodd" d="M10.8423 16.5605C12.7137 20.6352 16.0384 23.8649 20.1656 25.6174L20.8947 25.9425C21.6513 26.2795 22.5008 26.3459 23.3006 26.1304C24.1004 25.915 24.8016 25.4309 25.2866 24.7594L26.512 23.0636C26.7643 22.7143 26.8731 22.2814 26.8158 21.8543C26.7586 21.4271 26.5396 21.0382 26.2042 20.7677L24.064 19.0411C23.8875 18.8988 23.684 18.7936 23.4658 18.7319C23.2476 18.6702 23.0191 18.6531 22.7942 18.6819C22.5693 18.7106 22.3524 18.7845 22.1568 18.8992C21.9611 19.0138 21.7906 19.1668 21.6555 19.3489L21.1775 19.9934C19.0653 18.9036 17.345 17.183 16.2556 15.0706L16.9001 14.5935C17.6677 14.0241 17.8081 12.9295 17.2079 12.184L15.4794 10.0439C15.2089 9.70867 14.8202 9.48992 14.3933 9.43267C13.9663 9.37541 13.5337 9.484 13.1844 9.73608L11.48 10.9673C10.804 11.4548 10.3177 12.1614 10.1037 12.967C9.88982 13.7726 9.96147 14.6273 10.3065 15.3861L10.8404 16.5595L10.8423 16.5605ZM20.735 24.2919C16.9362 22.6806 13.8758 19.7091 12.1533 15.9593L11.6204 14.7878C11.4135 14.3326 11.3706 13.8198 11.4989 13.3366C11.6273 12.8533 11.919 12.4294 12.3245 12.1369L14.0299 10.9057C14.0798 10.87 14.1414 10.8546 14.2022 10.8629C14.263 10.8711 14.3183 10.9023 14.3569 10.95L16.0844 13.0901C16.1048 13.1153 16.1198 13.1444 16.1287 13.1757C16.1375 13.2069 16.1399 13.2395 16.1358 13.2717C16.1316 13.3039 16.121 13.3349 16.1046 13.3628C16.0882 13.3908 16.0663 13.4152 16.0402 13.4344L14.9167 14.2674C14.7842 14.3655 14.6893 14.5061 14.6478 14.6657C14.6063 14.8254 14.6208 14.9944 14.6888 15.1446C15.9781 17.9907 18.2583 20.2709 21.1044 21.5602C21.2546 21.6282 21.4236 21.6427 21.5833 21.6012C21.7429 21.5597 21.8835 21.4648 21.9816 21.3323L22.8146 20.2088C22.8339 20.1827 22.8582 20.1608 22.8862 20.1444C22.9141 20.128 22.9451 20.1174 22.9773 20.1132C23.0095 20.1091 23.0422 20.1115 23.0734 20.1204C23.1046 20.1292 23.1337 20.1442 23.1589 20.1646L25.2981 21.8911C25.3458 21.9297 25.377 21.9851 25.3852 22.0458C25.3934 22.1066 25.3781 22.1683 25.3423 22.2182L24.1169 23.9149C23.826 24.3179 23.4051 24.6084 22.9252 24.7377C22.4453 24.8669 21.9354 24.827 21.4814 24.6247L20.7466 24.2977L20.735 24.2919Z" fill="white"/>
<path d="M19.7617 15.136C19.7617 15.3273 19.8377 15.5108 19.973 15.6461C20.1083 15.7814 20.2918 15.8574 20.4831 15.8574H24.1651C24.3564 15.8574 24.5399 15.7814 24.6752 15.6461C24.8105 15.5108 24.8865 15.3273 24.8865 15.136C24.8865 14.9447 24.8105 14.7612 24.6752 14.6259C24.5399 14.4906 24.3564 14.4146 24.1651 14.4146H22.225L25.2636 11.3761C25.3324 11.3095 25.3874 11.2299 25.4251 11.1418C25.4629 11.0538 25.4827 10.9591 25.4835 10.8633C25.4843 10.7676 25.466 10.6726 25.4297 10.5839C25.3934 10.4953 25.3398 10.4148 25.272 10.3471C25.2043 10.2794 25.1237 10.2258 25.035 10.1896C24.9463 10.1534 24.8513 10.1352 24.7555 10.1361C24.6598 10.1369 24.5651 10.1569 24.4771 10.1947C24.3891 10.2326 24.3095 10.2876 24.243 10.3565L21.2045 13.3931V11.454C21.2045 11.2627 21.1285 11.0792 20.9932 10.9439C20.8579 10.8086 20.6744 10.7326 20.4831 10.7326C20.2918 10.7326 20.1083 10.8086 19.973 10.9439C19.8377 11.0792 19.7617 11.2627 19.7617 11.454V15.136Z" fill="white"/>
</svg>
