<svg width="24" height="18" viewBox="0 0 24 18" fill="none" xmlns="http://www.w3.org/2000/svg">
<g clip-path="url(#clip0_1342_6645)">
<path d="M4.82012 0H5.47512C5.93178 0.383333 6.06845 0.765 5.88512 1.145C5.84833 1.22459 5.79199 1.29374 5.72125 1.34614C5.65051 1.39854 5.56762 1.43252 5.48012 1.445C4.69512 1.56 3.23012 1.825 3.07012 2.72C2.72345 4.65667 2.40178 6.585 2.10512 8.505L0.245117 10.715C0.598451 8.26833 0.990117 5.87 1.42012 3.52C1.62012 2.41 1.92678 1.62333 2.34012 1.16C2.95012 0.48 3.77678 0.0933333 4.82012 0Z" fill="url(#paint0_linear_1342_6645)"/>
<path d="M18.5498 0H19.1648C20.8614 0.15 21.9181 0.943334 22.3348 2.38C22.7014 3.64333 23.1681 6.42333 23.7348 10.72L21.9348 8.6C21.6181 6.80667 21.2848 5.02833 20.9348 3.265C20.6881 2.04167 19.9331 1.44667 18.6698 1.48C18.5825 1.48216 18.4958 1.46632 18.415 1.43347C18.3341 1.40061 18.2609 1.35146 18.1999 1.28906C18.1389 1.22666 18.0915 1.15236 18.0605 1.0708C18.0295 0.989233 18.0156 0.902157 18.0198 0.815C18.0364 0.481667 18.2131 0.21 18.5498 0Z" fill="url(#paint1_linear_1342_6645)"/>
<path d="M9.915 10.36L10.36 11.73C10.7 15.3067 9.04833 17.3967 5.405 18H5.03C1.99667 17.5267 0.32 15.8483 0 12.965V11.51L0.245 10.715L2.105 8.50499C5.36167 6.79166 7.965 7.40999 9.915 10.36ZM8.965 12.745C8.965 11.7597 8.5736 10.8148 7.8769 10.1181C7.1802 9.42139 6.23528 9.02999 5.25 9.02999C4.76214 9.02999 4.27906 9.12608 3.82833 9.31278C3.37761 9.49948 2.96807 9.77312 2.6231 10.1181C1.9264 10.8148 1.535 11.7597 1.535 12.745C1.535 13.7303 1.9264 14.6752 2.6231 15.3719C2.96807 15.7169 3.37761 15.9905 3.82833 16.1772C4.27906 16.3639 4.76214 16.46 5.25 16.46C6.23528 16.46 7.1802 16.0686 7.8769 15.3719C8.5736 14.6752 8.965 13.7303 8.965 12.745Z" fill="url(#paint2_linear_1342_6645)"/>
<path d="M21.9348 8.6L23.7348 10.72L23.9998 11.57V13.02C23.6331 15.9033 21.9398 17.5633 18.9198 18H18.5248C14.9048 17.3533 13.2714 15.2467 13.6248 11.68L14.1298 10.375C15.7098 7.445 19.1998 6.735 21.9348 8.6ZM22.4548 12.745C22.4548 11.7597 22.0634 10.8148 21.3667 10.1181C20.67 9.4214 19.725 9.03 18.7398 9.03C17.7545 9.03 16.8096 9.4214 16.1129 10.1181C15.4162 10.8148 15.0248 11.7597 15.0248 12.745C15.0248 13.7303 15.4162 14.6752 16.1129 15.3719C16.8096 16.0686 17.7545 16.46 18.7398 16.46C19.725 16.46 20.67 16.0686 21.3667 15.3719C22.0634 14.6752 22.4548 13.7303 22.4548 12.745Z" fill="url(#paint3_linear_1342_6645)"/>
<path d="M14.13 10.375L13.625 11.68C12.4417 11.11 11.3534 11.1267 10.36 11.73L9.91504 10.36C11.2784 9.58666 12.6834 9.59166 14.13 10.375Z" fill="url(#paint4_linear_1342_6645)"/>
</g>
<defs>
<linearGradient id="paint0_linear_1342_6645" x1="3.10451" y1="0" x2="3.10451" y2="10.715" gradientUnits="userSpaceOnUse">
<stop stop-color="#6897B5"/>
<stop offset="0.0001" stop-color="#4991EF"/>
<stop offset="0.494792" stop-color="#4060FF"/>
<stop offset="1" stop-color="#004EB6"/>
</linearGradient>
<linearGradient id="paint1_linear_1342_6645" x1="20.8769" y1="0" x2="20.8769" y2="10.72" gradientUnits="userSpaceOnUse">
<stop stop-color="#6897B5"/>
<stop offset="0.0001" stop-color="#4991EF"/>
<stop offset="0.494792" stop-color="#4060FF"/>
<stop offset="1" stop-color="#004EB6"/>
</linearGradient>
<linearGradient id="paint2_linear_1342_6645" x1="5.20177" y1="7.56076" x2="5.20177" y2="18" gradientUnits="userSpaceOnUse">
<stop stop-color="#C21931"/>
<stop offset="1" stop-color="#F0680A"/>
</linearGradient>
<linearGradient id="paint3_linear_1342_6645" x1="18.7887" y1="7.5694" x2="18.7887" y2="18" gradientUnits="userSpaceOnUse">
<stop stop-color="#C21931"/>
<stop offset="1" stop-color="#F0680A"/>
</linearGradient>
<linearGradient id="paint4_linear_1342_6645" x1="12.0225" y1="9.78372" x2="12.0225" y2="11.73" gradientUnits="userSpaceOnUse">
<stop stop-color="#6897B5"/>
<stop offset="0.0001" stop-color="#4991EF"/>
<stop offset="0.494792" stop-color="#4060FF"/>
<stop offset="1" stop-color="#004EB6"/>
</linearGradient>
<clipPath id="clip0_1342_6645">
<rect width="24" height="18" fill="white"/>
</clipPath>
</defs>
</svg>
