<svg width="36" height="36" viewBox="0 0 36 36" fill="none" xmlns="http://www.w3.org/2000/svg">
<rect width="36" height="36" rx="18" fill="#1D1B9D"/>
<path d="M10.3834 12.2504C10.2134 12.2504 10.0503 12.318 9.93 12.4382C9.80975 12.5585 9.74219 12.7216 9.74219 12.8917C9.74219 13.0617 9.80975 13.2248 9.93 13.3451C10.0503 13.4654 10.2134 13.5329 10.3834 13.5329H11.807L13.4896 20.2659C13.6326 20.8366 14.1437 21.2278 14.7317 21.2278H22.728C23.307 21.2278 23.7988 20.8431 23.9508 20.2852L25.6129 14.1742H24.2701L22.7273 19.9453H14.731L13.0491 13.2123C12.9796 12.9361 12.8194 12.6911 12.5942 12.5167C12.369 12.3424 12.0918 12.2486 11.807 12.2504H10.3834ZM21.9258 21.2278C20.8709 21.2278 20.002 22.0967 20.002 23.1515C20.002 24.2064 20.8709 25.0752 21.9258 25.0752C22.9806 25.0752 23.8495 24.2064 23.8495 23.1515C23.8495 22.0967 22.9806 21.2278 21.9258 21.2278ZM16.1546 21.2278C15.0998 21.2278 14.2309 22.0967 14.2309 23.1515C14.2309 24.2064 15.0998 25.0752 16.1546 25.0752C17.2094 25.0752 18.0783 24.2064 18.0783 23.1515C18.0783 22.0967 17.2094 21.2278 16.1546 21.2278ZM18.0783 12.2504V15.4566H16.1546L18.7196 18.0216L21.2845 15.4566H19.3608V12.2504H18.0783ZM16.1546 22.5103C16.5163 22.5103 16.7958 22.7899 16.7958 23.1515C16.7958 23.5132 16.5163 23.7928 16.1546 23.7928C15.7929 23.7928 15.5134 23.5132 15.5134 23.1515C15.5134 22.7899 15.7929 22.5103 16.1546 22.5103ZM21.9258 22.5103C22.2874 22.5103 22.567 22.7899 22.567 23.1515C22.567 23.5132 22.2874 23.7928 21.9258 23.7928C21.5641 23.7928 21.2845 23.5132 21.2845 23.1515C21.2845 22.7899 21.5641 22.5103 21.9258 22.5103Z" fill="white"/>
</svg>
