<svg width="24" height="26" viewBox="0 0 24 26" fill="none" xmlns="http://www.w3.org/2000/svg">
<g clip-path="url(#clip0_1334_5630)">
<path fill-rule="evenodd" clip-rule="evenodd" d="M4.61034 5.61071C2.82884 7.3922 1.71017 9.71262 1.41302 12.1888L11.1884 12.1888V2.41339C8.71225 2.71053 6.39184 3.82921 4.61034 5.61071ZM11.1884 1.07151C8.35764 1.37458 5.69939 2.63604 3.66753 4.6679C1.63567 6.69976 0.37421 9.35801 0.0711482 12.1888C0.0608018 12.2854 0.0515724 12.3823 0.0434675 12.4793H0C0 12.6535 0.00363044 12.8273 0.0108494 13.0007C0.00363042 13.1741 0 13.3479 0 13.5221H0.0434681C0.051573 13.6191 0.0608025 13.716 0.071149 13.8126C0.374212 16.6434 1.63567 19.3016 3.66754 21.3335C5.6994 23.3653 8.35765 24.6268 11.1884 24.9299C11.285 24.9402 11.3818 24.9494 11.4788 24.9575V25.001C11.6528 25.001 11.8266 24.9974 12.0001 24.9902C12.1736 24.9974 12.3475 25.001 12.5217 25.001V24.9575C12.6187 24.9494 12.7155 24.9402 12.8121 24.9298C13.9989 24.8027 15.1637 24.5064 16.2706 24.0479C17.7898 23.4186 19.1702 22.4962 20.333 21.3335C21.4957 20.1707 22.4181 18.7903 23.0473 17.2711C23.5059 16.1642 23.8022 14.9994 23.9293 13.8126C23.9397 13.716 23.9489 13.6192 23.957 13.5222H24.0005C24.0005 13.3482 23.9969 13.1743 23.9896 13.0008C23.9969 12.8272 24.0005 12.6533 24.0005 12.4793H23.957C23.9489 12.3824 23.9397 12.2856 23.9293 12.1889C23.8022 11.0021 23.5059 9.83731 23.0474 8.73038C22.4181 7.21117 21.4957 5.83079 20.333 4.66804C19.1702 3.50528 17.7898 2.58294 16.2706 1.95366C15.1637 1.49516 13.9989 1.19878 12.8121 1.07169C12.7155 1.06134 12.6187 1.05211 12.5217 1.04401V1.00037C12.3469 1.00037 12.1725 1.00402 11.9985 1.01129C11.8255 1.00411 11.6522 1.0005 11.4788 1.0005V1.04385C11.3818 1.05195 11.285 1.06117 11.1884 1.07151ZM12.8121 2.41357C13.8234 2.53495 14.8155 2.79412 15.7604 3.1855C17.1178 3.74777 18.3512 4.57191 19.3902 5.61084C20.4291 6.64978 21.2532 7.88319 21.8155 9.24063C22.2069 10.1855 22.4661 11.1776 22.5874 12.1889L12.8121 12.1889L12.8121 2.41357ZM22.5874 13.8126C22.4661 14.8239 22.2069 15.816 21.8155 16.7609C21.2532 18.1183 20.4291 19.3517 19.3902 20.3907C18.3512 21.4296 17.1178 22.2537 15.7604 22.816C14.8155 23.2074 13.8234 23.4666 12.8121 23.5879V13.8126H22.5874ZM11.1884 23.588C8.71225 23.2908 6.39184 22.1722 4.61034 20.3907C2.82885 18.6092 1.71017 16.2888 1.41302 13.8126L11.1884 13.8126L11.1884 23.588Z" fill="url(#paint0_linear_1334_5630)"/>
<circle cx="12.0005" cy="13.2452" r="6.92517" stroke="url(#paint1_linear_1334_5630)" stroke-width="1.33333"/>
<circle cx="12.0001" cy="12.7557" r="2.51701" stroke="url(#paint2_linear_1334_5630)" stroke-width="1.33333"/>
<circle cx="12.0001" cy="12.7557" r="2.51701" stroke="url(#paint3_linear_1334_5630)" stroke-width="1.33333"/>
<circle cx="7.10149" cy="8.34746" r="1.04762" fill="white" stroke="url(#paint4_linear_1334_5630)" stroke-width="1.33333"/>
<circle cx="16.8979" cy="18.143" r="1.04762" fill="white" stroke="url(#paint5_linear_1334_5630)" stroke-width="1.33333"/>
</g>
<defs>
<linearGradient id="paint0_linear_1334_5630" x1="12.522" y1="1.00037" x2="12.522" y2="26.0444" gradientUnits="userSpaceOnUse">
<stop stop-color="#6897B5"/>
<stop offset="0.0001" stop-color="#4991EF"/>
<stop offset="0.494792" stop-color="#4060FF"/>
<stop offset="1" stop-color="#004EB6"/>
</linearGradient>
<linearGradient id="paint1_linear_1334_5630" x1="12.0005" y1="5.65332" x2="12.0005" y2="20.837" gradientUnits="userSpaceOnUse">
<stop stop-color="#C21931"/>
<stop offset="1" stop-color="#F0680A"/>
</linearGradient>
<linearGradient id="paint2_linear_1334_5630" x1="12.0001" y1="9.57202" x2="12.0001" y2="15.9394" gradientUnits="userSpaceOnUse">
<stop stop-color="#C21931"/>
<stop offset="1" stop-color="#F0680A"/>
</linearGradient>
<linearGradient id="paint3_linear_1334_5630" x1="12.1385" y1="9.57202" x2="12.1385" y2="16.2162" gradientUnits="userSpaceOnUse">
<stop stop-color="#6897B5"/>
<stop offset="0.0001" stop-color="#4991EF"/>
<stop offset="0.494792" stop-color="#4060FF"/>
<stop offset="1" stop-color="#004EB6"/>
</linearGradient>
<linearGradient id="paint4_linear_1334_5630" x1="7.10149" y1="6.63318" x2="7.10149" y2="10.0618" gradientUnits="userSpaceOnUse">
<stop stop-color="#C21931"/>
<stop offset="1" stop-color="#F0680A"/>
</linearGradient>
<linearGradient id="paint5_linear_1334_5630" x1="16.8979" y1="16.4287" x2="16.8979" y2="19.8573" gradientUnits="userSpaceOnUse">
<stop stop-color="#C21931"/>
<stop offset="1" stop-color="#F0680A"/>
</linearGradient>
<clipPath id="clip0_1334_5630">
<rect width="24" height="24.4898" fill="white" transform="translate(0 0.755127)"/>
</clipPath>
</defs>
</svg>
