<svg width="19" height="20" viewBox="0 0 19 20" fill="none" xmlns="http://www.w3.org/2000/svg">
<rect width="19" height="20" rx="9.5" fill="#1D1B9D"/>
<path d="M12.4238 13.1094V14H6.83984V13.2207L9.63477 10.1094C9.97852 9.72656 10.2441 9.40234 10.4316 9.13672C10.623 8.86719 10.7559 8.62695 10.8301 8.41602C10.9082 8.20117 10.9473 7.98242 10.9473 7.75977C10.9473 7.47852 10.8887 7.22461 10.7715 6.99805C10.6582 6.76758 10.4902 6.58398 10.2676 6.44727C10.0449 6.31055 9.77539 6.24219 9.45898 6.24219C9.08008 6.24219 8.76367 6.31641 8.50977 6.46484C8.25977 6.60938 8.07227 6.8125 7.94727 7.07422C7.82227 7.33594 7.75977 7.63672 7.75977 7.97656H6.67578C6.67578 7.49609 6.78125 7.05664 6.99219 6.6582C7.20312 6.25977 7.51562 5.94336 7.92969 5.70898C8.34375 5.4707 8.85352 5.35156 9.45898 5.35156C9.99805 5.35156 10.459 5.44727 10.8418 5.63867C11.2246 5.82617 11.5176 6.0918 11.7207 6.43555C11.9277 6.77539 12.0312 7.17383 12.0312 7.63086C12.0312 7.88086 11.9883 8.13477 11.9023 8.39258C11.8203 8.64648 11.7051 8.90039 11.5566 9.1543C11.4121 9.4082 11.2422 9.6582 11.0469 9.9043C10.8555 10.1504 10.6504 10.3926 10.4316 10.6309L8.14648 13.1094H12.4238Z" fill="white"/>
</svg>
