<svg width="60" height="60" viewBox="0 0 60 60" fill="none" xmlns="http://www.w3.org/2000/svg">
<rect x="0.747803" y="0.168884" width="59.2616" height="59.2616" rx="29.6308" fill="#1D1B9D"/>
<g clip-path="url(#clip0_222_13113)">
<path d="M45.2859 26.9323H41.3921L35.5996 21.1398C35.4283 20.9679 35.2247 20.8316 35.0005 20.7388C34.7763 20.6459 34.536 20.5984 34.2933 20.5988H19.4611C19.157 20.5987 18.8576 20.6737 18.5894 20.8171C18.3213 20.9605 18.0927 21.1679 17.9239 21.4209L14.0143 27.2846C13.9279 27.4148 13.882 27.5677 13.8823 27.724V34.0575C13.8823 34.5474 14.0769 35.0173 14.4234 35.3637C14.7698 35.7101 15.2397 35.9048 15.7296 35.9048H18.1838C18.3655 36.7996 18.851 37.6041 19.558 38.1819C20.265 38.7598 21.15 39.0755 22.0631 39.0755C22.9762 39.0755 23.8612 38.7598 24.5682 38.1819C25.2752 37.6041 25.7606 36.7996 25.9423 35.9048H35.0731C35.2548 36.7996 35.7403 37.6041 36.4473 38.1819C37.1543 38.7598 38.0393 39.0755 38.9524 39.0755C39.8655 39.0755 40.7505 38.7598 41.4575 38.1819C42.1645 37.6041 42.65 36.7996 42.8317 35.9048H45.2859C45.7758 35.9048 46.2457 35.7101 46.5921 35.3637C46.9385 35.0173 47.1332 34.5474 47.1332 34.0575V28.7796C47.1332 28.2897 46.9385 27.8198 46.5921 27.4734C46.2457 27.1269 45.7758 26.9323 45.2859 26.9323ZM19.242 22.2996C19.2661 22.2636 19.2987 22.234 19.3369 22.2135C19.3751 22.193 19.4177 22.1823 19.4611 22.1822H34.2933C34.3632 22.1825 34.4301 22.2105 34.4794 22.26L39.153 26.9323H16.1531L19.242 22.2996ZM22.0631 37.4881C21.5933 37.4881 21.1341 37.3488 20.7436 37.0879C20.353 36.8269 20.0486 36.4559 19.8688 36.022C19.6891 35.588 19.642 35.1104 19.7337 34.6497C19.8253 34.189 20.0515 33.7658 20.3837 33.4336C20.7158 33.1015 21.139 32.8753 21.5997 32.7836C22.0605 32.692 22.538 32.739 22.972 32.9188C23.406 33.0986 23.7769 33.403 24.0379 33.7936C24.2989 34.1841 24.4381 34.6433 24.4381 35.1131C24.4381 35.743 24.1879 36.3471 23.7425 36.7925C23.2971 37.2379 22.693 37.4881 22.0631 37.4881ZM38.9524 37.4881C38.4827 37.4881 38.0235 37.3488 37.6329 37.0879C37.2423 36.8269 36.9379 36.4559 36.7581 36.022C36.5784 35.588 36.5313 35.1104 36.623 34.6497C36.7146 34.189 36.9408 33.7658 37.273 33.4336C37.6051 33.1015 38.0283 32.8753 38.489 32.7836C38.9498 32.692 39.4273 32.739 39.8613 32.9188C40.2953 33.0986 40.6662 33.403 40.9272 33.7936C41.1882 34.1841 41.3275 34.6433 41.3275 35.1131C41.3275 35.743 41.0772 36.3471 40.6318 36.7925C40.1864 37.2379 39.5823 37.4881 38.9524 37.4881ZM45.5498 34.0575C45.5498 34.1275 45.522 34.1946 45.4725 34.2441C45.423 34.2936 45.3559 34.3214 45.2859 34.3214H42.8317C42.65 33.4265 42.1645 32.622 41.4575 32.0442C40.7505 31.4663 39.8655 31.1507 38.9524 31.1507C38.0393 31.1507 37.1543 31.4663 36.4473 32.0442C35.7403 32.622 35.2548 33.4265 35.0731 34.3214H25.9423C25.7606 33.4265 25.2752 32.622 24.5682 32.0442C23.8612 31.4663 22.9762 31.1507 22.0631 31.1507C21.15 31.1507 20.265 31.4663 19.558 32.0442C18.851 32.622 18.3655 33.4265 18.1838 34.3214H15.7296C15.6596 34.3214 15.5925 34.2936 15.543 34.2441C15.4935 34.1946 15.4657 34.1275 15.4657 34.0575V28.5157H45.2859C45.3559 28.5157 45.423 28.5435 45.4725 28.593C45.522 28.6425 45.5498 28.7096 45.5498 28.7796V34.0575Z" fill="white"/>
</g>
<defs>
<clipPath id="clip0_222_13113">
<rect width="33.7786" height="33.7786" fill="white" transform="translate(13.6184 11.8903)"/>
</clipPath>
</defs>
</svg>
