<svg width="60" height="60" viewBox="0 0 60 60" fill="none" xmlns="http://www.w3.org/2000/svg">
<rect x="0.0874023" y="0.168884" width="59.2616" height="59.2616" rx="29.6308" fill="#1D1B9D"/>
<path fill-rule="evenodd" clip-rule="evenodd" d="M35.8292 16.1126V18.4911L38.644 20.7431V16.1126H35.8292ZM40.7552 22.432V15.7607C40.7552 14.7896 39.967 14.0014 38.9959 14.0014H35.4773C34.5062 14.0014 33.718 14.7896 33.718 15.7607V16.8022L33.1452 16.3434C32.2092 15.5944 31.0462 15.1864 29.8475 15.1864C28.6488 15.1864 27.4858 15.5944 26.5499 16.3434L15.1144 25.4918C14.8957 25.6666 14.7554 25.9213 14.7244 26.1996C14.6933 26.4779 14.7742 26.7572 14.9491 26.9759C15.1239 27.1947 15.3785 27.335 15.6569 27.366C15.9352 27.397 16.2145 27.3162 16.4332 27.1413L17.5324 26.2602V40.7428H15.7731C15.4932 40.7428 15.2247 40.854 15.0267 41.052C14.8287 41.2499 14.7175 41.5184 14.7175 41.7984C14.7175 42.0783 14.8287 42.3468 15.0267 42.5448C15.2247 42.7428 15.4932 42.854 15.7731 42.854H43.922C44.2019 42.854 44.4704 42.7428 44.6684 42.5448C44.8663 42.3468 44.9775 42.0783 44.9775 41.7984C44.9775 41.5184 44.8663 41.2499 44.6684 41.052C44.4704 40.854 44.2019 40.7428 43.922 40.7428H42.1627V26.2602L43.2633 27.1413C43.4824 27.312 43.76 27.3895 44.0358 27.357C44.3117 27.3244 44.5636 27.1845 44.7369 26.9674C44.9103 26.7503 44.9911 26.4737 44.9618 26.1975C44.9326 25.9213 44.7956 25.6677 44.5806 25.4918L40.7552 22.432ZM40.0515 24.5713L31.8264 17.9915C31.2648 17.542 30.5669 17.2971 29.8475 17.2971C29.1282 17.2971 28.4303 17.542 27.8687 17.9915L19.6436 24.5713V40.7428H24.5696V34.6908C24.5696 33.7563 24.5696 32.9498 24.6569 32.3038C24.7498 31.6113 24.9595 30.9484 25.4971 30.4108C26.0348 29.8731 26.6991 29.6634 27.3901 29.5705C28.0362 29.4833 28.8426 29.4833 29.7786 29.4833H29.9165C30.8524 29.4833 31.6589 29.4833 32.3049 29.5705C32.9974 29.6634 33.6603 29.8731 34.1979 30.4108C34.7356 30.9484 34.9453 31.6113 35.0382 32.3038C35.1254 32.9498 35.1254 33.7563 35.1254 34.6922V40.7428H40.0515V24.5713ZM33.0143 40.7428V34.7612C33.0143 33.7366 33.0115 33.0722 32.9467 32.5853C32.8848 32.1279 32.7863 31.9843 32.7046 31.9041C32.6244 31.8238 32.4809 31.7239 32.0234 31.662C31.5351 31.5972 30.8722 31.5944 29.8475 31.5944C28.8229 31.5944 28.1586 31.5972 27.6716 31.662C27.2142 31.7239 27.0707 31.8238 26.9904 31.9041C26.9102 31.9843 26.8103 32.1279 26.7483 32.5853C26.6836 33.0737 26.6808 33.7366 26.6808 34.7612V40.7428H33.0143ZM29.8475 22.4461C29.6165 22.4461 29.3877 22.4916 29.1743 22.58C28.9608 22.6684 28.7669 22.798 28.6035 22.9613C28.4402 23.1247 28.3106 23.3187 28.2221 23.5321C28.1337 23.7456 28.0882 23.9743 28.0882 24.2054C28.0882 24.4364 28.1337 24.6652 28.2221 24.8786C28.3106 25.0921 28.4402 25.286 28.6035 25.4494C28.7669 25.6127 28.9608 25.7423 29.1743 25.8307C29.3877 25.9192 29.6165 25.9647 29.8475 25.9647C30.3141 25.9647 30.7616 25.7793 31.0915 25.4494C31.4215 25.1194 31.6068 24.672 31.6068 24.2054C31.6068 23.7388 31.4215 23.2913 31.0915 22.9613C30.7616 22.6314 30.3141 22.4461 29.8475 22.4461ZM25.9771 24.2054C25.9771 23.1788 26.3848 22.1944 27.1107 21.4685C27.8366 20.7427 28.821 20.3349 29.8475 20.3349C30.874 20.3349 31.8585 20.7427 32.5844 21.4685C33.3102 22.1944 33.718 23.1788 33.718 24.2054C33.718 25.2319 33.3102 26.2163 32.5844 26.9422C31.8585 27.668 30.874 28.0758 29.8475 28.0758C28.821 28.0758 27.8366 27.668 27.1107 26.9422C26.3848 26.2163 25.9771 25.2319 25.9771 24.2054Z" fill="white"/>
</svg>
