<svg width="60" height="60" viewBox="0 0 60 60" fill="none" xmlns="http://www.w3.org/2000/svg">
<rect x="0.408203" y="0.168884" width="59.2616" height="59.2616" rx="29.6308" fill="#1D1B9D"/>
<path d="M28.057 30.4579L25.3231 27.724L23.8347 29.2123L28.057 33.4347L36.5017 24.99L35.0133 23.5016L28.057 30.4579Z" fill="white"/>
<path d="M30.1682 44.6133L23.6489 41.1373C21.7904 40.1485 20.2362 38.6723 19.1531 36.8671C18.0701 35.062 17.499 32.9959 17.5012 30.8907V17.1682C17.5018 16.6084 17.7244 16.0718 18.1202 15.676C18.516 15.2802 19.0526 15.0576 19.6124 15.057H40.724C41.2838 15.0576 41.8204 15.2802 42.2162 15.676C42.612 16.0718 42.8346 16.6084 42.8352 17.1682V30.8907C42.8374 32.9959 42.2664 35.062 41.1833 36.8671C40.1002 38.6723 38.546 40.1485 36.6875 41.1373L30.1682 44.6133ZM19.6124 17.1682V30.8907C19.6106 32.6132 20.078 34.3037 20.9643 35.7807C21.8507 37.2576 23.1225 38.4653 24.6433 39.2742L30.1682 42.2203L35.6931 39.2752C37.2141 38.4663 38.486 37.2584 39.3723 35.7813C40.2587 34.3041 40.726 32.6134 40.724 30.8907V17.1682H19.6124Z" fill="white"/>
</svg>
