<svg width="60" height="60" viewBox="0 0 60 60" fill="none" xmlns="http://www.w3.org/2000/svg">
<rect x="0.408203" y="0.346436" width="59.2616" height="59.2616" rx="29.6308" fill="#1D1B9D"/>
<path d="M17.5011 20.5124C17.2212 20.5124 16.9527 20.6236 16.7547 20.8216C16.5568 21.0196 16.4456 21.2881 16.4456 21.568C16.4456 21.848 16.5568 22.1165 16.7547 22.3144C16.9527 22.5124 17.2212 22.6236 17.5011 22.6236H19.8445L22.6144 33.7072C22.8498 34.6467 23.6911 35.2906 24.659 35.2906H37.8221C38.7753 35.2906 39.585 34.6572 39.8351 33.7389L42.5712 23.6792H40.3608L37.8211 33.1794H24.658L21.8892 22.0958C21.7748 21.6411 21.5112 21.2379 21.1404 20.9508C20.7697 20.6638 20.3134 20.5094 19.8445 20.5124H17.5011ZM36.5016 35.2906C34.7652 35.2906 33.3349 36.7209 33.3349 38.4573C33.3349 40.1938 34.7652 41.6241 36.5016 41.6241C38.238 41.6241 39.6684 40.1938 39.6684 38.4573C39.6684 36.7209 38.238 35.2906 36.5016 35.2906ZM27.0014 35.2906C25.2649 35.2906 23.8346 36.7209 23.8346 38.4573C23.8346 40.1938 25.2649 41.6241 27.0014 41.6241C28.7378 41.6241 30.1681 40.1938 30.1681 38.4573C30.1681 36.7209 28.7378 35.2906 27.0014 35.2906ZM30.1681 20.5124V25.7903H27.0014L31.2237 30.0127L35.446 25.7903H32.2793V20.5124H30.1681ZM27.0014 37.4017C27.5967 37.4017 28.057 37.862 28.057 38.4573C28.057 39.0527 27.5967 39.5129 27.0014 39.5129C26.406 39.5129 25.9458 39.0527 25.9458 38.4573C25.9458 37.862 26.406 37.4017 27.0014 37.4017ZM36.5016 37.4017C37.097 37.4017 37.5572 37.862 37.5572 38.4573C37.5572 39.0527 37.097 39.5129 36.5016 39.5129C35.9063 39.5129 35.446 39.0527 35.446 38.4573C35.446 37.862 35.9063 37.4017 36.5016 37.4017Z" fill="white"/>
</svg>
