<svg width="60" height="60" viewBox="0 0 60 60" fill="none" xmlns="http://www.w3.org/2000/svg">
<rect x="0.408203" y="0.463257" width="59.2616" height="59.2616" rx="29.6308" fill="#1D1B9D"/>
<path fill-rule="evenodd" clip-rule="evenodd" d="M18.2565 27.7244C21.3371 34.432 26.81 39.7485 33.6041 42.6334L34.8043 43.1686C36.0498 43.7234 37.4483 43.8326 38.7648 43.478C40.0813 43.1233 41.2357 42.3264 42.034 41.221L44.0512 38.4296C44.4666 37.8545 44.6457 37.1419 44.5514 36.4388C44.4571 35.7356 44.0968 35.0954 43.5445 34.65L40.0215 31.8079C39.7309 31.5736 39.3959 31.4004 39.0367 31.2988C38.6775 31.1972 38.3015 31.1692 37.9312 31.2165C37.5609 31.2639 37.204 31.3855 36.8819 31.5742C36.5598 31.7629 36.2791 32.0147 36.0567 32.3146L35.2698 33.3754C31.7928 31.5816 28.9609 28.7491 27.1677 25.2717L28.2285 24.4864C29.4921 23.549 29.7233 21.7471 28.7352 20.52L25.8899 16.997C25.4446 16.4452 24.8047 16.0851 24.1019 15.9909C23.3991 15.8966 22.687 16.0754 22.112 16.4903L19.3062 18.5171C18.1934 19.3196 17.3929 20.4828 17.0407 21.8089C16.6886 23.135 16.8065 24.5421 17.3745 25.7911L18.2533 27.7228L18.2565 27.7244ZM34.5415 40.4515C28.2879 37.7991 23.25 32.9075 20.4146 26.7348L19.5374 24.8062C19.1968 24.0569 19.1261 23.2128 19.3374 22.4173C19.5487 21.6218 20.0289 20.924 20.6964 20.4424L23.5038 18.4157C23.5859 18.3569 23.6873 18.3317 23.7874 18.3452C23.8875 18.3588 23.9786 18.41 24.0421 18.4886L26.8858 22.0116C26.9194 22.0531 26.9441 22.101 26.9587 22.1524C26.9732 22.2038 26.9772 22.2576 26.9704 22.3105C26.9635 22.3635 26.9461 22.4145 26.9191 22.4606C26.892 22.5066 26.856 22.5467 26.813 22.5784L24.9636 23.9496C24.7454 24.1112 24.5892 24.3426 24.5209 24.6053C24.4526 24.8681 24.4764 25.1463 24.5884 25.3937C26.7108 30.0788 30.4644 33.8323 35.1495 35.9547C35.3968 36.0667 35.675 36.0905 35.9378 36.0222C36.2005 35.9539 36.432 35.7977 36.5935 35.5795L37.9647 33.7301C37.9964 33.6872 38.0365 33.6511 38.0826 33.6241C38.1286 33.597 38.1796 33.5796 38.2326 33.5728C38.2855 33.566 38.3393 33.5699 38.3907 33.5845C38.4421 33.599 38.49 33.6238 38.5316 33.6573L42.053 36.4994C42.1315 36.5629 42.1828 36.6541 42.1963 36.7541C42.2099 36.8542 42.1846 36.9557 42.1258 37.0378L40.1086 39.8308C39.6296 40.4942 38.9369 40.9725 38.1468 41.1853C37.3568 41.3981 36.5175 41.3324 35.7702 40.9994L34.5605 40.461L34.5415 40.4515Z" fill="white"/>
<path d="M32.939 25.3794C32.939 25.6944 33.0641 25.9964 33.2868 26.2191C33.5095 26.4418 33.8115 26.567 34.1265 26.567H40.1876C40.5026 26.567 40.8046 26.4418 41.0274 26.2191C41.2501 25.9964 41.3752 25.6944 41.3752 25.3794C41.3752 25.0645 41.2501 24.7624 41.0274 24.5397C40.8046 24.317 40.5026 24.1919 40.1876 24.1919H36.994L41.9959 19.19C42.1092 19.0804 42.1996 18.9493 42.2618 18.8044C42.324 18.6595 42.3567 18.5037 42.3579 18.346C42.3592 18.1883 42.3291 18.032 42.2693 17.886C42.2096 17.7401 42.1213 17.6076 42.0098 17.4961C41.8982 17.3847 41.7656 17.2966 41.6196 17.2369C41.4736 17.1773 41.3173 17.1473 41.1596 17.1488C41.0019 17.1502 40.8461 17.183 40.7012 17.2453C40.5564 17.3076 40.4254 17.3982 40.3159 17.5116L35.314 22.5104V19.3183C35.314 19.0033 35.1889 18.7013 34.9662 18.4786C34.7435 18.2559 34.4414 18.1307 34.1265 18.1307C33.8115 18.1307 33.5095 18.2559 33.2868 18.4786C33.0641 18.7013 32.939 19.0033 32.939 19.3183V25.3794Z" fill="white"/>
</svg>
