<svg width="60" height="60" viewBox="0 0 60 60" fill="none" xmlns="http://www.w3.org/2000/svg">
<rect x="0.747803" y="0.463257" width="59.2616" height="59.2616" rx="29.6308" fill="#1D1B9D"/>
<path d="M17.8407 20.6293C17.5608 20.6293 17.2923 20.7405 17.0943 20.9384C16.8964 21.1364 16.7852 21.4049 16.7852 21.6848C16.7852 21.9648 16.8964 22.2333 17.0943 22.4312C17.2923 22.6292 17.5608 22.7404 17.8407 22.7404H20.1841L22.954 33.824C23.1894 34.7635 24.0307 35.4074 24.9986 35.4074H38.1617C39.1149 35.4074 39.9246 34.7741 40.1747 33.8557L42.9108 23.796H40.7004L38.1607 33.2962H24.9976L22.2288 22.2126C22.1144 21.7579 21.8508 21.3547 21.48 21.0677C21.1093 20.7806 20.653 20.6262 20.1841 20.6293H17.8407ZM36.8412 35.4074C35.1048 35.4074 33.6745 36.8377 33.6745 38.5741C33.6745 40.3106 35.1048 41.7409 36.8412 41.7409C38.5776 41.7409 40.008 40.3106 40.008 38.5741C40.008 36.8377 38.5776 35.4074 36.8412 35.4074ZM27.341 35.4074C25.6045 35.4074 24.1742 36.8377 24.1742 38.5741C24.1742 40.3106 25.6045 41.7409 27.341 41.7409C29.0774 41.7409 30.5077 40.3106 30.5077 38.5741C30.5077 36.8377 29.0774 35.4074 27.341 35.4074ZM30.5077 20.6293V25.9072H27.341L31.5633 30.1295L35.7856 25.9072H32.6189V20.6293H30.5077ZM27.341 37.5186C27.9363 37.5186 28.3966 37.9788 28.3966 38.5741C28.3966 39.1695 27.9363 39.6297 27.341 39.6297C26.7456 39.6297 26.2854 39.1695 26.2854 38.5741C26.2854 37.9788 26.7456 37.5186 27.341 37.5186ZM36.8412 37.5186C37.4366 37.5186 37.8968 37.9788 37.8968 38.5741C37.8968 39.1695 37.4366 39.6297 36.8412 39.6297C36.2459 39.6297 35.7856 39.1695 35.7856 38.5741C35.7856 37.9788 36.2459 37.5186 36.8412 37.5186Z" fill="white"/>
</svg>
