<svg width="180" height="180" viewBox="0 0 180 180" fill="none" xmlns="http://www.w3.org/2000/svg">
<path d="M101.258 165.685C100.722 165.384 100.191 165.062 99.6594 164.746C124.92 165.326 149.59 154.692 168.75 135.311C146.494 154.605 118.426 162.987 90.7469 158.623C72.0014 143.979 56.6075 120.475 47.7075 91.8248C38.0084 62.2936 35.5941 29.7339 41.3935 1.875C27.4933 52.0707 36.3054 115.914 74.968 154.802C66.1643 151.847 57.7038 147.667 49.7913 142.351C24.5853 125.352 11.25 97.6767 11.25 97.6767C15.5389 112.028 24.7192 131.571 52.3772 149.677C62.3357 156.218 73.2107 160.757 84.5165 163.082C98.4041 173.319 115.045 177.543 131.426 174.998C127.217 174.742 123.037 174.067 118.932 172.989C112.748 171.596 106.789 169.146 101.249 165.714" fill="#E96024"/>
</svg>
