<svg width="16" height="16" viewBox="0 0 16 16" fill="none" xmlns="http://www.w3.org/2000/svg">
<path d="M8.95308 14.534C8.90774 14.5086 8.86275 14.4812 8.81776 14.4545C10.9562 14.5036 13.0447 13.6034 14.6667 11.9626C12.7826 13.596 10.4065 14.3056 8.06327 13.9362C6.47635 12.6965 5.17316 10.7068 4.41973 8.2813C3.59864 5.78131 3.39425 3.02493 3.8852 0.666504C2.70847 4.91588 3.45446 10.3206 6.72749 13.6127C5.9822 13.3626 5.26597 13.0087 4.59613 12.5586C2.46229 11.1196 1.33337 8.7767 1.33337 8.7767C1.69645 9.99162 2.47362 11.646 4.81504 13.1788C5.65809 13.7326 6.57872 14.1168 7.53583 14.3136C8.7115 15.1803 10.1202 15.5378 11.507 15.3224C11.1507 15.3007 10.7968 15.2436 10.4493 15.1523C9.92578 15.0344 9.42136 14.827 8.95237 14.5365" fill="#E96024"/>
</svg>
