<svg width="192" height="192" viewBox="0 0 192 192" fill="none" xmlns="http://www.w3.org/2000/svg">
<path d="M108.008 176.731C107.437 176.41 106.87 176.066 106.303 175.729C133.248 176.347 159.563 165.005 180 144.331C156.26 164.911 126.321 173.852 96.7967 169.198C76.8015 153.577 60.3813 128.507 50.888 97.9464C40.5423 66.4465 37.967 31.7161 44.153 2C29.3262 55.5421 38.7257 123.642 79.9659 165.122C70.5753 161.971 61.5507 157.512 53.1107 151.841C26.2243 133.709 12 104.189 12 104.189C16.5748 119.496 26.3671 140.342 55.869 159.655C66.4914 166.632 78.0914 171.474 90.151 173.954C104.964 184.874 122.715 189.379 140.188 186.665C135.698 186.391 131.239 185.672 126.861 184.521C120.264 183.035 113.909 180.423 107.999 176.762" fill="#E96024"/>
</svg>
