<svg width="32" height="32" viewBox="0 0 32 32" fill="none" xmlns="http://www.w3.org/2000/svg">
<path d="M17.9062 29.068C17.8155 29.0172 17.7255 28.9625 17.6355 28.9091C21.9124 29.0072 26.0894 27.2069 29.3334 23.9253C25.5652 27.192 20.8129 28.6112 16.1265 27.8723C12.9527 25.3929 10.3463 21.4135 8.83945 16.5626C7.19727 11.5626 6.7885 6.04985 7.7704 1.33301C5.41694 9.83175 6.90893 20.6413 13.455 27.2255C11.9644 26.7252 10.5319 26.0174 9.19226 25.1173C4.92457 22.2392 2.66675 17.5534 2.66675 17.5534C3.39291 19.9832 4.94724 23.2921 9.63008 26.3576C11.3162 27.4651 13.1574 28.2337 15.0717 28.6273C17.423 30.3606 20.2405 31.0757 23.0141 30.6449C22.3014 30.6014 21.5936 30.4872 20.8986 30.3047C19.8516 30.0688 18.8427 29.6541 17.9047 29.073" fill="#E96024"/>
</svg>
