<svg width="66" height="40" viewBox="0 0 66 40" fill="none" xmlns="http://www.w3.org/2000/svg">
<path d="M10.4506 0V9.14428H0V31.2585H16.9822V0H10.4506ZM10.4506 26.1265H6.53163V14.4629H10.4506V26.1265ZM19.5949 9.14428H26.1265V31.3518H19.5949V9.14428ZM19.5949 0H26.1265V6.53163H19.5949V0ZM28.7392 9.14428V31.2585H39.1898V33.8712H28.7392V39.1898H45.7214V9.14428H28.7392ZM39.1898 26.1265H35.2708V14.4629H39.1898V26.1265ZM48.3341 9.14428V31.2585H58.7847V33.8712H48.3341V39.1898H65.3163V9.14428H48.3341ZM58.7847 26.1265H54.8657V14.4629H58.7847V26.1265Z" fill="#757385"/>
</svg>
