<svg width="97" height="27" viewBox="0 0 97 27" fill="none" xmlns="http://www.w3.org/2000/svg">
<path fill-rule="evenodd" clip-rule="evenodd" d="M40.2465 21.785H40.2031C40.2226 21.785 40.2357 21.8067 40.2552 21.8089H40.2683L40.2465 21.7871V21.785ZM40.2552 21.8089C40.0532 21.811 39.545 21.9175 39.0085 21.9175C37.3144 21.9175 36.7279 21.1355 36.7279 20.1147V13.3143H40.1814C40.3769 13.3143 40.5289 13.1405 40.5289 12.9016V9.20929C40.5289 9.01381 40.3551 8.84005 40.1814 8.84005H36.7279V4.2572C36.7279 4.08345 36.6194 3.97485 36.4239 3.97485H31.7324C31.5369 3.97485 31.4284 4.08345 31.4284 4.2572V8.97037C31.4284 8.97037 29.0609 9.5568 28.9089 9.57852C28.7351 9.62196 28.6265 9.774 28.6265 9.94775V12.9016C28.6265 13.1405 28.8003 13.3143 28.9957 13.3143H31.4066V20.4383C31.4066 25.7379 35.099 26.2809 37.6185 26.2809C38.7696 26.2809 40.1597 25.9117 40.3769 25.8031C40.5072 25.7597 40.5723 25.6076 40.5723 25.4556V22.1976C40.5753 22.1052 40.5449 22.0148 40.4867 21.943C40.4284 21.8712 40.3463 21.8228 40.2552 21.8067V21.8089ZM91.7221 17.0284C91.7221 13.0971 90.1366 12.5758 88.4642 12.7496C87.161 12.8365 86.1185 13.4881 86.1185 13.4881V21.1334C86.1185 21.1334 87.1827 21.8718 88.7682 21.9153C91.0054 21.9804 91.7221 21.1768 91.7221 17.0284ZM97 16.6808C97 24.1307 94.5891 26.2592 90.3755 26.2592C86.8135 26.2592 84.9022 24.4565 84.9022 24.4565C84.9022 24.4565 84.8153 25.4556 84.7067 25.5859C84.6415 25.7162 84.5329 25.7597 84.4026 25.7597H81.1881C80.9709 25.7597 80.7754 25.5859 80.7754 25.3904L80.8189 1.25989C80.8189 1.06441 80.9926 0.890658 81.1881 0.890658H85.8144C86.0098 0.890658 86.1836 1.06441 86.1836 1.25989V9.4482C86.1836 9.4482 87.9646 8.29706 90.571 8.29706L90.5493 8.25362C93.1556 8.25362 97 9.23101 97 16.6808ZM78.0605 8.84005H73.4993C73.2604 8.84005 73.1301 9.01381 73.1301 9.25273V21.0682C73.1301 21.0682 71.9355 21.9153 70.3065 21.9153C68.6776 21.9153 68.1997 21.1768 68.1997 19.5478V9.23101C68.1997 9.03553 68.026 8.86177 67.8305 8.86177H63.1825C62.987 8.86177 62.8133 9.03553 62.8133 9.23101V20.3298C62.8133 25.1081 65.4848 26.3027 69.1554 26.3027C72.1744 26.3027 74.6288 24.6302 74.6288 24.6302C74.6288 24.6302 74.7374 25.4773 74.8025 25.6076C74.8459 25.7162 74.998 25.8031 75.15 25.8031H78.0605C78.2994 25.8031 78.4297 25.6293 78.4297 25.4339L78.4731 9.20929C78.4731 9.01381 78.2994 8.84005 78.0605 8.84005ZM26.5849 8.81833H21.9586C21.7631 8.81833 21.5893 9.01381 21.5893 9.25273V25.195C21.5893 25.6293 21.8717 25.7814 22.2409 25.7814H26.4111C26.8455 25.7814 26.9541 25.5859 26.9541 25.195V9.18757C26.9541 8.99209 26.7803 8.81833 26.5849 8.81833ZM24.3043 1.47709C22.6319 1.47709 21.307 2.80199 21.307 4.4744C21.307 6.14681 22.6319 7.47171 24.3043 7.47171C25.9333 7.47171 27.2582 6.14681 27.2582 4.4744C27.2582 2.80199 25.9333 1.47709 24.3043 1.47709ZM60.12 0.934097H55.5372C55.3417 0.934097 55.1679 1.10785 55.1679 1.30333V10.1867H47.9787V1.30333C47.9787 1.10785 47.805 0.934097 47.6095 0.934097H42.9832C42.7877 0.934097 42.614 1.10785 42.614 1.30333V25.4339C42.614 25.6293 42.8095 25.8031 42.9832 25.8031H47.6095C47.805 25.8031 47.9787 25.6293 47.9787 25.4339V15.117H55.1679L55.1245 25.4339C55.1245 25.6293 55.2983 25.8031 55.4937 25.8031H60.12C60.3155 25.8031 60.4893 25.6293 60.4893 25.4339V1.30333C60.4893 1.10785 60.3155 0.934097 60.12 0.934097ZM19.135 11.6202V24.0873C19.135 24.1741 19.1133 24.3262 19.0047 24.3696C19.0047 24.3696 16.2897 26.3027 11.8155 26.3027C6.4073 26.3027 0 24.6085 0 13.4446C0 2.28071 5.60367 -0.0215681 11.077 0.00015158C15.8119 0.00015158 17.7232 1.06441 18.0273 1.25989C18.1142 1.36849 18.1576 1.45537 18.1576 1.56397L17.2454 5.43007C17.2454 5.62554 17.0499 5.86446 16.811 5.7993C16.0291 5.56038 14.8562 5.08255 12.0979 5.08255C8.90506 5.08255 5.47335 5.99478 5.47335 13.184C5.47335 20.3732 8.7313 21.2203 11.077 21.2203C13.0752 21.2203 13.792 20.9813 13.792 20.9813V15.9858H10.5992C10.3603 15.9858 10.1865 15.8121 10.1865 15.6166V11.6202C10.1865 11.4247 10.3603 11.2509 10.5992 11.2509H18.7223C18.9613 11.2509 19.135 11.4247 19.135 11.6202Z" fill="#757385"/>
</svg>
