<svg width="104" height="34" viewBox="0 0 104 34" fill="none" xmlns="http://www.w3.org/2000/svg">
<path d="M100.421 20.7633L103.301 22.683C102.366 24.0597 100.13 26.4216 96.2656 26.4216C91.4662 26.4216 87.892 22.7084 87.892 17.9846C87.892 12.958 91.5041 9.54785 95.8615 9.54785C100.244 9.54785 102.391 13.0336 103.086 14.9155L103.465 15.8755L92.1736 20.5485C93.0324 22.2411 94.3713 23.0999 96.2656 23.0999C98.1602 23.0999 99.4736 22.1652 100.421 20.7633ZM91.5674 17.7197L99.1074 14.5873C98.6906 13.5391 97.453 12.794 95.975 12.794C94.0934 12.794 91.479 14.4612 91.5674 17.7197Z" fill="#757385"/>
<path d="M82.4483 0.94698H86.0855V25.6514H82.4483V0.946777V0.94698Z" fill="#757385"/>
<path d="M76.7147 10.2054H80.2258V25.2099C80.2258 31.4364 76.5505 34.0003 72.2057 34.0003C68.1137 34.0003 65.6509 31.247 64.7289 29.0115L67.9495 27.6726C68.5303 29.0492 69.9323 30.6787 72.2057 30.6787C74.9968 30.6787 76.7147 28.9483 76.7147 25.7151V24.5027H76.5884C75.7547 25.513 74.1634 26.4223 72.1426 26.4223C67.9241 26.4223 64.0592 22.7469 64.0592 18.0108C64.0592 13.2492 67.9241 9.53613 72.1426 9.53613C74.1508 9.53613 75.7547 10.4329 76.5884 11.418H76.7147V10.2056V10.2054ZM76.9671 18.0108C76.9671 15.0301 74.9843 12.8577 72.4583 12.8577C69.907 12.8577 67.7599 15.0301 67.7599 18.0108C67.7599 20.9535 69.907 23.088 72.4583 23.088C74.9845 23.1007 76.9673 20.9535 76.9673 18.0108H76.9671Z" fill="#757385"/>
<path d="M44.0911 17.9474C44.0911 22.81 40.3022 26.3842 35.6543 26.3842C31.0066 26.3842 27.2175 22.7975 27.2175 17.9474C27.2175 13.0597 31.0066 9.49805 35.6543 9.49805C40.3022 9.49805 44.0911 13.0597 44.0911 17.9474ZM40.4031 17.9474C40.4031 14.9164 38.2054 12.8322 35.6543 12.8322C33.1031 12.8322 30.9054 14.9164 30.9054 17.9474C30.9054 20.9533 33.1031 23.0626 35.6543 23.0626C38.2056 23.0626 40.4031 20.9533 40.4031 17.9474Z" fill="#757385"/>
<path d="M62.5185 17.9846C62.5185 22.8473 58.7295 26.4214 54.0818 26.4214C49.4338 26.4214 45.645 22.8471 45.645 17.9846C45.645 13.0969 49.4338 9.54785 54.0818 9.54785C58.7295 9.54785 62.5185 13.0843 62.5185 17.9846ZM58.8179 17.9846C58.8179 14.9536 56.6203 12.8694 54.069 12.8694C51.5178 12.8694 49.3201 14.9536 49.3201 17.9846C49.3201 20.9905 51.5178 23.0999 54.069 23.0999C56.6329 23.0999 58.8179 20.978 58.8179 17.9846Z" fill="#757385"/>
<path d="M13.3499 22.7215C8.05787 22.7215 3.9154 18.4526 3.9154 13.1605C3.9154 7.8687 8.05787 3.59972 13.3499 3.59972C16.2043 3.59972 18.2881 4.72374 19.829 6.16363L22.3678 3.62507C20.2207 1.5664 17.3537 0 13.3499 0C6.10037 0.000202744 0 5.91121 0 13.1605C0 20.4103 6.10037 26.3211 13.3499 26.3211C17.2653 26.3211 20.2207 25.0328 22.532 22.6331C24.9063 20.2586 25.6388 16.9243 25.6388 14.2215C25.6388 13.3752 25.5379 12.5038 25.4241 11.8597H13.3499V15.3708H21.9509C21.6983 17.5686 21.0037 19.0715 19.9806 20.0944C18.7429 21.3449 16.7854 22.7215 13.3499 22.7215Z" fill="#757385"/>
</svg>
