<svg width="123" height="19" viewBox="0 0 123 19" fill="none" xmlns="http://www.w3.org/2000/svg">
<path d="M64.5114 0C68.4028 0 71.806 1.89908 73.0301 5.4571L68.8875 6.70443C67.8697 4.64011 66.1935 4.09743 64.5114 4.09743C61.6707 4.09743 59.5095 6.43339 59.5095 9.49836C59.5095 12.5639 61.7213 14.9275 64.6399 14.9275C66.9329 14.9275 68.5999 13.6802 69.2526 11.6721H63.9096V7.87092H73.5239C73.592 8.41984 73.6269 8.97292 73.6289 9.5263C73.6289 15.0366 69.8512 19 64.5892 19C59.327 19 55.1841 14.8372 55.1841 9.49866C55.1841 4.15984 59.2729 0.000297032 64.5114 0.000297032V0ZM37.5627 4.47487C40.8046 4.47487 42.9506 6.01523 43.4745 8.36664L39.6881 9.14916C39.5593 8.31048 38.7899 7.5559 37.5089 7.5559C36.3953 7.5559 35.8356 8.04211 35.7338 8.60975C35.6651 8.98095 35.8356 9.28944 37.0179 9.54532C37.3264 9.61457 37.8843 9.73374 38.4406 9.85114L38.5991 9.88442C39.363 10.0455 40.0772 10.1938 40.0772 10.1938C42.5408 10.7335 43.669 12.2739 43.669 14.2728C43.669 17.2724 41.1785 18.841 37.7544 18.841C34.6951 18.841 32.067 17.6778 31.6332 14.8963L35.6948 14.0389C35.8745 15.2018 36.8923 15.6355 38.0028 15.6355C39.1133 15.6355 39.9633 15.1457 39.9874 14.5534C40.0263 13.6552 39.3499 13.1221 38.3919 12.9286C37.7304 12.7978 35.7458 12.3892 35.7458 12.3892C33.3334 11.9309 31.9594 11.2043 31.9594 9.06832C31.9594 6.28657 34.267 4.47487 37.5627 4.47487ZM80.8217 4.24425C84.4973 4.25019 86.8141 6.1775 86.8141 9.65142V18.2826H82.8032V17.2783C81.7129 18.2347 80.3204 18.7379 78.894 18.6909C75.9784 18.6909 74.0241 16.9262 74.0241 14.238C74.0241 11.5502 75.9784 9.84757 79.4597 9.84757H82.7943V9.57623C82.8078 9.32137 82.7695 9.0664 82.6818 8.82794C82.5942 8.58948 82.4592 8.37286 82.2856 8.19219C82.1123 8.01191 81.9044 7.87171 81.6753 7.7808C81.4463 7.68988 81.2013 7.65031 80.9565 7.66467C79.7052 7.66467 78.9747 8.17911 78.7681 9.37354L74.835 8.53159C75.4067 5.89963 77.6997 4.24395 80.8217 4.24395V4.24425ZM50.7033 0.0968858V4.65883H54.5586V8.08906H50.7244V12.8287C50.7244 14.2383 51.374 14.8089 52.4693 14.8089C53.1348 14.7849 53.7855 14.5988 54.37 14.2666L55.3189 17.6873C54.2357 18.3433 53.0046 18.6897 51.7508 18.6912C48.4943 18.6912 46.5338 16.8453 46.5338 13.2778V8.10452H44.1689V4.67459H46.5338V1.03216L50.7033 0.0968858ZM93.9832 0.0968858V4.65883H97.8385V8.08906H93.9771V12.8287C93.9771 14.2383 94.6295 14.8089 95.7223 14.8089C96.389 14.7852 97.0405 14.5994 97.6259 14.2666L98.5899 17.6873C97.5074 18.3423 96.2775 18.6886 95.0247 18.6912C91.7682 18.6912 89.8165 16.8453 89.8165 13.2623V8.10452H87.4459V4.67459H89.8165V1.03216L93.9832 0.0968858ZM24.2276 4.29715C28.1101 4.30636 31.3937 7.18173 31.3937 11.4694C31.3937 15.7849 28.1009 18.6633 24.2276 18.6633C20.2675 18.6633 16.9839 15.7849 16.9839 11.4694C16.9839 7.15349 20.2767 4.29715 24.2276 4.29715ZM105.181 4.29715C109.063 4.30636 112.344 7.18173 112.344 11.4694C112.344 15.7849 109.051 18.6633 105.181 18.6633C101.221 18.6633 97.9372 15.7849 97.9372 11.4694C97.9372 7.15349 101.23 4.29715 105.181 4.29715ZM4.29855 0.0968858V7.18173H11.647V0.0965884H15.9183V18.2829H11.647V11.0952H4.29855V18.2826H0V0.0968858H4.29855ZM122.06 4.45615C122.377 4.45196 122.694 4.49296 123 4.578L122.817 8.9123H122.06C119.144 8.9123 117.555 10.4714 117.555 14.0169V18.2829H113.385V5.59441L117.555 4.65883V7.26256C118.492 5.63482 119.926 4.45615 122.06 4.45615ZM82.8032 12.5981H79.9356C78.894 12.5981 78.2445 13.1687 78.2445 14.0107C78.2445 14.8526 78.9719 15.4203 80.0672 15.4203C81.5013 15.4328 82.8032 14.4285 82.8032 12.9099V12.5981ZM24.2247 7.94255C23.7886 7.94776 23.358 8.04377 22.9583 8.22488C22.5586 8.406 22.1979 8.66855 21.8976 8.997C21.5967 9.32612 21.3621 9.71435 21.2077 10.1389C21.0532 10.5635 20.9819 11.0158 20.998 11.4694C20.998 13.6148 22.5334 14.9992 24.2276 14.9992C25.8442 14.9992 27.3767 13.6148 27.3767 11.4694C27.3767 9.35185 25.8411 7.94255 24.2247 7.94255ZM105.181 7.94255C104.744 7.94697 104.313 8.04236 103.913 8.22308C103.512 8.40379 103.151 8.66616 102.85 8.99462C102.548 9.32388 102.313 9.71243 102.158 10.1374C102.004 10.5624 101.932 11.0153 101.948 11.4694C101.948 13.6148 103.487 14.9992 105.181 14.9992C106.794 14.9992 108.333 13.6148 108.333 11.4694C108.333 9.35185 106.794 7.94255 105.181 7.94255Z" fill="#757385"/>
</svg>
