<svg width="128" height="28" viewBox="0 0 128 28" fill="none" xmlns="http://www.w3.org/2000/svg">
<path d="M128 12.362V10.1109H125.205V6.61154L125.111 6.64055L122.485 7.44375L122.433 7.4595V10.1112H118.289V8.63429C118.289 7.94662 118.443 7.41999 118.746 7.0689C119.047 6.72207 119.477 6.54578 120.026 6.54578C120.421 6.54578 120.83 6.6388 121.241 6.82234L121.344 6.86811V4.49752L121.296 4.47977C120.912 4.34173 120.39 4.27222 119.743 4.27222C118.928 4.27222 118.187 4.44976 117.541 4.80135C116.894 5.15343 116.386 5.65606 116.03 6.29546C115.675 6.93387 115.495 7.6713 115.495 8.48725V10.1112H113.548V12.3622H115.495V21.8453H118.289V12.362H122.433V18.3884C122.433 20.8706 123.604 22.1286 125.913 22.1286C126.292 22.1286 126.691 22.0838 127.099 21.9968C127.514 21.9076 127.797 21.8183 127.963 21.7228L128 21.7013V19.4292L127.886 19.5042C127.735 19.6057 127.546 19.688 127.324 19.7493C127.102 19.8118 126.916 19.8433 126.772 19.8433C126.232 19.8433 125.831 19.6975 125.583 19.4099C125.332 19.1199 125.205 18.6122 125.205 17.9021V12.362H128ZM107.308 19.8438C106.294 19.8438 105.494 19.5072 104.931 18.8448C104.364 18.1789 104.076 17.2297 104.076 16.0236C104.076 14.7796 104.364 13.8056 104.931 13.1279C105.495 12.4547 106.287 12.1131 107.285 12.1131C108.254 12.1131 109.026 12.4395 109.578 13.0834C110.133 13.731 110.415 14.697 110.415 15.9558C110.415 17.2299 110.15 18.2089 109.627 18.8636C109.108 19.5135 108.328 19.8438 107.308 19.8438ZM107.432 9.82833C105.497 9.82833 103.96 10.3952 102.865 11.5135C101.77 12.632 101.214 14.1794 101.214 16.1139C101.214 17.9511 101.756 19.4289 102.826 20.5055C103.895 21.5827 105.349 22.1284 107.149 22.1284C109.025 22.1284 110.531 21.5532 111.627 20.4197C112.722 19.2869 113.277 17.754 113.277 15.8648C113.277 13.9989 112.756 12.51 111.729 11.4405C110.701 10.3707 109.255 9.82833 107.432 9.82833ZM96.709 9.82833C95.3927 9.82833 94.3042 10.1649 93.4722 10.8286C92.6355 11.4962 92.2112 12.3722 92.2112 13.432C92.2112 13.9829 92.3029 14.4722 92.4832 14.8873C92.6645 15.3037 92.9453 15.6703 93.3182 15.9781C93.6883 16.2832 94.2594 16.603 95.0166 16.9283C95.653 17.1901 96.1276 17.4117 96.4292 17.5862C96.7238 17.7573 96.9331 17.9293 97.0513 18.0969C97.1659 18.2607 97.2244 18.485 97.2244 18.762C97.2244 19.5505 96.634 19.9338 95.4189 19.9338C94.9686 19.9338 94.4545 19.84 93.8916 19.6545C93.3326 19.4717 92.8049 19.2041 92.3272 18.8611L92.2112 18.778V21.4682L92.2537 21.4882C92.6493 21.6707 93.1476 21.8243 93.735 21.9456C94.3217 22.0668 94.8543 22.1286 95.3172 22.1286C96.7455 22.1286 97.8958 21.7903 98.735 21.1224C99.5795 20.4502 100.008 19.5537 100.008 18.457C100.008 17.666 99.7773 16.9878 99.3229 16.4407C98.8718 15.8981 98.0891 15.4 96.9968 14.9596C96.1269 14.6105 95.5695 14.3207 95.3397 14.0981C95.1181 13.8831 95.0056 13.5793 95.0056 13.1944C95.0056 12.8531 95.1444 12.5798 95.4297 12.3582C95.7173 12.1357 96.1171 12.0224 96.6187 12.0224C97.0844 12.0224 97.5607 12.0959 98.0343 12.2399C98.508 12.3842 98.9236 12.5773 99.2706 12.8133L99.3849 12.8913V10.3395L99.3409 10.3205C99.0208 10.1832 98.5985 10.0659 98.0856 9.97037C97.575 9.8761 97.1119 9.82833 96.709 9.82833ZM84.9264 19.8435C83.9126 19.8435 83.1127 19.5072 82.5493 18.8448C81.9821 18.1789 81.6953 17.2299 81.6953 16.0236C81.6953 14.7796 81.9824 13.8056 82.5498 13.1279C83.1132 12.4547 83.9051 12.1131 84.9041 12.1131C85.8726 12.1131 86.6438 12.4395 87.1964 13.0834C87.7516 13.731 88.0334 14.697 88.0334 15.9558C88.0334 17.2299 87.7683 18.2089 87.2457 18.8636C86.7271 19.5135 85.9471 19.8438 84.9264 19.8438V19.8435ZM85.0514 9.82833C83.1159 9.82833 81.5788 10.3952 80.4835 11.5135C79.3885 12.632 78.8331 14.1794 78.8331 16.1139C78.8331 17.9518 79.3752 19.4289 80.4443 20.5055C81.5133 21.5827 82.9681 22.1284 84.7681 22.1284C86.6435 22.1284 88.1502 21.5532 89.2454 20.4197C90.3405 19.2869 90.8958 17.754 90.8958 15.8648C90.8958 13.9989 90.3747 12.51 89.3472 11.4405C88.319 10.3707 86.8736 9.82833 85.0511 9.82833H85.0514ZM74.5913 12.1432V10.1109H71.8309V21.8453H74.5911V15.8428C74.5911 14.8221 74.8226 13.9836 75.2792 13.3502C75.7301 12.7243 76.3308 12.4075 77.0644 12.4075C77.313 12.4075 77.5921 12.4482 77.8944 12.5295C78.1935 12.61 78.4103 12.6975 78.538 12.7896L78.6538 12.8736V10.0909L78.6093 10.0716C78.352 9.96237 77.9887 9.90735 77.5283 9.90735C76.8349 9.90735 76.214 10.1302 75.6823 10.569C75.2157 10.9546 74.8784 11.4835 74.6203 12.1432H74.5911H74.5913ZM66.8879 9.82833C65.6216 9.82833 64.4921 10.0999 63.5311 10.635C62.5684 11.1714 61.8239 11.9376 61.3176 12.9116C60.8132 13.8833 60.5574 15.0181 60.5574 16.2839C60.5574 17.3924 60.8054 18.4099 61.296 19.3067C61.7869 20.2049 62.4821 20.9076 63.3616 21.3947C64.24 21.8815 65.255 22.1286 66.379 22.1286C67.6909 22.1286 68.8109 21.866 69.7089 21.3492L69.7451 21.3282V18.7993L69.6291 18.8841C69.216 19.1835 68.761 19.4205 68.2788 19.5872C67.7909 19.7573 67.346 19.8435 66.9559 19.8435C65.8732 19.8435 65.0037 19.5045 64.3723 18.8366C63.7397 18.1674 63.4191 17.2282 63.4191 16.0459C63.4191 14.8563 63.7537 13.8928 64.4128 13.1817C65.0697 12.473 65.9407 12.1134 67.0017 12.1134C67.9089 12.1134 68.7929 12.4205 69.6294 13.0274L69.7451 13.1114V10.447L69.7076 10.4257C69.393 10.2497 68.9637 10.1042 68.4306 9.99387C67.9002 9.88385 67.381 9.82833 66.8877 9.82833H66.8879ZM58.6559 10.1109H55.8957V21.8453H58.6562V10.1112L58.6559 10.1109ZM57.3041 5.11217C56.85 5.11217 56.4539 5.26671 56.128 5.57329C55.8012 5.88086 55.6354 6.26771 55.6354 6.72432C55.6354 7.17368 55.7992 7.55352 56.123 7.8526C56.4446 8.15092 56.842 8.30221 57.3041 8.30221C57.7662 8.30221 58.165 8.15092 58.4906 7.8531C58.8182 7.55352 58.9845 7.17368 58.9845 6.72432C58.9845 6.28346 58.8227 5.90037 58.5041 5.58554C58.1858 5.27146 57.7822 5.11217 57.3041 5.11217ZM50.4174 9.24519V21.8453H53.2341V5.47151H49.3356L44.3799 17.6333L39.5707 5.47151H35.5132V21.8453H38.1604V9.24394H38.2514L43.3296 21.845H45.3274L50.3261 9.24519H50.4171H50.4174Z" fill="#757385"/>
<path d="M12.9849 12.9849H0V0H12.9849V12.9849Z" fill="#757385"/>
<path d="M27.3217 12.9849H14.337V0H27.3217V12.9849Z" fill="#757385"/>
<path d="M12.9844 27.3265H0V14.3418H12.9844V27.3265Z" fill="#757385"/>
<path d="M27.3217 27.3265H14.337V14.3418H27.3217V27.3265Z" fill="#757385"/>
</svg>
