<svg width="131" height="41" viewBox="0 0 131 41" fill="none" xmlns="http://www.w3.org/2000/svg">
<path d="M20.3805 0C9.12497 0 0 9.12471 0 20.3802C0 31.6362 9.12497 40.7602 20.3805 40.7602C31.6373 40.7602 40.7612 31.6362 40.7612 20.3802C40.7612 9.12548 31.6373 0.00102344 20.3802 0.00102344L20.3805 0ZM29.727 29.3942C29.64 29.5367 29.5258 29.6606 29.3909 29.759C29.2559 29.8573 29.1029 29.928 28.9406 29.9671C28.7783 30.0063 28.6098 30.013 28.4449 29.9869C28.28 29.9609 28.1219 29.9025 27.9795 29.8153C23.1944 26.8924 17.1705 26.2304 10.0763 27.8513C9.74776 27.926 9.40305 27.8673 9.11787 27.6879C8.8327 27.5086 8.63039 27.2233 8.55543 26.8949C8.51807 26.7323 8.51315 26.5639 8.54097 26.3994C8.56879 26.2349 8.62879 26.0775 8.71753 25.9362C8.80628 25.7949 8.92203 25.6725 9.05815 25.576C9.19427 25.4795 9.34809 25.4108 9.51081 25.3738C17.2743 23.6 23.9336 24.3637 29.3059 27.6469C29.4483 27.7339 29.5722 27.8482 29.6705 27.9832C29.7687 28.1181 29.8394 28.2711 29.8785 28.4334C29.9176 28.5957 29.9243 28.7641 29.8983 28.929C29.8722 29.0939 29.814 29.2521 29.7268 29.3944L29.727 29.3942ZM32.2216 23.8448C31.7614 24.5924 30.7832 24.8286 30.0358 24.3686C24.5579 21.0015 16.2069 20.0261 9.72726 21.9932C9.32391 22.1152 8.88861 22.0723 8.51687 21.8738C8.14512 21.6754 7.8673 21.3375 7.74435 20.9344C7.62277 20.5311 7.66601 20.0961 7.86461 19.7247C8.06322 19.3532 8.40097 19.0756 8.80387 18.9528C16.2056 16.7069 25.4071 17.7948 31.6982 21.6605C32.4453 22.1206 32.6814 23.099 32.2214 23.8451L32.2216 23.8448ZM32.4356 18.0662C25.8674 14.1649 15.0297 13.8062 8.75832 15.7098C7.75126 16.0153 6.68637 15.4467 6.38139 14.4397C6.23466 13.9559 6.28606 13.4336 6.52427 12.9877C6.76249 12.5418 7.16802 12.2087 7.65173 12.0617C14.8508 9.87617 26.8187 10.2983 34.3811 14.7879C34.5966 14.9154 34.7849 15.0842 34.9351 15.2846C35.0853 15.4849 35.1945 15.713 35.2564 15.9556C35.3184 16.1982 35.3318 16.4507 35.296 16.6986C35.2603 16.9464 35.1759 17.1848 35.0479 17.4C34.5126 18.3057 33.3395 18.6043 32.4366 18.0665H32.4356V18.0662ZM55.4486 18.8139C51.9295 17.9746 51.3042 17.3859 51.3042 16.1483C51.3042 14.979 52.4041 14.1923 54.0418 14.1923C55.6287 14.1923 57.2009 14.79 58.851 16.0199C58.8996 16.057 58.9628 16.0718 59.0237 16.0621C59.0543 16.0577 59.0837 16.0471 59.1101 16.031C59.1365 16.0148 59.1594 15.9935 59.1772 15.9682L60.8953 13.5462C60.9293 13.4982 60.9436 13.4391 60.9355 13.3808C60.9274 13.3226 60.8974 13.2697 60.8515 13.2328C58.8876 11.6575 56.6777 10.8917 54.093 10.8917C50.294 10.8917 47.639 13.1716 47.639 16.4341C47.639 19.9325 49.9289 21.1713 53.8863 22.1275C57.2521 22.903 57.8214 23.5526 57.8214 24.7142C57.8214 26.0017 56.6726 26.8023 54.8232 26.8023C52.7692 26.8023 51.0923 26.1089 49.2184 24.4878C49.1717 24.4484 49.1116 24.4284 49.0505 24.432C49.0201 24.4341 48.9904 24.4422 48.9632 24.456C48.936 24.4697 48.9119 24.4888 48.8922 24.5121L46.9648 26.8046C46.9261 26.8506 46.9067 26.9098 46.9108 26.9697C46.915 27.0297 46.9422 27.0857 46.9868 27.126C49.1672 29.073 51.8491 30.1001 54.7452 30.1001C58.839 30.1001 61.4843 27.8633 61.4843 24.4003C61.4914 21.4781 59.7419 19.8598 55.456 18.8172L55.4486 18.8139ZM70.7469 15.3434C68.9728 15.3434 67.5175 16.0424 66.3152 17.4747V15.8628C66.3152 15.7354 66.2128 15.6317 66.0864 15.6317H62.9348C62.8738 15.6321 62.8155 15.6566 62.7727 15.6998C62.7298 15.7431 62.7058 15.8016 62.706 15.8625V33.775C62.706 33.9014 62.8084 34.006 62.9348 34.006H66.0864C66.1473 34.0055 66.2056 33.981 66.2485 33.9377C66.2913 33.8944 66.3153 33.8359 66.3152 33.775V28.1213C67.5175 29.4671 68.9728 30.1267 70.7467 30.1267C74.0447 30.1267 77.3837 27.5886 77.3837 22.7359C77.3885 17.8823 74.0493 15.3431 70.7492 15.3431L70.7467 15.3434H70.7469ZM73.7185 22.7359C73.7185 25.2057 72.1974 26.9312 70.0167 26.9312C67.8629 26.9312 66.2371 25.128 66.2371 22.7359C66.2371 20.3436 67.8629 18.5406 70.0167 18.5406C72.1608 18.5406 73.7185 20.3042 73.7185 22.7357V22.7359ZM85.938 15.3434C81.6913 15.3434 78.3643 18.6133 78.3643 22.7889C78.3643 26.9192 81.6693 30.1535 85.8869 30.1535C90.1482 30.1535 93.4849 26.8949 93.4849 22.7359C93.4849 18.591 90.1702 15.3441 85.938 15.3441V15.3434ZM85.938 26.9556C83.6796 26.9556 81.9761 25.14 81.9761 22.7346C81.9761 20.3183 83.6212 18.5646 85.8869 18.5646C88.1599 18.5646 89.8732 20.3795 89.8732 22.7873C89.8732 25.2034 88.2183 26.9556 85.938 26.9556ZM102.553 15.6317H99.0849V12.0868C99.0849 11.9596 98.9825 11.856 98.8561 11.856H95.7042C95.643 11.8561 95.5843 11.8805 95.541 11.9237C95.4976 11.967 95.4732 12.0256 95.4729 12.0868V15.6317H93.9592C93.8983 15.6321 93.84 15.6566 93.7971 15.6998C93.7543 15.7431 93.7303 15.8016 93.7305 15.8625V18.5705C93.7303 18.6315 93.7542 18.69 93.7971 18.7333C93.84 18.7766 93.8983 18.8012 93.9592 18.8016H95.4729V25.8096C95.4729 28.6399 96.8822 30.0758 99.6639 30.0758C100.793 30.0758 101.73 29.8419 102.613 29.3407C102.649 29.3211 102.679 29.2922 102.699 29.2571C102.72 29.2219 102.731 29.1818 102.73 29.1411V26.5613C102.73 26.5222 102.72 26.4839 102.701 26.4498C102.682 26.4158 102.654 26.3872 102.621 26.3668C102.588 26.3455 102.549 26.3334 102.51 26.3317C102.471 26.3299 102.432 26.3386 102.397 26.3568C101.791 26.6613 101.204 26.8023 100.547 26.8023C99.5372 26.8023 99.0846 26.3423 99.0846 25.3152V18.8031H102.553C102.613 18.8028 102.672 18.7782 102.715 18.7349C102.758 18.6916 102.782 18.633 102.781 18.5721V15.864C102.782 15.8338 102.777 15.8037 102.766 15.7756C102.755 15.7474 102.739 15.7217 102.718 15.7001C102.697 15.6785 102.671 15.6614 102.643 15.6499C102.615 15.6384 102.585 15.6326 102.555 15.633L102.553 15.6317H102.553ZM114.634 15.6455V15.2101C114.634 13.9292 115.125 13.3582 116.225 13.3582C116.883 13.3582 117.411 13.4887 118.002 13.6857C118.037 13.6973 118.074 13.7005 118.11 13.6949C118.146 13.6894 118.18 13.6753 118.21 13.6538C118.239 13.6323 118.263 13.6041 118.28 13.5714C118.296 13.5388 118.304 13.5027 118.304 13.4661L118.304 10.8111C118.304 10.7615 118.289 10.713 118.259 10.6731C118.23 10.6332 118.188 10.6039 118.141 10.5898C117.518 10.404 116.719 10.2137 115.522 10.2137C112.614 10.2137 111.073 11.8524 111.073 14.9511V15.6179H109.559C109.498 15.618 109.44 15.6424 109.396 15.6856C109.353 15.7289 109.328 15.7875 109.328 15.8487V18.5705C109.328 18.6977 109.433 18.8016 109.559 18.8016H111.073V29.6083C111.073 29.7373 111.178 29.8396 111.304 29.8396H114.454C114.583 29.8396 114.685 29.7373 114.685 29.6083V18.8023H117.627L122.134 29.6083C121.623 30.7425 121.119 30.9687 120.433 30.9687C119.878 30.9687 119.292 30.8034 118.696 30.4749C118.639 30.4463 118.574 30.4402 118.513 30.4578C118.483 30.4679 118.455 30.4841 118.432 30.5055C118.408 30.5269 118.39 30.5529 118.377 30.5819L117.308 32.9255C117.284 32.9787 117.28 33.0394 117.299 33.095C117.318 33.1506 117.357 33.1971 117.408 33.2249C118.523 33.8285 119.528 34.0864 120.772 34.0864C123.098 34.0864 124.386 33.001 125.517 30.0855L130.983 15.961C130.998 15.9261 131.003 15.8882 130.999 15.8507C130.994 15.8133 130.981 15.7775 130.959 15.7466C130.939 15.7157 130.911 15.6904 130.878 15.6729C130.845 15.6554 130.809 15.6462 130.772 15.6463H127.491C127.443 15.646 127.396 15.6608 127.357 15.6886C127.317 15.7163 127.288 15.7557 127.272 15.8011L123.911 25.3981L120.231 15.7947C120.215 15.7512 120.185 15.7137 120.147 15.6872C120.109 15.6607 120.064 15.6465 120.017 15.6463H114.634V15.6455ZM107.63 15.6317H104.478C104.417 15.632 104.358 15.6564 104.315 15.6996C104.272 15.7428 104.247 15.8014 104.247 15.8625V29.6083C104.247 29.7373 104.351 29.8396 104.478 29.8396H107.63C107.756 29.8396 107.861 29.7373 107.861 29.6083V15.8635C107.861 15.8331 107.855 15.803 107.843 15.7749C107.832 15.7469 107.815 15.7213 107.793 15.6999C107.772 15.6784 107.746 15.6614 107.718 15.6498C107.69 15.6382 107.66 15.6324 107.63 15.6325V15.6317ZM106.072 9.37239C104.823 9.37239 103.811 10.383 103.811 11.6311C103.811 11.928 103.87 12.222 103.983 12.4963C104.097 12.7706 104.263 13.0199 104.473 13.2298C104.683 13.4397 104.932 13.6063 105.207 13.7199C105.481 13.8335 105.775 13.8919 106.072 13.8919C107.32 13.8919 108.33 12.8802 108.33 11.6311C108.33 11.0321 108.092 10.4577 107.669 10.0342C107.245 9.61064 106.671 9.37259 106.072 9.37239Z" fill="#757385"/>
</svg>
