<svg width="24" height="24" viewBox="0 0 24 24" fill="none" xmlns="http://www.w3.org/2000/svg">
<g clip-path="url(#clip0_1342_6667)">
<path d="M6.965 0.5H10.27C11.3767 1.06333 12.355 1.825 13.205 2.785C13.6783 3.45833 14.1767 3.955 14.7 4.275L17.525 6.695C17.6526 6.80375 17.7563 6.93721 17.8294 7.08696C17.9026 7.23671 17.9436 7.39948 17.95 7.565C18.04 9.93 15.875 10.41 14.01 9.935C12.4833 9.545 11.1183 8.76667 9.915 7.6L8.87 6.425C9.27 5.60833 9.7 5.4 10.16 5.8C11.725 7.16 13.33 8.52 15.42 8.69C15.8833 8.72667 16.2217 8.54333 16.435 8.14C16.4907 8.03767 16.5077 7.91871 16.483 7.80486C16.4582 7.69101 16.3932 7.58989 16.3 7.52C14.2967 5.99667 12.4467 4.30167 10.75 2.435C10.5228 2.18535 10.2063 2.03609 9.87 2.02C8.23 1.935 6.455 1.855 5 2.79C3.83333 3.54 2.74667 4.28667 1.74 5.03C1.58 5.15 1.5 5.30833 1.5 5.505V15.105C1.5 15.265 1.58167 15.3483 1.745 15.355L3.265 15.42C3.265 15.8667 3.025 16.3233 2.545 16.79C2.215 16.8767 1.78333 16.9267 1.25 16.94C0.643333 16.9533 0.226667 16.71 0 16.21V4.715C2.16 2.605 4.48167 1.2 6.965 0.5Z" fill="url(#paint0_linear_1342_6667)"/>
<path d="M13.205 2.785C15.385 2.80834 17.4167 3.17667 19.3 3.89C19.9167 4.12334 20.5017 4.24167 21.055 4.245C21.665 4.25167 22.27 4.255 22.87 4.255C23.4733 4.255 23.85 4.43834 24 4.805V16.29C23.7 16.77 23.2317 16.9667 22.595 16.88C22.4317 16.86 22.275 16.8867 22.125 16.96C20.365 17.845 18.82 20.59 17.7 22.205C17.2767 22.8183 16.6117 23.25 15.705 23.5H15.14C14.53 23.2967 13.9817 22.99 13.495 22.58C13.3417 22.45 13.1733 22.42 12.99 22.49C11.89 22.91 10.8317 22.7483 9.81501 22.005C9.68834 21.9117 9.54834 21.88 9.39501 21.91C8.20167 22.13 7.08501 21.815 6.04501 20.965C5.90834 20.8517 5.75167 20.795 5.57501 20.795C2.84501 20.7883 1.83501 19.4533 2.54501 16.79C3.02501 16.3233 3.26501 15.8667 3.26501 15.42C3.40501 15.46 3.54334 15.3667 3.68001 15.14C5.38667 12.24 7.11667 9.335 8.87001 6.425L9.91501 7.6L3.83001 17.68C3.69767 17.8987 3.65652 18.1607 3.71544 18.4094C3.77436 18.6582 3.92862 18.8739 4.14501 19.01L4.42001 19.18C4.94667 19.5133 5.38167 19.42 5.72501 18.9L8.37001 14.905C8.4412 14.7984 8.54937 14.7204 8.67501 14.685C8.92834 14.6183 9.14167 14.64 9.31501 14.75C9.76501 15.0367 9.84167 15.4033 9.54501 15.85L7.21001 19.34C6.96334 19.7133 7.04167 19.9917 7.44501 20.175L8.26501 20.555C8.56501 20.6917 8.80834 20.6233 8.99501 20.35L12.195 15.67C12.415 15.3533 12.6917 15.29 13.025 15.48L13.195 15.58C13.575 15.7967 13.6417 16.085 13.395 16.445L10.735 20.355C10.696 20.4128 10.6711 20.4789 10.6623 20.548C10.6536 20.6172 10.6612 20.6874 10.6845 20.7531C10.7079 20.8188 10.7463 20.8781 10.7968 20.9262C10.8472 20.9743 10.9083 21.0098 10.975 21.03L11.74 21.26C12.0933 21.37 12.3767 21.275 12.59 20.975L15.88 16.4C16.1933 15.9667 16.5333 15.945 16.9 16.335L17.015 16.45C17.265 16.7167 17.2817 16.9967 17.065 17.29L14.615 20.635C14.255 21.1283 14.3417 21.525 14.875 21.825C14.925 21.8517 14.9767 21.8767 15.03 21.9C15.62 22.16 16.0967 22.025 16.46 21.495C17.6167 19.8117 18.6883 18.3133 19.675 17C20.2583 16.2233 21.1167 15.6983 22.25 15.425C22.4167 15.385 22.5 15.28 22.5 15.11V6.015C22.5 5.81834 22.4017 5.72334 22.205 5.73C21.145 5.775 20.27 5.865 19.225 5.43C17.7783 4.82334 16.27 4.43834 14.7 4.275C14.1767 3.955 13.6783 3.45834 13.205 2.785Z" fill="url(#paint1_linear_1342_6667)"/>
</g>
<defs>
<linearGradient id="paint0_linear_1342_6667" x1="8.97636" y1="0.5" x2="8.97636" y2="16.9405" gradientUnits="userSpaceOnUse">
<stop stop-color="#C21931"/>
<stop offset="1" stop-color="#F0680A"/>
</linearGradient>
<linearGradient id="paint1_linear_1342_6667" x1="13.1626" y1="2.785" x2="13.1626" y2="23.5" gradientUnits="userSpaceOnUse">
<stop stop-color="#6897B5"/>
<stop offset="0.0001" stop-color="#4991EF"/>
<stop offset="0.494792" stop-color="#4060FF"/>
<stop offset="1" stop-color="#004EB6"/>
</linearGradient>
<clipPath id="clip0_1342_6667">
<rect width="24" height="23" fill="white" transform="translate(0 0.5)"/>
</clipPath>
</defs>
</svg>
