<svg width="28" height="28" viewBox="0 0 28 28" fill="none" xmlns="http://www.w3.org/2000/svg">
<rect width="28" height="28" rx="6" fill="url(#paint0_linear_222_12861)" fill-opacity="0.1"/>
<path opacity="0.4" fill-rule="evenodd" clip-rule="evenodd" d="M15.2418 10.3974C15.5013 10.592 15.5539 10.9602 15.3593 11.2197L13.7147 13.4125H15.6726C15.895 13.4125 16.0984 13.5382 16.1979 13.7372C16.2974 13.9362 16.2759 14.1743 16.1424 14.3523L13.793 17.4848C13.5984 17.7443 13.2302 17.7969 12.9707 17.6023C12.7112 17.4077 12.6586 17.0395 12.8533 16.78L14.4978 14.5872H12.54C12.3175 14.5872 12.1141 14.4615 12.0146 14.2625C11.9152 14.0635 11.9366 13.8254 12.0701 13.6474L14.4195 10.5149C14.6142 10.2554 14.9823 10.2028 15.2418 10.3974Z" fill="#1C1B9D"/>
<path fill-rule="evenodd" clip-rule="evenodd" d="M11.199 10.2622C11.4284 10.4916 11.4284 10.8635 11.199 11.0929C10.4543 11.8376 9.99478 12.8646 9.99478 14.0002C9.99478 15.1357 10.4543 16.1627 11.199 16.9074C11.4284 17.1368 11.4284 17.5087 11.199 17.7381C10.9696 17.9674 10.5977 17.9674 10.3684 17.7381C9.41239 16.7821 8.82007 15.4597 8.82007 14.0002C8.82007 12.5406 9.41239 11.2182 10.3684 10.2622C10.5977 10.0329 10.9696 10.0329 11.199 10.2622ZM17.0135 10.2622C17.2429 10.0329 17.6148 10.0329 17.8442 10.2622C18.8002 11.2182 19.3925 12.5406 19.3925 14.0002C19.3925 15.4597 18.8002 16.7821 17.8442 17.7381C17.6148 17.9674 17.2429 17.9674 17.0135 17.7381C16.7842 17.5087 16.7842 17.1368 17.0135 16.9074C17.7582 16.1627 18.2178 15.1357 18.2178 14.0002C18.2178 12.8646 17.7582 11.8376 17.0135 11.0929C16.7842 10.8635 16.7842 10.4916 17.0135 10.2622Z" fill="#1C1B9D"/>
<path opacity="0.4" fill-rule="evenodd" clip-rule="evenodd" d="M8.98395 8.04703C9.21332 8.27641 9.21332 8.6483 8.98395 8.87768C7.67239 10.1892 6.86221 11.9994 6.86221 14C6.86221 16.0006 7.67239 17.8108 8.98395 19.1223C9.21332 19.3517 9.21332 19.7236 8.98395 19.953C8.75457 20.1823 8.38268 20.1823 8.1533 19.953C6.63045 18.4301 5.6875 16.3246 5.6875 14C5.6875 11.6754 6.63045 9.56989 8.1533 8.04703C8.38268 7.81766 8.75457 7.81766 8.98395 8.04703ZM19.2286 8.04703C19.458 7.81766 19.8299 7.81766 20.0592 8.04703C21.5821 9.56989 22.525 11.6754 22.525 14C22.525 16.3246 21.5821 18.4301 20.0592 19.953C19.8299 20.1823 19.458 20.1823 19.2286 19.953C18.9992 19.7236 18.9992 19.3517 19.2286 19.1223C20.5401 17.8108 21.3503 16.0006 21.3503 14C21.3503 11.9994 20.5401 10.1892 19.2286 8.87768C18.9992 8.6483 18.9992 8.27641 19.2286 8.04703Z" fill="#1C1B9D"/>
<defs>
<linearGradient id="paint0_linear_222_12861" x1="14" y1="-7.37607e-07" x2="-10.75" y2="33" gradientUnits="userSpaceOnUse">
<stop stop-color="#1C1B9D"/>
<stop offset="1" stop-color="#1C1B9D" stop-opacity="0"/>
</linearGradient>
</defs>
</svg>
