<svg width="30" height="30" viewBox="0 0 30 30" fill="none" xmlns="http://www.w3.org/2000/svg">
<path d="M3.125 9.5H26.875" stroke="#1D1B9D" stroke-width="1.5" stroke-linecap="round" stroke-linejoin="round"/>
<path d="M8.75 20.9375H5.625C4.24375 20.9375 3.125 19.8188 3.125 18.4375V7.1875C3.125 5.80625 4.24375 4.6875 5.625 4.6875H24.375C25.7563 4.6875 26.875 5.80625 26.875 7.1875V18.4375C26.875 19.8188 25.7563 20.9375 24.375 20.9375H21.25" stroke="#1D1B9D" stroke-width="1.5" stroke-linecap="round" stroke-linejoin="round"/>
<path fill-rule="evenodd" clip-rule="evenodd" d="M15 27.1875C18.4375 27.1875 21.25 24.375 21.25 20.9375C21.25 17.5 18.4375 14.6875 15 14.6875C11.5625 14.6875 8.75 17.5 8.75 20.9375C8.75 22.34 9.22375 23.6338 10.0113 24.6788C11.1538 26.1975 12.965 27.1875 15 27.1875Z" stroke="#1D1B9D" stroke-width="1.5" stroke-linecap="round" stroke-linejoin="round"/>
<path d="M15 18.125V17.1875" stroke="#1D1B9D" stroke-width="1.5" stroke-linecap="round" stroke-linejoin="round"/>
<path d="M15 23.75V24.6875" stroke="#1D1B9D" stroke-width="1.5" stroke-linecap="round" stroke-linejoin="round"/>
<path d="M13.3725 23.08C13.615 23.4775 14.03 23.7525 14.5312 23.7525H15H15.5588C16.2863 23.7525 16.875 23.1625 16.875 22.4362C16.875 21.8325 16.4638 21.3062 15.8788 21.1587L14.1212 20.7175C13.5362 20.57 13.125 20.0437 13.125 19.44C13.125 18.7125 13.715 18.1237 14.4412 18.1237H15H15.4688C15.9688 18.1237 16.3825 18.3975 16.625 18.7937" stroke="#1D1B9D" stroke-width="1.5" stroke-linecap="round" stroke-linejoin="round"/>
</svg>
