<svg width="154" height="73" viewBox="0 0 154 73" fill="none" xmlns="http://www.w3.org/2000/svg">
<path d="M20.0562 26.3263H18.9434V47.6222L4.8986 27.6862C4.30764 26.8159 3.31453 26.3032 2.26155 26.3263H0.576172V51.6192C0.576172 53.3215 1.29146 54.1734 2.72204 54.1734H3.75046V33.0432L17.9211 52.6492C18.661 53.6653 19.5942 54.1734 20.7224 54.1734H22.1223V28.8789C22.1223 27.1766 21.4362 26.3247 20.0639 26.3232M120.974 36.876H119.878V52.3054C119.878 52.3054 115.502 52.6123 113.36 50.8548C111.219 49.0988 111.241 45.0159 111.241 45.0159V39.1615C111.241 37.6404 110.423 36.8806 108.788 36.8791H107.729V46.0995C107.729 46.0995 107.499 50.9438 111.457 52.9209C114.877 54.6308 119.9 54.1796 119.9 54.1796C119.896 55.3261 119.784 56.4697 119.565 57.5948C119.368 58.5004 119.035 59.2295 118.567 59.7805C118.077 60.3439 117.436 60.7522 116.719 60.9548C115.792 61.2081 114.834 61.3263 113.873 61.3048H113.354L112.651 63.1772H113.609C115.476 63.1772 117.034 63.0177 118.286 62.6986C119.539 62.379 120.531 61.8403 121.267 61.0822C122.004 60.3224 122.526 59.3308 122.834 58.1075C123.141 56.8826 123.295 55.3645 123.295 53.5532V39.1569C123.295 37.6388 122.515 36.8806 120.957 36.8791M96.0935 36.8253H91.8416L92.4337 38.7134H96.1131C99.1784 38.7134 100.849 40.4417 101.122 43.8984H96.9972C94.3755 43.8984 92.4662 44.319 91.2673 45.1586C90.0684 45.9982 89.4715 47.3444 89.4758 49.1955C89.4758 52.554 91.8612 54.2332 96.6334 54.2332H99.4901L98.8237 52.3452H97.0758C95.5916 52.3452 94.5228 52.1227 93.8675 51.676C93.2123 51.2293 92.8852 50.4081 92.8852 49.2231C92.8852 48.0382 93.2061 47.1003 93.8491 46.5785C94.4921 46.0566 95.6787 45.7956 97.4101 45.7956H101.193V51.9078C101.193 53.4642 101.985 54.2424 103.568 54.2409H104.717V44.3451C104.717 39.3381 101.848 36.8346 96.11 36.8346M86.0467 37.0356C85.7552 37.2214 85.473 37.6204 85.2043 38.2344L81.1015 50.4711L77.3251 36.8284H75.8225C74.8942 36.8284 74.2586 37.3319 73.9175 38.3403L70.1067 50.2823L66.1107 38.2283C65.8438 37.6373 65.5493 37.2444 65.2315 37.0495C64.9137 36.8514 64.4271 36.7532 63.7657 36.7532H61.4938L68.1262 53.8572C68.2968 54.2256 68.8465 54.4098 69.7766 54.4098C70.7068 54.4098 71.2424 54.2256 71.3897 53.8572L75.3483 41.4717L79.1228 53.8572C79.2197 54.2256 79.7566 54.4098 80.7358 54.4098C81.6629 54.4098 82.2249 54.2256 82.4231 53.8572L88.8358 36.7532H87.4425C86.8081 36.7532 86.343 36.8453 86.0497 37.0295M56.6633 46.296C56.6633 48.1288 56.2673 49.6115 55.4753 50.7412C54.6832 51.871 53.5074 52.4389 51.9495 52.4435H51.1836C49.6225 52.4435 48.4529 51.871 47.6731 50.7244C46.8934 49.5793 46.502 48.1026 46.4989 46.296V44.7764C46.4989 42.8961 46.8949 41.401 47.6869 40.2913C48.4789 39.1815 49.6425 38.6274 51.179 38.6305H51.9449C53.4783 38.6305 54.648 39.18 55.4553 40.2775C56.2627 41.375 56.6649 42.8761 56.6618 44.781V46.296H56.6633ZM51.9479 36.7716H51.182C48.6709 36.7716 46.8765 37.4623 45.3907 38.8438C43.9048 40.2253 43.1588 42.2023 43.1588 44.7733V46.3067C43.1419 47.4488 43.3415 48.5846 43.7437 49.6529C44.1044 50.6031 44.6661 51.4657 45.3907 52.181C46.1305 52.8917 47.0161 53.432 47.9863 53.7636C49.0101 54.1381 50.0922 54.3223 51.182 54.3085H51.9479C53.0454 54.3253 54.1368 54.1411 55.1668 53.7636C56.1369 53.432 57.0225 52.8917 57.7624 52.181C58.4853 51.4657 59.0456 50.6031 59.4078 49.6529C59.813 48.5816 60.0126 47.4426 59.9942 46.296V44.7626C59.9942 42.1915 59.2635 40.2145 57.8007 38.8331C56.3379 37.4531 54.5313 36.7609 51.9479 36.7609M33.2691 36.7916H32.7933C31.7265 36.7747 30.6658 36.9681 29.6743 37.3626C28.7395 37.7187 27.8906 38.2713 27.1891 38.985C26.4907 39.7126 25.9566 40.5798 25.6189 41.53C25.2413 42.6014 25.0556 43.7296 25.0694 44.8654V46.4142C25.0694 49.019 25.8354 50.9853 27.3687 52.3115C28.9022 53.6392 30.8654 54.3039 33.5945 54.3039H39.0022L38.3114 52.4235H33.5792C32.89 52.4312 32.2084 52.2931 31.5776 52.0168C30.982 51.7543 30.4448 51.3782 29.9935 50.9086C29.5376 50.4296 29.1846 49.8648 28.9559 49.2447C28.7103 48.5831 28.5875 47.8816 28.5921 47.1756V44.8808C28.5921 43.0081 28.9252 41.4916 29.5914 40.3342C30.2576 39.1769 31.3305 38.5982 32.8101 38.5982H33.2829C34.8163 38.5982 35.9016 39.0955 36.5385 40.0917C37.1756 41.0864 37.4979 42.5799 37.5025 44.5707H31.3703L30.7502 46.5631H40.4281C40.4757 46.2684 40.5125 45.9507 40.5371 45.6237C40.5617 45.2968 40.574 44.9176 40.574 44.4986C40.5786 39.3626 38.1441 36.7947 33.2675 36.7947" fill="white"/>
<path d="M137.545 34.6213C137.417 34.5584 137.29 34.4908 137.163 34.4248C143.2 34.5461 149.096 32.3204 153.675 28.2635C148.356 32.302 141.648 34.0565 135.033 33.1431C130.553 30.0779 126.874 25.1583 124.747 19.1613C122.429 12.98 121.852 6.16476 123.238 0.333496C119.916 10.8402 122.022 24.2036 131.262 32.3434C129.158 31.7249 127.136 30.8499 125.245 29.7371C119.221 26.1791 116.034 20.3862 116.034 20.3862C117.059 23.3901 119.253 27.4807 125.863 31.2705C128.243 32.6397 130.842 33.5898 133.544 34.0764C136.863 36.2192 140.84 37.1033 144.755 36.5707C143.749 36.517 142.75 36.3758 141.769 36.1501C140.291 35.8585 138.867 35.3458 137.543 34.6274" fill="#E96024"/>
<path d="M4.29453 63.3529H4.7765C4.87627 63.3529 4.92693 63.3989 4.92693 63.4922V68.6496C4.92693 69.1485 4.78725 69.5368 4.50942 69.8166C4.23159 70.0939 3.84479 70.2338 3.3536 70.2338H2.16555C1.67283 70.2338 1.28602 70.0939 1.00512 69.8166C0.722691 69.5387 0.583008 69.1503 0.583008 68.6496V63.5032C0.583008 63.4032 0.633659 63.3529 0.733434 63.3529H1.21541C1.31518 63.3529 1.36583 63.4032 1.36583 63.5032V68.6177C1.36583 69.2374 1.66054 69.5491 2.25457 69.5491H3.25997C3.8586 69.5491 4.15945 69.2393 4.15945 68.6177V63.5032C4.15945 63.4032 4.2055 63.3529 4.29913 63.3529H4.29453Z" fill="white"/>
<path d="M6.63631 70.2326H6.15437C6.05456 70.2326 6.00391 70.1829 6.00391 70.0817V64.9242C6.00391 64.8249 6.05303 64.7739 6.15437 64.7739H6.63631C6.73607 64.7739 6.78675 64.8249 6.78675 64.9242V65.3421H6.8297C7.02928 64.9641 7.40839 64.7739 7.96402 64.7739H8.36007C8.98785 64.7739 9.42224 65.0163 9.66477 65.5016C9.77987 65.2666 9.95952 65.0856 10.205 64.9611C10.4522 64.8371 10.71 64.7739 10.9817 64.7739H11.3563C11.8413 64.7739 12.2189 64.9138 12.4906 65.1918C12.7623 65.4697 12.8974 65.8593 12.8974 66.3581V70.0817C12.8974 70.1817 12.8483 70.2326 12.747 70.2326H12.265C12.1652 70.2326 12.1145 70.1829 12.1145 70.0817V66.3906C12.1145 65.7703 11.8152 65.4586 11.2166 65.4586H10.8636C10.5412 65.4586 10.2941 65.5495 10.1206 65.7317C9.94565 65.9145 9.85816 66.1618 9.85816 66.4747V70.0805C9.85816 70.1799 9.80754 70.2308 9.70778 70.2308H9.22578C9.12602 70.2308 9.07534 70.1817 9.07534 70.0805V66.3888C9.07534 65.7685 8.77605 65.4574 8.17588 65.4574H7.77983C7.45907 65.4574 7.21194 65.5433 7.04156 65.7133C6.86964 65.8851 6.78522 66.128 6.78522 66.4409V70.0786C6.78522 70.1787 6.73454 70.2296 6.63477 70.2296L6.63631 70.2326Z" fill="white"/>
<path d="M15.9034 70.2326H15.3462C14.855 70.2326 14.4667 70.0928 14.1857 69.8148C13.9033 69.5369 13.7637 69.1485 13.7637 68.6485V66.3581C13.7637 65.8593 13.9048 65.4697 14.1857 65.1918C14.4667 64.9138 14.855 64.7739 15.3462 64.7739H17.6686C17.7683 64.7739 17.819 64.8249 17.819 64.9242V70.0817C17.819 70.1817 17.7699 70.2326 17.6686 70.2326H17.1866C17.0868 70.2326 17.0377 70.1829 17.0377 70.0817V69.6645H16.9947C16.8167 70.0418 16.4529 70.2308 15.9034 70.2308V70.2326ZM17.0377 68.5626V65.5556C17.0377 65.4912 17.0009 65.4586 16.9302 65.4586H15.4321C14.8396 65.4586 14.5434 65.7685 14.5434 66.3906V68.6159C14.5434 69.2362 14.8396 69.5479 15.4321 69.5479H16.0415C16.3639 69.5479 16.6095 69.462 16.7799 69.2915C16.9517 69.1197 17.0377 68.8767 17.0377 68.5638V68.5626Z" fill="white"/>
<path d="M24.86 70.2326H22.5913C22.1002 70.2326 21.7118 70.0928 21.4309 69.8148C21.1485 69.5369 21.0088 69.1485 21.0088 68.6485V66.3581C21.0088 65.8593 21.15 65.4697 21.4309 65.1918C21.7118 64.9138 22.1002 64.7739 22.5913 64.7739H23.4908C23.9835 64.7739 24.3688 64.9138 24.6466 65.1918C24.9244 65.4697 25.0641 65.8593 25.0641 66.3581V67.7165C25.0641 67.8239 25.015 67.876 24.9137 67.876H21.8852C21.8131 67.876 21.7778 67.9085 21.7778 67.973V68.6252C21.7778 69.2454 22.0772 69.5571 22.6773 69.5571H24.86C24.9598 69.5571 25.0105 69.6062 25.0105 69.7056V70.0909C25.0105 70.1836 24.9613 70.2308 24.86 70.2308V70.2326ZM21.8852 67.3116H24.1969C24.269 67.3116 24.3028 67.276 24.3028 67.2042V66.3796C24.3028 65.7654 24.0035 65.4586 23.4033 65.4586H22.6757C22.0772 65.4586 21.7763 65.7654 21.7763 66.3796V67.2042C21.7763 67.276 21.8131 67.3116 21.8837 67.3116H21.8852Z" fill="white"/>
<path d="M26.5601 70.2326H26.0781C25.9783 70.2326 25.9277 70.1829 25.9277 70.0817V64.9242C25.9277 64.8249 25.9768 64.7739 26.0781 64.7739H26.5601C26.6599 64.7739 26.7105 64.8249 26.7105 64.9242V65.3421H26.7535C26.9531 64.9641 27.3322 64.7739 27.8878 64.7739H28.2839C28.9116 64.7739 29.346 65.0163 29.5886 65.5016C29.7037 65.2666 29.8833 65.0856 30.1289 64.9611C30.376 64.8371 30.6339 64.7739 30.9055 64.7739H31.2801C31.7651 64.7739 32.1428 64.9138 32.4144 65.1918C32.6861 65.4697 32.8212 65.8593 32.8212 66.3581V70.0817C32.8212 70.1817 32.7721 70.2326 32.6708 70.2326H32.1888C32.089 70.2326 32.0383 70.1829 32.0383 70.0817V66.3906C32.0383 65.7703 31.739 65.4586 31.1404 65.4586H30.7874C30.465 65.4586 30.2179 65.5495 30.0444 65.7317C29.8694 65.9145 29.782 66.1618 29.782 66.4747V70.0805C29.782 70.1799 29.7313 70.2308 29.6315 70.2308H29.1496C29.0498 70.2308 28.9991 70.1817 28.9991 70.0805V66.3888C28.9991 65.7685 28.6998 65.4574 28.0997 65.4574H27.7036C27.3828 65.4574 27.1357 65.5433 26.9654 65.7133C26.7934 65.8851 26.709 66.128 26.709 66.4409V70.0786C26.709 70.1787 26.6583 70.2296 26.5586 70.2296L26.5601 70.2326Z" fill="white"/>
<path d="M34.4263 71.7947H33.9443C33.8445 71.7947 33.7939 71.7444 33.7939 71.6444V64.9242C33.7939 64.8249 33.843 64.7739 33.9443 64.7739H34.4263C34.5261 64.7739 34.5767 64.8249 34.5767 64.9242V65.3421H34.6197C34.7977 64.9641 35.1615 64.7739 35.711 64.7739H36.3542C36.8392 64.7739 37.2153 64.9138 37.4824 65.1918C37.7494 65.4697 37.883 65.8593 37.883 66.3581V68.6485C37.883 69.1473 37.7494 69.5357 37.4824 69.8148C37.2153 70.0928 36.8377 70.2326 36.3542 70.2326H35.711C35.1615 70.2326 34.7977 70.0437 34.6197 69.6657H34.5767V71.6444C34.5767 71.7444 34.5261 71.7947 34.4263 71.7947ZM35.5714 69.5479H36.2022C36.8085 69.5479 37.1109 69.2375 37.1109 68.616V66.3906C37.1109 65.7703 36.8085 65.4586 36.2022 65.4586H35.5714C35.2505 65.4586 35.0034 65.5445 34.833 65.7151C34.6611 65.8869 34.5767 66.1292 34.5767 66.4428V68.5607C34.5767 68.8755 34.6611 69.1178 34.833 69.2884C35.0034 69.4602 35.2505 69.5449 35.5714 69.5449V69.5479Z" fill="white"/>
<path d="M39.4341 70.2326H38.9522C38.8524 70.2326 38.8018 70.1829 38.8018 70.0817V64.9242C38.8018 64.8249 38.8509 64.7739 38.9522 64.7739H39.4341C39.5339 64.7739 39.5846 64.8249 39.5846 64.9242V65.3525H39.6276C39.6997 65.196 39.8348 65.0611 40.0343 64.9457C40.2338 64.8322 40.4702 64.7739 40.7404 64.7739H41.1579C41.25 64.7739 41.2976 64.8249 41.2976 64.9242V65.3206C41.2976 65.3709 41.2869 65.4077 41.2654 65.4323C41.2439 65.4574 41.2086 65.4666 41.1594 65.4586H40.5808C40.26 65.4586 40.0128 65.5556 39.8425 65.747C39.6705 65.939 39.5861 66.2029 39.5861 66.5391V70.0805C39.5861 70.1799 39.5354 70.2308 39.4357 70.2308L39.4341 70.2326Z" fill="white"/>
<path d="M45.5535 70.2326H43.2847C42.7935 70.2326 42.4052 70.0928 42.1244 69.8148C41.8419 69.5369 41.7021 69.1485 41.7021 68.6485V66.3581C41.7021 65.8593 41.8435 65.4697 42.1244 65.1918C42.4052 64.9138 42.7935 64.7739 43.2847 64.7739H44.1842C44.6769 64.7739 45.0622 64.9138 45.34 65.1918C45.6178 65.4697 45.7575 65.8593 45.7575 66.3581V67.7165C45.7575 67.8239 45.7083 67.876 45.607 67.876H42.5787C42.5065 67.876 42.4712 67.9085 42.4712 67.973V68.6252C42.4712 69.2454 42.7705 69.5571 43.3707 69.5571H45.5533C45.6531 69.5571 45.7038 69.6062 45.7038 69.7056V70.0909C45.7038 70.1836 45.6547 70.2308 45.5533 70.2308L45.5535 70.2326ZM42.5787 67.3116H44.8903C44.9625 67.3116 44.9963 67.276 44.9963 67.2042V66.3796C44.9963 65.7654 44.6969 65.4586 44.0967 65.4586H43.3691C42.7705 65.4586 42.4697 65.7654 42.4697 66.3796V67.2042C42.4697 67.276 42.5065 67.3116 42.5771 67.3116H42.5787Z" fill="white"/>
<path d="M48.4752 70.2326H46.5704C46.4706 70.2326 46.4199 70.1829 46.4199 70.0817V69.7074C46.4199 69.6154 46.4691 69.5676 46.5704 69.5676H48.3678C48.9234 69.5676 49.2013 69.3608 49.2013 68.9479V68.7448C49.2013 68.3675 49.0202 68.1067 48.6548 67.9638L47.3931 67.4281C47.0294 67.279 46.7684 67.1011 46.6118 66.8986C46.4553 66.6956 46.377 66.4256 46.377 66.0912C46.377 65.2132 46.8589 64.7739 47.8213 64.7739H49.5758C49.6756 64.7739 49.7262 64.8249 49.7262 64.9242V65.2991C49.7262 65.3912 49.6756 65.439 49.5758 65.439H47.9595C47.7031 65.439 47.5082 65.4924 47.3762 65.5985C47.2442 65.7059 47.1782 65.8298 47.1782 65.9728V66.1556C47.1782 66.455 47.3808 66.6833 47.7876 66.8403L49.0493 67.4067C49.4208 67.549 49.6725 67.738 49.8045 67.973C49.9365 68.2079 50.0025 68.5331 50.0025 68.9479C50.0025 69.8044 49.4929 70.2308 48.4722 70.2308L48.4752 70.2326Z" fill="white"/>
<path d="M52.8409 70.2326H52.2838C51.7926 70.2326 51.4042 70.0928 51.1234 69.8148C50.8409 69.5369 50.7012 69.1485 50.7012 68.6485V66.3581C50.7012 65.8593 50.8424 65.4697 51.1234 65.1918C51.4042 64.9138 51.7926 64.7739 52.2838 64.7739H54.6062C54.7059 64.7739 54.7565 64.8249 54.7565 64.9242V70.0817C54.7565 70.1817 54.7075 70.2326 54.6062 70.2326H54.1242C54.0244 70.2326 53.9752 70.1829 53.9752 70.0817V69.6645H53.9323C53.7543 70.0418 53.3905 70.2308 52.8409 70.2308V70.2326ZM53.9752 68.5626V65.5556C53.9752 65.4912 53.9384 65.4586 53.8678 65.4586H52.3697C51.7772 65.4586 51.4809 65.7685 51.4809 66.3906V68.6159C51.4809 69.2362 51.7772 69.5479 52.3697 69.5479H52.9791C53.3014 69.5479 53.547 69.462 53.7174 69.2915C53.8893 69.1197 53.9752 68.8767 53.9752 68.5638V68.5626Z" fill="white"/>
<path d="M58.1602 70.0817V63.5014C58.1602 63.402 58.2093 63.3511 58.3091 63.3511H60.8233C61.3161 63.3511 61.7016 63.4879 61.9789 63.7628C62.2569 64.037 62.3968 64.4211 62.3968 64.9119V65.5016C62.3968 66.1372 62.0973 66.547 61.4985 66.7323C61.7691 66.7538 62.0004 66.8741 62.1943 67.09C62.3857 67.3084 62.4826 67.595 62.4826 67.9514V68.6681C62.4826 69.1607 62.3415 69.543 62.0605 69.8178C61.7783 70.0927 61.3911 70.2289 60.9001 70.2289H58.3106C58.2108 70.2289 58.1617 70.1798 58.1617 70.0786L58.1602 70.0817ZM59.0489 66.401H60.6959C61.3237 66.401 61.6366 66.0985 61.6366 65.4905V64.9242C61.6366 64.318 61.3345 64.0155 60.7282 64.0155H59.0489C58.9768 64.0155 58.9414 64.0511 58.9414 64.1229V66.3059C58.9414 66.3703 58.9783 66.4028 59.0489 66.4028V66.401ZM59.0489 69.5675H60.8034C61.4175 69.5675 61.7231 69.265 61.7231 68.6589V67.9637C61.7231 67.3575 61.3942 67.0532 60.7389 67.0532H59.0489C58.9767 67.0532 58.9414 67.0857 58.9414 67.1501V69.462C58.9414 69.5338 58.9783 69.5675 59.0489 69.5675Z" fill="white"/>
<path d="M65.125 66.4439H65.7447C66.3508 66.4439 66.6533 66.1415 66.6533 65.5353V64.926C66.6533 64.3198 66.3508 64.0174 65.7447 64.0174H65.0066C64.4065 64.0174 64.1071 64.3198 64.1071 64.926V65.2684C64.1071 65.3758 64.058 65.4279 63.9568 65.4279H63.4745C63.3751 65.4279 63.3242 65.3739 63.3242 65.2684V64.915C63.3242 64.4223 63.4653 64.0401 63.7463 63.7658C64.0286 63.4909 64.4157 63.3541 64.9066 63.3541H65.8367C66.3294 63.3541 66.7165 63.4909 66.9975 63.7658C67.2798 64.0401 67.4196 64.4241 67.4196 64.915V65.5463C67.4196 66.1813 67.1264 66.5912 66.5417 66.7771C67.1264 66.9262 67.4196 67.333 67.4196 67.9974V68.6711C67.4196 69.1638 67.2785 69.546 66.9975 69.8209C66.7147 70.0958 66.3281 70.2326 65.8367 70.2326H64.9066C64.4139 70.2326 64.0273 70.0958 63.7463 69.8209C63.4641 69.546 63.3242 69.1626 63.3242 68.6711V68.2429C63.3242 68.1373 63.3733 68.0833 63.4745 68.0833H63.9568C64.0562 68.0833 64.1071 68.1373 64.1071 68.2429V68.6607C64.1071 69.2669 64.4065 69.5693 65.0066 69.5693H65.7447C66.3508 69.5693 66.6533 69.2669 66.6533 68.6607V68.0079C66.6533 67.4017 66.3508 67.0992 65.7447 67.0992H65.125C65.025 67.0992 64.974 67.0501 64.974 66.9507V66.5973C64.974 66.4979 65.0231 66.447 65.125 66.447V66.4439Z" fill="white"/>
</svg>
