<svg width="30" height="30" viewBox="0 0 30 30" fill="none" xmlns="http://www.w3.org/2000/svg">
<path d="M25.9906 11.9044C26.9781 12.892 26.9781 14.4931 25.9906 15.4806C25.0031 16.4681 23.402 16.4681 22.4144 15.4806C21.4269 14.4931 21.4269 12.8919 22.4144 11.9044C23.402 10.9169 25.0031 10.9169 25.9906 11.9044" stroke="#1D1B9D" stroke-width="1.5" stroke-linecap="round" stroke-linejoin="round"/>
<path d="M17.7533 7.39045C19.2739 8.91105 19.2739 11.3764 17.7533 12.897C16.2327 14.4176 13.7673 14.4176 12.2467 12.897C10.7261 11.3764 10.7261 8.91106 12.2467 7.39045C13.7673 5.86985 16.2326 5.86985 17.7533 7.39045" stroke="#1D1B9D" stroke-width="1.5" stroke-linecap="round" stroke-linejoin="round"/>
<path d="M7.58558 11.9044C8.57312 12.892 8.57312 14.4931 7.58558 15.4806C6.59804 16.4681 4.99693 16.4681 4.00939 15.4806C3.02185 14.4931 3.02185 12.8919 4.00939 11.9044C4.99693 10.9169 6.59804 10.9169 7.58558 11.9044" stroke="#1D1B9D" stroke-width="1.5" stroke-linecap="round" stroke-linejoin="round"/>
<path d="M28.75 23.75V22.38C28.75 20.6538 27.3513 19.255 25.625 19.255H24.6238" stroke="#1D1B9D" stroke-width="1.5" stroke-linecap="round" stroke-linejoin="round"/>
<path d="M1.25 23.75V22.38C1.25 20.6538 2.64875 19.255 4.375 19.255H5.37625" stroke="#1D1B9D" stroke-width="1.5" stroke-linecap="round" stroke-linejoin="round"/>
<path d="M21.6738 23.75V21.7487C21.6738 19.3325 19.715 17.3737 17.2988 17.3737H12.7C10.2838 17.3737 8.32501 19.3325 8.32501 21.7487V23.75" stroke="#1D1B9D" stroke-width="1.5" stroke-linecap="round" stroke-linejoin="round"/>
</svg>
