<svg width="30" height="30" viewBox="0 0 30 30" fill="none" xmlns="http://www.w3.org/2000/svg">
<path fill-rule="evenodd" clip-rule="evenodd" d="M20.0775 3.755C20.9175 2.915 22.28 2.91375 23.12 3.755V3.755C23.96 4.595 23.96 5.9575 23.12 6.7975L13.4025 16.5088C13.1675 16.7425 12.85 16.875 12.5188 16.875H10V14.3563C10 14.025 10.1313 13.7075 10.3663 13.4725L20.0775 3.755V3.755Z" stroke="#1D1B9D" stroke-width="1.5" stroke-linecap="round" stroke-linejoin="round"/>
<path d="M18.75 16.875H21.25" stroke="#1D1B9D" stroke-width="1.5" stroke-linecap="round" stroke-linejoin="round"/>
<path d="M8.75 21.875H21.25" stroke="#1D1B9D" stroke-width="1.5" stroke-linecap="round" stroke-linejoin="round"/>
<path d="M23.75 13.125V13.125C25.1313 13.125 26.25 14.2437 26.25 15.625V24.375C26.25 25.7563 25.1313 26.875 23.75 26.875H6.25C4.86875 26.875 3.75 25.7563 3.75 24.375V15.625C3.75 14.2437 4.86875 13.125 6.25 13.125V13.125" stroke="#1D1B9D" stroke-width="1.5" stroke-linecap="round" stroke-linejoin="round"/>
<path d="M17.5875 6.25L20.625 9.2875" stroke="#1D1B9D" stroke-width="1.5" stroke-linecap="round" stroke-linejoin="round"/>
<path d="M12.5825 6.9575L14.6338 4.90625C15.2263 4.31375 16.1875 4.31375 16.7813 4.90625V4.90625C17.3738 5.49875 17.3738 6.46 16.7813 7.05375L15.355 8.48" stroke="#1D1B9D" stroke-width="1.5" stroke-linecap="round" stroke-linejoin="round"/>
</svg>
